<svg viewBox="0 0 32 32" xmlns="http://www.w3.org/2000/svg">
  <path
    d="M4 18C4 17.4696 3.78929 16.9609 3.41421 16.5858C3.03914 16.2107 2.53043 16 2 16C2.53043 16 3.03914 15.7893 3.41421 15.4142C3.78929 15.0391 4 14.5304 4 14V6H8V2H4C3.46957 2 2.96086 2.21071 2.58579 2.58579C2.21071 2.96086 2 3.46957 2 4V14H0V18H1.5C1.63261 18 1.75979 18.0527 1.85355 18.1464C1.94732 18.2402 2 18.3674 2 18.5V28C2 28.5304 2.21071 29.0391 2.58579 29.4142C2.96086 29.7893 3.46957 30 4 30H8V26H4V18Z"
    fill="#F44336"
  />
  <path
    d="M28 14C28 14.5304 28.2107 15.0391 28.5858 15.4142C28.9609 15.7893 29.4696 16 30 16C29.4696 16 28.9609 16.2107 28.5858 16.5858C28.2107 16.9609 28 17.4696 28 18V26H24V30H28C28.5304 30 29.0391 29.7893 29.4142 29.4142C29.7893 29.0391 30 28.5304 30 28V18H32V14H30.5C30.3674 14 30.2402 13.9473 30.1464 13.8536C30.0527 13.7598 30 13.6326 30 13.5V4C30 3.46957 29.7893 2.96086 29.4142 2.58579C29.0391 2.21071 28.5304 2 28 2H24V6H28V14Z"
    fill="#F44336"
  />
  <path d="M14 10H10V12H14V10Z" fill="#F44336" />
  <path d="M14 16H10V12H8V22H10V18H14V22H16V12H14V16Z" fill="#F44336" />
  <path
    d="M24 12V10H18.5C18.3674 10 18.2402 10.0527 18.1464 10.1464C18.0527 10.2402 18 10.3674 18 10.5V15.5C18 15.6326 18.0527 15.7598 18.1464 15.8536C18.2402 15.9473 18.3674 16 18.5 16H22V20H18V22H23.5C23.6326 22 23.7598 21.9473 23.8536 21.8536C23.9473 21.7598 24 21.6326 24 21.5V14.5C24 14.3674 23.9473 14.2402 23.8536 14.1464C23.7598 14.0527 23.6326 14 23.5 14H20V12H24Z"
    fill="#F44336"
  />
</svg>
