<svg viewBox="0 0 32 32" xmlns="http://www.w3.org/2000/svg">
  <path
    d="M4 5V27C4 27.2652 4.10536 27.5196 4.29289 27.7071C4.48043 27.8946 4.73478 28 5 28H27C27.2652 28 27.5196 27.8946 27.7071 27.7071C27.8946 27.5196 28 27.2652 28 27V5C28 4.73478 27.8946 4.48043 27.7071 4.29289C27.5196 4.10536 27.2652 4 27 4H5C4.73478 4 4.48043 4.10536 4.29289 4.29289C4.10536 4.48043 4 4.73478 4 5ZM24 12C21.074 12 19.79 12.722 18.988 14H22V18H17.418C16.34 20.857 14.393 24 8 24V20C12.559 20 13.14 18.256 14.103 15.368C15.139 12.258 16.559 8 24 8V12Z"
    fill="#E53935"
  />
</svg>
