<svg viewBox="0 0 32 32" xmlns="http://www.w3.org/2000/svg">
  <path
    d="M13.5237 15.5237C13.8272 15.2203 13.9984 14.8092 14 14.38V13.62C13.9984 13.1908 13.8272 12.7797 13.5238 12.4762C13.2203 12.1728 12.8092 12.0016 12.38 12H9.99V16H12.38C12.8092 15.9984 13.2203 15.8272 13.5237 15.5237Z"
    fill="#37474F"
  />
  <path
    d="M26 2H6C3.79086 2 2 3.79086 2 6V26C2 28.2091 3.79086 30 6 30H26C28.2091 30 30 28.2091 30 26V6C30 3.79086 28.2091 2 26 2ZM23.7444 14.7163C23.4119 14.5263 23.0522 14.3885 22.6778 14.3077C22.2704 14.2077 21.8528 14.1553 21.4333 14.1514C21.208 14.1431 20.9829 14.1715 20.7667 14.2356C20.6254 14.2688 20.5022 14.3548 20.4222 14.4759C20.3657 14.5749 20.3351 14.6865 20.3333 14.8005C20.338 14.9134 20.3768 15.0224 20.4445 15.113C20.5478 15.2449 20.6762 15.3552 20.8222 15.4375C21.0778 15.5817 21.3444 15.7139 21.6111 15.8341C22.2155 16.0548 22.7903 16.3495 23.3222 16.7115C23.6929 16.9662 23.9945 17.309 24.2 17.7091C24.3794 18.0966 24.4669 18.5202 24.4556 18.9471C24.4659 19.5103 24.3156 20.0648 24.0222 20.5456C23.722 21.0171 23.289 21.3893 22.7778 21.6154C22.1433 21.8882 21.457 22.0194 20.7667 22C20.2588 22.0021 19.7522 21.9497 19.2556 21.8437C18.8615 21.7697 18.4799 21.6402 18.1222 21.4591C18.0822 21.4367 18.0494 21.4033 18.0277 21.3628C18.006 21.3223 17.9964 21.2765 18 21.2307V19.1394C17.9989 19.1192 18.0023 19.099 18.0099 19.0802C18.0176 19.0615 18.0294 19.0448 18.0444 19.0312C18.0778 19.0072 18.1111 19.0192 18.1444 19.0432C18.568 19.3143 19.0336 19.5133 19.5222 19.6321C19.9488 19.7524 20.3901 19.8131 20.8333 19.8124C21.1498 19.831 21.466 19.7732 21.7556 19.6442C21.8472 19.5958 21.9237 19.5231 21.9767 19.434C22.0296 19.3449 22.0569 19.243 22.0556 19.1394C22.049 19.0446 22.0217 18.9524 21.9757 18.8693C21.9296 18.7863 21.8658 18.7143 21.7889 18.6586C21.4529 18.4223 21.0867 18.2323 20.7 18.0937C20.1371 17.8784 19.6063 17.5873 19.1222 17.2283C18.7691 16.9539 18.4808 16.6051 18.2778 16.2067C18.0996 15.8231 18.0122 15.4036 18.0222 14.9807C18.0228 14.4718 18.1528 13.9713 18.4 13.5264C18.6733 13.0524 19.0787 12.6682 19.5667 12.4207C20.1762 12.1166 20.8528 11.9719 21.5333 12C21.9947 12.0002 22.4554 12.0363 22.9111 12.1082C23.2407 12.1566 23.5621 12.2496 23.8667 12.3846C23.8914 12.3944 23.914 12.409 23.9331 12.4276C23.9521 12.4461 23.9673 12.4683 23.9778 12.4928C23.9906 12.5399 23.998 12.5882 24 12.637V14.5961C24.0004 14.619 23.9956 14.6418 23.986 14.6626C23.9764 14.6834 23.9622 14.7018 23.9444 14.7163C23.8801 14.7414 23.8088 14.7414 23.7444 14.7163ZM9.99 10H12.38C12.8554 9.99988 13.3262 10.0934 13.7655 10.2753C14.2047 10.4572 14.6038 10.7238 14.94 11.06C15.2762 11.3962 15.5428 11.7953 15.7247 12.2345C15.9066 12.6738 16.0001 13.1446 16 13.62V14.38C16.0001 14.8554 15.9066 15.3262 15.7247 15.7655C15.5428 16.2047 15.2762 16.6038 14.94 16.94C14.6038 17.2762 14.2047 17.5428 13.7655 17.7247C13.3262 17.9066 12.8554 18.0001 12.38 18H9.99V21.97H7.99V9.97H9.99V10Z"
    fill="#37474F"
  />
</svg>
