<svg viewBox="0 0 32 32" xmlns="http://www.w3.org/2000/svg">
  <path
    d="M13.44 13.16L11.64 18H15.34L14.95 17L13.47 13.24L13.45 13.2L13.44 13.16Z"
    fill="#5D4037"
  />
  <path
    d="M6 2H26C28.2091 2 30 3.79086 30 6V26C30 28.2091 28.2091 30 26 30H6C3.79086 30 2 28.2091 2 26V6C2 3.79086 3.79086 2 6 2ZM20.6177 9.93313C20.7356 9.97913 20.8615 10.0013 20.988 9.9985C21.1174 10.0063 21.247 9.98647 21.3682 9.94025C21.4893 9.89404 21.5992 9.82253 21.6905 9.73048C21.8617 9.54116 21.9578 9.29578 21.9606 9.04055C21.9635 8.78533 21.8729 8.53786 21.706 8.34478C21.614 8.2536 21.504 8.18265 21.383 8.13649C21.2621 8.09034 21.1328 8.07 21.0034 8.07678C20.7485 8.07462 20.5025 8.17058 20.3164 8.34478C20.2245 8.43224 20.1522 8.5382 20.1043 8.65566C20.0564 8.77311 20.0339 8.89939 20.0384 9.02616C20.0299 9.28632 20.1242 9.53937 20.3009 9.7305C20.3921 9.81827 20.4998 9.88714 20.6177 9.93313ZM22 12H20V22H22V12ZM14.36 10H12.28C12.25 10.005 12.223 10.0212 12.2044 10.0453C12.1859 10.0695 12.1772 10.0997 12.18 10.13C12.1803 10.3779 12.1602 10.6254 12.12 10.87C12.0922 10.9423 12.0706 11.0145 12.05 11.0833C12.0336 11.1383 12.0178 11.1911 12 11.24L11.73 12.02L8 22H10.14L10.89 20H16.13L16.92 22H19.08L14.37 10.02L14.36 10Z"
    fill="#5D4037"
  />
</svg>
