<svg viewBox="0 0 16 16" fill="none" xmlns="http://www.w3.org/2000/svg">
  <path
    d="M6.75177 1.15841C2.23427 1.95949 -0.271334 6.94269 1.7579 11.0901C4.2947 16.2746 11.8046 16.2319 14.2693 11.0195C16.6897 5.90103 12.3213 0.170931 6.75177 1.15865M7.33901 3.49365C9.91468 4.01082 12.5718 4.81662 12.6654 5.10909C12.9244 5.91725 12.9208 9.95774 12.6606 10.4499C12.5952 10.5735 11.4522 10.4374 10.5801 10.2021L10.23 10.1077L10.2285 9.67143C10.2243 8.36256 10.0912 7.12367 9.93839 6.97058C9.76296 6.79484 8.62738 6.42636 6.88719 5.98053L5.78045 5.69696L5.76586 5.42978C5.73306 4.83045 5.88283 3.48021 5.99794 3.33716C6.06128 3.25846 6.31319 3.28788 7.3389 3.49383M4.02771 5.39099C4.52828 5.4567 5.11111 5.56947 5.51977 5.6797L5.69846 5.7279L5.7289 6.71229C5.78586 8.556 5.84501 8.84166 6.20259 9.00142C6.65091 9.20167 8.28581 9.68098 9.82353 10.063L10.1623 10.1471L10.1525 10.7998C10.1413 11.5351 10.0703 12.1934 9.97778 12.4174L9.91568 12.5679L9.65503 12.5375C8.67918 12.4237 5.48042 11.6408 4.08807 11.1747C3.47701 10.9702 3.32908 10.8911 3.27665 10.7405C3.04652 10.0791 3.04752 5.83453 3.27794 5.40318C3.33133 5.30323 3.35751 5.30281 4.02792 5.39082"
    fill="#00BCD4"
  />
</svg>
