<svg viewBox="0 0 16 16" xmlns="http://www.w3.org/2000/svg">
  <path
    d="M6.75177 1.15841C2.23427 1.95949 -0.271327 6.94269 1.75791 11.0901C4.29471 16.2746 11.8046 16.2319 14.2693 11.0195C16.6897 5.90103 12.3213 0.170691 6.75177 1.15841ZM7.33901 3.49365C9.91468 4.01082 12.5718 4.81662 12.6654 5.10909C12.9245 5.91725 12.9208 9.95774 12.6606 10.4499C12.5952 10.5735 11.4522 10.4374 10.5801 10.2021L10.23 10.1077L10.2285 9.67143C10.2243 8.36256 10.0912 7.12367 9.9384 6.97058C9.76297 6.79485 8.62739 6.42636 6.88719 5.98053L5.78046 5.69696L5.76586 5.42978C5.73306 4.83045 5.88284 3.48021 5.99794 3.33716C6.06129 3.25846 6.3133 3.2877 7.33901 3.49365ZM4.02772 5.39099C4.52828 5.4567 5.11112 5.56947 5.51977 5.6797L5.69846 5.7279L5.7289 6.71229C5.78587 8.556 5.84501 8.84166 6.2026 9.00142C6.65092 9.20167 8.28582 9.68098 9.82354 10.063L10.1623 10.1471L10.1525 10.7998C10.1414 11.5351 10.0703 12.1934 9.97778 12.4174L9.91569 12.5679L9.65504 12.5375C8.67918 12.4237 5.48042 11.6408 4.08808 11.1747C3.47702 10.9702 3.32908 10.8911 3.27666 10.7405C3.04652 10.0791 3.04753 5.83453 3.27794 5.40318C3.33134 5.30323 3.35731 5.30298 4.02772 5.39099Z"
    fill="#00BCD4"
  />
</svg>
