<svg viewBox="0 0 48 48" xmlns="http://www.w3.org/2000/svg">
  <path
    d="M38.2662 36.2064C22.6196 43.6528 12.9091 37.4226 6.69318 33.6385C6.30854 33.4 5.65478 33.6942 6.222 34.3458C8.29285 36.8567 15.0795 42.9088 23.938 42.9088C32.8026 42.9088 38.0762 38.0719 38.7359 37.2281C39.3911 36.3915 38.9283 35.93 38.266 36.2064H38.2662ZM42.6605 33.7796C42.2403 33.2324 40.1055 33.1304 38.7621 33.2955C37.4165 33.4557 35.3968 34.2781 35.5724 34.7719C35.6625 34.9568 35.8464 34.8739 36.7707 34.7908C37.6976 34.6983 40.2942 34.3706 40.8353 35.0779C41.3789 35.7901 40.0071 39.1827 39.7566 39.7298C39.5145 40.277 39.8491 40.4181 40.3037 40.0537C40.7522 39.6894 41.564 38.746 42.1087 37.411C42.6498 36.0687 42.9799 34.1962 42.6605 33.7796Z"
    fill="#FF9900"
  />
  <path
    d="M27.7456 21.0119V19.9256C24.1198 19.9256 20.2898 20.7015 20.2898 24.9761C20.2898 27.1415 21.4113 28.6087 23.337 28.6087C24.7477 28.6087 26.0103 27.7411 26.8074 26.3303C27.7949 24.5952 27.7456 22.9657 27.7456 21.0119ZM32.803 33.236C32.4715 33.5322 31.9918 33.5534 31.618 33.3558C29.9534 31.9734 29.657 31.3315 28.7401 30.0124C25.9892 32.8198 24.0423 33.6591 20.4732 33.6591C16.2551 33.6591 12.968 31.0563 12.968 25.8436C12.968 21.7738 15.176 19.0016 18.3147 17.6474C21.0375 16.4481 24.8394 16.2365 27.7456 15.9051V15.2561C27.7456 14.064 27.8372 12.6533 27.139 11.6235C26.5252 10.6994 25.3543 10.3185 24.3244 10.3185C22.4129 10.3185 20.7059 11.2989 20.2898 13.3304C20.205 13.7819 19.8736 14.2263 19.4222 14.2475L14.5551 13.7256C14.146 13.6337 13.6946 13.3023 13.8075 12.6744C14.929 6.77765 20.2544 5 25.0226 5C27.4632 5 30.6514 5.649 32.5772 7.49712C35.0178 9.77538 34.785 12.8155 34.785 16.1237V23.9392C34.785 26.2881 35.7584 27.3178 36.6753 28.5876C36.9997 29.039 37.0704 29.5823 36.6612 29.9207C35.6384 30.7741 33.8185 32.3613 32.817 33.2501L32.8029 33.236"
    fill="#FF9900"
  />
</svg>
