<svg viewBox="0 0 32 32" xmlns="http://www.w3.org/2000/svg">
  <path
    d="M6 14C6 12.8954 5.10457 12 4 12C2.89543 12 2 12.8954 2 14V20C2 21.1046 2.89543 22 4 22C5.10457 22 6 21.1046 6 20V14Z"
    fill="#8BC34A"
  />
  <path
    d="M30 14C30 12.8954 29.1046 12 28 12C26.8954 12 26 12.8954 26 14V20C26 21.1046 26.8954 22 28 22C29.1046 22 30 21.1046 30 20V14Z"
    fill="#8BC34A"
  />
  <path d="M24 12H8V24H24V12Z" fill="#8BC34A" />
  <path
    d="M10 24H14V28C14 28.5304 13.7893 29.0391 13.4142 29.4142C13.0391 29.7893 12.5304 30 12 30C11.4696 30 10.9609 29.7893 10.5858 29.4142C10.2107 29.0391 10 28.5304 10 28V24Z"
    fill="#8BC34A"
  />
  <path
    d="M18 24H22V28C22 28.5304 21.7893 29.0391 21.4142 29.4142C21.0391 29.7893 20.5304 30 20 30C19.4696 30 18.9609 29.7893 18.5858 29.4142C18.2107 29.0391 18 28.5304 18 28V24Z"
    fill="#8BC34A"
  />
  <path
    d="M21.545 4.24146L23.6651 2.12134C23.8526 1.9338 23.958 1.67944 23.958 1.41422C23.958 1.14899 23.8526 0.894631 23.6651 0.70709C23.4776 0.519549 23.2232 0.414189 22.958 0.414189C22.6928 0.414189 22.4384 0.519549 22.2508 0.70709L19.9247 3.03326C18.7275 2.35596 17.3755 2 16 2C14.6245 2 13.2725 2.35596 12.0753 3.03326L9.74915 0.70709C9.56161 0.519549 9.30725 0.414189 9.04202 0.414189C8.7768 0.414189 8.52244 0.519549 8.3349 0.70709C8.14736 0.894631 8.042 1.14899 8.042 1.41422C8.042 1.67944 8.14736 1.9338 8.3349 2.12134L10.455 4.24146C9.67833 4.98594 9.06042 5.87995 8.6385 6.86963C8.21658 7.8593 7.99938 8.92414 8 10H24C24.0006 8.92414 23.7834 7.8593 23.3615 6.86963C22.9396 5.87995 22.3217 4.98594 21.545 4.24146ZM14 8H12V6H14V8ZM20 8H18V6H20V8Z"
    fill="#8BC34A"
  />
</svg>
