<svg viewBox="0 0 24 24" xmlns="http://www.w3.org/2000/svg">
  <path
    d="M14.847 5.357H13.897V4.407H14.847M10.101 5.357H9.152V4.407H10.102M15.35 2.662L16.593 1.418C16.6799 1.32733 16.7284 1.20659 16.7284 1.081C16.7284 0.955406 16.6799 0.834667 16.593 0.744C16.5023 0.65709 16.3816 0.608568 16.256 0.608568C16.1304 0.608568 16.0097 0.65709 15.919 0.744L14.515 2.15C13.7321 1.76479 12.8716 1.56334 11.999 1.561C11.1226 1.56116 10.2583 1.76593 9.475 2.159L8.06 0.744C7.97109 0.657204 7.85175 0.608617 7.7275 0.608617C7.60324 0.608617 7.48391 0.657204 7.395 0.744C7.34994 0.787802 7.31413 0.840194 7.28967 0.898077C7.26521 0.955961 7.25261 1.01816 7.25261 1.081C7.25261 1.14384 7.26521 1.20604 7.28967 1.26392C7.31413 1.32181 7.34994 1.3742 7.395 1.418L8.64 2.662C7.225 3.706 6.305 5.357 6.305 7.255H17.695C17.695 5.357 16.745 3.696 15.35 2.662ZM20.068 8.205C19.6905 8.205 19.3285 8.35489 19.0614 8.62173C18.7944 8.88856 18.6443 9.25051 18.644 9.628V16.272C18.644 16.6497 18.794 17.0119 19.0611 17.2789C19.3281 17.546 19.6903 17.696 20.068 17.696C20.4455 17.6957 20.8074 17.5456 21.0743 17.2786C21.3411 17.0115 21.491 16.6495 21.491 16.272V9.628C21.4907 9.25068 21.3407 8.88889 21.0739 8.62208C20.8071 8.35527 20.4453 8.20527 20.068 8.205ZM3.932 8.205C3.5545 8.205 3.19246 8.35489 2.92543 8.62173C2.65841 8.88856 2.50826 9.25051 2.508 9.628V16.272C2.508 16.6497 2.65803 17.0119 2.92508 17.2789C3.19213 17.546 3.55433 17.696 3.932 17.696C4.30949 17.6957 4.67144 17.5456 4.93827 17.2786C5.20511 17.0115 5.355 16.6495 5.355 16.272V9.628C5.35473 9.25068 5.20473 8.88889 4.93792 8.62208C4.67111 8.35527 4.30932 8.20527 3.932 8.205ZM6.304 17.696C6.304 17.948 6.40409 18.1896 6.58225 18.3678C6.76041 18.5459 7.00204 18.646 7.254 18.646H8.203V21.967C8.203 22.3445 8.35289 22.7065 8.61973 22.9736C8.88656 23.2406 9.2485 23.3907 9.626 23.391C10.0037 23.391 10.3659 23.241 10.6329 22.9739C10.9 22.7069 11.05 22.3447 11.05 21.967V18.645H12.948V21.967C12.948 22.3447 13.098 22.7069 13.3651 22.9739C13.6321 23.241 13.9943 23.391 14.372 23.391C14.7497 23.391 15.1119 23.241 15.3789 22.9739C15.646 22.7069 15.796 22.3447 15.796 21.967V18.645H16.745C16.9968 18.645 17.2383 18.545 17.4164 18.3671C17.5945 18.1892 17.6947 17.9478 17.695 17.696V8.205H6.304V17.696Z"
    fill="#8BC34A"
  />
</svg>
