<svg
  width="32"
  height="32"
  viewBox="0 0 32 32"
  fill="none"
  xmlns="http://www.w3.org/2000/svg"
>
  <path
    d="M16 2C12.6863 2 10 4.68629 10 7.99999C10 9.80588 10.7978 11.4254 12.0602 12.5254L9.25701 18.1319C8.85165 18.0455 8.43114 18 8.00001 18C4.68631 18 2 20.6863 2 24C2 27.3137 4.68629 30 7.99999 30C11.3137 30 14 27.3137 14 24C14 22.1941 13.2022 20.5746 11.9398 19.4746L14.743 13.8681C15.1484 13.9545 15.5689 14 16 14C16.4311 14 16.8516 13.9545 17.257 13.8681L20.0602 19.4746C18.7978 20.5746 18 22.1941 18 24C18 27.3137 20.6863 30 24 30C27.3137 30 30 27.3137 30 24C30 20.6863 27.3137 18 24 18C23.5689 18 23.1484 18.0455 22.743 18.1319L19.9398 12.5254C21.2022 11.4254 22 9.80589 22 8.00001C22 4.68631 19.3137 2 16 2Z"
    fill="#42A5F5"
  />
</svg>
