<svg
  width="33"
  height="33"
  viewBox="0 0 33 33"
  fill="none"
  xmlns="http://www.w3.org/2000/svg"
>
  <path
    d="M32.7648 14.1312C32.8582 14.2156 32.917 14.3317 32.9297 14.457C33.3031 18.2862 32.2855 22.1219 30.0628 25.2623C27.8402 28.4027 24.5612 30.6379 20.8257 31.559C17.0902 32.4801 13.148 32.0255 9.72015 30.2784C6.29235 28.5312 3.60815 25.6084 2.15862 22.0445C0.70909 18.4806 0.59113 14.514 1.82632 10.8703C3.06151 7.22658 5.56727 4.14938 8.8852 2.20164C12.2031 0.2539 16.1114 -0.434164 19.895 0.263322C20.8654 0.442204 21.8109 0.709152 22.7211 1.05788C23.472 0.39926 24.456 -6.28643e-09 25.5333 -6.28643e-09C27.8897 -6.28643e-09 29.8 1.91025 29.8 4.26667C29.8 4.86612 29.6764 5.43668 29.4532 5.95428C29.4655 5.9695 29.4778 5.98474 29.49 6H29.4332C28.7688 7.49265 27.2726 8.53334 25.5333 8.53334C23.1769 8.53334 21.2667 6.62309 21.2667 4.26667C21.2667 4.08545 21.278 3.90688 21.2999 3.7316C20.6888 3.51669 20.0606 3.34702 19.42 3.2249C17.2567 2.81248 15.0241 2.956 12.9315 3.64201C10.8388 4.32802 8.9545 5.53406 7.45519 7.14713C5.95588 8.7602 4.89062 10.7275 4.35921 12.8647C3.82781 15.0019 3.84766 17.239 4.41691 19.3664C4.98616 21.4938 6.08617 23.4419 7.61387 25.0281C9.14157 26.6143 11.0469 27.7867 13.1515 28.4355C15.256 29.0842 17.4908 29.1881 19.6464 28.7374C25.8399 27.5096 30.5533 20.9771 29.9366 14.6932C29.9322 14.6484 29.9275 14.6035 29.9227 14.5588C29.9139 14.4891 29.92 14.4183 29.9406 14.3511C29.9613 14.2839 29.9959 14.2218 30.0423 14.169C30.0886 14.1162 30.1457 14.0738 30.2096 14.0447C30.2736 14.0156 30.343 14.0003 30.4133 14H32.4239C32.5499 14 32.6713 14.0467 32.7648 14.1312Z"
    fill="#7E57C2"
  />
  <path
    d="M15 8L9 24H12L13.125 21H18.88L17.75 18H14.25L17 10.6667L22 24H25L19 8H15Z"
    fill="#7E57C2"
  />
</svg>
