<svg
  width="32"
  height="32"
  viewBox="0 0 32 32"
  fill="none"
  xmlns="http://www.w3.org/2000/svg"
>
  <path
    d="M25.4253 26.4984C24.2634 28.2343 23.0314 29.9282 21.1556 29.9561C19.2797 29.9981 18.6777 28.8502 16.5499 28.8502C14.408 28.8502 13.7501 29.9282 11.9722 29.9981C10.1383 30.0681 8.75239 28.1503 7.57647 26.4564C5.18263 22.9986 3.34875 16.629 5.81259 12.3453C6.3875 11.3104 7.22126 10.4425 8.23228 9.8266C9.24329 9.21066 10.3969 8.86779 11.5802 8.83154C13.3721 8.80354 15.08 10.0495 16.1859 10.0495C17.2778 10.0495 19.3497 8.55156 21.5196 8.77555C22.5255 8.8115 23.5094 9.08058 24.3937 9.56158C25.278 10.0426 26.0384 10.7224 26.6152 11.5474C25.7063 12.1124 24.9541 12.8971 24.4281 13.8292C23.9022 14.7613 23.6192 15.8108 23.6054 16.881C23.6105 18.087 23.9684 19.2652 24.6351 20.2702C25.3018 21.2752 26.248 22.063 27.3572 22.5366C26.9056 23.9426 26.255 25.2767 25.4253 26.4984ZM17.4318 4.09986C18.4922 2.90901 19.961 2.15962 21.5475 2C21.6106 2.80354 21.5144 3.61161 21.2646 4.37792C21.0147 5.14423 20.6162 5.85371 20.0916 6.4657C19.6055 7.09564 18.9791 7.60339 18.2621 7.9485C17.5451 8.29361 16.7575 8.46656 15.9619 8.45357C15.9079 7.66682 16.01 6.87714 16.2622 6.12997C16.5145 5.3828 16.912 4.69287 17.4318 4.09986Z"
    fill="#78909C"
  />
</svg>
