<svg
  width="32"
  height="32"
  viewBox="0 0 32 32"
  fill="none"
  xmlns="http://www.w3.org/2000/svg"
>
  <path
    d="M24.2247 23.72C24.1682 23.9404 24.0863 24.1541 23.9802 24.3566C23.7979 24.7048 23.5478 25.013 23.2447 25.2632C23.1825 25.3145 23.1183 25.3632 23.0523 25.4092C22.6563 25.6964 22.1944 25.8886 21.7024 25.9644C21.4471 26.0037 21.1901 26.0108 20.937 25.9868H6.053C5.25546 25.9976 4.48629 25.6912 3.9146 25.135C3.34292 24.5788 3.01553 23.8183 3.00443 23.0208C3.01552 22.2232 3.34291 21.4628 3.91459 20.9066C4.48628 20.3503 5.25546 20.0439 6.053 20.0547H11.832L7.17833 16.7652C6.85612 16.5422 6.58219 16.2565 6.37293 15.9252C6.16366 15.5939 6.02335 15.2238 5.96039 14.8371C5.89743 14.4503 5.91311 14.0548 6.00649 13.6743C6.09988 13.2937 6.26905 12.9359 6.50389 12.6222C6.9907 11.9829 7.70646 11.5573 8.50062 11.4349C9.29479 11.3126 10.1055 11.5029 10.7621 11.966L15.5047 15.3184L13.6898 9.88379C13.5683 9.51002 13.5227 9.11573 13.5557 8.72409C13.5887 8.33245 13.6996 7.95136 13.882 7.60319C14.0643 7.25502 14.3144 6.94679 14.6175 6.69661C14.9206 6.44644 15.2707 6.25935 15.6471 6.14635C16.4093 5.89909 17.2379 5.95991 17.9558 6.3158C18.6737 6.67168 19.2239 7.29438 19.4885 8.05068L21.2676 13.3779L23.0468 8.05029C23.3115 7.294 23.8616 6.67131 24.5795 6.31543C25.2974 5.95955 26.1261 5.89874 26.8882 6.146C27.2647 6.259 27.6147 6.44609 27.9178 6.69626C28.221 6.94644 28.471 7.25466 28.6534 7.60283C28.8357 7.95101 28.9466 8.3321 28.9796 8.72374C29.0126 9.11538 28.967 9.50967 28.8455 9.88344L24.2247 23.72Z"
    fill="#448AFF"
  />
</svg>
