<svg viewBox="0 0 24 24" xmlns="http://www.w3.org/2000/svg">
  <path
    d="M15.9505 9.9781L17.2849 5.87127C17.6751 4.67032 18.965 4.01308 20.166 4.40329C21.3669 4.79351 22.0242 6.08341 21.6339 7.28436L18.1813 17.9105C18.0859 18.3165 17.8808 18.6911 17.5882 18.9902C17.0943 19.5154 16.3938 19.7629 15.707 19.698H4.53936C3.2766 19.698 2.25293 18.6743 2.25293 17.4116C2.25293 16.1488 3.2766 15.1251 4.53936 15.1251H8.87368L5.38348 12.5894C4.36188 11.8471 4.13541 10.4173 4.87765 9.39568C5.61988 8.37408 7.04974 8.14761 8.07134 8.88984L11.6284 11.4742L10.2672 7.28466C9.87695 6.08371 10.5342 4.79381 11.7351 4.40359C12.9361 4.01338 14.226 4.67062 14.6162 5.87157L15.9505 9.9781Z"
    fill="#448AFF"
  />
</svg>
