<svg viewBox="0 0 256 256" fill="none" xmlns="http://www.w3.org/2000/svg">
  <path
    d="M127.646 17.356C189.234 17.356 238.645 66.77 238.645 127.646C238.693 142.236 235.854 156.691 230.293 170.18C224.732 183.668 216.557 195.924 206.24 206.24C195.924 216.557 183.668 224.731 170.18 230.293C156.691 235.854 142.236 238.693 127.646 238.645C66.773 238.645 17.356 189.231 17.356 127.646C17.356 66.773 66.77 17.356 127.646 17.356ZM154.859 149.126L154.86 149.127C167.75 134.088 165.602 111.887 150.563 99.713C135.523 88.254 113.323 91.119 100.432 106.158C88.258 121.912 90.406 144.113 105.445 155.572C120.484 167.746 142.685 164.882 154.859 149.126ZM96.136 221.457C102.582 224.321 116.905 226.47 124.066 226.47L172.765 157.004C188.519 133.372 184.222 101.861 162.738 84.674C143.402 69.634 116.188 70.351 96.136 84.674L29.534 136.952C30.967 154.14 35.98 163.45 35.98 163.45L73.935 121.912C71.787 139.816 78.232 159.152 93.271 170.611C106.161 181.353 122.632 184.217 138.388 180.637L96.136 221.457Z"
    fill="#00B3E0"
  />
</svg>
