<svg width="222" height="222" viewBox="0 0 222 222" fill="none" xmlns="http://www.w3.org/2000/svg">
<path d="M110.646 0.356003C172.234 0.356003 221.645 49.77 221.645 110.646C221.693 125.236 218.854 139.691 213.293 153.18C207.731 166.668 199.557 178.924 189.24 189.24C178.924 199.557 166.668 207.731 153.18 213.293C139.691 218.854 125.236 221.693 110.646 221.645C49.773 221.645 0.356003 172.231 0.356003 110.646C0.356003 49.773 49.77 0.356003 110.646 0.356003ZM137.859 132.126C125.685 147.882 103.484 150.746 88.445 138.572C73.406 127.113 71.258 104.912 83.432 89.158C96.323 74.119 118.523 71.254 133.563 82.713C148.602 94.887 150.75 117.088 137.86 132.127L137.859 132.126ZM79.136 204.457C85.582 207.321 99.905 209.47 107.066 209.47L155.765 140.004C171.519 116.372 167.222 84.861 145.738 67.674C126.402 52.634 99.188 53.351 79.136 67.674L12.534 119.952C13.967 137.14 18.98 146.45 18.98 146.45L56.935 104.912C54.787 122.816 61.232 142.152 76.271 153.611C89.161 164.353 105.632 167.217 121.388 163.637L79.136 204.457Z" fill="#00B3E0"/>
</svg>
