<svg width="721" height="720" viewBox="0 0 721 720" fill="none" xmlns="http://www.w3.org/2000/svg">
<path d="M52.543 249.813C85.4465 218.163 129.834 200.577 175.885 200.577C268.973 200.577 321.566 255.313 360.33 312.154C399.093 255.313 451.686 200.577 544.775 200.577C590.826 200.577 635.213 218.163 668.117 249.813C701.06 281.501 719.793 324.733 719.793 370.067C719.793 415.402 701.06 458.634 668.117 490.322C635.402 521.79 591.335 539.355 545.568 539.556C489.591 542.3 447.893 522.558 414.989 492.227C393.75 472.65 376.09 448.508 360.33 424.257C344.569 448.508 326.91 472.65 305.671 492.227C272.767 522.558 231.068 542.3 175.092 539.556C129.325 539.355 85.2577 521.79 52.543 490.322C19.6 458.634 0.866882 415.402 0.866882 370.067C0.866882 324.733 19.6 281.501 52.543 249.813ZM325.147 367.836C285.716 305.513 248.587 260.397 175.885 260.397C144.966 260.397 115.536 272.223 94.013 292.926C72.5299 313.59 60.6869 341.364 60.6869 370.067C60.6869 398.771 72.5299 426.545 94.013 447.209C115.536 467.912 144.966 479.737 175.885 479.737H176.671L177.457 479.779C215.803 481.797 242.414 469.179 265.127 448.243C287.198 427.898 305.217 400.136 325.147 367.836ZM395.512 367.836C415.442 400.136 433.461 427.898 455.533 448.243C478.245 469.179 504.857 481.797 543.203 479.779L543.988 479.737H544.775C575.694 479.737 605.124 467.912 626.647 447.209C648.13 426.545 659.973 398.771 659.973 370.067C659.973 341.364 648.13 313.59 626.647 292.926C605.124 272.223 575.694 260.397 544.775 260.397C472.073 260.397 434.944 305.513 395.512 367.836Z" fill="#00979C"/>
<path d="M518.853 316.229H552.651V348.632H585.054V382.231H552.651V414.932H518.853V382.231H486.45V348.632H518.853V316.229Z" fill="#00979C"/>
<path d="M125.007 347.975H231.416V382.588H125.007V347.975Z" fill="#00979C"/>
</svg>
