<svg width="719" height="340" viewBox="0 0 719 340" fill="none" xmlns="http://www.w3.org/2000/svg">
<path d="M51.543 49.8133C84.4465 18.1633 128.834 0.577454 174.885 0.577454C267.973 0.577454 320.566 55.3127 359.33 112.154C398.093 55.3127 450.686 0.577454 543.775 0.577454C589.826 0.577454 634.213 18.1633 667.117 49.8133C700.06 81.5013 718.793 124.733 718.793 170.067C718.793 215.402 700.06 258.634 667.117 290.322C634.402 321.79 590.335 339.355 544.568 339.556C488.591 342.3 446.893 322.558 413.989 292.227C392.75 272.65 375.09 248.508 359.33 224.257C343.569 248.508 325.91 272.65 304.671 292.227C271.767 322.558 230.068 342.3 174.092 339.556C128.325 339.355 84.2577 321.79 51.543 290.322C18.6 258.634 -0.133118 215.402 -0.133118 170.067C-0.133118 124.733 18.6 81.5013 51.543 49.8133ZM324.147 167.836C284.716 105.513 247.587 60.3975 174.885 60.3975C143.966 60.3975 114.536 72.223 93.013 92.9257C71.5299 113.59 59.6869 141.364 59.6869 170.067C59.6869 198.771 71.53 226.545 93.013 247.209C114.536 267.912 143.966 279.737 174.885 279.737H175.671L176.457 279.779C214.803 281.797 241.414 269.179 264.127 248.243C286.198 227.898 304.217 200.136 324.147 167.836ZM394.512 167.836C414.442 200.136 432.461 227.898 454.533 248.243C477.245 269.179 503.857 281.797 542.203 279.779L542.988 279.737H543.775C574.694 279.737 604.124 267.912 625.647 247.209C647.13 226.545 658.973 198.771 658.973 170.067C658.973 141.364 647.13 113.59 625.647 92.9257C604.124 72.223 574.694 60.3975 543.775 60.3975C471.073 60.3975 433.944 105.513 394.512 167.836ZM517.853 116.229H527.823H541.681H551.651V126.199V148.632H574.084H584.054V158.602V172.261V182.231H574.084H551.651V204.962V214.932H541.681H527.823H517.853V204.962V182.231H495.42H485.45V172.261V158.602V148.632H495.42H517.853V126.199V116.229ZM124.007 147.975H135.763H218.661H230.416V159.731V170.833V182.588H218.661H135.763H124.007V170.833V159.731V147.975Z" fill="#00979C"/>
</svg>
