<svg
  width="32"
  height="32"
  viewBox="0 0 32 32"
  fill="none"
  xmlns="http://www.w3.org/2000/svg"
>
  <path
    d="M21.3125 5.04985C22.7783 4.35827 24.3792 3.99975 26 4H30V6H26C23.9447 5.99902 21.9517 6.70521 20.3556 8H17.5214C18.5519 6.74891 19.8466 5.74142 21.3125 5.04985Z"
    fill="#00979C"
  />
  <path
    d="M2 6H6C8.38695 6 10.6761 6.94821 12.364 8.63604C14.0518 10.3239 15 12.6131 15 15C15 17.9174 16.1589 20.7153 18.2218 22.7782C20.2847 24.8411 23.0826 26 26 26H30V24H26C23.6131 24 21.3239 23.0518 19.636 21.364C17.9482 19.6761 17 17.3869 17 15C17 12.0826 15.8411 9.28473 13.7782 7.22183C11.7153 5.15893 8.91738 4 6 4H2V6Z"
    fill="#00979C"
  />
  <path d="M24 10H26V14H30V16H26V20H24V16H20V14H24V10Z" fill="#00979C" />
  <path d="M12 14H2V16H12V14Z" fill="#00979C" />
  <path
    d="M11.6442 22C10.0481 23.2947 8.05518 24.0009 6 24H2V26H6C7.62084 26.0003 9.22165 25.6417 10.6876 24.9502C12.1534 24.2586 13.4481 23.2511 14.4786 22H11.6442Z"
    fill="#00979C"
  />
</svg>
