<svg
  width="32"
  height="32"
  viewBox="0 0 32 32"
  fill="none"
  xmlns="http://www.w3.org/2000/svg"
>
  <path d="M4 18V8L9.39036 18H4Z" fill="#0097A7" />
  <path
    d="M4 22V25.6693C4 25.9754 4.06028 26.2784 4.17741 26.5612C4.29454 26.844 4.46622 27.1009 4.68264 27.3174C4.89907 27.5338 5.156 27.7055 5.43878 27.8226C5.72155 27.9397 6.02463 28 6.3307 28H15.2306L11.7343 22H4Z"
    fill="#0097A7"
  />
  <path
    d="M16.444 22L19.6214 27.4439C22.5055 26.5616 24.946 24.6154 26.4482 22H16.444Z"
    fill="#0097A7"
  />
  <path
    d="M27.8626 18C27.9543 17.3373 28.0002 16.669 28 16C28 12.8174 26.7357 9.76515 24.4853 7.51472C22.2348 5.26428 19.1826 4 16 4L6 3.99474C5.94695 3.99474 5.89432 3.99649 5.84213 4L14 18H27.8626Z"
    fill="#0097A7"
  />
</svg>
