<svg viewBox="0 0 24 24" xmlns="http://www.w3.org/2000/svg">
  <path
    d="M13.158 2.24051C13.029 2.23974 12.901 2.2649 12.7818 2.31449C12.599 2.3898 12.4438 2.5197 12.3375 2.68646C12.295 2.74581 12.2585 2.81086 12.2292 2.88137L8.5961 11.6619H5.09265C4.5585 11.6619 4.12836 12.0921 4.12836 12.6262C4.12808 12.7529 4.15283 12.8784 4.20119 12.9956C4.24955 13.1127 4.32057 13.2191 4.41017 13.3087C4.49977 13.3983 4.60618 13.4693 4.7233 13.5177C4.84042 13.566 4.96594 13.5908 5.09265 13.5905H7.79819L7.79771 13.5915H9.88484L9.88532 13.5904H11.9739C12.508 13.5904 12.9381 13.1604 12.9381 12.6262C12.9381 12.0921 12.5081 11.6619 11.9738 11.6619H10.6831L13.1447 5.71313L19.5197 21.1196C19.5679 21.2368 19.6387 21.3433 19.7282 21.433C19.8176 21.5227 19.9239 21.5939 20.041 21.6424C20.158 21.691 20.2835 21.7159 20.4102 21.7158C20.5369 21.7157 20.6624 21.6906 20.7793 21.6419C20.8965 21.5937 21.003 21.5228 21.0927 21.4334C21.1824 21.3439 21.2536 21.2376 21.3021 21.1206C21.3506 21.0035 21.3756 20.878 21.3755 20.7513C21.3754 20.6246 21.3502 20.4992 21.3015 20.3822L14.0415 2.83687C13.9694 2.6615 13.8471 2.51135 13.6899 2.40526C13.5327 2.29918 13.3477 2.24189 13.1581 2.24059L13.158 2.24051ZM3.58947 15.2987C3.46276 15.2984 3.33725 15.3232 3.22014 15.3716C3.10303 15.4199 2.99663 15.4909 2.90704 15.5805C2.81745 15.6701 2.74643 15.7766 2.69808 15.8937C2.64972 16.0108 2.62498 16.1363 2.62526 16.263C2.62526 16.7972 3.05524 17.2273 3.58947 17.2273H6.29343L4.96935 20.4274C4.92065 20.5443 4.89554 20.6698 4.89546 20.7965C4.89537 20.9231 4.92032 21.0486 4.96886 21.1656C5.01739 21.2827 5.08857 21.3889 5.1783 21.4784C5.26803 21.5678 5.37454 21.6386 5.49172 21.6868C5.60866 21.7355 5.73408 21.7607 5.86077 21.7608C5.98745 21.7609 6.11291 21.736 6.22994 21.6874C6.34696 21.6389 6.45325 21.5678 6.5427 21.4781C6.63214 21.3883 6.70298 21.2818 6.75115 21.1647L8.38048 17.2272H10.4707C10.5974 17.2275 10.7229 17.2027 10.84 17.1544C10.9571 17.106 11.0635 17.035 11.1531 16.9454C11.2427 16.8558 11.3137 16.7494 11.3621 16.6323C11.4104 16.5151 11.4352 16.3896 11.4349 16.2629C11.4349 15.7287 11.0049 15.2986 10.4707 15.2986L3.58947 15.2987Z"
    fill="#F44336"
  />
</svg>
