<svg
  width="32"
  height="32"
  viewBox="0 0 32 32"
  fill="none"
  xmlns="http://www.w3.org/2000/svg"
>
  <path
    d="M8 6V2H4C3.46957 2 2.96086 2.21071 2.58579 2.58579C2.21071 2.96086 2 3.46957 2 4V28C2 28.5304 2.21071 29.0391 2.58579 29.4142C2.96086 29.7893 3.46957 30 4 30H8V26H4V6H8Z"
    fill="#FF6E40"
  />
  <path
    d="M24 2V6H28V26H24V30H28C28.5304 30 29.0391 29.7893 29.4142 29.4142C29.7893 29.0391 30 28.5304 30 28V4C30 3.46957 29.7893 2.96086 29.4142 2.58579C29.0391 2.21071 28.5304 2 28 2H24Z"
    fill="#FF6E40"
  />
  <path
    d="M20 6H18C17.4696 6 16.9609 6.21071 16.5858 6.58579C16.2107 6.96086 16 7.46957 16 8V12C16 12.5304 16.2107 13.0391 16.5858 13.4142C16.9609 13.7893 17.4696 14 18 14H20C20.5304 14 21.0391 13.7893 21.4142 13.4142C21.7893 13.0391 22 12.5304 22 12V8C22 7.46957 21.7893 6.96086 21.4142 6.58579C21.0391 6.21071 20.5304 6 20 6ZM18 12V8H20V12H18Z"
    fill="#FF6E40"
  />
  <path
    d="M14 18H12C11.4696 18 10.9609 18.2107 10.5858 18.5858C10.2107 18.9609 10 19.4696 10 20V24C10 24.5304 10.2107 25.0391 10.5858 25.4142C10.9609 25.7893 11.4696 26 12 26H14C14.5304 26 15.0391 25.7893 15.4142 25.4142C15.7893 25.0391 16 24.5304 16 24V20C16 19.4696 15.7893 18.9609 15.4142 18.5858C15.0391 18.2107 14.5304 18 14 18ZM12 24V20H14V24H12Z"
    fill="#FF6E40"
  />
  <path d="M12 6C12 8 12 8 10 8V10H12V14H14V6H12Z" fill="#FF6E40" />
  <path d="M20 18C20 20 20 20 18 20V22H20V26H22V18H20Z" fill="#FF6E40" />
</svg>
