<svg
  width="32"
  height="32"
  viewBox="0 0 32 32"
  fill="none"
  xmlns="http://www.w3.org/2000/svg"
>
  <path
    d="M16 2C13.2311 2 10.5243 2.82109 8.22202 4.35943C5.91973 5.89777 4.12531 8.08427 3.06569 10.6424C2.00606 13.2006 1.72881 16.0155 2.26901 18.7313C2.8092 21.447 4.14257 23.9416 6.10051 25.8995C8.05844 27.8574 10.553 29.1908 13.2687 29.731C15.9845 30.2712 18.7994 29.9939 21.3576 28.9343C23.9157 27.8747 26.1022 26.0803 27.6406 23.778C29.1789 21.4757 30 18.7689 30 16C30 12.287 28.525 8.72601 25.8995 6.1005C23.274 3.475 19.713 2 16 2ZM22 12H18V20C18 20.7911 17.7654 21.5645 17.3259 22.2223C16.8864 22.8801 16.2616 23.3928 15.5307 23.6955C14.7998 23.9983 13.9956 24.0775 13.2196 23.9231C12.4437 23.7688 11.731 23.3878 11.1716 22.8284C10.6122 22.269 10.2312 21.5563 10.0769 20.7804C9.92252 20.0044 10.0017 19.2002 10.3045 18.4693C10.6072 17.7384 11.1199 17.1136 11.7777 16.6741C12.4355 16.2346 13.2089 16 14 16C14.7041 16.0038 15.3945 16.1953 16 16.5548V8H22V12Z"
    fill="#EF5350"
  />
</svg>
