<svg viewBox="0 0 24 24" xmlns="http://www.w3.org/2000/svg">
  <path
    d="M15.0511 5.95594L13.2212 7.17682L11.3367 4.35259L13.1661 3.13123L15.0511 5.95594Z"
    fill="#B31777"
  />
  <path
    d="M19.6647 19.1256L15.9408 21.6107L12.2692 16.1096L15.9926 13.6241L19.6647 19.1256Z"
    fill="#B31777"
  />
  <path
    d="M12.5371 18.6026L9.7025 20.4937L8.46843 18.6454L11.3035 16.7538L12.5371 18.6026Z"
    fill="#B31777"
  />
  <path
    d="M18.8816 11.6954L20.1152 13.5442L18.2853 14.7651L17.0522 12.9163L18.8816 11.6954Z"
    fill="#B31777"
  />
  <path
    d="M4.6367 12.9053L2.75215 10.0806L5.58628 8.18895L7.47177 11.0132L4.6367 12.9053Z"
    fill="#B31777"
  />
  <path
    d="M12.1622 7.88365L8.43781 10.3688L4.77752 4.88373L8.5014 2.39862L12.1622 7.88365Z"
    fill="#B31777"
  />
  <path
    d="M4.20002 6.363L4.90302 7.417L3.85002 8.119L3.14702 7.066L4.20002 6.363Z"
    fill="#B31777"
  />
  <path
    d="M7.99602 18.99L8.69902 20.044L7.64502 20.747L6.94302 19.693L7.99602 18.99Z"
    fill="#B31777"
  />
  <path
    d="M5.22466 20.051L2.14105 15.3927L18.6205 4.36917L21.8539 8.95317L5.22466 20.051Z"
    fill="#B31777"
  />
</svg>
