<svg
  width="24"
  height="24"
  viewBox="0 0 24 24"
  fill="none"
  xmlns="http://www.w3.org/2000/svg"
>
  <path
    d="M16.5385 14.4408L19.6647 19.1256L15.9408 21.6107L12.8146 16.9259L12.2692 16.1096L15.9926 13.6241L16.5385 14.4408Z"
    fill="#B31777"
  />
  <path
    d="M11.8484 17.5715L12.5371 18.6026L9.70248 20.4937L8.46841 18.6454L9.0878 18.2324L11.3035 16.7538L11.8484 17.5715Z"
    fill="#B31777"
  />
  <path
    d="M18.8816 11.6954L20.1152 13.5442L18.2853 14.7651L17.0522 12.9163L18.8816 11.6954Z"
    fill="#B31777"
  />
  <path
    d="M5.25607 12.4922L4.63668 12.9053L2.75213 10.0806L5.58626 8.18895L6.90747 10.1691L7.47175 11.0132L5.25607 12.4922Z"
    fill="#B31777"
  />
  <path
    d="M11.5983 7.03911L12.1621 7.88365L8.43779 10.3688L7.87445 9.52421L4.77749 4.88372L8.50138 2.39862L11.5983 7.03911Z"
    fill="#B31777"
  />
  <path
    d="M14.2568 6.48651L13.222 7.17703L12.6577 6.33202L11.337 4.35232L13.1664 3.13096L15.0519 5.95567L14.2568 6.48651Z"
    fill="#B31777"
  />
  <path
    d="M4.2 6.363L4.903 7.417L3.85 8.119L3.147 7.066L4.2 6.363Z"
    fill="#B31777"
  />
  <path
    d="M7.996 18.99L8.699 20.044L7.645 20.747L6.943 19.693L7.996 18.99Z"
    fill="#B31777"
  />
  <path
    d="M5.22464 20.051L2.14103 15.3927L18.6205 4.36917L21.8539 8.95317L5.22464 20.051Z"
    fill="#B31777"
  />
</svg>
