<svg
  width="24"
  height="24"
  viewBox="0 0 24 24"
  fill="none"
  xmlns="http://www.w3.org/2000/svg"
>
  <path
    d="M15.787 13.71C15.512 13.71 15.2 13.71 14.869 13.757C15.967 14.553 16.734 15.604 16.734 17.024V19.391H22.414V17.024C22.414 14.818 17.994 13.71 15.787 13.71ZM8.212 13.71C6.006 13.71 1.584 14.818 1.584 17.024V19.391H14.84V17.024C14.84 14.818 10.419 13.71 8.212 13.71ZM8.212 11.816C8.58504 11.8161 8.95445 11.7428 9.29913 11.6001C9.64381 11.4574 9.95701 11.2483 10.2208 10.9845C10.4847 10.7208 10.6939 10.4077 10.8367 10.0631C10.9795 9.71842 11.053 9.34904 11.053 8.976C11.053 8.22279 10.7538 7.50042 10.2212 6.96782C9.68858 6.43521 8.96621 6.136 8.213 6.136C7.83996 6.13587 7.47055 6.20923 7.12587 6.3519C6.78119 6.49456 6.46799 6.70373 6.20417 6.96746C5.94035 7.23119 5.73106 7.54432 5.58828 7.88895C5.44549 8.23358 5.372 8.60296 5.372 8.976C5.372 9.72921 5.67121 10.4516 6.20382 10.9842C6.73642 11.5168 7.45878 11.816 8.212 11.816ZM15.787 11.816C16.5402 11.816 17.2626 11.5168 17.7952 10.9842C18.3278 10.4516 18.627 9.72921 18.627 8.976C18.627 8.22279 18.3278 7.50042 17.7952 6.96782C17.2626 6.43521 16.5402 6.136 15.787 6.136C15.0338 6.136 14.3114 6.43521 13.7788 6.96782C13.2462 7.50042 12.947 8.22279 12.947 8.976C12.947 9.72921 13.2462 10.4516 13.7788 10.9842C14.3114 11.5168 15.0338 11.816 15.787 11.816Z"
    fill="#F44336"
  />
</svg>
