<svg
  width="32"
  height="32"
  viewBox="0 0 32 32"
  fill="none"
  xmlns="http://www.w3.org/2000/svg"
>
  <path
    d="M25.3333 4H6.66669C6.31616 3.99878 5.96885 4.06692 5.64476 4.20049C5.32067 4.33407 5.02622 4.53044 4.77835 4.77831C4.53048 5.02617 4.3341 5.32062 4.20052 5.6447C4.06693 5.96879 3.99879 6.3161 4 6.66663V25.3333C4 25.6835 4.06897 26.0303 4.20299 26.3538C4.337 26.6773 4.53343 26.9713 4.78105 27.2189C5.02868 27.4666 5.32265 27.663 5.64619 27.797C5.96973 27.931 6.3165 28 6.66669 28H25.3333C25.6835 28 26.0303 27.931 26.3538 27.797C26.6773 27.663 26.9713 27.4666 27.2189 27.2189C27.4666 26.9713 27.663 26.6773 27.797 26.3538C27.931 26.0303 28 25.6835 28 25.3333V6.66663C28 5.95939 27.719 5.28112 27.2189 4.78103C26.7188 4.28094 26.0406 3.99999 25.3333 4ZM22.8379 10.2197C22.7396 10.5477 22.6848 10.8872 22.6748 11.2295C22.6748 11.4067 22.6562 11.6836 22.6172 12.0591C22.5889 12.3794 22.5762 12.6216 22.5762 12.7788C22.5762 13.3633 22.5459 14.2217 22.4854 15.3296C22.4356 16.1645 22.4059 16.9984 22.3965 17.8311C22.3965 18.2432 22.4287 18.8877 22.4942 19.7412C22.5606 20.606 22.5938 21.2754 22.5938 21.7295C22.5969 21.953 22.5536 22.1747 22.4667 22.3806C22.3798 22.5865 22.2512 22.7721 22.0889 22.9258C21.9281 23.0846 21.7365 23.2087 21.5259 23.2905C21.3152 23.3723 21.0901 23.41 20.8643 23.4014C20.411 23.3962 19.9742 23.231 19.6309 22.9351C19.4552 22.791 19.3142 22.6092 19.2183 22.4032C19.1225 22.1972 19.0742 21.9723 19.0772 21.7451C19.0772 21.3174 19.0576 20.6704 19.0166 19.8106C18.9854 19.1509 18.9668 18.4914 18.961 17.832C18.961 17.7002 18.9619 17.5747 18.9639 17.4556C18.1592 17.5205 17.1983 17.6538 16.0967 17.8535C15.082 18.0386 14.0672 18.2259 13.0523 18.4155C13.0308 18.8223 12.9938 19.3722 12.9414 20.0654C12.8897 20.7324 12.8604 21.4106 12.8545 22.083C12.8571 22.3059 12.8136 22.5269 12.7266 22.7321C12.6396 22.9373 12.5111 23.1223 12.3491 23.2754C12.0192 23.5884 11.5792 23.7587 11.1245 23.7495L11.0772 23.75C10.6444 23.7442 10.2302 23.5728 9.91994 23.271C9.75798 23.1163 9.6298 22.9298 9.5435 22.7231C9.45719 22.5165 9.41463 22.2942 9.41848 22.0703C9.41848 21.456 9.46877 20.5581 9.57277 19.3325C9.67727 18.1509 9.73049 17.2563 9.73049 16.6719C9.73049 15.9057 9.74921 14.7526 9.78664 13.2124C9.82277 11.6777 9.84051 10.5304 9.83986 9.7705C9.83713 9.5467 9.8809 9.32477 9.96839 9.11876C10.0559 8.91275 10.1852 8.72715 10.3482 8.57372C10.5094 8.41627 10.7006 8.29286 10.9105 8.21082C11.1204 8.12878 11.3446 8.08979 11.5698 8.09618C11.7927 8.09363 12.0149 8.13505 12.2218 8.21808C12.4287 8.30111 12.6171 8.42412 12.7764 8.58007C12.9364 8.73401 13.0632 8.91901 13.1491 9.12371C13.235 9.32842 13.2781 9.54851 13.2759 9.7705C13.2759 10.2285 13.2575 10.9181 13.2207 11.8393C13.1968 12.5127 13.1823 13.1873 13.1773 13.8633C13.1773 14.0161 13.1563 14.3193 13.1123 14.7676C13.1035 14.8516 13.0962 14.935 13.0903 15.019L15.9155 14.4873C16.9359 14.2988 17.966 14.1667 19.0009 14.0918C19.0254 13.5391 19.0569 12.619 19.0957 11.3315C19.1343 10.7144 19.2928 10.1107 19.5625 9.55419C19.9834 8.62792 20.5185 8.15868 21.1533 8.15868C21.5819 8.15604 21.9967 8.31046 22.3193 8.59276L22.3222 8.59476C22.5013 8.74494 22.645 8.93297 22.7427 9.1453C22.8405 9.35764 22.89 9.58901 22.8876 9.82276C22.8885 9.95669 22.8718 10.0902 22.8379 10.2197Z"
    fill="#4CAF50"
  />
</svg>
