<svg viewBox="0 0 24 24" xmlns="http://www.w3.org/2000/svg">
  <path
    d="M8.48 4.17C8.814 4.744 9.527 4.968 10.176 4.806C10.7726 4.65757 11.3852 4.58268 12 4.583C12.62 4.583 13.223 4.658 13.799 4.8C14.446 4.959 15.156 4.735 15.49 4.16C15.88 3.492 15.606 2.628 14.86 2.409C13.9311 2.13691 12.968 1.99918 12 2C10.994 2 10.023 2.146 9.106 2.419C8.363 2.639 8.091 3.502 8.479 4.169L8.48 4.17Z"
    fill="#CFD8DC"
  />
  <path
    d="M5.039 4.772C5.603 4.237 6.497 4.432 6.887 5.103C7.22 5.675 7.063 6.395 6.603 6.872C5.99318 7.50355 5.50021 8.23827 5.147 9.042C4.905 9.594 4.385 10 3.78 10C2.926 10 2.284 9.219 2.589 8.428C3.12428 7.04264 3.96118 5.79378 5.039 4.772Z"
    fill="#CFD8DC"
  />
  <path
    d="M3.197 12C3.915 12 4.517 12.583 4.641 13.286C5.254 16.769 8.316 19.416 12 19.416C15.684 19.416 18.746 16.769 19.359 13.286C19.483 12.583 20.085 12 20.803 12C21.522 12 22.082 12.581 21.99 13.289C21.353 18.203 17.123 22 12 22C6.877 22 2.647 18.203 2.01 13.289C1.918 12.58 2.478 12 3.197 12Z"
    fill="#CFD8DC"
  />
  <path
    d="M20.203 9.958C21.06 9.958 21.703 9.172 21.393 8.38C20.8522 7.00253 20.0127 5.76209 18.935 4.748C18.371 4.215 17.48 4.412 17.09 5.081C16.757 5.654 16.916 6.376 17.379 6.853C17.9884 7.47981 18.4824 8.20935 18.838 9.008C19.081 9.556 19.6 9.958 20.203 9.958Z"
    fill="#CFD8DC"
  />
  <path
    d="M7.133 9.32C6.691 8.832 7.186 8.058 7.79 8.293L12.702 10.203C13.816 10.637 14.24 12.043 13.564 13.058C13.415 13.2888 13.2148 13.4821 12.9789 13.6228C12.743 13.7635 12.4778 13.8479 12.2039 13.8694C11.9301 13.8909 11.655 13.8489 11.4 13.7466C11.1451 13.6444 10.9171 13.4847 10.734 13.28L7.133 9.32Z"
    fill="#CFD8DC"
  />
</svg>
