<svg
  width="40"
  height="40"
  viewBox="0 0 40 40"
  fill="none"
  xmlns="http://www.w3.org/2000/svg"
>
  <path
    d="M9.35589 25.1398L10.8687 23.5228L12.7471 25.4011L11.2194 26.9288L13.0707 28.78L14.5983 27.2524L16.4911 29.1452L14.9918 30.6445L19.3746 35.0264H26.2626C26.9533 35.0264 27.5138 34.4659 27.5138 33.7743V23.7633L33.9121 19.4916C34.6084 19.0264 35.0255 18.2452 35.0255 17.4082V6.22611C35.0255 5.53448 34.465 4.97401 33.7734 4.97401H22.5912C22.1792 4.97403 21.7736 5.07575 21.4103 5.27014C21.0471 5.46453 20.7374 5.74558 20.5088 6.08835L16.2365 12.4876H6.22705C5.53447 12.4876 4.974 13.048 4.974 13.7397V20.6277L9.35589 25.1398ZM27.5138 16.2439C26.5277 16.2283 25.5873 15.8256 24.8955 15.1227C24.2038 14.4199 23.816 13.4733 23.816 12.4871C23.816 11.5009 24.2038 10.5543 24.8955 9.85146C25.5873 9.14862 26.5277 8.74595 27.5138 8.73032C28.0121 8.72242 28.5071 8.81376 28.9698 8.99901C29.4325 9.18426 29.8537 9.45972 30.2089 9.80935C30.5642 10.159 30.8463 10.5758 31.0388 11.0355C31.2314 11.4952 31.3306 11.9887 31.3306 12.4871C31.3306 12.9855 31.2314 13.479 31.0388 13.9387C30.8463 14.3984 30.5642 14.8152 30.2089 15.1649C29.8537 15.5145 29.4325 15.7899 28.9698 15.9752C28.5071 16.1604 28.0121 16.2518 27.5138 16.2439Z"
    fill="#1565C0"
  />
  <path
    d="M7.22816 27.5138H4.974V35.0273H12.4876V32.7732H7.22816V27.5138Z"
    fill="#1565C0"
  />
</svg>
