<svg width="32" height="32" viewBox="0 0 32 32" fill="none" xmlns="http://www.w3.org/2000/svg">
<path d="M5.35589 21.1398L6.86874 19.5228L8.74705 21.4011L7.21944 22.9288L9.0707 24.78L10.5983 23.2524L12.4911 25.1452L10.9918 26.6445L15.3746 31.0264H22.2626C22.9533 31.0264 23.5138 30.4659 23.5138 29.7743V19.7633L29.912 15.4916C30.6084 15.0264 31.0254 14.2452 31.0254 13.4082V2.22611C31.0254 1.53448 30.465 0.974007 29.7733 0.974007H18.5912C18.1792 0.974034 17.7736 1.07575 17.4103 1.27014C17.047 1.46453 16.7374 1.74558 16.5088 2.08835L12.2365 8.48758H2.22705C1.53447 8.48758 0.973999 9.04805 0.973999 9.73968V16.6277L5.35589 21.1398Z" fill="#1E88E5"/>
<path d="M3.22816 23.5138H0.973999V31.0273H8.48757V28.7732H3.22816V23.5138Z" fill="#1E88E5"/>
</svg>
