<svg viewBox="0 0 32 32" xmlns="http://www.w3.org/2000/svg">
  <path
    d="M3.97942 22.0105H5.78275V26.218H9.99028V28.0213H3.97942V22.0105Z"
    fill="#1565C0"
  />
  <path
    d="M8.69523 18.8177L7.48494 20.1113L3.97942 16.5016V10.9912C3.97942 10.8596 4.00536 10.7293 4.05575 10.6077C4.10614 10.4861 4.17999 10.3757 4.27308 10.2827C4.36618 10.1896 4.47669 10.1159 4.59831 10.0656C4.71992 10.0153 4.85025 9.98943 4.98186 9.98952H12.9894L16.4072 4.87014C16.5901 4.59592 16.8378 4.37109 17.1285 4.21558C17.4191 4.06007 17.7436 3.97869 18.0732 3.97867H27.0189C27.1504 3.97865 27.2807 4.00455 27.4022 4.05489C27.5238 4.10522 27.6342 4.179 27.7272 4.27202C27.8202 4.36504 27.894 4.47547 27.9443 4.597C27.9947 4.71854 28.0206 4.8488 28.0206 4.98035V13.9261C28.0207 14.2557 27.9394 14.5803 27.7841 14.871C27.6287 15.1618 27.404 15.4097 27.1299 15.5928L22.0112 19.0101V27.019C22.0113 27.2845 21.9059 27.5392 21.7182 27.7271C21.5305 27.9149 21.2759 28.0205 21.0103 28.0207H15.4999L11.9936 24.5151L13.1931 23.3157L11.6789 21.8014L10.4568 23.0235L8.97576 21.5425L10.1979 20.3204L8.69523 18.8177ZM22.0112 12.9946C22.8083 13.0072 23.5778 12.7027 24.1503 12.148C24.7229 11.5933 25.0517 10.8339 25.0643 10.0368C25.0769 9.23971 24.7724 8.47025 24.2177 7.89769C23.663 7.32512 22.9036 6.99636 22.1065 6.98372C22.0748 6.98321 22.043 6.98321 22.0112 6.98372C21.2224 6.99618 20.47 7.31831 19.9166 7.88058C19.3631 8.44285 19.0529 9.20018 19.0529 9.98915C19.0529 10.7781 19.3631 11.5354 19.9166 12.0977C20.47 12.66 21.2224 12.9821 22.0112 12.9946Z"
    fill="#1565C0"
  />
</svg>
