<svg width="20" height="18" viewBox="0 0 20 18" fill="none" xmlns="http://www.w3.org/2000/svg">
<path fill-rule="evenodd" clip-rule="evenodd" d="M6.89432 0.205H6.89502H12.419L12.4187 0.206H13.117C13.3009 0.205903 13.4801 0.263449 13.6295 0.37054C13.779 0.477632 13.891 0.628879 13.95 0.803L19.294 16.636C19.3387 16.7683 19.3511 16.9094 19.3304 17.0475C19.3097 17.1856 19.2564 17.3167 19.1748 17.4301C19.0933 17.5435 18.986 17.6358 18.8616 17.6995C18.7373 17.7631 18.5997 17.7962 18.46 17.796H17.077H12.3032H12.303H12.117C11.894 17.796 11.677 17.711 11.514 17.558L7.74827 14.0438L6.68402 17.197C6.62518 17.3718 6.51294 17.5238 6.36313 17.6314C6.21332 17.7391 6.0335 17.797 5.84902 17.797H1.54902C1.40934 17.7971 1.27166 17.7639 1.14737 17.7001C1.02309 17.6364 0.915793 17.5439 0.834366 17.4304C0.75294 17.3169 0.699731 17.1857 0.67915 17.0475C0.658569 16.9094 0.671208 16.7683 0.716019 16.636L6.06002 0.804C6.11903 0.629346 6.23134 0.477603 6.38114 0.370145C6.53074 0.262823 6.71021 0.205073 6.89432 0.205ZM11.4388 11.603L10.0055 7.35591L8.57206 11.603H11.4388Z" fill="#1976D2"/>
</svg>
