<svg viewBox="0 0 24 24" xmlns="http://www.w3.org/2000/svg">
  <path
    d="M8.89502 3.205H14.419L14.4187 3.206H15.117C15.3009 3.2059 15.4801 3.26345 15.6295 3.37054C15.779 3.47763 15.891 3.62888 15.95 3.803L21.294 19.636C21.3387 19.7683 21.3511 19.9094 21.3304 20.0475C21.3097 20.1856 21.2564 20.3167 21.1748 20.4301C21.0933 20.5435 20.986 20.6358 20.8617 20.6995C20.7373 20.7631 20.5997 20.7962 20.46 20.796H14.117C13.894 20.796 13.677 20.711 13.514 20.558L9.74827 17.0438L8.68402 20.197C8.62518 20.3718 8.51294 20.5238 8.36313 20.6314C8.21332 20.7391 8.0335 20.797 7.84902 20.797H3.54902C3.40934 20.7971 3.27166 20.7639 3.14737 20.7001C3.02309 20.6364 2.91579 20.5439 2.83437 20.4304C2.75294 20.3169 2.69973 20.1857 2.67915 20.0475C2.65857 19.9094 2.67121 19.7683 2.71602 19.636L8.06002 3.804C8.11903 3.62935 8.23134 3.4776 8.38114 3.37014C8.53074 3.26282 8.71091 3.20507 8.89502 3.205ZM13.4388 14.603L12.0055 10.3559L10.5721 14.603H13.4388Z"
    fill="#01579B"
  />
</svg>
