<svg
  width="32"
  height="32"
  viewBox="0 0 32 32"
  fill="none"
  xmlns="http://www.w3.org/2000/svg"
>
  <path
    d="M12.0025 4H19.1033L19.1028 4.00136H20.0005C20.2424 4.00558 20.4767 4.08683 20.6692 4.2333C20.8618 4.37977 21.0026 4.58383 21.0713 4.81583V4.81719L27.9407 26.4161C27.9802 26.5406 28.0002 26.6704 28 26.801C28.0085 27.1098 27.8942 27.4093 27.6821 27.6339C27.4699 27.8584 27.1774 27.9896 26.8686 27.9986H18.7151C18.424 27.9972 18.1453 27.8804 17.94 27.6739L13.0254 23.1122L11.7313 27.1814C11.6628 27.4144 11.5218 27.6194 11.3287 27.7666C11.1357 27.9139 10.9007 27.9956 10.6579 28H5.1305C4.82174 27.9907 4.52927 27.8593 4.31732 27.6346C4.10536 27.4099 3.99124 27.1102 4 26.8015C3.99989 26.6707 4.02004 26.5407 4.05973 26.4161L10.9291 4.81719C10.9978 4.58449 11.1389 4.37976 11.332 4.23279C11.525 4.08582 11.7599 4.00427 12.0025 4ZM17.9864 20L16.0008 13.7558L14.0151 20H17.9864Z"
    fill="#1565C0"
  />
</svg>
