<svg viewBox="0 0 24 24" xmlns="http://www.w3.org/2000/svg">
  <path
    d="M13.2528 2.34511L19.7473 6.20024C20.5222 6.66039 21.0001 7.51061 21.0001 8.4309V16.1412C21.0001 17.0612 20.5222 17.9119 19.7471 18.3721L13.2526 22.2265C12.865 22.4567 12.4328 22.5714 12.0001 22.5714C11.5671 22.5714 11.1349 22.4567 10.7473 22.2265L4.25286 18.3721C3.4777 17.9119 3.00009 17.0612 3.00009 16.1412V8.4309C3.00009 7.51061 3.4777 6.66039 4.25263 6.20024L10.7471 2.34511C11.5222 1.88496 12.4777 1.88496 13.2528 2.34511ZM13.1067 11.6212C12.3406 12.0691 11.7757 12.5717 11.7752 13.4954V21.0661C11.7748 21.6193 12.2752 22.1498 13 21.75L19.5 17.9C20.2751 17.4399 20.5 16.6892 20.5 15.7691V9C20.5 7.99996 20 7.41583 19 7.99997C18.7359 8.15423 13.1067 11.6212 13.1067 11.6212Z"
    fill="#47b353"
  />
  <path
    d="M18.0448 16.8864C18.0876 16.8615 18.1223 16.883 18.1223 16.9345V17.3078C18.1221 17.3593 18.1155 17.4071 18.0727 17.4321L16.4305 18.4301C16.3876 18.4553 16.353 18.4338 16.353 18.3821V17.9589C16.3532 17.9074 16.3847 17.8793 16.4276 17.8543L18.0448 16.8864Z"
    fill="#47b353"
  />
  <path
    d="M14.6011 13.3243C14.6534 13.2978 14.6965 13.3305 14.6972 13.3989L14.7027 13.9584C14.9369 13.8652 15.1404 13.8403 15.3247 13.8829C15.3646 13.8936 15.3823 13.948 15.366 14.0126L15.2429 14.5084C15.2333 14.5458 15.2122 14.5837 15.1868 14.6073C15.1762 14.6177 15.1653 14.6259 15.1544 14.6313C15.1379 14.6397 15.1215 14.6424 15.1059 14.6392C15.0217 14.6202 14.8217 14.5764 14.5069 14.7358C14.1767 14.903 14.0613 15.1899 14.0636 15.4028C14.0663 15.6571 14.1967 15.7342 14.6471 15.7419C15.2472 15.7518 15.5064 16.014 15.5127 16.6184C15.5189 17.2119 15.202 17.8492 14.7174 18.2397L14.7281 18.7935C14.7287 18.8602 14.6854 18.9366 14.633 18.9631L14.3051 19.152C14.2525 19.1786 14.2094 19.1459 14.2087 19.0792L14.2031 18.5345C13.9221 18.6513 13.6374 18.6794 13.4556 18.6064C13.4213 18.593 13.4066 18.5424 13.4202 18.4848L13.539 17.9841C13.5485 17.9446 13.5694 17.9052 13.5978 17.88C13.6077 17.8703 13.6182 17.8628 13.6286 17.8576C13.6474 17.848 13.6658 17.846 13.6814 17.8519C13.8774 17.9179 14.128 17.887 14.3691 17.765C14.6752 17.6101 14.88 17.2978 14.8768 16.9876C14.8739 16.7062 14.7215 16.5891 14.3509 16.5864C13.8792 16.5878 13.4395 16.4948 13.4322 15.8004C13.4263 15.2287 13.7236 14.6338 14.1942 14.2576L14.1883 13.6985C14.1876 13.6298 14.2296 13.5543 14.2836 13.5271L14.6011 13.3243Z"
    fill="#47b353"
  />
</svg>
