<svg viewBox="0 0 16 16" xmlns="http://www.w3.org/2000/svg">
  <path
    d="M6.915 9.906C7.195 10.1813 7.55633 10.316 7.999 10.31C8.44233 10.304 8.769 10.1467 8.979 9.838L12.899 4.063L7.019 7.913C6.70433 8.119 6.53833 8.434 6.521 8.858C6.50367 9.282 6.635 9.63133 6.915 9.906ZM7.999 2C8.68767 2 9.35 2.09467 9.986 2.284C10.6213 2.47267 11.219 2.756 11.779 3.134L10.449 3.959C10.0643 3.76433 9.665 3.61833 9.251 3.521C8.83633 3.42367 8.419 3.375 7.999 3.375C6.44767 3.375 5.12667 3.91067 4.036 4.982C2.94533 6.05333 2.4 7.351 2.4 8.875C2.4 9.35633 2.467 9.832 2.601 10.302C2.735 10.7713 2.92467 11.2123 3.17 11.625H12.829C13.097 11.1897 13.2923 10.737 13.415 10.267C13.5377 9.797 13.599 9.31033 13.599 8.807C13.599 8.39367 13.5493 7.99233 13.45 7.603C13.3507 7.21367 13.202 6.83567 13.004 6.469L13.844 5.162C14.194 5.70067 14.471 6.274 14.675 6.882C14.879 7.48867 14.987 8.11867 14.999 8.772C15.0103 9.42533 14.9343 10.0497 14.771 10.645C14.6077 11.241 14.3687 11.8083 14.054 12.347C13.9253 12.5537 13.7503 12.714 13.529 12.828C13.307 12.9427 13.0737 13 12.829 13H3.169C2.92433 13 2.691 12.9427 2.469 12.828C2.24767 12.7133 2.073 12.553 1.945 12.347C1.64167 11.831 1.40833 11.2837 1.245 10.705C1.08167 10.127 1 9.517 1 8.875C1 7.92367 1.18367 7.03267 1.551 6.202C1.91833 5.37133 2.42 4.644 3.056 4.02C3.692 3.39533 4.43567 2.90233 5.287 2.541C6.139 2.18033 7.04233 2 7.999 2Z"
    fill="#FFCA28"
  />
</svg>
