<svg viewBox="0 0 1024 1024" xmlns="http://www.w3.org/2000/svg">
<path d="M96 832H928C945.728 832 960 846.272 960 864V928C960 945.728 945.728 960 928 960H96C78.272 960 64 945.728 64 928V864C64 846.272 78.272 832 96 832Z" fill="#F44336"/>
<path d="M160 192H224C241.728 192 256 206.272 256 224V736C256 753.728 241.728 768 224 768H160C142.272 768 128 753.728 128 736V224C128 206.272 142.272 192 160 192Z" fill="#F44336"/>
<path d="M512 96C512 78.272 497.728 64 480 64H352C334.272 64 320 78.272 320 96V736C320 753.728 334.272 768 352 768H480C497.728 768 512 753.728 512 736V96Z" fill="#F44336"/>
<path d="M530.161 158.902L587.494 131.209C591.271 129.371 595.374 128.3 599.567 128.057C603.76 127.814 607.96 128.404 611.924 129.792C615.887 131.181 619.537 133.341 622.662 136.148C625.786 138.954 628.324 142.352 630.128 146.145L892.821 694.315C900.481 710.299 893.798 729.372 877.839 737.081L820.506 764.774C816.729 766.612 812.626 767.683 808.433 767.926C804.24 768.169 800.04 767.579 796.076 766.191C792.113 764.802 788.463 762.642 785.339 759.835C782.214 757.029 779.676 753.631 777.872 749.838L515.18 201.668C507.52 185.685 514.202 166.611 530.161 158.902Z" fill="#F44336"/>
</svg>
