<svg viewBox="0 0 1024 1024" xmlns="http://www.w3.org/2000/svg">
<path d="M96 832H928C945.728 832 960 846.272 960 864V928C960 945.728 945.728 960 928 960H96C78.272 960 64 945.728 64 928V864C64 846.272 78.272 832 96 832Z" fill="#795548"/>
<path d="M160 192H224C241.728 192 256 206.272 256 224V736C256 753.728 241.728 768 224 768H160C142.272 768 128 753.728 128 736V224C128 206.272 142.272 192 160 192Z" fill="#4CAF50"/>
<path d="M512 96C512 78.272 497.728 64 480 64H352C334.272 64 320 78.272 320 96V736C320 753.728 334.272 768 352 768H480C497.728 768 512 753.728 512 736V96Z" fill="#F44336"/>
<path d="M864 320C881.728 320 896 334.272 896 352V452.115L924.74 473.693C926.424 474.952 927.843 476.531 928.915 478.339C929.987 480.147 930.692 482.149 930.988 484.23C931.285 486.312 931.167 488.432 930.643 490.468C930.118 492.503 929.195 494.415 927.93 496.094C926.671 497.778 925.093 499.198 923.284 500.271C921.476 501.343 919.473 502.047 917.392 502.344C915.31 502.64 913.19 502.522 911.154 501.997C909.118 501.472 907.206 500.55 905.527 499.284L896 492.131V736C896 753.728 881.728 768 864 768H608C590.272 768 576 753.728 576 736V352C576 334.272 590.272 320 608 320H864Z" fill="#BBDEFB"/>
</svg>
