<svg viewBox="0 0 460 460" xmlns="http://www.w3.org/2000/svg">
  <path
    d="M377.3 259C373.2 250.068 367.772 241.808 361.2 234.5L350.9 225.5C349.2 224 348.9 222.5 350.5 221.1C359.195 213.773 366.219 204.669 371.1 194.4C374.895 185.825 377.357 176.719 378.4 167.4C378.976 162.316 378.976 157.184 378.4 152.1C377.333 140.567 376.133 132.9 374.8 129.1C373.933 125.633 373.067 122.633 372.2 120.1C361.2 91.8 335.9 72.8 319.5 63.1C314.465 60.6891 309.289 58.5853 304 56.8C294.873 53.8484 285.503 51.7068 276 50.4C268.991 49.2224 261.906 48.554 254.8 48.4H72V132H249.6C255.457 132.015 261.293 132.686 267 134C274.6 135.6 281 138.8 284.7 146.2C286.046 149.89 286.789 153.773 286.9 157.7V166.1C286.18 170.129 284.223 173.834 281.3 176.7C275.289 181.532 267.813 184.177 260.1 184.2C246.5 185.2 232.8 184.4 219.1 184.6H72V411.6H155.5C158.1 411.6 158.5 410.6 158.5 408.2V272.7C158.5 265.4 158.5 265.4 165.7 265.4H255.6C265.509 264.961 275.362 267.097 284.2 271.6C284.362 271.653 284.538 271.653 284.7 271.6L287.6 274.3C291.918 278.221 294.953 283.354 296.309 289.027C297.665 294.7 297.278 300.65 295.2 306.1C293.232 311.193 289.827 315.605 285.4 318.8C277.745 323.912 268.801 326.755 259.6 327C248.2 327.2 236.8 327 225.4 327C222.4 327 221.7 328 221.7 330.6V404.4C221.7 411.4 221.7 411.7 228.7 411.4C243.912 411.826 259.137 411.392 274.3 410.1C290.033 407.9 303.433 405.233 314.5 402.1C314.736 402.008 314.97 401.907 315.2 401.8C327.55 397.712 339.165 391.668 349.6 383.9C355.899 379.561 361.383 374.145 365.8 367.9C366.178 367.615 366.515 367.278 366.8 366.9C374.396 357.308 379.913 346.24 383 334.4C384.823 327.491 386.226 320.478 387.2 313.4C389.355 294.676 385.873 275.734 377.2 259H377.3Z"
    fill="#FFB300"
  />
</svg>
