<svg viewBox="0 0 843 843" fill="none" xmlns="http://www.w3.org/2000/svg">
<path d="M104.682 116.864C101.519 116.823 98.3849 117.475 95.5004 118.775C92.6158 120.074 90.0506 121.989 87.9849 124.385C85.9192 126.781 84.4031 129.601 83.5429 132.645C82.6828 135.69 82.4995 138.886 83.006 142.008L175.022 700.608C176.169 707.444 179.687 713.657 184.959 718.156C190.232 722.656 196.921 725.153 203.852 725.211H645.291C650.486 725.278 655.533 723.476 659.512 720.134C663.49 716.792 666.136 712.132 666.967 707.003L759.2 142.225C759.707 139.102 759.523 135.906 758.663 132.862C757.803 129.817 756.287 126.998 754.221 124.602C752.155 122.206 749.59 120.291 746.706 118.991C743.821 117.692 740.687 117.04 737.524 117.081L104.682 116.864ZM492.147 520.586H351.251L313.101 321.38H526.288L492.147 520.586Z" fill="#1E88E5"/>
</svg>
