<svg viewBox="0 0 400 400" fill="none" xmlns="http://www.w3.org/2000/svg">
  <path
    d="M139.114 121.369C139.114 131.96 147.701 140.546 158.291 140.546C168.883 140.546 177.468 131.96 177.468 121.369C177.468 110.778 168.883 102.192 158.291 102.192C147.701 102.192 139.114 110.778 139.114 121.369Z"
    fill="#FFCC2F"
  />
  <path
    d="M376.834 196.261C357.922 178.089 263.348 166.744 233.507 163.442C234.962 159.998 236.195 156.464 237.199 152.862C241.267 151.082 245.659 149.424 250.199 148.04C250.752 149.672 253.358 155.925 254.843 158.893C310.623 160.432 317.212 120.575 319.824 104.779C320.021 103.583 320.196 102.525 320.368 101.633C320.639 100.225 320.878 98.823 321.119 97.411C322.995 86.3959 324.972 74.7877 343.215 55.392C312.552 46.456 268.456 69.242 253.685 103.154C248.135 101.074 242.571 99.539 237.07 98.589C233.127 82.684 212.596 38.374 158.718 38.374C90.503 38.374 16.151 94.65 16.151 189.916C16.151 269.994 70.823 340.174 101.71 340.174C115.2 340.174 126.804 330.071 129.528 321.016C129.792 321.734 130.119 322.626 130.495 323.651C133.369 331.494 139.086 347.094 141.121 351.44C144.523 358.707 160.255 364.994 167.139 357.454C175.991 362.371 192.234 365.334 201.086 352.219C218.135 355.825 233.206 345.659 233.536 333.528C241.901 333.081 246.005 321.335 244.178 311.981C242.832 305.094 228.446 280.382 222.835 271.851C233.943 280.886 262.078 283.444 265.495 271.857C283.404 285.914 311.312 278.536 313.525 267.104C335.286 272.758 360.245 260.34 356.146 245.301C391.104 242.883 386.629 205.69 376.821 196.264L376.834 196.261ZM279.494 116.935C287.023 101.997 296.484 85.685 308.434 75.595C295.281 80.895 282.295 96.741 274.617 113.678C270.784 111.236 266.813 109.017 262.724 107.032C273.434 84.17 298.322 65.077 325.749 63.585C315.944 72.4787 313.23 86.491 310.534 100.412C308.179 112.571 305.837 124.661 298.795 133.208C294.473 128.866 284.548 120.488 279.494 116.935ZM267.618 141.261C268.115 140.408 269.281 137.961 270.13 136.177C270.394 135.624 270.627 135.134 270.8 134.776C277.354 136.028 285.973 138.122 291.024 140.476C285.091 144.318 275.011 148.498 261.055 148.79C259.029 144.399 256.978 137.106 257.227 132.818C260.641 132.738 267.188 134.019 268.242 134.267C267.84 136.28 267.626 140.689 267.618 141.261ZM126.257 121.369C126.257 103.679 140.598 89.3374 158.288 89.3374C175.979 89.3374 190.321 103.679 190.321 121.369C190.321 139.059 175.979 153.401 158.288 153.401C140.598 153.401 126.257 139.06 126.257 121.369ZM218.517 151.464L218.517 151.463C210.077 132.821 217.332 115.192 224.045 107.054C254.111 107.125 278.395 127.771 285.801 134.612C276.594 130.998 264.913 128.711 256.728 128.711C251.449 128.711 246.821 130.286 242.062 131.905C234.437 134.5 226.478 137.209 214.971 133.736C222.445 141.439 234.615 137.928 243.161 135.462C244.746 135.005 246.205 134.584 247.488 134.277C247.581 135.677 247.727 137.073 247.926 138.461C236.93 141.09 225.457 147.559 220.273 150.483L220.271 150.484C219.564 150.883 218.973 151.216 218.517 151.464ZM215.763 259.449C215.766 259.469 215.775 259.496 215.778 259.516C214.008 255.71 212.13 251.086 209.886 245.043C218.622 257.758 245.999 251.2 244.563 239.806C257.963 249.889 285.547 238.127 279.276 223.988C292.699 230.244 308.02 217.658 304.584 212.174C327.469 216.588 349.4 220.987 356.285 222.749C351.712 230.205 341.296 235.471 325.595 231.812C334.079 243.369 317.607 257.235 294.664 249.597C299.715 260.944 279.287 271.158 256.07 259.331C256.365 270.683 227.267 271.991 215.763 259.449ZM261.16 202.078L261.171 202.078L261.161 202.078L261.16 202.078ZM261.171 202.078C281.525 202.189 321.792 198.233 337.666 196.54C352.428 200.505 357.121 203.033 358.839 211.883C331.649 208.077 287.733 204.118 261.171 202.078Z"
    fill="#FFCC2F"
  />
</svg>
