<svg width="368" height="324" viewBox="0 0 368 324" fill="none" xmlns="http://www.w3.org/2000/svg">
<path d="M123.114 83.3694C123.114 93.9604 131.701 102.546 142.291 102.546C152.883 102.546 161.468 93.9596 161.468 83.3694C161.468 72.7777 152.883 64.1916 142.291 64.1916C131.701 64.1916 123.114 72.7785 123.114 83.3694Z" fill="#543729"/>
<path d="M360.834 158.261C341.922 140.089 247.348 128.744 217.507 125.442C218.962 121.998 220.195 118.464 221.199 114.862C225.267 113.082 229.659 111.424 234.199 110.04C234.752 111.672 237.358 117.925 238.843 120.893C294.623 122.432 301.212 82.5752 303.824 66.779C304.021 65.5829 304.196 64.5248 304.368 63.633C304.639 62.2253 304.878 60.823 305.119 59.411C306.995 48.3959 308.972 36.7877 327.215 17.392C296.552 8.45599 252.456 31.242 237.685 65.154C232.135 63.074 226.571 61.539 221.07 60.589C217.127 44.684 196.596 0.373993 142.718 0.373993C74.503 0.373993 0.151001 56.65 0.151001 151.916C0.151001 231.994 54.823 302.174 85.71 302.174C99.2 302.174 110.804 292.071 113.528 283.016C113.792 283.734 114.119 284.626 114.495 285.651C117.369 293.494 123.086 309.094 125.121 313.44C128.523 320.707 144.255 326.994 151.139 319.454C159.991 324.371 176.234 327.334 185.086 314.219C202.135 317.825 217.206 307.659 217.536 295.528C225.901 295.081 230.005 283.335 228.178 273.981C226.832 267.094 212.446 242.382 206.835 233.851C217.943 242.886 246.078 245.444 249.495 233.857C267.404 247.914 295.312 240.536 297.525 229.104C319.286 234.758 344.245 222.34 340.146 207.301C375.104 204.883 370.629 167.69 360.821 158.264L360.834 158.261ZM263.494 78.935C271.023 63.997 280.484 47.685 292.434 37.595C279.281 42.895 266.295 58.741 258.617 75.678C254.784 73.2363 250.813 71.0173 246.724 69.032C257.434 46.17 282.322 27.077 309.749 25.585C299.944 34.4787 297.23 48.491 294.534 62.4117C292.179 74.5711 289.837 86.6606 282.795 95.208C278.473 90.866 268.548 82.488 263.494 78.935ZM251.618 103.261C252.115 102.408 253.281 99.9605 254.13 98.1766C254.394 97.6235 254.627 97.1341 254.8 96.776C261.354 98.028 269.973 100.122 275.024 102.476C269.091 106.318 259.011 110.498 245.055 110.79C243.029 106.399 240.978 99.106 241.227 94.818C244.641 94.738 251.188 96.019 252.242 96.267C251.84 98.28 251.626 102.689 251.618 103.261ZM199.769 221.478C199.773 221.491 199.776 221.505 199.778 221.516C198.008 217.71 196.13 213.086 193.886 207.043C202.622 219.758 229.999 213.2 228.563 201.806C241.963 211.889 269.546 200.127 263.276 185.988C276.699 192.244 292.02 179.658 288.584 174.174C311.469 178.588 333.4 182.987 340.285 184.749C335.712 192.205 325.296 197.471 309.595 193.812C318.079 205.369 301.607 219.235 278.664 211.597C283.715 222.944 263.287 233.158 240.069 221.331C240.365 232.683 211.267 233.991 199.763 221.449C199.764 221.458 199.767 221.468 199.769 221.478ZM245.171 164.078L245.161 164.078L245.16 164.077L245.171 164.078ZM245.171 164.078C265.525 164.189 305.792 160.233 321.666 158.54C336.428 162.505 341.121 165.033 342.839 173.883C315.649 170.077 271.733 166.118 245.171 164.078ZM204.273 112.483C203.565 112.882 202.973 113.215 202.517 113.464L202.516 113.463C194.077 94.821 201.332 77.192 208.045 69.0539C238.111 69.125 262.395 89.7708 269.801 96.6118C260.593 92.9976 248.913 90.7107 240.728 90.7107C235.449 90.7107 230.821 92.2858 226.062 93.9053C218.437 96.5 210.478 99.2088 198.971 95.7365C206.444 103.439 218.615 99.9278 227.161 97.4621C228.745 97.005 230.205 96.5838 231.488 96.2767C231.581 97.6767 231.727 99.0726 231.926 100.461C220.93 103.09 209.457 109.559 204.273 112.483ZM110.257 83.3694C110.257 65.6791 124.598 51.3375 142.288 51.3375C159.979 51.3375 174.321 65.6791 174.321 83.3694C174.321 101.059 159.979 115.401 142.288 115.401C124.598 115.401 110.257 101.06 110.257 83.3694Z" fill="#543729"/>
</svg>
