<svg viewBox="0 0 32 32" xmlns="http://www.w3.org/2000/svg">
  <path
    d="M27.897 9.794C27.4634 8.9289 26.8516 8.16534 26.1019 7.5535C25.3522 6.94166 24.4815 6.49539 23.547 6.244C22.0597 4.80377 20.0703 3.99896 18 4H14C11.9293 3.9987 9.93951 4.80353 8.452 6.244C7.51753 6.49539 6.64683 6.94166 5.89711 7.5535C5.14739 8.16534 4.53562 8.9289 4.102 9.794C2.71936 12.5599 1.99969 15.6098 2 18.702V20C2 21.0609 2.42143 22.0783 3.17157 22.8284C3.92172 23.5786 4.93913 24 6 24V16H8V22C8 23.0609 8.42143 24.0783 9.17157 24.8284C9.92172 25.5786 10.9391 26 12 26V24C11.4696 24 10.9609 23.7893 10.5858 23.4142C10.2107 23.0391 10 22.5304 10 22V20H12V22H14V20H18V22H20V20H22V22C22 22.5304 21.7893 23.0391 21.4142 23.4142C21.0391 23.7893 20.5304 24 20 24V26C21.0609 26 22.0783 25.5786 22.8284 24.8284C23.5786 24.0783 24 23.0609 24 22V16H26V24C27.0609 24 28.0783 23.5786 28.8284 22.8284C29.5786 22.0783 30 21.0609 30 20V18.702C30 15.6097 29.28 12.5598 27.897 9.794ZM10 14V12H12V14H10ZM14 18V16H18V18H14ZM22 14H20V12H22V14Z"
    fill="#FFAB40"
  />
  <path
    d="M16 24C15.3933 24.4407 14.7173 24.7774 14 24.996V28C14 28.5304 14.2107 29.0391 14.5858 29.4142C14.9609 29.7893 15.4696 30 16 30C16.5304 30 17.0391 29.7893 17.4142 29.4142C17.7893 29.0391 18 28.5304 18 28V24.996C17.2827 24.7773 16.6067 24.4407 16 24Z"
    fill="#FFAB40"
  />
</svg>
