<svg viewBox="0 0 24 24" xmlns="http://www.w3.org/2000/svg">
  <path
    d="M7.4883 2.94H5.97799V7.21258L7.8198 9.05439H5.60979L3.19717 6.64177V2.94008H1.59492V7.32316L4.87299 10.6014H9.29293L10.8768 12.1851H6.64092L10.2138 15.8685L4.98341 21.0619H7.04622L12.2764 15.7949L10.2873 13.8059H20.8589V14.4689L16.2916 17.1945L12.461 21.0619H14.6341L17.2491 18.41L22.4059 15.3161V12.1852H17.5439L15.8864 10.5277L17.7649 8.64916V4.45023H16.1994V7.94946L14.6709 9.45953L13.308 8.0323V4.45015H11.8347V8.72288L15.2796 12.185H13.1777L7.48855 6.54957V2.94"
    fill="#0277BD"
  />
  <path
    d="M15.4808 14.7631H13.4182L14.4127 15.8311L15.4808 14.7631Z"
    fill="#0277BD"
  />
</svg>
