<svg viewBox="0 0 24 24" xmlns="http://www.w3.org/2000/svg">
  <path d="M4.28594 3H3V17.1427H4.28594V3Z" fill="#77E1FF" />
  <path d="M6.8572 3H5.57126V17.1427H6.8572V3Z" fill="#77E1FF" />
  <path d="M9.4287 3H8.14273V17.1427H9.4287V3Z" fill="#77E1FF" />
  <path d="M12.0002 3H10.7142V17.1427H12.0002V3Z" fill="#77E1FF" />
  <path d="M14.5719 3H13.2859V17.1427H14.5719V3Z" fill="#77E1FF" />
  <path d="M17.1433 3H15.8574V17.1427H17.1433V3Z" fill="#77E1FF" />
  <path d="M8.14327 6.8573H6.85733V21H8.14327V6.8573Z" fill="#77E1FF" />
  <path d="M10.7145 6.8573H9.42857V21H10.7145V6.8573Z" fill="#77E1FF" />
  <path d="M13.286 6.8573H12.0001V21H13.286V6.8573Z" fill="#77E1FF" />
  <path d="M15.8575 6.8573H14.5716V21H15.8575V6.8573Z" fill="#77E1FF" />
  <path d="M18.4288 6.8573H17.1428V21H18.4288V6.8573Z" fill="#77E1FF" />
  <path d="M21 6.8573H19.7141V21H21V6.8573Z" fill="#77E1FF" />
</svg>
