<svg viewBox="0 0 80 80" xmlns="http://www.w3.org/2000/svg">
  <path
    d="M38.1757 51.3623C37.5084 51.6936 36.9249 52.1718 36.469 52.761C36.4396 52.7354 36.4103 52.7095 36.3812 52.6834C36.493 52.7891 36.6083 52.8916 36.7269 52.9908C37.6353 53.8858 38.8164 54.452 40.083 54.5999C41.3463 54.4537 42.5261 53.8945 43.4391 53.0092C43.6331 52.8462 43.8181 52.6742 43.9938 52.4941C43.0056 51.5383 41.6957 50.889 40.3216 50.8485C39.5766 50.8554 38.8429 51.0311 38.1757 51.3623Z"
    fill="#FFF3E0"
  />
  <path
    d="M34.2167 48.9726C34.4998 50.1178 35.0433 51.1756 35.7978 52.0672C36.3377 51.4065 37.0157 50.8718 37.7843 50.5009C38.5617 50.1257 39.4125 49.9272 40.2757 49.9198C41.8889 49.9469 43.4334 50.6763 44.6027 51.7881C45.2316 50.9617 45.6889 50.0108 45.9401 48.991C45.92 48.9616 45.8922 48.9383 45.8598 48.9237C45.8273 48.9091 45.7915 48.9037 45.7562 48.9082L34.4098 48.8898C34.2627 48.8898 34.2259 48.9542 34.2167 48.9726Z"
    fill="#FFF3E0"
  />
  <path
    d="M72.182 42.37C72.182 56.355 57.774 67.693 40 67.693C22.226 67.693 7.81799 56.356 7.81799 42.37C7.81799 33.6993 13.3349 26.04 21.812 21.498C24.6608 19.9716 27.1482 18.4328 29.3636 17.0623C33.7409 14.3543 37.0563 12.3032 39.999 12.3032C42.8958 12.3032 45.5176 13.9256 49.7696 16.5567C52.0228 17.951 54.7337 19.6285 58.186 21.498C66.6636 26.0403 72.18 33.7 72.18 42.37H72.182ZM37.352 14.629C37.3648 16.8001 36.909 18.9484 36.0156 20.9272C35.1222 22.9061 33.8123 24.6688 32.1753 26.095C31.9178 26.3249 32.1201 26.7662 32.4511 26.6375C35.5497 25.433 39.7334 21.8286 37.968 14.5555C37.8945 14.1417 37.352 14.252 37.352 14.629ZM39.4392 14.629C40.5644 16.4648 41.2792 18.5221 41.5347 20.66C41.7903 22.7979 41.5804 24.9658 40.9196 27.015C40.8092 27.3368 41.2046 27.6127 41.4253 27.346C43.439 24.7715 45.1951 19.6591 39.9358 14.142C39.6691 13.903 39.2554 14.2708 39.4393 14.5926L39.4392 14.629ZM41.977 14.4727C43.7388 15.72 45.2127 17.3306 46.2992 19.1959C47.3858 21.0612 48.0597 23.1378 48.2755 25.2857C48.2662 25.3631 48.287 25.4411 48.3337 25.5036C48.3803 25.566 48.4492 25.6081 48.5261 25.6212C48.603 25.6342 48.6819 25.6171 48.7465 25.5735C48.8111 25.5298 48.8565 25.463 48.8731 25.3868C49.7191 22.1778 49.241 16.7069 42.2804 13.8658C41.9127 13.7187 41.6736 14.2152 41.977 14.4359L41.977 14.4727ZM25.003 24.0353C24.672 24.1364 24.6624 24.6238 25.0118 24.6146C28.3223 24.8169 33.6461 23.2814 35.2368 15.9255C35.3196 15.5577 34.7955 15.429 34.63 15.76C33.6963 17.738 32.3565 19.4971 30.6978 20.9229C29.0391 22.3487 27.0987 23.4092 25.003 24.0353ZM40.083 55.694C41.612 55.5577 43.0498 54.9098 44.165 53.855C45.5884 52.6512 46.5902 51.0244 47.0246 49.2116C47.0577 49.0509 47.0542 48.8849 47.0144 48.7257C46.9746 48.5665 46.8996 48.4184 46.7948 48.2921C46.6674 48.1415 46.5081 48.0213 46.3283 47.9401C46.1486 47.859 45.9529 47.819 45.7558 47.8232H34.4098C34.2123 47.817 34.016 47.8561 33.836 47.9374C33.6559 48.0186 33.4968 48.14 33.3708 48.2921C33.2649 48.4179 33.1886 48.5658 33.1472 48.7248C33.1058 48.8839 33.1005 49.0502 33.1317 49.2116C33.5661 51.0244 34.568 52.6512 35.9913 53.855C37.1089 54.9117 38.5508 55.5598 40.083 55.694ZM31.5083 44.3707C32.3426 43.8151 32.9935 43.0245 33.3783 42.0989C33.7632 41.1733 33.8649 40.1543 33.6705 39.1709C33.476 38.1875 32.9942 37.2839 32.2861 36.5744C31.5779 35.865 30.6751 35.3815 29.6921 35.1853C28.7091 34.989 27.6899 35.0888 26.7636 35.472C25.8373 35.8552 25.0455 36.5045 24.4884 37.3379C23.9313 38.1713 23.6339 39.1512 23.6339 40.1536C23.6339 41.4957 24.1664 42.7829 25.1145 43.7328C26.0626 44.6827 27.3489 45.2175 28.691 45.22C29.6934 45.2219 30.6739 44.9263 31.5083 44.3707ZM54.2917 44.3841C55.1297 43.8319 55.7848 43.0432 56.1739 42.1181C56.563 41.193 56.6686 40.1732 56.4773 39.188C56.286 38.2028 55.8064 37.2966 55.0993 36.5843C54.3922 35.8721 53.4896 35.3859 52.5058 35.1874C51.522 34.9889 50.5015 35.0871 49.5735 35.4695C48.6456 35.8518 47.8522 36.5011 47.2938 37.3351C46.7355 38.169 46.4374 39.15 46.4374 40.1536C46.4349 41.4917 46.9628 42.7762 47.9056 43.7258C48.8483 44.6755 50.1289 45.2127 51.467 45.22C52.4706 45.2273 53.4537 44.9364 54.2917 44.3841Z"
    fill="#FFF3E0"
  />
  <path
    d="M27.127 40.476C26.6238 40.4736 26.142 40.272 25.7871 39.9153C25.4321 39.5586 25.2329 39.0759 25.2329 38.5727C25.2329 38.1959 25.3448 37.8275 25.5543 37.5143C25.7638 37.2012 26.0616 36.9572 26.41 36.8134C26.7583 36.6697 27.1414 36.6325 27.5109 36.7067C27.8804 36.7809 28.2195 36.9631 28.4853 37.2302C28.7511 37.4973 28.9316 37.8373 29.004 38.2071C29.0764 38.5769 29.0374 38.9599 28.892 39.3075C28.7465 39.6551 28.5011 39.9517 28.1869 40.1597C27.8727 40.3678 27.5038 40.4778 27.127 40.476ZM49.903 40.476H49.8846C49.3846 40.4688 48.9076 40.265 48.5566 39.9089C48.2056 39.5527 48.0088 39.0728 48.0089 38.5727C48.0089 38.1959 48.1208 37.8275 48.3303 37.5143C48.5399 37.2012 48.8376 36.9572 49.186 36.8134C49.5343 36.6697 49.9174 36.6325 50.2869 36.7067C50.6564 36.7809 50.9955 36.9631 51.2613 37.2302C51.5271 37.4973 51.7076 37.8373 51.78 38.2071C51.8524 38.5769 51.8134 38.9599 51.668 39.3075C51.5225 39.6551 51.2771 39.9517 50.9629 40.1597C50.6487 40.3678 50.2798 40.4778 49.903 40.476Z"
    fill="#FFF3E0"
  />
</svg>
