<svg viewBox="0 0 24 24" xmlns="http://www.w3.org/2000/svg">
  <path
    d="M17.426 16.84L17.9381 19.815C17.6211 19.9857 17.109 20.1442 16.4262 20.2905C15.7312 20.449 14.9143 20.5344 13.9755 20.5344C11.281 20.4856 9.25699 19.6809 7.90359 18.1447C6.51369 16.5962 5.85529 14.6333 5.85529 12.2557C5.90406 9.43916 6.73315 7.28106 8.34259 5.76926C9.90319 4.24516 11.9028 3.46486 14.3169 3.46486C15.2313 3.46486 16.0239 3.55021 16.6823 3.69652C17.3407 3.84283 17.8284 4.00133 18.1454 4.18422L17.4138 7.22012L16.1458 6.80557C15.6581 6.68364 15.085 6.62268 14.4388 6.62268C13.0367 6.61049 11.8662 7.06161 10.9517 7.96388C10.0251 8.85393 9.56184 10.2195 9.51304 12.0362C9.52523 13.6944 9.96416 14.9868 10.8298 15.9378C11.6955 16.8766 12.9025 17.3643 14.4754 17.3765L16.097 17.2302C16.6213 17.1326 17.0602 16.9985 17.426 16.84Z"
    fill="#0288D1"
  />
</svg>
