<svg viewBox="0 0 16 16" xmlns="http://www.w3.org/2000/svg">
  <path
    d="M6.33612 10.75C5.78306 10.7493 5.25285 10.5293 4.86178 10.1382C4.47071 9.74715 4.25069 9.21694 4.25 8.66388V7.5865C4.2506 7.03337 4.47056 6.50307 4.86165 6.11191C5.25273 5.72076 5.783 5.50069 6.33612 5.5H7.25V3.25H6.33612C5.18611 3.25 4.0832 3.70684 3.27002 4.52002C2.45684 5.3332 2 6.43611 2 7.58612L2 8.6635C2 9.81355 2.45683 10.9165 3.27 11.7297C4.08317 12.543 5.18608 12.9999 6.33612 13H7.25V10.75H6.33612Z"
    fill="#0288D1"
  />
  <path
    d="M13.8845 9.20084C13.8078 8.85581 13.6383 8.53829 13.3943 8.28259C13.1503 8.0269 12.841 7.84275 12.4999 7.75006C13.7713 7.41481 14.1003 5.78468 13.5469 4.70956C12.3073 2.34572 8.28635 3.00536 7.76947 5.60243L9.60303 6.07324C9.63991 5.7939 9.77477 5.53674 9.9836 5.34758C10.1924 5.15842 10.4616 5.04956 10.7433 5.04041C10.9929 5.04998 11.2323 5.14259 11.4234 5.30356C11.8698 5.64533 11.8917 6.72293 11.2911 6.89069C10.9516 6.98074 10.6002 7.01763 10.2495 7.00006H9.49991V8.50006H10.2499C10.8871 8.54036 11.5106 8.71651 11.8362 9.36749C11.9334 9.5571 11.982 9.76791 11.9776 9.98097C11.9836 10.1701 11.9454 10.3581 11.8661 10.53C11.5216 11.2744 10.3721 11.3424 9.83857 10.8108C9.60406 10.5947 9.43672 10.3157 9.35655 10.007L7.52295 10.543C8.4406 14.4614 15.0203 13.4534 13.8845 9.20084Z"
    fill="#0288D1"
  />
</svg>
