<svg
  width="300"
  height="300"
  viewBox="0 0 300 300"
  fill="none"
  xmlns="http://www.w3.org/2000/svg"
>
  <path
    d="M90.0083 40.6978L171.274 25.6998C177.957 24.4664 186.693 27.8676 190.785 33.2968L270.22 138.683C274.313 144.112 272.212 149.513 265.528 150.746L184.263 165.744C177.579 166.978 168.844 163.577 164.752 158.147L85.3163 52.7616C81.2241 47.3324 83.3247 41.9313 90.0083 40.6978Z"
    fill="#4A4BCD"
  />
  <path
    d="M178.184 174.958L263.864 160.094C269.681 159.084 271.136 162.709 267.113 168.19L208.807 247.617C204.784 253.097 196.807 258.358 190.99 259.367L105.31 274.231C99.4933 275.24 98.0391 271.616 102.062 266.135L160.367 186.708C164.39 181.228 172.367 175.967 178.184 174.958Z"
    fill="#4A4BCD"
  />
  <path
    fill-rule="evenodd"
    clip-rule="evenodd"
    d="M52.112 142.638C50.769 146.153 25.82 165.886 26.368 169.915C26.916 173.945 56.18 185.938 58.408 188.942C60.636 191.946 68.953 230.61 72.011 231.442C75.069 232.274 90.839 200.168 93.559 198.51C96.279 196.852 126.367 201.013 127.709 197.5C129.052 193.985 109.535 162.148 108.988 158.119C108.44 154.089 118.72 117.999 116.49 114.994C114.261 111.989 86.43 124.421 83.372 123.588C80.313 122.755 56.579 96.288 53.858 97.945C51.138 99.602 53.454 139.122 52.112 142.638Z"
    fill="#4A4BCD"
  />
</svg>
