<svg viewBox="0 0 24 24" xmlns="http://www.w3.org/2000/svg">
  <path
    d="M13.15 7.455C12.636 7.45394 12.1434 7.24915 11.7801 6.8855C11.4168 6.52185 11.2125 6.02901 11.212 5.515C11.212 4.445 12.082 3.575 13.151 3.575C14.221 3.575 15.091 4.445 15.091 5.515C15.091 6.585 14.221 7.455 13.151 7.455M12 2C6.477 2 2 6.477 2 12C2 14.348 2.811 16.506 4.166 18.212C5.258 16.68 6.424 15.235 7.887 14.032C7.929 13.997 8.03 13.922 8.159 13.829C8.77254 13.3778 9.18527 12.7045 9.309 11.953V11.941C9.679 9.503 10.68 8.662 13.461 8.662C13.707 8.662 13.971 8.67 14.247 8.682C15.67 8.749 16.49 9.155 16.587 9.367C16.6354 9.4818 16.6449 9.6093 16.614 9.73L16.503 9.715C15.625 9.606 14.272 9.875 14.084 10.832C13.979 11.376 14.104 11.975 14.156 12.525C14.21 13.092 14.26 13.664 14.255 14.236C14.252 14.28 14.22 14.502 14.25 14.526C12.736 13.077 9.236 14.896 8.134 15.696C8.247 15.658 8.361 15.616 8.474 15.574C9.524 15.217 12.714 14.26 13.944 15.318C14.987 16.595 14.048 18.952 13.271 20.12C12.8073 20.8114 12.256 21.44 11.631 21.99C11.754 21.995 11.876 22 12 22C17.523 22 22 17.523 22 12C22 6.477 17.523 2 12 2Z"
    fill="#F44336"
  />
</svg>
