<svg viewBox="0 0 1024 1024" xmlns="http://www.w3.org/2000/svg">
<path d="M864 64C881.728 64 896 78.272 896 96V928C896 945.728 881.728 960 864 960H512V1024L448 960H384L320 1024V960H256C185.747 960 128.713 903.401 128.008 833.314C128.003 832.877 128 832.439 128 832V192C128 121.308 185.308 64 256 64H864ZM192 800C192 853.184 234.816 896 288 896H320V832H512V896H832V704H192V800ZM384 192C313.308 192 256 249.308 256 320C256.171 387.295 308.422 442.965 375.57 447.396L256 640H336L492.748 387.512H492.602C505.237 367.257 511.956 343.873 512 320C512 249.308 454.692 192 384 192ZM704 192C633.308 192 576 249.308 576 320C576.171 387.295 628.422 442.965 695.57 447.396L576 640H656L812.748 387.512H812.602C825.237 367.257 831.956 343.873 832 320C832 249.308 774.692 192 704 192Z" fill="#2196F3"/>
</svg>
