<svg viewBox="0 0 16 16" xmlns="http://www.w3.org/2000/svg">
  <path
    d="M10.5 9H7.5C7.22386 9 7 9.22386 7 9.5C7 9.77614 7.22386 10 7.5 10H10.5C10.7761 10 11 9.77614 11 9.5C11 9.22386 10.7761 9 10.5 9Z"
    fill="#0288D1"
  />
  <path
    d="M10.5 11H8.5C8.22386 11 8 11.2239 8 11.5C8 11.7761 8.22386 12 8.5 12H10.5C10.7761 12 11 11.7761 11 11.5C11 11.2239 10.7761 11 10.5 11Z"
    fill="#0288D1"
  />
  <path
    d="M10.5 13H7.5C7.22386 13 7 13.2239 7 13.5C7 13.7761 7.22386 14 7.5 14H10.5C10.7761 14 11 13.7761 11 13.5C11 13.2239 10.7761 13 10.5 13Z"
    fill="#0288D1"
  />
  <path d="M5 9L4 10L5.5 11.5L4 13L5 14L7.5 11.5L5 9Z" fill="#0288D1" />
  <path
    d="M5.99999 2C5.47339 2.00001 4.95608 2.13864 4.50003 2.40194C4.04399 2.66525 3.66529 3.04395 3.40199 3.5C3.17617 3.89229 3.04204 4.33058 3.00966 4.78206C2.97727 5.23354 3.04747 5.6865 3.21499 6.107C2.62365 6.26657 2.09531 6.60332 1.70099 7.072C1.33409 7.50952 1.09967 8.04267 1.02527 8.6088C0.950872 9.17493 1.03959 9.75054 1.28099 10.268C1.52236 10.7855 1.90643 11.2234 2.38808 11.5303C2.86972 11.8371 3.42893 12 3.99999 12V11C3.46956 11 2.96085 10.7893 2.58578 10.4142C2.2107 10.0391 1.99999 9.53043 1.99999 9C1.99999 8.46957 2.2107 7.96086 2.58578 7.58579C2.96085 7.21071 3.46956 7 3.99999 7C4.17423 7.00279 4.34737 7.02834 4.51499 7.076L4.67399 6.485C4.46363 6.29871 4.29489 6.07018 4.17876 5.81432C4.06263 5.55845 4.00171 5.28098 3.99999 5C3.99999 4.46957 4.2107 3.96086 4.58578 3.58579C4.96085 3.21071 5.46956 3 5.99999 3C6.53042 3 7.03913 3.21071 7.4142 3.58579C7.78928 3.96086 7.99999 4.46957 7.99999 5L8.59399 5.594C8.96571 5.21792 9.47123 5.00435 9.99999 5C10.5304 5 11.0391 5.21071 11.4142 5.58579C11.7893 5.96086 12 6.46957 12 7C12.5304 7 13.0391 7.21071 13.4142 7.58579C13.7893 7.96086 14 8.46957 14 9C14 9.53043 13.7893 10.0391 13.4142 10.4142C13.0391 10.7893 12.5304 11 12 11V12C12.6604 12.0001 13.3023 11.7823 13.8263 11.3803C14.3502 10.9784 14.727 10.4148 14.898 9.777C15.069 9.13901 15.0247 8.46241 14.7719 7.85218C14.5191 7.24195 14.0721 6.73219 13.5 6.402C13.3009 6.28926 13.0895 6.19968 12.87 6.135C12.742 5.70963 12.5211 5.31799 12.2233 4.98838C11.9255 4.65876 11.5582 4.39939 11.148 4.229C10.4276 3.93206 9.61999 3.92704 8.89599 4.215C8.75862 3.70815 8.49061 3.24623 8.11876 2.87543C7.74691 2.50463 7.28423 2.23793 6.77699 2.102C6.52356 2.03417 6.26234 1.99988 5.99999 2Z"
    fill="#0288D1"
  />
</svg>
