<svg viewBox="0 0 24 24" xmlns="http://www.w3.org/2000/svg">
  <path
    d="M12 20.129L15.5157 14.0324H15.5055C15.851 13.4228 16.0644 12.7419 16.0644 12.0002C16.0644 10.7809 15.5157 9.69361 14.6622 8.95191H19.5294C19.9155 9.89689 20.1289 10.9231 20.1289 12.0002C20.1289 13.0677 19.9186 14.1248 19.5101 15.111C19.1016 16.0973 18.5028 16.9934 17.748 17.7482C16.9932 18.503 16.097 19.1018 15.1108 19.5103C14.1246 19.9189 13.0675 20.129 12 20.129ZM3.87111 12.0002C3.87111 10.5167 4.26739 9.13481 4.95831 7.93581L8.48421 14.0324H8.49437C9.19548 15.2416 10.4758 16.0646 12 16.0646C12.4572 16.0646 12.8941 15.9732 13.3108 15.8309L10.8721 20.0376C6.91937 19.4889 3.87111 16.1053 3.87111 12.0002ZM15.0481 12.0002C15.0481 12.8087 14.7269 13.584 14.1552 14.1557C13.5836 14.7274 12.8082 15.0485 11.9998 15.0485C11.1913 15.0485 10.416 14.7274 9.84429 14.1557C9.27263 13.584 8.95147 12.8087 8.95147 12.0002C8.95147 11.1918 9.27263 10.4164 9.84429 9.84474C10.416 9.27307 11.1913 8.95191 11.9998 8.95191C12.8082 8.95191 13.5836 9.27307 14.1552 9.84474C14.7269 10.4164 15.0481 11.1918 15.0481 12.0002ZM11.9998 3.87131C15.0075 3.87131 17.629 5.50721 19.0313 7.93571H11.9998C10.0286 7.93571 8.39257 9.33791 8.01667 11.1974L5.59837 7.00091C7.08187 5.10081 9.39847 3.87131 11.9998 3.87131ZM11.9999 1.83911C9.305 1.83911 6.72051 2.90964 4.81496 4.8152C2.9094 6.72076 1.83887 9.30525 1.83887 12.0001C1.83887 14.695 2.9094 17.2795 4.81496 19.185C6.72051 21.0906 9.305 22.1611 11.9999 22.1611C14.6947 22.1611 17.2792 21.0906 19.1848 19.185C21.0903 17.2795 22.1609 14.695 22.1609 12.0001C22.1609 9.30525 21.0903 6.72076 19.1848 4.8152C17.2792 2.90964 14.6947 1.83911 11.9999 1.83911Z"
    fill="#42A5F5"
  />
</svg>
