<svg viewBox="0 0 16 16" xmlns="http://www.w3.org/2000/svg">
  <path
    d="M8 1C7.46957 1 6.96086 1.21071 6.58579 1.58579C6.21071 1.96086 6 2.46957 6 3H5C3.338 3 2 4.338 2 6V7L1 9L2 11V12C2 13.662 3.338 15 5 15H11C12.662 15 14 13.662 14 12V11L15 9L14 7V6C14 4.338 12.662 3 11 3H10C10 2.46957 9.78929 1.96086 9.41421 1.58579C9.03914 1.21071 8.53043 1 8 1ZM6 7C6.554 7 7 7.446 7 8V10C7 10.554 6.554 11 6 11C5.446 11 5 10.554 5 10V8C5 7.446 5.446 7 6 7ZM10 7C10.554 7 11 7.446 11 8V10C11 10.554 10.554 11 10 11C9.446 11 9 10.554 9 10V8C9 7.446 9.446 7 10 7Z"
    fill="#42A5F5"
  />
</svg>
