<svg viewBox="0 0 256 256" xmlns="http://www.w3.org/2000/svg">
  <path
    d="M123.456 129.975C122.254 132.581 121.074 135.196 119.916 137.821C115.51 147.802 110.632 159.948 108.85 167.729C108.209 170.5 107.813 173.934 107.821 177.742C107.821 179.248 107.901 180.831 108.029 182.444C114.429 184.793 121.192 185.998 128.01 186.003C134.226 185.992 140.401 184.986 146.299 183.022C144.948 181.786 143.658 180.469 142.484 178.985C134.688 169.043 130.338 154.473 123.456 129.975ZM94.6715 80.5859C79.7821 91.0794 70.0389 108.386 70.0019 128C70.0389 147.32 79.4891 164.403 94.0038 174.94C97.5642 160.11 106.489 146.53 119.872 119.31C119.008 116.934 118.104 114.572 117.158 112.227C113.45 102.926 108.099 92.1255 103.324 87.2344C100.889 84.6794 97.9351 82.4714 94.6715 80.5859Z"
    fill="#1E88E5"
  />
  <path
    d="M178.532 194.535C170.849 193.572 164.509 192.411 158.963 190.454C149.343 195.233 138.746 197.715 128.004 197.703C89.513 197.703 58.3106 166.505 58.3059 128.003C58.3059 107.112 67.5094 88.3839 82.0697 75.6114C78.1755 74.6706 74.1143 74.1214 69.9659 74.129C49.5158 74.3215 27.9286 85.6392 18.9413 116.204C18.101 120.653 18.3011 124.017 18.3011 128.005C18.3011 188.595 67.4212 237.719 128.006 237.719C165.11 237.719 197.888 219.282 217.738 191.086C207.002 193.761 196.677 195.041 187.836 195.068C184.522 195.068 181.411 194.891 178.531 194.539"
    fill="#1E88E5"
  />
  <path
    d="M157.922 173.271C158.6 173.607 160.135 174.155 162.272 174.761C176.647 164.208 185.989 147.209 186.026 127.997H186.021C185.966 95.9676 160.047 70.0517 128.01 69.9882C121.82 69.9996 115.672 70.9991 109.797 72.9492C121.576 86.3751 127.24 105.562 132.719 126.55C132.722 126.559 132.726 126.567 132.728 126.574C132.739 126.591 134.481 132.402 137.472 140.112C140.443 147.812 144.675 157.343 149.29 164.29C152.32 168.945 155.653 172.29 157.922 173.271Z"
    fill="#1E88E5"
  />
  <path
    d="M128.009 18.2893C91.2629 18.2893 58.7583 36.3787 38.8488 64.1155C49.2104 57.6263 59.7902 55.2856 69.0231 55.3691C81.7757 55.4061 91.8016 59.3601 96.612 62.065C97.7545 62.7313 98.8704 63.4422 99.9571 64.1961C108.795 60.3012 118.348 58.2936 128.006 58.3016C166.502 58.3064 197.709 89.504 197.715 128H197.709C197.709 147.409 189.771 164.957 176.973 177.594C180.115 177.946 183.464 178.165 186.885 178.148C199.036 178.154 212.169 175.473 222.014 167.192C228.434 161.784 233.813 153.865 236.796 141.993C237.379 137.407 237.715 132.746 237.715 128.002C237.715 67.4141 188.599 18.2874 128.01 18.2874"
    fill="#1E88E5"
  />
</svg>
