<svg viewBox="0 0 24 24" xmlns="http://www.w3.org/2000/svg">
  <path
    d="M13.5066 1.71013C12.5079 1.56359 11.4931 1.56359 10.4944 1.71013L9.83542 3.42993C9.00386 3.63992 8.2073 3.96988 7.47082 4.40942L5.78885 3.65967C4.97937 4.2621 4.2621 4.97937 3.65967 5.78885L4.40942 7.47082C3.96989 8.2073 3.63993 9.00385 3.42993 9.83542L1.71013 10.4944C1.56359 11.4931 1.56359 12.5079 1.71013 13.5066L3.42993 14.1656C3.63993 14.9972 3.96989 15.7937 4.40942 16.5302L3.65967 18.2122C4.2621 19.0217 4.97937 19.7389 5.78885 20.3414L7.47082 19.5916C8.2073 20.0312 9.00386 20.3611 9.83542 20.5711L10.4944 22.2909C11.4928 22.4375 12.5082 22.4375 13.5066 22.2909L14.1656 20.5711C14.9972 20.3611 15.7937 20.0312 16.5302 19.5916L18.2122 20.3414C19.0217 19.7389 19.7389 19.0217 20.3414 18.2122L19.5916 16.5302C20.0312 15.7937 20.3611 14.9972 20.5711 14.1656L22.2909 13.5066C22.4375 12.5082 22.4375 11.4928 22.2909 10.4944L20.5711 9.83542C20.3611 9.00385 20.0312 8.2073 19.5916 7.47082L20.3414 5.78885C19.7389 4.97937 19.0217 4.2621 18.2122 3.65967L16.5302 4.40942C15.7937 3.96988 14.9972 3.63992 14.1656 3.42993L13.5066 1.71013ZM12.0005 5.33597C15.6784 5.33597 18.6651 8.32268 18.6651 12.0005C18.6651 15.6784 15.6784 18.6651 12.0005 18.6651C8.32268 18.6651 5.33597 15.6784 5.33597 12.0005C5.33597 8.32268 8.32268 5.33597 12.0005 5.33597Z"
    fill="#0288D1"
  />
  <path
    d="M14.6762 14.6714C14.3256 15.024 13.9086 15.3037 13.4494 15.4944C12.9902 15.685 12.4978 15.7829 12.0005 15.7824C9.91295 15.7824 8.21868 14.0881 8.21868 12.0005C8.21868 9.91294 9.91295 8.21868 12.0005 8.21868C13.0453 8.21868 13.9917 8.64319 14.6762 9.3296L13.3393 10.6655C13.0751 10.4005 12.7382 10.2198 12.3712 10.1464C12.0042 10.0729 11.6237 10.11 11.2779 10.253C10.932 10.3959 10.6363 10.6383 10.4283 10.9494C10.2203 11.2605 10.1092 11.6263 10.1092 12.0005C10.1092 12.3748 10.2203 12.7406 10.4283 13.0517C10.6363 13.3628 10.932 13.6051 11.2779 13.7481C11.6237 13.891 12.0042 13.9281 12.3712 13.8547C12.7382 13.7812 13.0751 13.6006 13.3393 13.3355L14.6762 14.6714Z"
    fill="#0288D1"
  />
</svg>
