<svg viewBox="0 0 16 16" xmlns="http://www.w3.org/2000/svg">
  <path
    d="M15 8.913C15.0002 9.87185 14.7991 10.8201 14.4098 11.6963C14.0205 12.5726 13.4517 13.3574 12.74 14H11.06C11.095 13.838 11.008 13.726 10.895 13.65C10.659 13.488 10.51 13.219 10.545 12.94C10.638 12.205 11.09 11.266 12.739 10.404C13.854 9.816 14.059 8.604 14.137 8.426C14.25 8.132 14.219 7.883 13.983 7.645C13.556 7.214 13.094 6.823 12.534 6.57C11.748 6.205 10.946 6.225 10.15 6.519C10.011 6.569 10.042 6.463 10.032 6.418C9.9252 5.89992 9.7415 5.40073 9.487 4.937C8.968 4.014 8.244 3.334 7.165 3.106C7.005 3.07 6.841 3.06 6.677 3.04C6.6 3.03 6.559 3.05 6.579 3.141C6.723 3.821 6.924 4.475 7.36 5.033C7.56 5.292 7.833 5.464 8.1 5.642C8.383 5.834 8.68 6.012 8.948 6.23C9.2 6.443 9.405 6.691 9.503 7.047C9.467 7.01 9.45 7 9.44 6.986C8.618 5.697 7.01 5.129 5.392 5.596C5.242 5.636 5.263 5.687 5.335 5.794C5.803 6.504 6.445 7.011 7.205 7.402C7.77 7.691 8.356 7.929 8.993 8.01C9.281 8.046 9.143 8.238 9.188 8.467C9.25 8.822 9.399 8.933 9.348 8.903C8.371 8.517 7.56 8.365 6.887 8.365C4.107 8.365 3.655 10.982 3.676 11.013C3.635 10.997 2.966 10.754 2.818 11.413C2.664 12.083 3.573 12.519 3.573 12.519C3.691 11.728 4.41 11.555 4.498 11.535C4.426 11.575 3.958 11.845 3.814 12.58C3.691 13.23 4.21 13.802 4.405 14H3.255C2.54493 13.3564 1.97745 12.5713 1.58908 11.6952C1.2007 10.8191 1.00004 9.87134 1 8.913C1 5.093 4.129 2 7.997 2C11.867 2 15 5.094 15 8.913ZM9.914 14H9.174C9.21173 13.961 9.23682 13.9115 9.246 13.858C9.308 13.503 8.999 13.432 8.999 13.432H7.294C7.294 13.432 7.972 13.402 8.594 13.148C9.21 12.889 9.708 12.438 9.796 12.316C9.68883 12.5537 9.63085 12.8106 9.62552 13.0713C9.62019 13.332 9.66764 13.5911 9.765 13.833C9.79279 13.9049 9.84574 13.9642 9.914 14Z"
    fill="#F4511E"
  />
</svg>
