<svg
  width="24"
  height="24"
  viewBox="0 0 24 24"
  fill="none"
  xmlns="http://www.w3.org/2000/svg"
>
  <path
    d="M22.094 1.90601V22.093H1.90698V1.90601H22.094ZM10.508 16.51C11.3286 16.51 12.0143 16.3643 12.565 16.073V15.227C12.0176 15.559 11.3703 15.725 10.623 15.725C9.81631 15.725 9.16364 15.4567 8.66497 14.92C8.17031 14.38 7.92297 13.6567 7.92297 12.75C7.92297 11.7947 8.18764 11.0313 8.71697 10.46C9.25031 9.88932 9.94431 9.60399 10.799 9.60399C11.4423 9.60399 12.0306 9.75299 12.564 10.051V9.12099C12.1006 8.91699 11.5156 8.81499 10.809 8.81499C9.70831 8.81499 8.79964 9.18166 8.08297 9.91499C7.36697 10.649 7.00897 11.6113 7.00897 12.802C7.00897 13.91 7.32731 14.805 7.96397 15.487C8.60064 16.169 9.44864 16.51 10.508 16.51ZM16.36 8.29399C16.5953 8.29399 16.8053 8.34599 16.99 8.44999V7.59499C16.82 7.52499 16.5903 7.48999 16.301 7.48999C15.7656 7.48999 15.3186 7.67132 14.96 8.03399C14.6013 8.39266 14.422 8.88232 14.422 9.50299V10.463H13.41V11.273H14.423V16.385H15.366V11.273H16.754V10.463H15.366V9.54899C15.366 8.71232 15.6973 8.29399 16.36 8.29399Z"
    fill="#0D3858"
  />
</svg>
