<svg viewBox="0 0 16 16" xmlns="http://www.w3.org/2000/svg">
<path d="M9.41016 6C9.73588 6.00008 9.99992 6.26412 10 6.58984V7.5H11.0654C11.2877 6.63768 12.0683 6 13 6C14.1046 6 15 6.89543 15 8C15 9.10457 14.1046 10 13 10C12.0683 10 11.2877 9.36232 11.0654 8.5H10V9.41016C9.99992 9.73588 9.73588 9.99992 9.41016 10H6.58984C6.26412 9.99992 6.00008 9.73588 6 9.41016V8.5H4.93457C4.71235 9.36232 3.93171 10 3 10C1.89543 10 1 9.10457 1 8C1 6.89543 1.89543 6 3 6C3.93171 6 4.71235 6.63768 4.93457 7.5H6V6.58984C6.00008 6.26412 6.26412 6.00008 6.58984 6H9.41016Z" fill="#00BCD4"/>
</svg>
