<svg viewBox="0 0 32 32" xmlns="http://www.w3.org/2000/svg">
  <path
    d="M29.4225 17.4L17.4 29.4225C17.0279 29.7924 16.5246 30 16 30C15.4754 30 14.9721 29.7924 14.6 29.4225L2.57751 17.4C2.20762 17.0279 1.99999 16.5246 1.99999 16C1.99999 15.4754 2.20762 14.972 2.57751 14.6L14.6 2.57751C14.9721 2.20763 15.4754 2.00002 16 2.00002C16.5246 2.00002 17.0279 2.20763 17.4 2.57751L25.41 10.59L23 13C22.7642 12.9075 22.5132 12.86 22.26 12.86C21.871 12.8597 21.4893 12.9658 21.1562 13.1667C20.8231 13.3676 20.5512 13.6558 20.37 14H12C11.8262 13.6561 11.5603 13.3674 11.2318 13.1661C10.9033 12.9647 10.5253 12.8588 10.14 12.86C9.57244 12.86 9.02812 13.0855 8.62679 13.4868C8.22546 13.8881 8 14.4324 8 15C8 15.5676 8.22546 16.1119 8.62679 16.5132C9.02812 16.9145 9.57244 17.14 10.14 17.14C10.5253 17.1412 10.9033 17.0353 11.2318 16.8339C11.5603 16.6326 11.8262 16.3439 12 16H20L16.18 19.83H16.17C15.9672 19.7612 15.7541 19.7274 15.54 19.73C15.1177 19.731 14.7053 19.8572 14.3547 20.0926C14.0042 20.328 13.7313 20.6621 13.5706 21.0526C13.4099 21.4431 13.3687 21.8725 13.452 22.2864C13.5354 22.7004 13.7396 23.0803 14.0389 23.3782C14.3382 23.6761 14.7191 23.8785 15.1334 23.9599C15.5477 24.0413 15.9769 23.9981 16.3666 23.8356C16.7564 23.6731 17.0892 23.3986 17.323 23.047C17.5567 22.6953 17.681 22.2823 17.68 21.86C17.6826 21.6524 17.6488 21.4459 17.58 21.25L21.75 17.08C21.9169 17.1209 22.0882 17.141 22.26 17.1401C22.8274 17.1394 23.3713 16.9137 23.7725 16.5125C24.1737 16.1113 24.3994 15.5674 24.4 15C24.401 14.8282 24.3808 14.6569 24.34 14.49L26.83 12.01L29.4225 14.6C29.7924 14.972 30 15.4754 30 16C30 16.5246 29.7924 17.0279 29.4225 17.4Z"
    fill="#64B5F6"
  />
</svg>
