<svg viewBox="0 0 24 24" xmlns="http://www.w3.org/2000/svg">
  <path
    d="M13.4212 13.8638C13.6077 13.8515 13.7899 13.8021 13.9571 13.7187C14.1243 13.6352 14.2732 13.5193 14.3951 13.3777C14.5171 13.2361 14.6096 13.0716 14.6674 12.8938C14.7251 12.7161 14.7469 12.5286 14.7314 12.3424C14.7159 12.1561 14.6635 11.9748 14.5773 11.8091C14.491 11.6433 14.3726 11.4963 14.229 11.3767C14.0854 11.2572 13.9194 11.1674 13.7407 11.1127C13.562 11.0579 13.3742 11.0393 13.1882 11.0579C12.8207 11.0946 12.4823 11.2742 12.246 11.5581C12.0098 11.842 11.8945 12.2073 11.925 12.5754C11.9556 12.9435 12.1296 13.2848 12.4094 13.5258C12.6893 13.7669 13.0527 13.8882 13.4212 13.8638ZM15.0622 13.8437C14.7584 14.179 14.3826 14.441 13.9631 14.6103L13.9594 14.6195C14.2774 15.8438 14.7762 17.0134 15.4378 18.0906C14.859 18.3985 14.2289 18.5979 13.5784 18.679L13.4861 18.6909L13.1581 18.7156C13.0238 18.7156 12.8913 18.7284 12.7506 18.7202C12.1971 18.7086 11.6484 18.6149 11.1224 18.4424C10.4641 18.2285 9.84949 17.8983 9.30775 17.4675C9.16522 17.3597 9.05374 17.2509 8.95689 17.1669C8.85917 17.0737 8.76322 16.9786 8.66908 16.8818C8.66908 16.8818 8.75496 17.0006 8.91669 17.2043C9.00166 17.3021 9.09943 17.4264 9.22826 17.5543C9.53711 17.8785 9.88199 18.1663 10.2562 18.4122C10.4846 18.5639 10.7231 18.6991 10.9698 18.8179C11.5139 19.0806 12.0936 19.2622 12.6903 19.357C12.8419 19.3862 13.0055 19.3963 13.1636 19.4155L13.3838 19.4292L13.4934 19.4356L13.6186 19.4374C14.4466 19.4454 15.268 19.2905 16.0362 18.9815C16.2208 19.2327 16.4145 19.4767 16.6174 19.7133L16.5899 19.7307L16.3478 19.8806L16.314 19.9016L16.3058 19.9071L16.303 19.908L16.346 19.887L16.3414 19.8897L16.3241 19.8988L16.25 19.9354L16.0956 20.014L16.0143 20.056L15.9723 20.077L15.9513 20.088L15.943 20.0916L15.9705 20.0807L15.9595 20.0852L15.7795 20.1647L15.5904 20.2469L15.5666 20.2579L15.5629 20.2597L15.5821 20.2524L15.5757 20.2561L15.5629 20.2597L15.5136 20.2798L15.4113 20.32C14.4867 20.6755 13.5002 20.8417 12.5103 20.8089L12.3814 20.8043L12.2362 20.7933L11.9447 20.7696C11.7638 20.7413 11.5829 20.7285 11.3965 20.6883C10.6628 20.5554 9.95285 20.315 9.28948 19.9747C9.13121 19.8962 8.97663 19.8106 8.82623 19.7179C8.67547 19.632 8.53568 19.5352 8.39862 19.442C7.92228 19.1142 7.48484 18.7331 7.09477 18.3062C6.92939 18.1354 6.80513 17.9691 6.69457 17.8375C6.58767 17.7032 6.51366 17.5908 6.45884 17.5168L6.37569 17.4026L6.44696 17.525C6.49447 17.6036 6.55752 17.7242 6.65071 17.8695C6.74665 18.012 6.85538 18.192 7.00432 18.3821C7.35961 18.8575 7.76656 19.2921 8.21771 19.6777C8.34928 19.7883 8.4836 19.9034 8.63162 20.0085C9.09315 20.3518 9.58887 20.6467 10.1109 20.8884C10.4791 21.0565 10.8601 21.1981 11.2494 21.3105C11.4422 21.3735 11.6514 21.4128 11.8533 21.464L12.1421 21.517L12.2855 21.5435L12.4454 21.5663C12.8403 21.6193 13.2385 21.644 13.6369 21.6403C14.3519 21.6319 15.063 21.5328 15.753 21.3452L15.859 21.3151L15.9101 21.3014L15.9823 21.2785L16.3661 21.1543L16.5689 21.0766L16.7307 21.0135L16.8074 20.9834L16.8266 20.977L16.8312 20.9752L16.9244 20.9286L17.1811 20.8043L17.5009 20.649C17.7184 20.8573 17.9422 21.0592 18.1752 21.252C18.1752 21.252 19.2826 22.3932 19.893 21.9236C20.4668 21.4832 19.8062 20.0998 19.8062 20.0998C18.918 17.5697 17.2589 15.3817 15.0622 13.8437ZM11.1973 11.9688L11.1909 11.9606C9.98865 11.6066 8.74092 11.4311 7.48766 11.4398C7.52492 10.7583 7.69143 10.0901 7.97832 9.47077L8.01761 9.3858L8.06786 9.28894L8.1702 9.09433C8.24147 8.98011 8.30086 8.86225 8.38218 8.74712C8.68516 8.28329 9.05563 7.86724 9.48136 7.51271C10.0113 7.06827 10.6166 6.72231 11.2686 6.49119C11.4358 6.42724 11.5865 6.38977 11.7099 6.35231C11.9584 6.28927 12.1046 6.25911 12.1046 6.25911C12.1046 6.25911 11.9575 6.26825 11.6989 6.29749C11.5719 6.3185 11.4138 6.33495 11.2366 6.37607C10.7979 6.46614 10.3711 6.60656 9.9647 6.79454C9.16429 7.16052 8.45148 7.69358 7.87416 8.35788C7.76817 8.47118 7.67314 8.60458 7.57355 8.72885L7.44563 8.90793L7.38259 8.99747L7.31406 9.10346C6.856 9.82398 6.54687 10.6289 6.40493 11.4709L6.40127 11.4928C6.09545 11.5212 5.7907 11.5603 5.48757 11.6097L5.48849 11.4508L5.4894 11.1657V11.1145L5.48483 11.162L5.48575 11.1565L5.48757 11.1364L5.49488 11.0551L5.5095 10.8815L5.51773 10.7911L5.52229 10.7445L5.52412 10.7207V10.7152L5.52504 10.7125C5.52595 10.7043 5.51498 10.7701 5.51955 10.7408L5.52138 10.7289L5.54971 10.5343L5.57986 10.3306L5.58351 10.3041V10.3004L5.57986 10.3196L5.58077 10.3132L5.58351 10.3004L5.59356 10.2474L5.61366 10.1405C5.80113 9.16764 6.18273 8.24253 6.73569 7.42043L6.80787 7.31352L6.89467 7.19657L7.06827 6.96084C7.18888 6.82287 7.29487 6.67576 7.42827 6.54053C7.92923 5.98834 8.50935 5.51352 9.14968 5.13161C9.30319 5.0375 9.45669 4.9507 9.61293 4.87395C9.76552 4.7908 9.92085 4.7241 10.0725 4.6574C10.6028 4.42698 11.1577 4.25777 11.7263 4.15304C11.9593 4.1037 12.1667 4.08634 12.3367 4.06258C12.5066 4.04248 12.6418 4.03974 12.7332 4.03151L12.8748 4.02238L12.7332 4.01689C12.6418 4.01598 12.5057 4.00502 12.3339 4.00684C12.1612 4.01324 11.9511 4.00959 11.7108 4.03608C11.4407 4.05715 11.172 4.09283 10.9058 4.14299C10.5892 4.20249 10.2765 4.2809 9.96927 4.37781C9.80572 4.43171 9.63669 4.48471 9.46948 4.55415C9.29953 4.6172 9.12958 4.69121 8.95963 4.77344C8.23829 5.11003 7.57075 5.55156 6.97873 6.08368C6.82249 6.21434 6.67813 6.3715 6.52828 6.51495L6.33092 6.7315L6.23224 6.84023L6.12808 6.96358C5.87371 7.27033 5.64164 7.59492 5.43367 7.93484C5.06177 8.54569 4.76946 9.20155 4.56382 9.8865L4.53276 9.99158L4.51722 10.0427L4.49804 10.1168L4.44778 10.3169L4.40027 10.5069L4.31073 10.972L4.30707 10.9921L4.30616 10.9966L4.30068 11.0515L4.29976 11.0615L4.2952 11.1008L4.21113 11.8875C3.91692 11.967 3.62454 12.0565 3.3349 12.158C3.3349 12.158 1.78618 12.5198 1.87389 13.2846C1.95704 14.0036 3.48292 14.1498 3.48292 14.1498C6.10899 14.692 8.83898 14.3971 11.2887 13.3065C11.1572 12.8733 11.1259 12.4159 11.1973 11.9688ZM22.1023 11.1383C22.0684 10.7342 22.0046 10.3332 21.9113 9.93858C21.8711 9.7394 21.8017 9.53838 21.7478 9.33737L21.6043 8.92164L21.5459 8.77088C21.132 7.73438 20.5137 6.79188 19.7276 5.99962L19.6115 5.88358L19.5558 5.83242L19.4041 5.69262L19.2598 5.55922L19.0926 5.42125L18.9583 5.31069L18.8952 5.25861L18.8797 5.24582L18.8751 5.24217L18.8303 5.2111L18.7892 5.18369L18.241 4.8045C18.3223 4.48197 18.3908 4.15578 18.4466 3.82593C18.5023 3.49609 18.8788 2.29548 18.167 2.00219C17.4982 1.72625 16.632 2.99172 16.632 2.99172C14.8867 5.02746 13.8242 7.55944 13.5939 10.231C14.0371 10.326 14.4519 10.5197 14.8082 10.7984L14.8183 10.7965C15.6878 9.93807 16.4297 8.95928 17.0212 7.89007C17.5886 8.24641 18.0838 8.70509 18.4831 9.24234L18.538 9.31727L18.5992 9.40772L18.7216 9.59046C18.7874 9.70742 18.8632 9.81615 18.9254 9.94315C19.1876 10.4311 19.3758 10.9555 19.4836 11.4983C19.6213 12.1764 19.6355 12.8737 19.5257 13.5568C19.5019 13.7341 19.4626 13.8849 19.437 14.0109C19.3731 14.2595 19.3292 14.4011 19.3292 14.4011C19.3292 14.4011 19.3913 14.2677 19.4891 14.0274C19.5321 13.905 19.5933 13.7588 19.6408 13.5833C19.7011 13.3887 19.7504 13.1904 19.7888 12.9894C19.9408 12.189 19.933 11.3664 19.766 10.569C19.7029 10.2676 19.617 9.97128 19.5092 9.68275C19.4608 9.53564 19.3886 9.38854 19.3283 9.24143L19.2314 9.04316L19.183 8.94539L19.1227 8.83483C18.7171 8.09524 18.1661 7.44536 17.5027 6.92429C17.6334 6.63282 17.7531 6.33769 17.8618 6.03709L18.1606 6.20064L18.1944 6.21983L18.2054 6.22531L18.1661 6.19881L18.1706 6.20155L18.2556 6.2582L18.4 6.35505L18.4758 6.40531L18.5151 6.43089L18.5425 6.44916C18.5346 6.4435 18.5269 6.4374 18.5197 6.43089L18.5288 6.4382L18.686 6.55607L18.8513 6.67942L18.8724 6.69586L18.8751 6.69769L18.918 6.7315L19.003 6.80002C19.7674 7.43059 20.3972 8.20831 20.8551 9.08702L20.9145 9.20123L21.0981 9.59869C21.1621 9.77046 21.2407 9.93402 21.2964 10.1158C21.5413 10.8203 21.6811 11.5567 21.7103 12.3014C21.7195 12.4814 21.7222 12.6578 21.7149 12.8314C21.7149 13.005 21.6984 13.174 21.6856 13.3394C21.633 13.915 21.5159 14.4829 21.3366 15.0325C21.269 15.2609 21.1849 15.4509 21.1246 15.6117C21.0607 15.7707 20.9985 15.8904 20.962 15.9754L20.9026 16.1033L20.9748 15.9818C21.0196 15.9023 21.0936 15.7881 21.174 15.6355C21.2516 15.482 21.3549 15.2983 21.4472 15.0754C21.5577 14.8278 21.6546 14.5747 21.7377 14.317C21.8364 14.01 21.9177 13.6985 21.9789 13.3823C22.01 13.2124 22.0447 13.0388 22.063 12.8588C22.1367 12.2883 22.1498 11.7116 22.1023 11.1383Z"
    fill="#2196F3"
  />
</svg>
