<svg viewBox="0 0 24 24" xmlns="http://www.w3.org/2000/svg">
  <path
    d="M15.3978 2.27121C14.8166 2.58412 14.3473 2.94174 13.9449 3.3217C13.6544 2.8747 13.2744 2.40532 12.8051 1.98066C13.7214 1.98066 14.5708 2.07006 15.3978 2.27121Z"
    fill="#43B02A"
  />
  <path
    d="M8.65488 2.88925C9.3701 3.06805 9.92183 3.34405 10.4135 3.65696C10.6371 3.1429 10.9276 2.62883 11.3299 2.11477C10.4243 2.25409 9.51579 2.51462 8.65488 2.88925Z"
    fill="#43B02A"
  />
  <path
    d="M12.3804 5.64618C12.5369 5.24387 12.8274 4.66276 13.2968 4.05927C13.0062 3.54521 12.6039 3.03114 12.0675 2.58412C11.6428 3.12054 11.3523 3.65696 11.1511 4.19338C11.7546 4.70745 12.1346 5.24387 12.3804 5.64618Z"
    fill="#43B02A"
  />
  <path
    d="M11.7546 6.3167C11.1735 6.42846 10.7265 6.65197 10.7488 6.65197C10.7265 6.36139 10.7265 5.78029 10.8829 5.10976C11.3523 5.57911 11.6205 6.07083 11.7546 6.3167Z"
    fill="#43B02A"
  />
  <path
    d="M8.26786 6.40611C8.96075 6.69666 9.4301 7.05428 9.67597 7.25543C9.39031 7.47307 9.1626 7.69899 9.02811 7.83242C8.94167 7.91819 8.89368 7.9658 8.89368 7.9483C8.73724 7.6801 8.44668 7.14368 8.26786 6.40611Z"
    fill="#43B02A"
  />
  <path
    d="M6.34572 8.75294C7.17269 8.68587 7.88791 8.79763 8.24553 8.86469C7.88427 9.48091 7.70486 10.0568 7.70727 10.0928C7.39402 9.89107 6.83646 9.44445 6.34572 8.75294Z"
    fill="#43B02A"
  />
  <path
    d="M7.70727 10.0928L7.70911 10.094C7.70856 10.0945 7.70782 10.0945 7.70782 10.0945C7.70782 10.0945 7.7075 10.0941 7.7074 10.0937L7.70727 10.0928Z"
    fill="#43B02A"
  />
  <path
    d="M4.91526 11.2786C5.7199 10.7645 6.47981 10.541 6.99387 10.4739C6.59156 10.1387 6.01045 9.60227 5.54108 8.86469C4.87057 8.99878 4.17768 9.267 3.52951 9.714C3.90948 10.3845 4.40119 10.8986 4.91526 11.2786Z"
    fill="#43B02A"
  />
  <path
    d="M5.49639 11.7032C6.39041 11.1668 7.17269 11.0998 7.4856 11.0774C7.41853 11.5468 7.41853 12.0608 7.4856 12.5525C7.10562 12.4631 6.32336 12.2173 5.49639 11.7032Z"
    fill="#43B02A"
  />
  <path
    d="M10.1453 4.48394C9.65361 4.14867 9.02779 3.85812 8.24553 3.67932C8.08906 4.34985 8.06671 4.97567 8.11142 5.51207C8.87135 5.75793 9.45246 6.11555 9.85477 6.40611C9.85477 5.95909 9.92183 5.26622 10.1453 4.48394Z"
    fill="#43B02A"
  />
  <path
    d="M17.0294 2.85234C17.0294 2.85234 17.6552 4.77449 17.6775 5.75793C16.9176 5.93673 16.2471 6.20495 15.5095 6.83077C15.9118 7.03192 16.2694 7.27779 16.6047 7.56834C16.9623 7.88125 17.2976 8.01536 17.7669 7.79185C18.0351 7.61303 19.5327 6.07084 19.6891 5.86969C20.0468 5.48973 19.9574 4.86391 19.5774 4.57334C18.6386 3.70167 17.0294 2.85234 17.0294 2.85234Z"
    fill="#43B02A"
  />
  <path
    d="M5.16112 8.19416C4.49059 8.35061 3.82008 8.64118 3.14955 9.08818C3.46246 8.0377 3.97653 7.00957 4.6247 6.0932C4.66941 6.89781 4.87057 7.5907 5.16112 8.19416Z"
    fill="#43B02A"
  />
  <path
    d="M8.06671 8.10476C7.8432 7.6801 7.55264 6.98721 7.3962 6.1379C6.79272 6.00379 6.12221 5.93673 5.33992 6.04849C5.38463 6.83077 5.60814 7.5013 5.8987 8.08241C6.79272 7.9483 7.55264 8.01536 8.06671 8.10476Z"
    fill="#43B02A"
  />
  <path
    d="M5.33992 5.24387C6.05514 5.15447 6.72567 5.19916 7.3068 5.31091C7.28444 4.75231 7.32912 4.14906 7.46313 3.5011C6.66948 3.97645 5.94559 4.55965 5.33992 5.24387Z"
    fill="#43B02A"
  />
  <path
    d="M2.9484 10.0046C3.35071 10.6974 3.86477 11.2562 4.37884 11.6809C3.84242 12.1279 3.32835 12.6867 2.90369 13.4689C2.72489 12.3514 2.72489 11.1445 2.9484 10.0046Z"
    fill="#43B02A"
  />
  <path
    d="M18.6511 16.6879C17.8322 15.8225 17.4551 15.424 16.5153 16.151C13.2744 18.699 8.60313 17.1791 7.61971 13.2231C7.44089 13.2007 6.18925 12.9549 4.91526 12.0832C4.28944 12.5749 3.64126 13.3348 3.10486 14.43H3.08251C5.11641 22.1187 15.0178 23.9067 19.5997 19.1013C20.2924 18.3678 19.7778 17.8386 19.4783 17.5307C19.2038 17.2484 18.9219 16.974 18.6511 16.6879Z"
    fill="#43B02A"
  />
  <path
    d="M14.4143 4.17103C14.8166 3.74636 15.3307 3.34405 15.9789 3.03114C16.4259 3.72401 16.5823 4.551 16.627 4.998C16.2471 5.15447 15.6213 5.44502 14.9954 5.93673C14.906 5.53442 14.7496 4.88625 14.4143 4.17103Z"
    fill="#43B02A"
  />
  <path
    d="M13.7438 5.02036C13.4309 5.51207 13.2521 5.95909 13.1627 6.20495C13.4756 6.2273 13.7885 6.272 14.1014 6.33906C14.0791 6.07084 13.9673 5.60149 13.7438 5.02036Z"
    fill="#43B02A"
  />
</svg>
