<svg viewBox="0 0 32 32" xmlns="http://www.w3.org/2000/svg">
  <path
    d="M28.324 7.81469L16.646 2.14749C16.2394 1.95084 15.7612 1.95084 15.3547 2.14749L3.67667 7.81469C3.25588 8.07093 3.00054 8.51884 3.00067 9.00049V23.0005C3.00042 23.5311 3.30971 24.0163 3.79945 24.2535L15.4215 29.8675C15.7862 30.0439 16.2152 30.0439 16.5799 29.8675L28.2019 24.2535C28.6916 24.0163 29.0009 23.5311 29.0006 23.0005V9.00049C29.0008 8.51883 28.7448 8.07093 28.324 7.81469ZM14 25.9997L5.99997 21.9997V10.9997L14 14.9997V25.9997ZM16 12.9997L7.99997 8.99969L16 4.99969L24 8.99969L16 12.9997ZM26 21.9997L18 25.9997V14.9997L26 10.9997V21.9997Z"
    fill="#00B0FF"
  />
</svg>
