<svg viewBox="0 0 32 32" xmlns="http://www.w3.org/2000/svg">
  <path
    d="M28.324 7.81504L16.646 2.14704C16.4446 2.05002 16.224 1.99963 16.0005 1.99963C15.777 1.99963 15.5564 2.05002 15.355 2.14704L3.677 7.81604C3.47192 7.93858 3.30188 8.11191 3.1833 8.3193C3.06471 8.52669 3.00158 8.76115 3 9.00004V23C3.00187 23.2629 3.07771 23.5199 3.21884 23.7417C3.35996 23.9635 3.56067 24.141 3.798 24.254L15.42 29.868C15.785 30.044 16.214 30.044 16.579 29.868L28.201 24.254C28.691 24.016 29 23.531 29 23.001V9.00004C29 8.51804 28.744 8.07104 28.324 7.81504ZM14 26L6 22V11L14 15V26ZM16 13L8 9.00004L16 5.00004L24 9.00004L16 13ZM26 22L18 26V15L26 11V22Z"
    fill="#00B0FF"
  />
</svg>
