<svg viewBox="0 0 16 16" xmlns="http://www.w3.org/2000/svg">
  <path
    d="M7.70546 1.55828C7.906 1.40607 8.14923 1.32512 8.39843 1.32766C8.64762 1.3302 8.88924 1.41609 9.08682 1.57236L13.2315 4.85066C13.3707 4.96101 13.4835 5.10277 13.5611 5.26503C13.6387 5.42728 13.679 5.6057 13.679 5.78653C13.679 5.96736 13.6387 6.14578 13.5611 6.30803C13.4835 6.47029 13.3707 6.61205 13.2315 6.7224L11.6508 7.97227L13.2571 9.30109C13.8419 9.78464 13.8258 10.7052 13.2255 11.1667L8.97081 14.4377C8.75874 14.6006 8.49849 14.6831 8.23409 14.6713C7.96969 14.6594 7.71738 14.554 7.51985 14.3728L4.19079 11.3148L3.72558 10.9035C1.64819 9.06728 1.90399 5.68492 4.22827 4.20063L7.70546 1.55828ZM11.0369 7.46485L12.7651 6.09869C12.8116 6.06194 12.8493 6.01467 12.8752 5.96054C12.9012 5.90641 12.9146 5.84688 12.9146 5.78653C12.9146 5.72618 12.9012 5.66664 12.8752 5.61252C12.8493 5.55839 12.8116 5.51112 12.7651 5.47437L8.62041 2.19607C8.55471 2.14363 8.47414 2.11477 8.39099 2.11388C8.30784 2.113 8.2267 2.14014 8.15996 2.19117L4.65719 4.85311L4.64351 4.86168C2.74756 6.06197 2.53518 8.81388 4.2241 10.3067L4.69764 10.7254L8.02908 13.7858C8.09478 13.8465 8.17894 13.8819 8.26718 13.8858C8.35541 13.8897 8.44222 13.8619 8.51274 13.8072L12.7675 10.5363C12.8142 10.5003 12.8523 10.4539 12.8789 10.4004C12.9055 10.347 12.9198 10.288 12.9209 10.228C12.9219 10.168 12.9096 10.1086 12.8849 10.0542C12.8601 9.99984 12.8236 9.95202 12.7782 9.9144L11.0268 8.46621L9.09574 9.99274C8.89511 10.1514 8.64917 10.2374 8.39614 10.2374C8.14311 10.2374 7.89717 10.1514 7.69654 9.99274L6.25688 8.85427C6.11764 8.74393 6.00488 8.60216 5.92729 8.43991C5.8497 8.27765 5.80935 8.09923 5.80935 7.9184C5.80935 7.73757 5.8497 7.55916 5.92729 7.3969C6.00488 7.23464 6.11764 7.09288 6.25688 6.98253L7.68642 5.85141C7.8904 5.69026 8.14105 5.60423 8.39822 5.60711C8.65538 5.61 8.90415 5.70163 9.10466 5.86732L11.0369 7.46485ZM10.4128 7.9588L8.62577 6.48063C8.55909 6.42498 8.47608 6.39415 8.39023 6.39315C8.30437 6.39215 8.22071 6.42104 8.15282 6.47512L6.72328 7.60624C6.67676 7.64299 6.63907 7.69026 6.61314 7.74439C6.58721 7.79852 6.57372 7.85806 6.57372 7.9184C6.57372 7.97875 6.58721 8.03829 6.61314 8.09242C6.63907 8.14655 6.67676 8.19381 6.72328 8.23056L8.16353 9.36903C8.23022 9.42209 8.31213 9.45088 8.39643 9.45088C8.48073 9.45088 8.56265 9.42209 8.62934 9.36903L10.4128 7.9588Z"
    fill="#651FFF"
  />
  <path
    d="M7.70546 1.55828C7.906 1.40607 8.14923 1.32512 8.39843 1.32766C8.64762 1.3302 8.88924 1.41609 9.08682 1.57236L13.2315 4.85066C13.3707 4.96101 13.4835 5.10277 13.5611 5.26503C13.6387 5.42728 13.679 5.6057 13.679 5.78653C13.679 5.96736 13.6387 6.14578 13.5611 6.30803C13.4835 6.47029 13.3707 6.61205 13.2315 6.7224L11.6508 7.97227L13.2571 9.30109C13.8419 9.78464 13.8258 10.7052 13.2255 11.1667L8.97081 14.4377C8.75874 14.6006 8.49849 14.6831 8.23409 14.6713C7.96969 14.6594 7.71738 14.554 7.51985 14.3728L4.19079 11.3148L3.72558 10.9035C1.64819 9.06728 1.90399 5.68492 4.22827 4.20063L7.70546 1.55828ZM11.0369 7.46485L12.7651 6.09869C12.8116 6.06194 12.8493 6.01467 12.8752 5.96054C12.9012 5.90641 12.9146 5.84688 12.9146 5.78653C12.9146 5.72618 12.9012 5.66664 12.8752 5.61252C12.8493 5.55839 12.8116 5.51112 12.7651 5.47437L8.62041 2.19607C8.55471 2.14363 8.47414 2.11477 8.39099 2.11388C8.30784 2.113 8.2267 2.14014 8.15996 2.19117L4.65719 4.85311L4.64351 4.86168C2.74756 6.06197 2.53518 8.81388 4.2241 10.3067L4.69764 10.7254L8.02908 13.7858C8.09478 13.8465 8.17894 13.8819 8.26718 13.8858C8.35541 13.8897 8.44222 13.8619 8.51274 13.8072L12.7675 10.5363C12.8142 10.5003 12.8523 10.4539 12.8789 10.4004C12.9055 10.347 12.9198 10.288 12.9209 10.228C12.9219 10.168 12.9096 10.1086 12.8849 10.0542C12.8601 9.99984 12.8236 9.95202 12.7782 9.9144L11.0268 8.46621L9.09574 9.99274C8.89511 10.1514 8.64917 10.2374 8.39614 10.2374C8.14311 10.2374 7.89717 10.1514 7.69654 9.99274L6.25688 8.85427C6.11764 8.74393 6.00488 8.60216 5.92729 8.43991C5.8497 8.27765 5.80935 8.09923 5.80935 7.9184C5.80935 7.73757 5.8497 7.55916 5.92729 7.3969C6.00488 7.23464 6.11764 7.09288 6.25688 6.98253L7.68642 5.85141C7.8904 5.69026 8.14105 5.60423 8.39822 5.60711C8.65538 5.61 8.90415 5.70163 9.10466 5.86732L11.0369 7.46485ZM10.4128 7.9588L8.62577 6.48063C8.55909 6.42498 8.47608 6.39415 8.39023 6.39315C8.30437 6.39215 8.22071 6.42104 8.15282 6.47512L6.72328 7.60624C6.67676 7.64299 6.63907 7.69026 6.61314 7.74439C6.58721 7.79852 6.57372 7.85806 6.57372 7.9184C6.57372 7.97875 6.58721 8.03829 6.61314 8.09242C6.63907 8.14655 6.67676 8.19381 6.72328 8.23056L8.16353 9.36903C8.23022 9.42209 8.31213 9.45088 8.39643 9.45088C8.48073 9.45088 8.56265 9.42209 8.62934 9.36903L10.4128 7.9588Z"
    stroke="#651FFF"
    stroke-width="0.647479"
  />
</svg>
