<svg viewBox="0 0 16 16" xmlns="http://www.w3.org/2000/svg">
  <path
    d="M8.00208 10.45C7.3523 10.45 6.72913 10.1919 6.26967 9.73241C5.8102 9.27295 5.55208 8.64978 5.55208 8C5.55208 7.35022 5.8102 6.72705 6.26967 6.26759C6.72913 5.80813 7.3523 5.55 8.00208 5.55C8.32382 5.55 8.64241 5.61337 8.93965 5.7365C9.2369 5.85962 9.50699 6.04009 9.73449 6.26759C9.96199 6.49509 10.1425 6.76518 10.2656 7.06243C10.3887 7.35968 10.4521 7.67826 10.4521 8C10.4521 8.32174 10.3887 8.64033 10.2656 8.93758C10.1425 9.23482 9.96199 9.50491 9.73449 9.73241C9.50699 9.95992 9.2369 10.1404 8.93965 10.2635C8.64241 10.3866 8.32382 10.45 8.00208 10.45ZM13.2021 8.679C13.2311 8.455 13.2521 8.231 13.2521 8C13.2521 7.769 13.2311 7.538 13.2021 7.3L14.6801 6.159C14.7448 6.1063 14.7887 6.03239 14.8041 5.95038C14.8195 5.86837 14.8053 5.78356 14.7641 5.711L13.3641 3.289C13.2801 3.135 13.0911 3.072 12.9371 3.135L11.1941 3.835C10.8325 3.554 10.4346 3.32324 10.0111 3.149L9.75108 1.294C9.73693 1.21171 9.69414 1.13706 9.63027 1.08326C9.56641 1.02946 9.48558 0.999973 9.40208 1H6.60208C6.5184 0.999737 6.43734 1.02912 6.37327 1.08294C6.3092 1.13676 6.26626 1.21154 6.25208 1.294L5.99408 3.149C5.5706 3.32324 5.17265 3.554 4.81108 3.835L3.06808 3.135C2.99034 3.10446 2.90414 3.10324 2.82557 3.13158C2.747 3.15991 2.68143 3.21587 2.64108 3.289L1.24108 5.711C1.19822 5.78312 1.1831 5.86839 1.19856 5.95085C1.21402 6.03331 1.259 6.10731 1.32508 6.159L2.80008 7.3C2.76974 7.53216 2.75304 7.76589 2.75008 8C2.75008 8.231 2.77208 8.455 2.80008 8.679L1.32408 9.841C1.258 9.89269 1.21302 9.96669 1.19756 10.0492C1.1821 10.1316 1.19722 10.2169 1.24008 10.289L2.64008 12.711C2.72408 12.865 2.91308 12.921 3.06708 12.865L4.81008 12.158C5.17408 12.438 5.55208 12.676 5.99308 12.851L6.25208 14.706C6.26626 14.7885 6.3092 14.8632 6.37327 14.9171C6.43734 14.9709 6.5184 15.0003 6.60208 15H9.40208C9.48576 15.0003 9.56682 14.9709 9.63089 14.9171C9.69496 14.8632 9.7379 14.7885 9.75208 14.706L10.0111 12.851C10.4348 12.6743 10.8328 12.4412 11.1941 12.158L12.9371 12.865C13.0911 12.921 13.2801 12.865 13.3641 12.711L14.7641 10.289C14.8053 10.2164 14.8195 10.1316 14.8041 10.0496C14.7887 9.96762 14.7448 9.8937 14.6801 9.841L13.2021 8.679Z"
    fill="#FFC107"
  />
</svg>
