<svg viewBox="0 0 32 32" xmlns="http://www.w3.org/2000/svg">
  <path
    d="M28 14V10H26V14H20V10H18V14H14V16H18V20H20V16H26V20H28V16H32V14H28Z"
    fill="#0288D1"
  />
  <path
    d="M13.5635 22C12.0885 21.9983 10.6743 21.4116 9.63136 20.3686C8.58836 19.3257 8.00168 17.9115 8 16.4365V13.5635C8.00165 12.0885 8.58834 10.6744 9.63133 9.63136C10.6743 8.58836 12.0885 8.00166 13.5635 8H18V2H13.5635C10.4967 2 7.55544 3.2183 5.38687 5.38687C3.2183 7.55544 2 10.4967 2 13.5635V16.4365C2.00001 19.5033 3.2183 22.4445 5.38687 24.6131C7.55544 26.7817 10.4967 28 13.5635 28H18V22H13.5635Z"
    fill="#0288D1"
  />
</svg>
