<svg viewBox="0 0 136 136" xmlns="http://www.w3.org/2000/svg">
  <path
    d="M56.887 118.787L56.879 110.574L53.965 109.637C52.362 109.122 49.675 108.005 47.993 107.156L44.935 105.611L39.4 111.138L33.865 116.666L26.503 109.303L19.141 101.941L24.611 96.437L30.081 90.932L28.429 87.714C27.521 85.944 26.299 83.011 25.715 81.195L24.652 77.893H8.467V56.896L16.68 56.888L24.892 56.88L25.836 53.925C26.355 52.299 27.546 49.458 28.485 47.611L30.19 44.252L24.665 38.719L19.14 33.186L26.502 25.824L33.864 18.462L39.538 24.09L45.212 29.718L47.868 28.351C49.329 27.599 51.996 26.478 53.795 25.86L57.065 24.736L57.156 16.601L57.247 8.467H78.22L78.311 16.634L78.401 24.802L81.439 25.792C83.109 26.336 85.899 27.488 87.64 28.352L90.805 29.922L96.205 24.531L101.603 19.14L108.965 26.502L116.327 33.864L110.921 39.279L105.514 44.693L107.138 47.943C108.032 49.731 109.17 52.476 109.668 54.043L110.575 56.893L118.788 56.895L127 56.896V77.894H110.855L109.768 81.196C109.17 83.012 107.938 85.946 107.03 87.715L105.38 90.932L110.854 96.437L116.329 101.942L108.966 109.304L101.604 116.666L96.07 111.139L90.535 105.612L87.465 107.162C85.775 108.016 82.932 109.196 81.145 109.787L77.895 110.86V127H56.897L56.889 118.787H56.887ZM74.219 96.707C83.566 94.727 91.632 87.957 95.169 79.124C96.67 75.374 97.186 72.55 97.186 68.072C97.186 63.61 96.67 60.769 95.19 57.073C91.63 48.183 83.59 41.422 74.22 39.435C71.324 38.822 64.82 38.822 61.925 39.435C52.553 41.422 44.514 48.184 40.954 57.073C39.474 60.769 38.959 63.61 38.959 68.072C38.959 74.44 40.417 79.341 43.844 84.492C47.874 90.546 54.618 95.137 61.773 96.694C64.539 97.296 71.41 97.304 74.219 96.71V96.707ZM54.073 78.972L51.818 76.716L56.3 72.226L60.781 67.734L56.3 63.243L51.818 58.752L54.073 56.496L56.328 54.241L63.216 60.898C67.005 64.558 70.104 67.635 70.104 67.734C70.104 67.833 67.004 70.909 63.216 74.57L56.328 81.227L54.073 78.972ZM69.99 78.972L67.735 76.716L72.217 72.226L76.699 67.734L72.217 63.243L67.735 58.752L69.99 56.496L72.246 54.241L79.133 60.898C82.922 64.558 86.021 67.635 86.021 67.734C86.021 67.833 82.921 70.909 79.133 74.57L72.246 81.227L69.99 78.972Z"
    fill="#00BFA5"
  />
</svg>
