<svg viewBox="0 0 32 32" xmlns="http://www.w3.org/2000/svg">
  <path
    d="M26 11.998V13.998H28V27.998H14V25.998H12V29.998L30 30V11.998H26Z"
    fill="#7E57C2"
  />
  <path
    d="M16 14H14V12H12V14C12 14.193 12 14.703 13.254 15.033C13.9727 15.1602 14.6301 15.519 15.1259 16.0547C15.6217 16.5904 15.9287 17.2736 16 18H18V20H20V18C20 17.612 19.438 17.149 18.746 16.966C16.356 16.34 16 14.84 16 14ZM12.746 16.966C10.356 16.34 10 14.84 10 14H8V12H6V20H8V18H12V20H14V18C14 17.612 13.438 17.149 12.746 16.966Z"
    fill="#7E57C2"
  />
  <path
    d="M2 2V23.998H24V2H2ZM22 14H20V12H18V14C18 14.193 18 14.703 19.254 15.033C19.9727 15.1602 20.6301 15.519 21.1259 16.0547C21.6217 16.5904 21.9287 17.2736 22 18V20C22 20.5304 21.7893 21.0391 21.4142 21.4142C21.0391 21.7893 20.5304 22 20 22H18C17.4696 22 16.9609 21.7893 16.5858 21.4142C16.2107 21.0391 16 20.5304 16 20C16 20.5304 15.7893 21.0391 15.4142 21.4142C15.0391 21.7893 14.5304 22 14 22H12C11.4696 22 10.9609 21.7893 10.5858 21.4142C10.2107 21.0391 10 20.5304 10 20C10 20.5304 9.78929 21.0391 9.41421 21.4142C9.03914 21.7893 8.53043 22 8 22H6C5.46957 22 4.96086 21.7893 4.58579 21.4142C4.21071 21.0391 4 20.5304 4 20V12C4 11.4696 4.21071 10.9609 4.58579 10.5858C4.96086 10.2107 5.46957 10 6 10H8C8.53043 10 9.03914 10.2107 9.41421 10.5858C9.78929 10.9609 10 11.4696 10 12C10 11.4696 10.2107 10.9609 10.5858 10.5858C10.9609 10.2107 11.4696 10 12 10H14C14.5304 10 15.0391 10.2107 15.4142 10.5858C15.7893 10.9609 16 11.4696 16 12C16 11.4696 16.2107 10.9609 16.5858 10.5858C16.9609 10.2107 17.4696 10 18 10H20C20.5304 10 21.0391 10.2107 21.4142 10.5858C21.7893 10.9609 22 11.4696 22 12V14Z"
    fill="#7E57C2"
  />
</svg>
