<svg viewBox="0 0 32 32" xmlns="http://www.w3.org/2000/svg">
  <path
    d="M20 18H18V16H16V18C16 18.193 16 18.703 17.254 19.033C17.9727 19.1602 18.6301 19.519 19.1259 20.0547C19.6217 20.5904 19.9287 21.2736 20 22H22V24H24V22C24 21.612 23.438 21.149 22.746 20.966C20.356 20.34 20 18.84 20 18ZM16.746 20.966C14.356 20.34 14 18.84 14 18H12V16H10V24H12V22H16V24H18V22C18 21.612 17.438 21.149 16.746 20.966Z"
    fill="#7E57C2"
  />
  <path
    d="M24 4H4V24C4 25.0609 4.42143 26.0783 5.17157 26.8284C5.92172 27.5786 6.93913 28 8 28H24.16C25.1784 28 26.1552 27.5954 26.8753 26.8753C27.5954 26.1552 28 25.1784 28 24.16V8C28 6.93913 27.5786 5.92172 26.8284 5.17157C26.0783 4.42143 25.0609 4 24 4ZM26 18H24V16H22V18C22 18.193 22 18.703 23.254 19.033C23.9727 19.1602 24.6301 19.519 25.1259 20.0547C25.6217 20.5904 25.9287 21.2736 26 22V24C26 24.5304 25.7893 25.0391 25.4142 25.4142C25.0391 25.7893 24.5304 26 24 26H22C21.4696 26 20.9609 25.7893 20.5858 25.4142C20.2107 25.0391 20 24.5304 20 24C20 24.5304 19.7893 25.0391 19.4142 25.4142C19.0391 25.7893 18.5304 26 18 26H16C15.4696 26 14.9609 25.7893 14.5858 25.4142C14.2107 25.0391 14 24.5304 14 24C14 24.5304 13.7893 25.0391 13.4142 25.4142C13.0391 25.7893 12.5304 26 12 26H10C9.46957 26 8.96086 25.7893 8.58579 25.4142C8.21071 25.0391 8 24.5304 8 24V16C8 15.4696 8.21071 14.9609 8.58579 14.5858C8.96086 14.2107 9.46957 14 10 14H12C12.5304 14 13.0391 14.2107 13.4142 14.5858C13.7893 14.9609 14 15.4696 14 16C14 15.4696 14.2107 14.9609 14.5858 14.5858C14.9609 14.2107 15.4696 14 16 14H18C18.5304 14 19.0391 14.2107 19.4142 14.5858C19.7893 14.9609 20 15.4696 20 16C20 15.4696 20.2107 14.9609 20.5858 14.5858C20.9609 14.2107 21.4696 14 22 14H24C24.5304 14 25.0391 14.2107 25.4142 14.5858C25.7893 14.9609 26 15.4696 26 16V18Z"
    fill="#7E57C2"
  />
</svg>
