<svg width="27" height="29" viewBox="0 0 27 29" fill="none" xmlns="http://www.w3.org/2000/svg">
<path d="M13.633 0.0880247C6.60501 0.0880247 0.919006 5.77402 0.919006 12.802C0.919006 18.989 5.35401 24.129 11.207 25.273V28.913C18.816 27.765 25.553 21.726 26.055 13.796C26.358 9.02402 23.979 4.15202 19.965 1.78602C19.4994 1.50635 19.013 1.26297 18.51 1.05802L18.267 0.961025C18.044 0.878025 17.819 0.786025 17.587 0.718025C16.311 0.298853 14.9761 0.0861747 13.633 0.0880247ZM16.253 4.79502C16.978 4.87002 17.66 5.45002 17.612 6.27402C17.6056 6.62758 17.5227 6.97554 17.369 7.29402C16.904 8.38102 15.981 9.07502 14.894 9.30802C14.196 8.45402 14.04 7.28902 14.506 6.20202C14.661 5.89102 14.807 5.59003 15.04 5.28003C15.1868 5.10577 15.3743 4.97036 15.5858 4.88577C15.7974 4.80118 16.0265 4.77002 16.253 4.79502ZM10.599 4.86802H10.6C10.8225 4.84509 11.0473 4.87725 11.2545 4.96165C11.4616 5.04605 11.6449 5.18012 11.788 5.35203C12.022 5.58603 12.167 5.89202 12.322 6.20202C12.788 7.28902 12.627 8.45402 12.006 9.30802C10.92 9.07402 9.92601 8.38102 9.46001 7.29402C9.30401 6.98302 9.21701 6.58502 9.21701 6.27502C9.21701 5.49802 9.89101 4.93502 10.599 4.86802ZM6.79001 8.60302C6.87201 8.59902 6.94601 8.59302 7.03301 8.60302C7.42201 8.60302 7.73701 8.69102 8.12501 8.84602C9.21201 9.31202 10.002 10.238 10.235 11.248C9.30401 11.869 8.04701 12.029 6.96001 11.563C6.65001 11.408 6.34801 11.238 6.03801 11.005C5.02001 10.205 5.56601 8.66602 6.79001 8.60302ZM18.751 13.31C19.185 13.3165 19.6136 13.4072 20.013 13.577C20.324 13.732 20.625 13.878 20.935 14.111C22.021 14.887 21.338 16.615 19.941 16.537C19.553 16.537 19.237 16.449 18.848 16.294C17.761 15.828 16.971 14.902 16.738 13.893C17.3351 13.5006 18.0366 13.2974 18.751 13.31ZM8.14801 13.383C8.85522 13.3702 9.54949 13.5736 10.138 13.966C9.98301 14.975 9.21101 15.901 8.12401 16.367C7.78292 16.5291 7.40965 16.6122 7.03201 16.61C5.63401 16.688 4.95501 15.062 5.96401 14.208C6.19701 13.975 6.49801 13.805 6.88701 13.65C7.28629 13.4809 7.71443 13.3902 8.14801 13.383ZM12.079 15.761C12.701 16.692 12.861 17.857 12.395 18.866C12.239 19.177 12.094 19.479 11.861 19.789C11.085 20.799 9.28401 20.089 9.36101 18.769C9.36101 18.459 9.44901 18.085 9.60401 17.775C10.07 16.688 10.992 15.994 12.079 15.761ZM14.966 15.834C16.053 16.067 17.048 16.76 17.514 17.847C17.669 18.158 17.757 18.556 17.757 18.866C17.835 20.031 16.039 20.719 15.185 19.789C14.951 19.555 14.806 19.25 14.651 18.939C14.185 17.852 14.345 16.688 14.966 15.834Z" fill="#4CAF50"/>
</svg>
