<svg viewBox="0 0 33 33" xmlns="http://www.w3.org/2000/svg">
  <path
    d="M16.633 2.08802C9.60501 2.08802 3.91901 7.77402 3.91901 14.802C3.91901 20.989 8.35401 26.129 14.207 27.273V30.913C21.816 29.765 28.553 23.726 29.055 15.796C29.358 11.024 26.979 6.15202 22.965 3.78602C22.4994 3.50635 22.013 3.26297 21.51 3.05802L21.267 2.96102C21.044 2.87802 20.819 2.78602 20.587 2.71802C19.311 2.29885 17.9761 2.08617 16.633 2.08802ZM19.253 6.79502C19.978 6.87002 20.66 7.45002 20.612 8.27402C20.6056 8.62758 20.5227 8.97554 20.369 9.29402C19.904 10.381 18.981 11.075 17.894 11.308C17.196 10.454 17.04 9.28902 17.506 8.20202C17.661 7.89102 17.807 7.59003 18.04 7.28003C18.1868 7.10577 18.3743 6.97036 18.5858 6.88577C18.7974 6.80118 19.0265 6.77002 19.253 6.79502ZM13.599 6.86802H13.6C13.8225 6.84509 14.0473 6.87725 14.2545 6.96165C14.4616 7.04605 14.6449 7.18012 14.788 7.35203C15.022 7.58603 15.167 7.89202 15.322 8.20202C15.788 9.28902 15.627 10.454 15.006 11.308C13.92 11.074 12.926 10.381 12.46 9.29402C12.304 8.98302 12.217 8.58502 12.217 8.27502C12.217 7.49802 12.891 6.93502 13.599 6.86802ZM9.79001 10.603C9.87201 10.599 9.94601 10.593 10.033 10.603C10.422 10.603 10.737 10.691 11.125 10.846C12.212 11.312 13.002 12.238 13.235 13.248C12.304 13.869 11.047 14.029 9.96001 13.563C9.65001 13.408 9.34801 13.238 9.03801 13.005C8.02001 12.205 8.56601 10.666 9.79001 10.603ZM21.751 15.31C22.185 15.3165 22.6136 15.4072 23.013 15.577C23.324 15.732 23.625 15.878 23.935 16.111C25.021 16.887 24.338 18.615 22.941 18.537C22.553 18.537 22.237 18.449 21.848 18.294C20.761 17.828 19.971 16.902 19.738 15.893C20.3351 15.5006 21.0366 15.2974 21.751 15.31ZM11.148 15.383C11.8552 15.3702 12.5495 15.5736 13.138 15.966C12.983 16.975 12.211 17.901 11.124 18.367C10.7829 18.5291 10.4097 18.6122 10.032 18.61C8.63401 18.688 7.95501 17.062 8.96401 16.208C9.19701 15.975 9.49801 15.805 9.88701 15.65C10.2863 15.4809 10.7144 15.3902 11.148 15.383ZM15.079 17.761C15.701 18.692 15.861 19.857 15.395 20.866C15.239 21.177 15.094 21.479 14.861 21.789C14.085 22.799 12.284 22.089 12.361 20.769C12.361 20.459 12.449 20.085 12.604 19.775C13.07 18.688 13.992 17.994 15.079 17.761ZM17.966 17.834C19.053 18.067 20.048 18.76 20.514 19.847C20.669 20.158 20.757 20.556 20.757 20.866C20.835 22.031 19.039 22.719 18.185 21.789C17.951 21.555 17.806 21.25 17.651 20.939C17.185 19.852 17.345 18.688 17.966 17.834Z"
    fill="#4CAF50"
  />
</svg>
