<svg viewBox="0 0 24 24" fill="none" xmlns="http://www.w3.org/2000/svg">
  <path
    d="M11.936 1.84698C12.1179 1.66793 12.3626 1.56709 12.6178 1.56598C12.7459 1.56616 12.8726 1.59165 12.9908 1.64098C13.1093 1.69041 13.2167 1.7628 13.307 1.85398L15.764 4.31098L16.6257 6.37996L16.718 6.387L16.716 6.419C17.736 6.557 18.751 6.974 19.411 7.621L22.426 10.576L22.422 19.025L19.5757 19.5671L19.5705 19.5765L19.573 19.579L19.027 22.434H10.578L7.62398 19.417C7.0281 18.8091 6.62815 17.8993 6.46165 16.9625L4.92001 16.356L1.86201 13.295C1.7713 13.2056 1.69917 13.0991 1.64975 12.9816C1.60033 12.8642 1.5746 12.7382 1.57404 12.6108C1.57349 12.4834 1.59811 12.3571 1.6465 12.2393C1.69489 12.1214 1.76609 12.0143 1.85601 11.924L1.86301 11.914L5.54204 5.55L5.53802 5.54598L5.54496 5.54197L5.53799 5.535L5.55018 5.53592L5.55301 5.53103L5.55699 5.53502L11.926 1.85398L11.936 1.84698Z"
    fill="#215896"
  />
</svg>
