<svg width="22" height="22" viewBox="0 0 22 22" fill="none" xmlns="http://www.w3.org/2000/svg">
<path d="M10.936 0.846985C11.1179 0.667908 11.3627 0.567078 11.618 0.565979C11.746 0.566223 11.8726 0.591675 11.9908 0.640991C12.1093 0.69043 12.2167 0.762817 12.307 0.854004L14.764 3.31097L15.6256 5.38L15.718 5.38702L15.716 5.41901C16.736 5.55701 17.751 5.974 18.411 6.62097L21.426 9.57599L21.422 18.025L18.5759 18.5667L18.5705 18.5765L18.573 18.579L18.027 21.434H9.57801L6.62403 18.417C6.02809 17.8091 5.62812 16.8993 5.46168 15.9625L3.91999 15.356L0.862009 12.295C0.824899 12.2584 0.790903 12.219 0.760324 12.1771C0.716134 12.1166 0.678964 12.051 0.649728 11.9816C0.600351 11.8642 0.574594 11.7382 0.574045 11.6107C0.573495 11.4833 0.598092 11.3571 0.646493 11.2393C0.694894 11.1214 0.766061 11.0142 0.856027 10.924L0.862985 10.914L4.542 4.54999L4.53803 4.54602L4.54499 4.54199L4.53803 4.53497L4.55018 4.53589L4.55299 4.53101L4.55702 4.53503L10.926 0.854004L10.936 0.846985Z" fill="#58B6F0"/>
</svg>
