<svg viewBox="0 0 16 16" xmlns="http://www.w3.org/2000/svg">
  <path
    d="M2 2H11C11.2638 1.99999 11.517 2.10425 11.7043 2.29006C11.8916 2.47587 11.9979 2.72817 12 2.992C12.0011 3.12399 11.976 3.25489 11.9262 3.37714C11.8764 3.49939 11.8029 3.61058 11.71 3.70428C11.617 3.79799 11.5064 3.87237 11.3845 3.92312C11.2627 3.97388 11.132 4 11 4H2V2Z"
    fill="#F44336"
  />
  <path
    d="M2 12H13C13.2652 12 13.5196 12.1054 13.7071 12.2929C13.8946 12.4804 14 12.7348 14 13C14 13.2652 13.8946 13.5196 13.7071 13.7071C13.5196 13.8946 13.2652 14 13 14H2V12Z"
    fill="#F44336"
  />
  <path
    d="M2 9H9C9.26522 9 9.51957 8.89464 9.70711 8.70711C9.89464 8.51957 10 8.26522 10 8C10 7.73478 9.89464 7.48043 9.70711 7.29289C9.51957 7.10536 9.26522 7 9 7H2V9Z"
    fill="#F44336"
  />
</svg>
