<svg
  width="24"
  height="24"
  viewBox="0 0 24 24"
  fill="none"
  xmlns="http://www.w3.org/2000/svg"
>
  <path
    d="M5 3H11.4497C12.9042 3 14.0129 3.11127 14.7759 3.33381C15.8012 3.63583 16.6795 4.17232 17.4107 4.94327C18.1419 5.71421 18.6982 6.66002 19.0797 7.78067C19.4612 8.89338 19.652 10.2684 19.652 11.9056C19.652 13.3442 19.4732 14.5841 19.1155 15.6253C18.6784 16.8969 18.0545 17.9262 17.2438 18.713C16.6318 19.3091 15.8052 19.7741 14.764 20.1079C13.9851 20.3543 12.9439 20.4775 11.6405 20.4775H5V3ZM8.52887 5.95662V17.5328H11.1636C12.1492 17.5328 12.8605 17.4771 13.2976 17.3659C13.8699 17.2228 14.3428 16.9804 14.7163 16.6386C15.0978 16.2969 15.4078 15.7365 15.6462 14.9576C15.8847 14.1708 16.0039 13.1018 16.0039 11.7507C16.0039 10.3995 15.8847 9.36231 15.6462 8.63905C15.4078 7.91579 15.074 7.35148 14.6448 6.94614C14.2156 6.5408 13.6712 6.26659 13.0115 6.12353C12.5187 6.01226 11.5531 5.95662 10.1145 5.95662H8.52887Z"
    fill="#FFD54F"
  />
</svg>
