<svg viewBox="0 0 24 24" xmlns="http://www.w3.org/2000/svg">
  <path
    d="M12 22C17.523 22 22 17.523 22 12C22 6.477 17.523 2 12 2C6.477 2 2 6.477 2 12C2 17.523 6.477 22 12 22ZM6.437 11.77C6.437 9.492 8.703 7.66 11.609 7.66C13.008 7.66 14.207 8.047 15.152 8.785C15.9575 9.41843 16.5506 10.2826 16.852 11.262L16.859 11.285L16.867 11.312L16.883 11.363L16.906 11.457L16.969 11.676L17.035 11.926L17.148 12.34L17.328 12.996L17.618 14.074L17.945 15.301L18.473 17.273L18.672 18.016L18.629 18.063C17.2055 19.6208 15.2788 20.6274 13.187 20.906L13.168 20.777L13.133 20.519L13.102 20.332L13.066 20.086L13.02 19.786L13 19.668L12.957 19.383L12.93 19.215L12.895 18.996L12.859 18.786L12.824 18.582L12.789 18.382L12.758 18.187L12.723 18L12.691 17.82L12.668 17.687L12.641 17.559L12.625 17.477L12.594 17.312L12.57 17.195L12.543 17.051L12.52 16.949L12.5 16.852L12.48 16.758L12.469 16.695L12.441 16.578L12.421 16.492L12.402 16.406L12.387 16.352L12.367 16.273L12.352 16.199L12.332 16.125L12.312 16.055L12.301 16.012L12.281 15.945L12.266 15.883L12.254 15.84L12.238 15.8L12.227 15.766L12.211 15.711L12.199 15.671L12.191 15.648C12.1699 15.5862 12.1466 15.5251 12.121 15.465L12.109 15.441L12.199 15.207L11.844 15.219L11.746 15.223C8.52 15.289 6.437 13.918 6.437 11.769V11.77ZM8.461 18.418C8.49685 18.2959 8.57914 18.1928 8.6902 18.1307C8.80126 18.0686 8.93224 18.0526 9.055 18.086C9.313 18.152 9.465 18.414 9.402 18.672L9.398 18.684L8.926 20.445L8.859 20.418C8.57298 20.3114 8.29261 20.1903 8.019 20.055L8.457 18.43L8.461 18.418ZM11.18 17.227C11.2075 17.1334 11.2624 17.0503 11.3376 16.9882C11.4128 16.9261 11.5048 16.888 11.6019 16.8788C11.699 16.8695 11.7966 16.8895 11.8822 16.9363C11.9677 16.983 12.0373 17.0543 12.082 17.141L12.098 17.211L12.121 17.324L12.137 17.406L12.133 17.426L12.121 17.481V17.492L11.457 19.953L11.453 19.965C11.4142 20.0839 11.3312 20.1833 11.2212 20.2427C11.1113 20.3022 10.9827 20.3172 10.8619 20.2846C10.7412 20.252 10.6376 20.1744 10.5725 20.0676C10.5074 19.9609 10.4857 19.8332 10.512 19.711V19.699L11.176 17.239L11.18 17.227ZM7.117 14.434L7.148 14.359C7.395 14.574 7.68 14.769 7.992 14.934L7.391 17.168L7.387 17.18C7.35279 17.3049 7.27035 17.4111 7.15783 17.4753C7.04531 17.5394 6.91192 17.5562 6.787 17.522C6.66208 17.4878 6.55587 17.4054 6.49174 17.2928C6.4276 17.1803 6.41079 17.0469 6.445 16.922L6.449 16.91L7.113 14.45L7.117 14.434ZM4.97 11.859C5.0078 11.7376 5.0909 11.6353 5.20205 11.5735C5.31321 11.5117 5.44389 11.495 5.567 11.527C5.821 11.597 5.974 11.859 5.911 12.117V12.129L5.247 14.589L5.243 14.602C5.20641 14.7241 5.12353 14.827 5.01207 14.8887C4.90061 14.9505 4.76941 14.9662 4.64651 14.9325C4.52362 14.8988 4.41878 14.8184 4.3544 14.7084C4.29002 14.5984 4.27122 14.4677 4.302 14.344V14.332L4.966 11.872L4.97 11.859ZM19.86 11.301C19.8988 11.1821 19.9818 11.0827 20.0918 11.0233C20.2017 10.9638 20.3303 10.9488 20.4511 10.9814C20.5718 11.014 20.6754 11.0916 20.7405 11.1984C20.8056 11.3051 20.8273 11.4328 20.801 11.555V11.57L20.134 14.031V14.043C20.0969 14.165 20.0137 14.2676 19.902 14.3293C19.7904 14.3909 19.6592 14.4065 19.5362 14.373C19.4132 14.3394 19.3081 14.2592 19.2433 14.1494C19.1785 14.0396 19.159 13.9089 19.189 13.785L19.192 13.773L19.857 11.313L19.86 11.301ZM3.075 10.957C3.20737 9.80874 3.5616 8.69714 4.118 7.684C4.19117 7.68569 4.26303 7.70374 4.32831 7.73684C4.39359 7.76994 4.45062 7.81724 4.49522 7.87527C4.53982 7.9333 4.57086 8.00058 4.58605 8.07218C4.60124 8.14377 4.6002 8.21786 4.583 8.289L4.579 8.301L3.915 10.761L3.911 10.773C3.88536 10.8562 3.83812 10.931 3.77411 10.99C3.71009 11.0489 3.63159 11.0898 3.5466 11.1085C3.46161 11.1272 3.37319 11.1231 3.29034 11.0964C3.20749 11.0698 3.13319 11.0217 3.075 10.957ZM18.177 8.031C18.215 7.9097 18.2981 7.80763 18.4092 7.74585C18.5203 7.68407 18.6509 7.6673 18.774 7.699C19.028 7.769 19.184 8.031 19.122 8.289L19.118 8.301L18.454 10.761L18.45 10.773C18.4126 10.894 18.3297 10.9957 18.2187 11.0566C18.1077 11.1176 17.9773 11.133 17.8552 11.0997C17.733 11.0663 17.6286 10.9868 17.564 10.8779C17.4994 10.7689 17.4797 10.6392 17.509 10.516L17.513 10.504L18.177 8.043V8.031ZM7.008 5.36C7.13081 5.39318 7.2358 5.473 7.30062 5.58246C7.36544 5.69192 7.38495 5.82237 7.355 5.946L7.352 5.962L6.687 8.423L6.684 8.435C6.64979 8.55992 6.56735 8.66613 6.45483 8.73026C6.34231 8.7944 6.20892 8.81121 6.084 8.777C5.95908 8.74279 5.85287 8.66035 5.78874 8.54783C5.7246 8.43531 5.70779 8.30192 5.742 8.177L5.746 8.165L6.41 5.704L6.414 5.692C6.45116 5.57079 6.53368 5.4686 6.64435 5.40675C6.75501 5.34489 6.88529 5.32815 7.008 5.36ZM15.543 5.825C15.6657 5.85947 15.7702 5.94029 15.8344 6.05039C15.8986 6.16049 15.9174 6.29124 15.887 6.415V6.427L15.363 8.36L15.32 8.325C15.061 8.135 14.785 7.967 14.496 7.825L14.941 6.169L14.945 6.157C14.9828 6.03534 15.0661 5.93294 15.1774 5.8711C15.2888 5.80927 15.4198 5.79275 15.543 5.825ZM11.199 3.052C11.2146 3.12467 11.2132 3.19895 11.195 3.271L11.191 3.283L10.527 5.743L10.523 5.755C10.4842 5.87385 10.4012 5.97327 10.2912 6.03274C10.1813 6.09221 10.0527 6.10721 9.93194 6.07462C9.81124 6.04204 9.70764 5.96437 9.64252 5.85763C9.57741 5.7509 9.55574 5.62324 9.582 5.501L9.586 5.489L10.203 3.196L10.269 3.185C10.5765 3.12447 10.8869 3.08008 11.199 3.052ZM17.309 4.751L17.367 4.794C17.6354 4.99455 17.8925 5.20988 18.137 5.439L18.121 5.489L18.117 5.501C18.0782 5.61985 17.9952 5.71927 17.8852 5.77874C17.7753 5.83821 17.6467 5.85321 17.5259 5.82062C17.4052 5.78804 17.3016 5.71037 17.2365 5.60363C17.1714 5.4969 17.1497 5.36924 17.176 5.247L17.179 5.235L17.309 4.751ZM13.445 3.134H13.446L13.516 3.146C13.8131 3.19607 14.1075 3.26115 14.398 3.341L14.152 4.259L14.148 4.271C14.1092 4.38985 14.0262 4.48927 13.9162 4.54874C13.8063 4.60821 13.6777 4.62321 13.5569 4.59062C13.4362 4.55804 13.3326 4.48037 13.2675 4.37363C13.2024 4.2669 13.1807 4.13924 13.207 4.017L13.211 4.004L13.445 3.134ZM12.676 9.489C12.618 9.43096 12.549 9.38491 12.4732 9.3535C12.3974 9.32209 12.3161 9.30592 12.234 9.30592C12.1519 9.30592 12.0706 9.32209 11.9948 9.3535C11.919 9.38491 11.85 9.43096 11.792 9.489C11.734 9.54704 11.6879 9.61595 11.6565 9.69179C11.6251 9.76763 11.6089 9.84891 11.6089 9.931C11.6089 10.0131 11.6251 10.0944 11.6565 10.1702C11.6879 10.246 11.734 10.315 11.792 10.373C11.9092 10.4902 12.0682 10.5561 12.234 10.5561C12.3998 10.5561 12.5588 10.4902 12.676 10.373C12.7932 10.2558 12.8591 10.0968 12.8591 9.931C12.8591 9.76522 12.7932 9.60623 12.676 9.489Z"
    fill="#CFD8DC"
  />
</svg>
