<svg viewBox="0 0 16 16" xmlns="http://www.w3.org/2000/svg">
  <path
    d="M10.484 3.63503L7.98401 6.18103L7.10901 5.29003L8.10901 4.27203H8.00001C6.95801 4.27203 6.07301 4.64503 5.34401 5.39303C4.61401 6.14103 4.25001 7.05103 4.25001 8.12203C4.24885 8.67407 4.3773 9.21868 4.62501 9.71203L3.68801 10.667C3.46444 10.278 3.29101 9.8612 3.17201 9.42703C3.05714 9.00157 2.99929 8.56226 3.00001 8.12103C3.00001 6.70003 3.48401 5.49103 4.45301 4.49403C5.42201 3.49703 6.60401 2.99903 8.00001 2.99903H8.11001L7.11001 1.98103L7.98401 1.09003L10.484 3.63503ZM5.51601 12.382L8.01601 9.83603L8.89101 10.727L7.89101 11.745H8.00001C9.04201 11.745 9.92701 11.372 10.656 10.625C11.386 9.87603 11.75 8.96603 11.75 7.89503C11.7511 7.34299 11.6227 6.79839 11.375 6.30503L12.313 5.35003C12.542 5.75303 12.713 6.16603 12.828 6.59003C12.943 7.01503 13 7.45003 13 7.89503C13 9.31603 12.516 10.525 11.547 11.523C10.578 12.52 9.39601 13.018 8.00001 13.018H7.89001L8.89001 14.036L8.01601 14.927L5.51601 12.382Z"
    fill="#8BC34A"
  />
</svg>
