<svg viewBox="0 0 300 300" xmlns="http://www.w3.org/2000/svg">
  <path
    d="M141.109 25.0013H181.988V214.22C161.018 218.202 145.622 219.794 128.899 219.794C78.9943 219.792 52.981 197.233 52.981 153.963C52.981 112.288 80.5887 85.2163 123.323 85.2163C129.959 85.2163 135.002 85.7455 141.108 87.3369L141.109 25.0013ZM141.109 120.246C136.332 118.654 132.351 118.124 127.307 118.124C106.602 118.124 94.6565 130.866 94.6565 153.162C94.6565 174.93 106.072 186.874 127.041 186.874C131.552 186.874 135.27 186.609 141.109 185.814V120.246Z"
    fill="#43A047"
  />
  <path
    d="M247.022 88.1305V182.893C247.022 215.543 244.633 231.204 237.467 244.742C230.83 257.752 222.069 265.978 204.02 275.005L166.06 256.954C184.111 248.46 192.87 241.03 198.444 229.612C204.284 217.933 206.144 204.396 206.144 168.826V88.1315L247.022 88.1305ZM206.145 25.2199H247.022V67.16H206.145V25.2199Z"
    fill="#43A047"
  />
</svg>
