<svg viewBox="0 0 24 24" xmlns="http://www.w3.org/2000/svg">
  <path d="M4 6H2V20C2 21.1 2.9 22 4 22H18V20H4V6Z" fill="#42A5F5" />
  <path
    d="M14 12.1C15.1598 12.1 16.1 11.1598 16.1 10C16.1 8.8402 15.1598 7.9 14 7.9C12.8402 7.9 11.9 8.8402 11.9 10C11.9 11.1598 12.8402 12.1 14 12.1Z"
    fill="#42A5F5"
  />
  <path
    d="M20 2H8C6.9 2 6 2.9 6 4V16C6 17.1 6.9 18 8 18H20C21.1 18 22 17.1 22 16V4C22 2.9 21.1 2 20 2ZM19.77 11.97L18.57 14.05C18.5 14.17 18.33 14.23 18.2 14.18L16.71 13.58C16.4 13.82 16.07 14.02 15.7 14.18L15.48 15.76C15.44 15.88 15.31 16 15.17 16H12.76C12.62 16 12.5 15.89 12.47 15.75L12.25 14.17C11.87 14.03 11.54 13.81 11.23 13.57L9.74 14.18C9.61 14.23 9.45 14.18 9.38 14.06L8.17 11.97C8.1 11.84 8.12 11.68 8.24 11.59L9.5 10.59C9.48 10.4 9.46 10.21 9.46 10.01C9.46 9.82 9.48 9.61 9.5 9.41L8.24 8.41C8.12 8.34 8.09 8.17 8.17 8.05L9.38 5.96C9.45 5.84 9.61 5.78 9.74 5.84L11.23 6.44C11.55 6.2 11.87 6 12.25 5.85L12.47 4.27C12.48 4.11 12.61 4 12.76 4H15.18C15.32 4 15.44 4.11 15.47 4.25L15.69 5.83C16.07 5.97 16.4 6.19 16.7 6.42L18.2 5.82C18.33 5.76 18.49 5.82 18.56 5.94L19.76 8.03C19.83 8.16 19.81 8.33 19.69 8.41L18.42 9.4C18.44 9.6 18.46 9.81 18.46 10C18.46 10.19 18.44 10.4 18.42 10.58L19.68 11.58C19.8 11.67 19.84 11.84 19.77 11.97Z"
    fill="#42A5F5"
  />
</svg>
