<svg viewBox="0 0 24 24" xmlns="http://www.w3.org/2000/svg">
  <path
    d="M8.256 3.87C8.16001 3.86936 8.06558 3.89431 7.98244 3.9423C7.89931 3.99028 7.83046 4.05956 7.783 4.143L7.547 4.553L7.545 4.555L7.418 4.775L6.77 4.4C6.68676 4.35206 6.59237 4.32688 6.49632 4.327C6.40026 4.32712 6.30593 4.35253 6.22282 4.40068C6.1397 4.44883 6.07073 4.51801 6.02284 4.60128C5.97495 4.68454 5.94982 4.77895 5.95 4.875V5.541L5.318 5.543C5.22203 5.543 5.12775 5.56825 5.04463 5.61621C4.9615 5.66418 4.89246 5.73316 4.84443 5.81625C4.7964 5.89934 4.77108 5.9936 4.771 6.08957C4.77093 6.18554 4.7961 6.27984 4.844 6.363L5.199 6.978L4.589 7.332C4.5055 7.38004 4.43613 7.44924 4.3879 7.53264C4.33967 7.61603 4.31427 7.71066 4.31427 7.807C4.31427 7.90334 4.33967 7.99797 4.3879 8.08136C4.43613 8.16475 4.5055 8.23396 4.589 8.282L5.406 8.752V8.756L4.59 9.228C4.5065 9.27604 4.43713 9.34524 4.3889 9.42864C4.34067 9.51203 4.31527 9.60666 4.31527 9.703C4.31527 9.79934 4.34067 9.89397 4.3889 9.97736C4.43713 10.0608 4.5065 10.13 4.59 10.178L5.406 10.648V10.652L4.59 11.125C4.5065 11.173 4.43713 11.2422 4.3889 11.3256C4.34067 11.409 4.31527 11.5037 4.31527 11.6C4.31527 11.6963 4.34067 11.791 4.3889 11.8744C4.43713 11.9578 4.5065 12.027 4.59 12.075L5.406 12.545V12.549L4.59 13.021C4.5065 13.069 4.43713 13.1382 4.3889 13.2216C4.34067 13.305 4.31527 13.3997 4.31527 13.496C4.31527 13.5923 4.34067 13.687 4.3889 13.7704C4.43713 13.8538 4.5065 13.923 4.59 13.971L5.406 14.441V14.445L4.59 14.918C4.5065 14.966 4.43713 15.0352 4.3889 15.1186C4.34067 15.202 4.31527 15.2967 4.31527 15.393C4.31527 15.4893 4.34067 15.584 4.3889 15.6674C4.43713 15.7508 4.5065 15.82 4.59 15.868L5.088 16.154C4.19548 15.8648 3.44144 15.2557 2.971 14.444C2.63582 15.0197 2.45916 15.6739 2.459 16.34C2.459 16.8378 2.55706 17.3307 2.74759 17.7906C2.93812 18.2505 3.21738 18.6683 3.56942 19.0203C3.92146 19.3722 4.33938 19.6514 4.79932 19.8418C5.25926 20.0322 5.75221 20.1301 6.25 20.13H12.997V20.131H18.682C18.8458 20.131 19.0047 20.1102 19.1563 20.0711C19.3966 20.1332 19.6469 20.1475 19.8927 20.113C20.14 20.0783 20.3781 19.9951 20.5931 19.868C20.8081 19.7409 20.9958 19.5726 21.1454 19.3726C21.2951 19.1727 21.4037 18.9451 21.465 18.703C21.4717 18.7037 21.4783 18.7046 21.485 18.7054C21.4983 18.7072 21.5117 18.709 21.525 18.709C21.6507 18.709 21.7713 18.6591 21.8602 18.5702C21.9491 18.4813 21.999 18.3607 21.999 18.235C21.999 18.1093 21.9491 17.9887 21.8602 17.8998C21.7713 17.8109 21.6507 17.761 21.525 17.761C21.5117 17.761 21.4984 17.7628 21.485 17.7645C21.4784 17.7654 21.4717 17.7663 21.465 17.767L21.455 17.724C21.937 17.526 21.792 16.809 21.271 16.812C21.1678 16.8125 21.0677 16.8469 20.986 16.91L20.956 16.878C21.0088 16.808 21.0409 16.7247 21.0488 16.6375C21.0568 16.5502 21.0401 16.4624 21.0008 16.3841C20.9615 16.3058 20.9011 16.2401 20.8264 16.1943C20.7519 16.1487 20.6663 16.1247 20.579 16.125V14.443C20.6652 14.4429 20.751 14.4311 20.834 14.408C20.935 14.646 21.29 14.573 21.289 14.314C21.2884 14.2632 21.2712 14.214 21.24 14.174C21.2426 14.1714 21.2449 14.1686 21.2471 14.1658C21.2499 14.1623 21.2526 14.1588 21.256 14.156C21.296 14.186 21.345 14.206 21.398 14.206C21.662 14.211 21.735 13.847 21.49 13.75L21.496 13.728C21.5 13.7284 21.504 13.7291 21.508 13.7298C21.514 13.7309 21.52 13.732 21.526 13.732C21.842 13.732 21.842 13.257 21.526 13.257C21.52 13.257 21.514 13.2581 21.508 13.2592C21.504 13.2599 21.5 13.2606 21.496 13.261L21.49 13.24C21.727 13.139 21.656 12.786 21.398 12.785C21.3466 12.7852 21.2966 12.8024 21.256 12.834C21.2508 12.8286 21.2454 12.8232 21.24 12.818C21.2717 12.777 21.2892 12.7268 21.29 12.675C21.2893 12.6142 21.2654 12.5559 21.2233 12.512C21.1811 12.4682 21.1238 12.4421 21.063 12.439C21.0146 12.4369 20.9667 12.4496 20.9257 12.4755C20.8848 12.5015 20.8528 12.5393 20.834 12.584C20.7511 12.5598 20.6653 12.547 20.579 12.546V11.6H20.578V10.652L13.941 10.236C13.6874 10.2164 13.4504 10.1018 13.2776 9.91512C13.1048 9.72844 13.0088 9.4834 13.0088 9.229C13.0088 8.9746 13.1048 8.72956 13.2776 8.54288C13.4504 8.35619 13.6874 8.24159 13.941 8.222L20.578 7.809V6.859C20.578 5.812 19.728 4.965 18.682 4.965H12.996L12.523 4.143C12.4749 4.05973 12.4057 3.99059 12.3224 3.94252C12.2391 3.89445 12.1447 3.86914 12.0485 3.86914C11.9523 3.86914 11.8579 3.89445 11.7746 3.94252C11.6913 3.99059 11.6221 4.05973 11.574 4.143L11.102 4.965L10.627 4.143C10.579 4.05995 10.5099 3.99099 10.4268 3.94305C10.3437 3.89511 10.2494 3.86987 10.1535 3.86987C10.0576 3.86987 9.9633 3.89511 9.88019 3.94305C9.79708 3.99099 9.72804 4.05995 9.68 4.143L9.443 4.553L9.441 4.555L9.205 4.963L8.967 4.555L8.73 4.143C8.68234 4.05944 8.61335 3.99003 8.53006 3.94189C8.44678 3.89374 8.3522 3.86959 8.256 3.87ZM17.2485 18.131C17.2289 18.0441 17.1851 17.9638 17.1212 17.8998C17.0325 17.8112 16.9124 17.7613 16.787 17.761C16.7737 17.761 16.7603 17.7628 16.747 17.7646C16.7403 17.7654 16.7337 17.7663 16.727 17.767L16.715 17.724C16.8164 17.682 16.9001 17.6062 16.9519 17.5094C17.0036 17.4126 17.0201 17.3009 16.9986 17.1932C16.9772 17.0856 16.919 16.9888 16.8341 16.9192C16.7492 16.8497 16.6428 16.8118 16.533 16.812C16.4291 16.8121 16.3282 16.8465 16.246 16.91L16.2311 16.895L16.215 16.879C16.2768 16.7972 16.3101 16.6975 16.31 16.595C16.3098 16.4858 16.2719 16.3801 16.2027 16.2957C16.1336 16.2112 16.0374 16.1532 15.9304 16.1315C15.8235 16.1097 15.7123 16.1255 15.6156 16.1763C15.519 16.227 15.4428 16.3096 15.4 16.41L15.36 16.4L15.3616 16.385C15.3633 16.37 15.365 16.355 15.365 16.34C15.3651 16.2777 15.353 16.2159 15.3292 16.1583C15.3054 16.1007 15.2706 16.0483 15.2265 16.0042C15.1825 15.9601 15.1302 15.9251 15.0726 15.9012C15.015 15.8773 14.9533 15.865 14.891 15.865C14.7655 15.8653 14.6452 15.9153 14.5565 16.0042C14.4678 16.093 14.418 16.2145 14.418 16.34H14.344C14.2999 16.2713 14.2385 16.2147 14.1654 16.1763C14.0687 16.1255 13.9575 16.1097 13.8506 16.1315C13.7436 16.1532 13.6474 16.2112 13.5783 16.2957C13.5666 16.3099 13.5559 16.3247 13.546 16.34H12.996V15.6213H18.583V18.131H17.2485ZM12.996 14.7536V14.443H14.8438C14.9455 14.4477 15.0476 14.4359 15.146 14.408C15.1671 14.459 15.2052 14.501 15.254 14.5268C15.3027 14.5527 15.3589 14.5607 15.4129 14.5496C15.4669 14.5384 15.5153 14.5088 15.5498 14.4658C15.5844 14.4228 15.6028 14.3691 15.602 14.314C15.6011 14.2631 15.5836 14.2139 15.552 14.174L15.568 14.156C15.608 14.186 15.657 14.206 15.711 14.206C15.766 14.2063 15.8193 14.1875 15.862 14.1529C15.9046 14.1182 15.9339 14.0698 15.9447 14.0159C15.9556 13.962 15.9474 13.906 15.9216 13.8575C15.8957 13.809 15.8538 13.771 15.803 13.75L15.809 13.728C15.8109 13.7282 15.8128 13.7285 15.8146 13.7287C15.8167 13.7291 15.8188 13.7295 15.8209 13.7299C15.8265 13.7309 15.8321 13.732 15.838 13.732C15.901 13.732 15.9614 13.707 16.0059 13.6624C16.0505 13.6179 16.0755 13.5575 16.0755 13.4945C16.0755 13.4315 16.0505 13.3711 16.0059 13.3266C15.9614 13.282 15.901 13.257 15.838 13.257C15.832 13.257 15.826 13.2581 15.82 13.2592C15.816 13.2599 15.812 13.2606 15.808 13.261L15.803 13.24C15.8532 13.2186 15.8944 13.1806 15.9198 13.1323C15.9452 13.084 15.9531 13.0285 15.9423 12.975C15.9315 12.9216 15.9026 12.8735 15.8605 12.8389C15.8183 12.8042 15.7655 12.7852 15.711 12.785C15.6592 12.785 15.6089 12.8022 15.568 12.834C15.5631 12.8286 15.5581 12.8232 15.553 12.818C15.5843 12.7769 15.6015 12.7267 15.602 12.675C15.602 12.6601 15.6005 12.6454 15.5977 12.631H18.583V14.7536H12.996ZM18.422 5.912C18.4923 5.9079 18.5626 5.92058 18.627 5.949C18.6843 5.97295 18.7366 6.00756 18.781 6.051C18.8354 6.10667 18.8757 6.17462 18.8983 6.24912C18.9209 6.32361 18.9253 6.40246 18.911 6.479C18.8918 6.57107 18.8467 6.65573 18.781 6.723C18.7366 6.76644 18.6843 6.80105 18.627 6.825C18.5692 6.84858 18.5074 6.8608 18.445 6.861C18.3194 6.86026 18.1989 6.81079 18.109 6.723C18.0881 6.69995 18.0687 6.67556 18.051 6.65C18.0342 6.62406 18.0198 6.59661 18.008 6.568C17.9844 6.51052 17.9719 6.44912 17.971 6.387C17.9717 6.30914 17.9912 6.23259 18.0277 6.16384C18.0643 6.09509 18.1169 6.03615 18.181 5.992C18.2526 5.94483 18.3354 5.91725 18.421 5.912H18.422ZM15.602 6.148C15.6643 6.14806 15.7259 6.16099 15.783 6.186C15.8406 6.20954 15.8932 6.24382 15.938 6.287C16.0252 6.37709 16.074 6.49759 16.074 6.623C16.074 6.74841 16.0252 6.86891 15.938 6.959C15.8936 7.00244 15.8413 7.03705 15.784 7.061C15.7263 7.08492 15.6645 7.09748 15.602 7.098C15.5711 7.0975 15.5403 7.09415 15.51 7.088C15.4792 7.08198 15.449 7.07293 15.42 7.061C15.3627 7.03705 15.3104 7.00244 15.266 6.959C15.245 6.936 15.224 6.913 15.207 6.887C15.1902 6.86106 15.1758 6.83361 15.164 6.805C15.141 6.74707 15.1291 6.68533 15.129 6.623C15.1292 6.56068 15.1411 6.49896 15.164 6.441C15.1881 6.38375 15.2227 6.33152 15.266 6.287C15.3561 6.19937 15.4763 6.14963 15.602 6.148ZM8.967 6.623C10.012 6.623 10.861 7.474 10.861 8.52C10.8605 8.62026 10.8203 8.71625 10.7494 8.78706C10.6784 8.85786 10.5823 8.89774 10.482 8.898C10.3817 8.89774 10.2856 8.85786 10.2146 8.78706C10.1437 8.71625 10.1035 8.62026 10.103 8.52C10.103 8.21835 9.98344 7.92899 9.77052 7.71531C9.55759 7.50163 9.26865 7.38106 8.967 7.38C8.66517 7.38079 8.37598 7.50125 8.16284 7.71496C7.94969 7.92866 7.83 8.21817 7.83 8.52C7.83 8.62078 7.78996 8.71744 7.7187 8.7887C7.64744 8.85996 7.55078 8.9 7.45 8.9C7.34922 8.9 7.25256 8.85996 7.1813 8.7887C7.11004 8.71744 7.07 8.62078 7.07 8.52C7.07079 8.01713 7.27091 7.53508 7.62649 7.17949C7.98208 6.82391 8.46413 6.62379 8.967 6.623Z"
    fill="#00E676"
  />
</svg>
