<svg viewBox="0 0 24 24" xmlns="http://www.w3.org/2000/svg">
<path d="M9.20668 3.2225H14.7936C15.3516 3.2225 15.8039 3.6748 15.8039 4.23274V8.57299C15.8039 9.13093 15.3516 9.58322 14.7936 9.58322H14.5989L17.3901 14.4174H20.3724C20.9303 14.4174 21.3826 14.8697 21.3826 15.4276V19.7678C21.3826 20.3258 20.9303 20.7781 20.3724 20.7781H14.7854C14.2275 20.7781 13.7752 20.3258 13.7752 19.7678V15.4276C13.7752 14.8697 14.2275 14.4174 14.7854 14.4174H15.6336L12.8425 9.58322H11.1602L8.36925 14.4174H9.21489C9.77283 14.4174 10.2251 14.8697 10.2251 15.4276V19.7678C10.2251 20.3258 9.77283 20.7781 9.21489 20.7781H3.62794C3.07 20.7781 2.61771 20.3258 2.61771 19.7678V15.4276C2.61771 14.8697 3.07 14.4174 3.62794 14.4174H6.60703L9.39803 9.58322H9.20668C8.64874 9.58322 8.19644 9.13093 8.19644 8.57299V4.23274C8.19644 3.6748 8.64874 3.2225 9.20668 3.2225Z" fill="#FB8C00"/>
</svg>
