<svg viewBox="0 0 32 32" xmlns="http://www.w3.org/2000/svg">
  <path
    d="M5.21998 23.118L8.86698 16.525C8.97938 16.3281 9.05153 16.1108 9.07926 15.8857C9.10698 15.6607 9.08971 15.4323 9.02847 15.214C8.96722 14.9957 8.86322 14.7917 8.72248 14.6139C8.58175 14.4361 8.4071 14.288 8.20867 14.1783C8.01024 14.0685 7.79199 13.9993 7.56658 13.9746C7.34117 13.9499 7.11311 13.9702 6.89562 14.0344C6.67813 14.0986 6.47556 14.2053 6.29966 14.3484C6.12377 14.4915 5.97805 14.6681 5.87098 14.868L2.22398 21.46C2.00411 21.8573 1.95108 22.3257 2.07654 22.7621C2.202 23.1985 2.49568 23.5671 2.89298 23.787C3.29027 24.0069 3.75864 24.0599 4.19503 23.9344C4.63143 23.809 5.00011 23.5153 5.21998 23.118ZM17.24 23.118L20.888 16.525C21.0004 16.3281 21.0725 16.1108 21.1003 15.8857C21.128 15.6607 21.1107 15.4323 21.0495 15.214C20.9882 14.9957 20.8842 14.7917 20.7435 14.6139C20.6028 14.4361 20.4281 14.288 20.2297 14.1783C20.0312 14.0685 19.813 13.9993 19.5876 13.9746C19.3622 13.9499 19.1341 13.9702 18.9166 14.0344C18.6991 14.0986 18.4966 14.2053 18.3207 14.3484C18.1448 14.4915 17.9991 14.6681 17.892 14.868L14.244 21.46C14.0241 21.8573 13.9711 22.3257 14.0965 22.7621C14.222 23.1985 14.5157 23.5671 14.913 23.787C15.3103 24.0069 15.7786 24.0599 16.215 23.9344C16.6514 23.809 17.0201 23.5153 17.24 23.118ZM13.862 17.158L17.742 10.57C17.9601 10.1807 18.0169 9.72153 17.9004 9.29082C17.784 8.8601 17.5034 8.49217 17.1188 8.26589C16.7343 8.0396 16.2764 7.97298 15.8433 8.0803C15.4102 8.18762 15.0364 8.46035 14.802 8.84001L10.922 15.428C10.7039 15.8173 10.647 16.2765 10.7635 16.7072C10.88 17.1379 11.1606 17.5059 11.5451 17.7321C11.9297 17.9584 12.3876 18.025 12.8207 17.9177C13.2538 17.8104 13.6276 17.5377 13.862 17.158ZM25.89 17.158L29.77 10.57C29.9881 10.1807 30.0449 9.72153 29.9284 9.29082C29.812 8.8601 29.5314 8.49217 29.1468 8.26589C28.7623 8.0396 28.3044 7.97298 27.8713 8.0803C27.4382 8.18762 27.0644 8.46035 26.83 8.84001L22.95 15.428C22.7319 15.8173 22.675 16.2765 22.7915 16.7072C22.908 17.1379 23.1886 17.5059 23.5731 17.7321C23.9577 17.9584 24.4156 18.025 24.8487 17.9177C25.2818 17.8104 25.6556 17.5377 25.89 17.158Z"
    fill="#4CAF50"
  />
</svg>
