<svg viewBox="0 0 16 16" xmlns="http://www.w3.org/2000/svg">
  <path
    d="M12.564 8.49C12.624 8.258 12.688 8.03 12.72 7.794C12.816 7.075 12.7 6.386 12.452 5.714C12.4321 5.65746 12.4063 5.60316 12.375 5.552C12.251 5.359 12.032 5.352 11.905 5.542C11.8516 5.62898 11.8086 5.72195 11.777 5.819C11.539 6.472 11.224 7.079 10.728 7.577C10.4686 7.83688 10.1789 8.06452 9.865 8.255C9.922 8.025 10.026 7.835 10.113 7.65C10.453 6.929 10.626 6.167 10.732 5.386C10.82 4.728 10.834 4.066 10.66 3.422C10.343 2.248 9.65 1.4 8.43 1.102C7.198 0.801002 6.164 1.172 5.337 2.128C5.11 2.39 4.901 2.669 4.674 2.932C4.297 3.372 3.832 3.69 3.292 3.902C3.129 3.967 2.964 3.96 2.798 3.962C2.654 3.962 2.508 3.963 2.373 4.019C1.962 4.187 1.87 4.699 2.201 5.049C2.517 5.383 2.933 5.514 3.377 5.585C3.917 5.673 4.418 5.498 4.927 5.369C5.407 5.246 5.887 5.116 6.366 4.989C6.452 4.967 6.563 4.927 6.616 4.997C6.663 5.059 6.593 5.155 6.554 5.228C6.437 5.446 6.253 5.597 6.052 5.732C5.541 6.076 4.996 6.371 4.517 6.763C3.603 7.514 2.989 8.447 2.844 9.64C2.675 11.024 3.104 12.233 4.017 13.267C4.617 13.947 5.349 14.463 6.219 14.734C7.896 15.257 9.462 15.016 10.875 13.95C12.323 12.858 13.075 11.367 13.313 9.594C13.36 9.28478 13.3654 8.97065 13.329 8.66C13.278 8.279 13.055 8.182 12.744 8.405C12.701 8.436 12.656 8.465 12.61 8.493C12.602 8.498 12.589 8.493 12.564 8.49Z"
    fill="#FF5252"
  />
</svg>
