<svg width="2871" height="2771" viewBox="0 0 2871 2771" fill="none" xmlns="http://www.w3.org/2000/svg">
<path d="M126.602 2469.91C185.638 2464.55 339.491 2509.27 352.014 2559.36C256.303 2570.99 134.653 2562.05 126.602 2469.91ZM73.827 2520.9C117.657 2552.21 140.914 2601.4 216.051 2619.29C326.073 2647.02 566.691 2553.1 291.188 2446.66C213.367 2416.24 158.804 2384.04 72.038 2413.56C70.249 2284.75 210.685 1721.22 270.615 1634.46C411.049 1656.82 731.277 1816.94 912.859 1594.21C1085.5 1604.05 952.216 1705.12 1061.34 1850.03C1117.7 1924.27 1174.05 1989.57 1298.38 2010.15C1392.31 2026.25 1572.1 2020.88 1664.23 1995.83C1801.09 1960.05 1835.97 1925.17 1839.55 1771.32L1990.72 1805.31C1971.93 1942.16 1795.72 2171.15 1684.8 2252.55C1531.85 2364.36 1393.2 2431.45 1201.78 2514.64C1116.8 2551.31 1043.45 2618.4 953.111 2638.97C780.474 2677.43 272.404 2740.94 127.497 2659.54C88.139 2638.08 73.827 2577.25 73.827 2520.9ZM1325.22 1780.26C1331.48 1721.22 1353.84 1688.13 1388.73 1663.98C1412.88 1715.86 1369.94 1765.95 1325.22 1780.26ZM1419.14 1615.68C1498.75 1615.68 1571.2 1640.72 1643.66 1664.87C1734 1695.28 1759.05 1709.6 1785.88 1798.15C1852.97 2016.41 1220.56 2076.34 1077.44 1795.47C1047.03 1736.43 1060.45 1610.31 1119.49 1587.94C1165.1 1570.95 1318.06 1595.1 1371.73 1603.15C1345.79 1654.14 1250.08 1718.54 1290.33 1832.14C1414.67 1889.39 1508.59 1652.35 1419.14 1615.68ZM742.906 1485.08C686.553 1509.23 689.236 1564.69 688.342 1626.41C729.488 1599.57 763.479 1532.49 742.906 1485.08ZM294.766 1584.37C299.239 1521.75 385.11 1316.02 419.995 1278.45C545.223 1295.45 794.786 1413.52 877.079 1472.56C891.391 1579 835.039 1652.35 737.539 1653.24C794.786 1596.89 823.41 1509.23 768.846 1434.99C657.929 1426.94 646.301 1530.7 632.883 1669.34C528.228 1663.98 366.325 1653.24 294.766 1584.37ZM205.317 1512.81C172.221 1421.57 172.221 1279.35 312.656 1267.72L241.097 1467.19C222.313 1510.12 222.313 1500.29 205.317 1512.81ZM434.307 1235.52C454.88 1183.64 466.508 1148.75 498.71 1103.13C609.626 947.491 631.989 858.936 750.956 784.693C877.974 705.978 1287.65 755.175 1427.19 799.9C1666.02 876.826 1783.2 908.133 1871.75 1113.87C1944.21 1283.82 1993.4 1560.22 1995.19 1745.38C1837.76 1749.85 1846.71 1712.28 1800.19 1682.76C1688.38 1612.1 1342.21 1551.27 1191.05 1550.38C937.01 1549.48 1086.39 1602.26 991.574 1572.74C935.221 1554.85 938.799 1544.11 937.01 1524.44C922.698 1417.1 894.969 1427.83 740.222 1350.91C645.406 1303.5 546.118 1256.98 434.307 1235.52ZM2017.55 1191.69C2000.56 1135.33 2031.87 1138.91 2086.43 1100.45C2117.74 1078.09 2142.78 1054.83 2181.25 1033.36C2325.26 952.857 2593.61 939.44 2708.1 1035.15C2754.61 1073.61 2830.65 1148.75 2819.02 1247.14C2794.87 1443.04 2660.69 1550.38 2550.67 1639.83C2438.86 1731.06 2252.8 1824.99 2060.49 1762.37C2044.39 1723.01 2056.91 1473.45 2038.13 1381.32C2021.13 1299.03 2030.08 1290.08 2077.48 1240.88C2217.03 1095.98 2519.36 990.426 2691.11 1114.76C2763.56 1168.43 2742.99 1189 2780.55 1230.15C2827.07 1180.06 2740.3 1011.89 2420.07 1022.63C2202.71 1029.78 2108.79 1199.74 2017.55 1191.69ZM715.177 682.722C719.649 558.388 834.144 300.774 948.639 211.325C1087.28 103.987 1232.19 2.90919 1445.08 123.665C1497.86 153.184 1495.17 168.39 1500.54 241.738C1505.01 312.403 1498.75 338.343 1480.86 395.59C1339.53 851.78 1221.46 589.695 768.846 697.928C785.841 549.443 914.648 417.058 986.207 348.182C1108.75 229.215 1197.31 152.289 1381.57 177.335C1432.56 262.311 1437.92 315.981 1376.2 415.269C1293.91 547.654 1273.34 539.603 1285.86 629.947C1350.26 613.846 1369.94 551.232 1399.46 488.617C1579.25 112.931 1318.06 67.3125 1157.95 136.188C1050.61 181.807 859.189 392.907 796.575 519.924C784.052 544.97 770.635 577.172 759.007 604.901L715.177 682.722ZM1423.61 701.506C1442.4 589.695 1553.31 561.965 1553.31 217.587C1553.31 69.1015 1370.84 -64.1776 1132.01 35.1108C927.171 119.193 895.864 183.596 786.736 348.182C683.869 503.824 687.447 674.671 598.893 818.684C572.953 859.831 549.696 874.142 521.072 915.289C500.499 945.702 485.293 984.165 464.719 1019.94C422.678 1088.82 379.743 1138.91 345.752 1221.2C238.413 1223.89 148.07 1225.68 137.336 1336.59C123.024 1488.66 194.583 1526.23 194.583 1583.47C193.689 1645.19 -56.7683 2267.76 13.0019 2638.97C32.6807 2740.94 99.7674 2741.84 207.106 2754.36C465.614 2785.67 801.048 2774.93 1032.72 2681.91L1453.13 2480.65C1559.58 2420.72 1738.47 2307.12 1818.08 2223.93C1874.44 2165.79 1903.95 2116.59 1952.26 2047.71C2018.45 1951.11 2020.24 1952.9 2034.55 1821.41C2122.21 1837.51 2285.9 1875.97 2340.46 1923.38C2334.2 1985.1 2303.79 1955.58 2303.79 2011.04C2338.68 2011.93 2396.82 1968.1 2411.13 1919.8C2374.46 1866.13 2335.99 1875.08 2283.22 1832.14C2325.26 1799.05 2401.29 1783.84 2459.43 1759.69C2584.66 1707.81 2798.44 1550.38 2851.22 1407.26C2893.26 1291.87 2861.95 1099.55 2793.97 1024.42C2722.41 945.702 2556.04 905.45 2420.07 905.45C2258.17 905.45 2090.9 1021.73 1960.31 1071.82C1910.22 1027.99 1906.64 977.903 1869.96 929.601C1827.92 872.353 1554.21 729.235 1423.61 701.506Z" fill="#020202"/>
</svg>
