<svg viewBox="0 0 3473 3473" xmlns="http://www.w3.org/2000/svg">
  <path
    d="M427.602 2820.91C486.638 2815.55 640.491 2860.27 653.014 2910.36C557.303 2921.99 435.653 2913.05 427.602 2820.91ZM374.827 2871.9C418.657 2903.21 441.914 2952.4 517.051 2970.29C627.073 2998.02 867.691 2904.1 592.188 2797.66C514.368 2767.24 459.804 2735.04 373.038 2764.56C371.249 2635.75 511.684 2072.22 571.615 1985.46C712.05 2007.82 1032.28 2167.93 1213.86 1945.21C1386.5 1955.05 1253.22 2056.12 1362.34 2201.03C1418.7 2275.27 1475.05 2340.57 1599.38 2361.14C1693.31 2377.25 1873.1 2371.88 1965.23 2346.83C2102.09 2311.05 2136.97 2276.17 2140.55 2122.32L2291.72 2156.31C2272.93 2293.16 2096.72 2522.15 1985.8 2603.55C1832.85 2715.36 1694.2 2782.45 1502.78 2865.64C1417.8 2902.31 1344.45 2969.4 1254.11 2989.97C1081.47 3028.43 573.404 3091.94 428.497 3010.54C389.139 2989.08 374.827 2928.25 374.827 2871.9ZM1626.22 2131.26C1632.48 2072.22 1654.84 2039.13 1689.73 2014.98C1713.88 2066.86 1670.94 2116.95 1626.22 2131.26ZM1720.14 1966.67C1799.75 1966.67 1872.2 1991.72 1944.66 2015.87C2035 2046.28 2060.05 2060.6 2086.88 2149.15C2153.97 2367.41 1521.56 2427.34 1378.45 2146.47C1348.03 2087.43 1361.45 1961.31 1420.49 1938.95C1466.11 1921.95 1619.06 1946.1 1672.73 1954.15C1646.79 2005.14 1551.08 2069.54 1591.33 2183.14C1715.67 2240.39 1809.59 2003.35 1720.14 1966.67ZM989.342 1977.41C990.236 1915.69 987.553 1860.23 1043.91 1836.08C1064.48 1883.49 1030.49 1950.57 989.342 1977.41ZM595.766 1935.37C600.239 1872.75 686.11 1667.02 720.995 1629.45C846.223 1646.45 1095.79 1764.52 1178.08 1823.56C1192.39 1930 1136.04 2003.35 1038.54 2004.24C1095.79 1947.89 1124.41 1860.23 1069.85 1785.99C958.929 1777.94 947.301 1881.7 933.883 2020.34C829.228 2014.98 667.325 2004.24 595.766 1935.37ZM506.317 1863.81C473.221 1772.57 473.221 1630.35 613.656 1618.72L542.097 1818.19C523.313 1861.12 523.313 1851.29 506.317 1863.81ZM735.307 1586.52C755.88 1534.64 767.508 1499.75 799.71 1454.13C910.627 1298.49 932.989 1209.94 1051.96 1135.69C1178.97 1056.98 1588.65 1106.18 1728.19 1150.9C1967.02 1227.83 2084.2 1259.13 2172.75 1464.87C2245.21 1634.82 2294.4 1911.22 2296.19 2096.38C2138.76 2100.85 2147.71 2063.28 2101.19 2033.76C1989.38 1963.1 1643.21 1902.27 1492.05 1901.38C1238.01 1900.48 1387.39 1953.26 1292.57 1923.74C1236.22 1905.85 1239.8 1895.12 1238.01 1875.44C1223.7 1768.1 1195.97 1778.83 1041.22 1701.91C946.406 1654.5 847.118 1607.98 735.307 1586.52ZM2318.55 1542.69C2301.56 1486.33 2332.87 1489.91 2387.43 1451.45C2418.74 1429.09 2443.78 1405.83 2482.25 1384.36C2626.26 1303.86 2894.61 1290.44 3009.1 1386.15C3055.61 1424.61 3131.65 1499.75 3120.02 1598.14C3095.87 1794.04 2961.69 1901.38 2851.67 1990.83C2739.86 2082.06 2553.8 2175.99 2361.49 2113.37C2345.39 2074.01 2357.91 1824.45 2339.13 1732.32C2322.13 1650.03 2331.08 1641.08 2378.48 1591.88C2518.03 1446.98 2820.36 1341.43 2992.11 1465.76C3064.56 1519.43 3043.99 1540 3081.55 1581.15C3128.07 1531.06 3041.3 1362.89 2721.07 1373.63C2503.71 1380.78 2409.79 1550.74 2318.55 1542.69ZM1016.18 1033.72C1020.65 909.388 1135.14 651.774 1249.64 562.325C1388.28 454.987 1533.19 353.909 1746.08 474.665C1798.86 504.184 1796.17 519.39 1801.54 592.738C1806.01 663.403 1799.75 689.343 1781.86 746.59C1640.53 1202.78 1522.46 940.695 1069.85 1048.93C1086.84 900.443 1215.65 768.058 1287.21 699.182C1409.75 580.215 1498.31 503.289 1682.57 528.335C1733.56 613.311 1738.92 666.981 1677.2 766.269C1594.91 898.654 1574.34 890.603 1586.86 980.947C1651.26 964.846 1670.94 902.232 1700.46 839.617C1880.25 463.931 1619.06 418.312 1458.95 487.188C1351.61 532.807 1160.19 743.907 1097.58 870.924C1085.05 895.97 1071.63 928.172 1060.01 955.901L1016.18 1033.72ZM1724.61 1052.51C1743.4 940.695 1854.31 912.965 1854.31 568.587C1854.31 420.101 1671.84 286.822 1433.01 386.111C1228.17 470.193 1196.86 534.596 1087.74 699.182C984.869 854.824 988.447 1025.67 899.893 1169.68C873.953 1210.83 850.696 1225.14 822.072 1266.29C801.499 1296.7 786.293 1335.16 765.719 1370.94C723.678 1439.82 680.743 1489.91 646.752 1572.2C539.413 1574.89 449.07 1576.68 438.336 1687.59C424.024 1839.66 495.583 1877.23 495.583 1934.47C494.689 1996.19 244.232 2618.76 314.002 2989.97C333.681 3091.94 400.767 3092.84 508.106 3105.36C766.614 3136.67 1102.05 3125.93 1333.72 3032.91L1754.13 2831.65C1860.58 2771.72 2039.47 2658.12 2119.08 2574.93C2175.44 2516.79 2204.95 2467.59 2253.26 2398.71C2319.45 2302.11 2321.24 2303.9 2335.55 2172.41C2423.21 2188.51 2586.9 2226.97 2641.46 2274.38C2635.2 2336.1 2604.79 2306.58 2604.79 2362.04C2639.68 2362.93 2697.82 2319.1 2712.13 2270.8C2675.46 2217.13 2636.99 2226.08 2584.22 2183.14C2626.26 2150.05 2702.29 2134.84 2760.43 2110.69C2885.66 2058.81 3099.44 1901.38 3152.22 1758.26C3194.26 1642.87 3162.95 1450.55 3094.97 1375.42C3023.41 1296.7 2857.04 1256.45 2721.07 1256.45C2559.17 1256.45 2391.9 1372.73 2261.31 1422.82C2211.22 1378.99 2207.64 1328.9 2170.96 1280.6C2128.92 1223.35 1855.21 1080.24 1724.61 1052.51Z"
    fill="white"
  />
</svg>
