<svg viewBox="0 0 24 24" xmlns="http://www.w3.org/2000/svg">
  <path
    d="M8.046 4.862L0.908001 12L8.046 19.138L10.756 16.447L6.308 12L10.754 7.553L8.046 4.862Z"
    fill="#FFCA28"
  />
  <path
    d="M13.6391 6.27035C13.3622 6.63909 13.1695 7.18174 13.1695 7.812C13.1695 8.44226 13.3622 8.98491 13.6391 9.35365C13.9158 9.72214 14.2428 9.8825 14.543 9.8825C14.8432 9.8825 15.1702 9.72214 15.4469 9.35365C15.7238 8.98491 15.9165 8.44226 15.9165 7.812C15.9165 7.18174 15.7238 6.63909 15.4469 6.27035C15.1702 5.90186 14.8432 5.7415 14.543 5.7415C14.2428 5.7415 13.9158 5.90186 13.6391 6.27035ZM12.4756 5.39668C12.9593 4.7525 13.6829 4.2865 14.543 4.2865C15.4031 4.2865 16.1267 4.7525 16.6104 5.39668C17.0939 6.04062 17.3715 6.89696 17.3715 7.812C17.3715 8.72704 17.0939 9.58338 16.6104 10.2273C16.1267 10.8715 15.4031 11.3375 14.543 11.3375C13.6829 11.3375 12.9593 10.8715 12.4756 10.2273C11.9921 9.58338 11.7145 8.72704 11.7145 7.812C11.7145 6.89696 11.9921 6.04062 12.4756 5.39668Z"
    fill="#FFCA28"
  />
  <path
    d="M20.616 4.152L22.086 4.842L14.303 19.847L12.833 19.157L20.616 4.152Z"
    fill="#FFCA28"
  />
  <path
    d="M19.4461 14.6563C19.1692 15.0251 18.9765 15.5677 18.9765 16.198C18.9765 16.8283 19.1692 17.3709 19.4461 17.7397C19.7228 18.1081 20.0498 18.2685 20.35 18.2685C20.6502 18.2685 20.9772 18.1081 21.2539 17.7397C21.5308 17.3709 21.7235 16.8283 21.7235 16.198C21.7235 15.5677 21.5308 15.0251 21.2539 14.6563C20.9772 14.2879 20.6502 14.1275 20.35 14.1275C20.0498 14.1275 19.7228 14.2879 19.4461 14.6563ZM18.2826 13.7827C18.7663 13.1385 19.4899 12.6725 20.35 12.6725C21.2101 12.6725 21.9337 13.1385 22.4174 13.7827C22.9009 14.4266 23.1785 15.283 23.1785 16.198C23.1785 17.113 22.9009 17.9694 22.4174 18.6133C21.9337 19.2575 21.2101 19.7235 20.35 19.7235C19.4899 19.7235 18.7663 19.2575 18.2826 18.6133C17.7991 17.9694 17.5215 17.113 17.5215 16.198C17.5215 15.283 17.7991 14.4266 18.2826 13.7827Z"
    fill="#FFCA28"
  />
</svg>
