<svg viewBox="0 0 16 16" xmlns="http://www.w3.org/2000/svg">
  <path
    d="M8 12.401L3.601 8L8 3.601L9.468 5.067L6.534 8L8 9.467L12.4 5.067L8.567 1.235C8.49268 1.16047 8.40439 1.10133 8.30718 1.06099C8.20997 1.02064 8.10575 0.99987 8.0005 0.99987C7.89525 0.99987 7.79103 1.02064 7.69382 1.06099C7.59661 1.10133 7.50832 1.16047 7.434 1.235L1.235 7.434C1.16047 7.50832 1.10133 7.59661 1.06099 7.69382C1.02064 7.79103 0.99987 7.89525 0.99987 8.0005C0.99987 8.10575 1.02064 8.20997 1.06099 8.30718C1.10133 8.40439 1.16047 8.49268 1.235 8.567L7.434 14.766C7.50832 14.8405 7.59661 14.8997 7.69382 14.94C7.79103 14.9804 7.89525 15.0011 8.0005 15.0011C8.10575 15.0011 8.20997 14.9804 8.30718 14.94C8.40439 14.8997 8.49268 14.8405 8.567 14.766L14.766 8.567C14.9158 8.41652 14.9999 8.21283 14.9999 8.0005C14.9999 7.78817 14.9158 7.58448 14.766 7.434L13.866 6.535L8 12.401Z"
    fill="#8BC34A"
  />
</svg>
