<svg viewBox="0 0 24 24" xmlns="http://www.w3.org/2000/svg">
  <path
    d="M12 2.0425C9.3591 2.0425 6.82637 3.09159 4.95898 4.95898C3.09159 6.82637 2.0425 9.3591 2.0425 12C2.0425 14.6409 3.09159 17.1736 4.95898 19.041C6.82637 20.9084 9.3591 21.9575 12 21.9575C14.6409 21.9575 17.1736 20.9084 19.041 19.041C20.9084 17.1736 21.9575 14.6409 21.9575 12C21.9575 9.3591 20.9084 6.82637 19.041 4.95898C17.1736 3.09159 14.6409 2.0425 12 2.0425ZM7.6171 6.4254L13.192 12.0001L7.6171 17.5748L5.9275 15.8852L9.8125 12.0002L5.9275 8.1152L7.6171 6.4254ZM13.5916 6.4254L19.1665 12.0001L13.5916 17.5748L11.902 15.8852L15.787 12.0002L11.902 8.1152L13.5916 6.4254Z"
    fill="#FFCA28"
  />
</svg>
