<svg viewBox="0 0 300 300" xmlns="http://www.w3.org/2000/svg">
  <path
    d="M109.689 49.1664C106.3 59.8348 107.47 70.8556 112.094 80.1427L65.5479 114.927C64.4405 114.255 63.2582 113.715 62.025 113.318C53.3095 110.55 43.9993 115.371 41.2315 124.086C38.4627 132.802 43.284 142.112 51.9985 144.88C60.714 147.649 70.0242 142.828 72.793 134.113C73.7254 131.176 73.8144 128.036 73.05 125.051L130.673 82.6724C123.075 75.528 119.106 63.8328 122.474 53.2284C127.152 38.5012 142.884 30.3541 157.612 35.0328C169.38 38.7707 176.946 49.5681 177.125 61.2706L190.546 61.5506C190.487 44.0514 179.247 27.8296 161.673 22.2469C139.885 15.3258 116.61 27.3776 109.689 49.1664Z"
    fill="#0A7BFF"
  />
  <path
    d="M32.8107 161.347C41.46 167.681 52.2305 170.41 62.8525 168.959L81.2149 223.837C80.2341 224.664 79.3544 225.604 78.5939 226.637C73.2555 233.953 74.9085 244.248 82.2857 249.631C89.663 255.014 99.9706 253.446 105.309 246.13C110.648 238.814 108.995 228.52 101.618 223.136C99.135 221.324 96.1957 220.24 93.1303 220.005L71.0436 152.288C61.9159 157.158 49.6187 157.163 40.6421 150.614C28.1771 141.517 25.3841 124.122 34.4048 111.759C41.6143 101.879 54.1852 98.2031 65.3056 101.766L69.7609 89.2295C53.1951 83.7055 34.3472 89.1089 23.5823 103.861C10.2363 122.152 14.3675 147.89 32.8107 161.347Z"
    fill="#0A7BFF"
  />
  <path
    d="M225.399 202.199C234.534 207.027 241.864 215.255 245.283 225.838C252.265 247.451 240.313 270.662 218.587 277.681C201.063 283.342 182.533 276.739 172.357 262.633L183.435 255.09C190.352 264.444 202.755 268.789 214.49 264.998C229.174 260.254 237.253 244.565 232.534 229.956C229.136 219.437 219.139 212.284 208.825 210.909L231.158 143.31C228.811 141.342 227.065 138.752 226.122 135.838C223.329 127.193 228.111 117.908 236.801 115.101C245.492 112.294 254.801 117.026 257.594 125.672C260.386 134.316 255.605 143.601 246.915 146.409C245.683 146.802 244.409 147.05 243.119 147.147L225.399 202.199Z"
    fill="#0A7BFF"
  />
  <path
    d="M116.724 270.244C125.727 263.657 131.271 254.105 133.015 243.914L190.921 243.323C191.417 244.515 192.05 245.645 192.808 246.69C198.19 254.045 208.514 255.645 215.869 250.264C223.224 244.883 224.824 234.559 219.444 227.203C214.062 219.848 203.738 218.248 196.383 223.629C193.904 225.443 191.985 227.915 190.843 230.766L119.56 230.948C121.468 241.165 117.779 252.906 108.83 259.454C96.4015 268.547 78.9547 265.843 69.8616 253.415C62.5955 243.483 62.863 230.347 69.6047 220.83L58.974 212.707C48.7252 226.816 48.2217 246.477 59.0716 261.308C72.5245 279.697 98.3365 283.697 116.724 270.244Z"
    fill="#0A7BFF"
  />
  <path
    d="M213.878 101.181C221.347 93.9428 231.522 89.4802 242.745 89.4802C265.665 89.4802 284.245 108.061 284.245 130.98C284.245 149.467 272.157 165.13 255.454 170.498L251.648 157.588C262.776 153.867 270.796 143.36 270.796 130.98C270.796 115.488 258.237 102.93 242.745 102.93C231.59 102.93 221.62 110.272 217.1 119.7L159.118 77.505C156.577 79.0824 153.591 80.0095 150.38 80.0095C141.213 80.0095 133.78 72.5777 133.78 63.4091C133.78 54.2416 141.213 46.8087 150.38 46.8087C159.549 46.8087 166.981 54.2416 166.981 63.4091C166.981 64.739 166.807 66.0248 166.512 67.2635L213.878 101.181Z"
    fill="#0A7BFF"
  />
</svg>
