<svg viewBox="0 0 24 24" xmlns="http://www.w3.org/2000/svg">
  <path
    d="M8.81802 2.39001C7.06302 2.39001 5.63702 3.82601 5.63702 5.59401C5.63702 7.35981 7.05947 8.79344 8.81146 8.79701C7.05947 8.80058 5.63702 10.2342 5.63702 12C5.63702 13.7667 7.05933 15.2003 8.8112 15.204C7.05933 15.2077 5.63702 16.6403 5.63702 18.407C5.63702 20.176 7.06302 21.61 8.81802 21.61C10.575 21.61 12.001 20.175 12.001 18.407V12.082C12.0443 13.8131 13.4532 15.204 15.182 15.204C16.938 15.204 18.364 13.769 18.364 12C18.364 10.2342 16.9416 8.80058 15.1886 8.79701C16.9416 8.79344 18.364 7.35981 18.364 5.59401C18.364 3.82601 16.938 2.39001 15.182 2.39001H8.81802ZM15.1715 8.79701H12.001V11.918C12.0442 10.1904 13.4475 8.80264 15.1715 8.79701Z"
    fill="#7C4DFF"
  />
</svg>
