<svg viewBox="0 0 24 24" xmlns="http://www.w3.org/2000/svg">
  <path
    d="M13 9H18.5L13 3.5V9ZM6 2H14L20 8V20C20 20.5304 19.7893 21.0391 19.4142 21.4142C19.0391 21.7893 18.5304 22 18 22H6C5.46957 22 4.96086 21.7893 4.58579 21.4142C4.21071 21.0391 4 20.5304 4 20V4C4 2.89 4.89 2 6 2ZM11 4H6V20H18V11H11V4Z"
    fill="#42A5F5"
  />
  <path
    d="M7.5 16.4464V18.5H9.16667V16.4464C9.16667 16.2965 9.22219 16.1593 9.40208 16.0148C9.58512 15.8677 9.81198 15.7857 10.1111 15.7857H13.3129L12.224 16.6607L13.4889 17.6772L16.7982 15.0179L13.4889 12.3586L12.224 13.375L13.3129 14.25H10.1111C9.43098 14.25 8.82216 14.4471 8.31073 14.8544C7.79404 15.2659 7.5 15.8032 7.5 16.4464Z"
    fill="#42A5F5"
  />
</svg>
