<svg viewBox="0 0 24 24" xmlns="http://www.w3.org/2000/svg">
  <path
    d="M19.389 18.237L12.647 21.977C12.185 22.217 11.723 22.217 11.261 21.977L4.611 18.237L16.664 6.092L16.988 6C17.265 6 17.422 6.12 17.449 6.37L19.389 18.237ZM9.553 6.277L5.35 13.248L7.105 2.212C7.133 1.962 7.29 1.842 7.567 1.842C7.752 1.842 7.872 1.898 7.937 2.074L9.922 5.722L9.552 6.276M13.71 7.44L4.89 16.297L11.586 4.937C11.678 4.752 11.816 4.669 12.001 4.669C12.186 4.669 12.306 4.752 12.371 4.937L13.71 7.44Z"
    fill="#FBC02D"
  />
</svg>
