<svg viewBox="0 0 24 24" xmlns="http://www.w3.org/2000/svg">
  <path
    d="M18.1659 8.97895C17.7165 8.35538 16.6831 7.07327 15.0958 5.16855C14.4068 4.3424 13.8157 3.64114 13.5247 3.29689C13.3643 3.10696 13.2267 2.94447 13.118 2.81599L12.8509 2.5012L12.8326 2.47427L12.8245 2.4707L12.4239 2L11.9161 2.40726C10.6197 3.44566 9.55792 4.78419 8.84654 6.27602C8.41034 7.16364 8.12549 8.03143 7.97619 8.92513C7.93711 9.1262 7.90359 9.33286 7.87565 9.54006C7.70148 9.52582 7.52427 9.5167 7.34858 9.51263C7.33387 9.51162 7.31913 9.51111 7.29934 9.51061C6.65597 9.48826 6.01614 9.56493 5.39819 9.73911L5.13365 9.81322L4.99757 10.0519C4.35979 11.1705 3.99875 12.4441 3.95355 13.7343C3.89515 15.41 4.35165 17.0318 5.2738 18.4247C6.17612 19.7871 7.45063 20.8285 8.95976 21.4364L9.15629 21.5156L9.21569 21.5364L9.21822 21.5354C10.0043 21.8207 10.8294 21.9802 11.6708 22.0092C11.7663 22.0127 11.8612 22.0142 11.9562 22.0142C13.0179 22.0142 14.0518 21.8065 15.0329 21.3957L15.04 21.3988L15.3009 21.2779C16.6242 20.666 17.7566 19.7043 18.5756 18.4963C19.4181 17.2537 19.8913 15.8 19.9441 14.2924C20.0071 12.4903 19.4089 10.7024 18.1659 8.97895ZM12.2588 14.5625C12.5325 15.5999 12.4787 16.5967 12.0999 17.5295C11.1534 16.5952 10.4592 15.5679 10.0358 14.4731C9.58233 13.3022 9.30963 12.1881 9.2233 11.1578C9.62396 11.2894 9.9921 11.463 10.3201 11.6768C11.2636 12.2917 11.9161 13.2621 12.2588 14.5625ZM12.4315 19.5845C12.8336 19.8907 13.2566 20.1776 13.6928 20.4416C13.0505 20.6163 12.3878 20.693 11.7175 20.6691C11.614 20.6655 11.5104 20.6595 11.4063 20.6508C11.7881 20.3218 12.1319 19.9648 12.4315 19.5845ZM13.5547 14.2208C13.1241 12.5888 12.2817 11.3549 11.0513 10.5536C10.5115 10.2022 9.89662 9.9356 9.22128 9.76146C9.23094 9.64921 9.24313 9.5375 9.25733 9.42784C9.26951 9.33391 9.2822 9.24757 9.29593 9.16683C9.40714 8.59253 9.57266 8.02432 9.78696 7.47847C9.86922 7.26925 9.95909 7.06159 10.0545 6.86099L10.0581 6.85389C10.2054 6.55581 10.3714 6.25472 10.5669 5.93278L10.6436 5.80633L10.641 5.80482C11.095 5.09545 11.6388 4.44852 12.2609 3.87829L12.501 4.16213C13.0611 4.82582 13.5877 5.45343 14.0665 6.02773C15.1435 7.31954 16.5399 9.01601 17.0787 9.76398C18.144 11.2406 18.6574 12.7482 18.6051 14.2462C18.5645 15.4095 18.2202 16.5439 17.6088 17.5259C17.03 18.4567 16.2236 19.2356 15.2735 19.784C14.7434 19.5195 13.9736 19.0843 13.1561 18.4511C13.8152 17.1375 13.9493 15.7152 13.5547 14.2208ZM11.4073 18.7218C10.803 19.5048 10.084 20.0141 9.66458 20.27C9.59653 20.2451 9.52847 20.2192 9.46146 20.1918L9.40764 20.1704C8.16511 19.6571 7.11705 18.7893 6.37668 17.66C5.6201 16.5058 5.24535 15.1642 5.29359 13.78C5.32812 12.7878 5.5754 11.8398 6.02937 10.9619C6.29291 10.9035 6.56153 10.8669 6.83015 10.8532L6.89969 10.8517C7.03529 10.8486 7.17036 10.8486 7.29883 10.8517C7.48772 10.8603 7.67711 10.8801 7.86347 10.9101C7.92439 12.1714 8.23414 13.5322 8.78508 14.9561C9.31572 16.3266 10.1978 17.5929 11.4073 18.7218Z"
    fill="#FF9100"
  />
  <path
    d="M17.8367 9.13927C17.4111 8.54871 16.4324 7.33449 14.9291 5.53062C14.2766 4.74821 13.7168 4.08409 13.4413 3.75807C13.2893 3.57819 13.159 3.4243 13.0561 3.30263L12.8031 3.0045L12.7858 2.979L12.7781 2.97562L12.3987 2.52984L11.9178 2.91554C10.6901 3.89895 9.68449 5.16661 9.01077 6.57945C8.59767 7.42007 8.32791 8.24191 8.18651 9.0883C8.1495 9.27873 8.11775 9.47444 8.0913 9.67067C7.92634 9.65718 7.75852 9.64854 7.59213 9.64469C7.5782 9.64373 7.56424 9.64325 7.54549 9.64277C6.9362 9.62161 6.33024 9.69422 5.74501 9.85918L5.49447 9.92937L5.3656 10.1554C4.76159 11.2148 4.41966 12.4209 4.37685 13.6428C4.32155 15.2298 4.75388 16.7658 5.6272 18.0849C6.48175 19.3751 7.68877 20.3615 9.118 20.9371L9.30412 21.0121L9.36038 21.0318L9.36277 21.0309C10.1072 21.3011 10.8887 21.4521 11.6855 21.4795C11.7759 21.4829 11.8659 21.4843 11.9558 21.4843C12.9613 21.4843 13.9404 21.2877 14.8695 20.8986L14.8763 20.9015L15.1234 20.7871C16.3766 20.2076 17.4491 19.2968 18.2247 18.1527C19.0226 16.9759 19.4707 15.5991 19.5207 14.1714C19.5804 12.4647 19.0139 10.7714 17.8367 9.13927ZM12.2424 14.4272C12.5016 15.4097 12.4506 16.3537 12.0919 17.2371C11.1955 16.3522 10.5381 15.3794 10.137 14.3425C9.7076 13.2336 9.44935 12.1785 9.36759 11.2028C9.74703 11.3274 10.0957 11.4918 10.4063 11.6943C11.2998 12.2766 11.9178 13.1956 12.2424 14.4272ZM12.4059 19.1832C12.7868 19.4732 13.1873 19.745 13.6004 19.995C12.9921 20.1604 12.3645 20.2331 11.7297 20.2105C11.6317 20.2071 11.5336 20.2013 11.435 20.1932C11.7966 19.8815 12.1222 19.5434 12.4059 19.1832ZM13.4696 14.1035C13.0619 12.558 12.264 11.3894 11.0988 10.6305C10.5876 10.2978 10.0053 10.0453 9.36567 9.88034C9.37482 9.77404 9.38636 9.66824 9.39981 9.56439C9.41135 9.47543 9.42337 9.39367 9.43637 9.3172C9.54169 8.77331 9.69845 8.23519 9.9014 7.71823C9.97931 7.5201 10.0644 7.32343 10.1548 7.13345L10.1582 7.12672C10.2976 6.84443 10.4549 6.55928 10.6401 6.25439L10.7127 6.13463L10.7102 6.1332C11.1402 5.46139 11.6552 4.84871 12.2443 4.30868L12.4718 4.57749C13.0022 5.20604 13.5009 5.80042 13.9544 6.34431C14.9743 7.56772 16.2968 9.17436 16.8071 9.88273C17.816 11.2812 18.3022 12.709 18.2526 14.1276C18.2142 15.2293 17.8881 16.3036 17.3091 17.2337C16.7609 18.1152 15.9972 18.8529 15.0975 19.3722C14.5954 19.1217 13.8664 18.7096 13.0921 18.1099C13.7163 16.8658 13.8433 15.5188 13.4696 14.1035ZM11.4359 18.3662C10.8637 19.1078 10.1827 19.5901 9.78551 19.8324C9.72105 19.8089 9.6566 19.7844 9.59314 19.7584L9.54217 19.7382C8.36542 19.252 7.37286 18.4302 6.67169 17.3607C5.95517 16.2676 5.60026 14.997 5.64594 13.6861C5.67865 12.7465 5.91283 11.8486 6.34277 11.0172C6.59235 10.9619 6.84675 10.9272 7.10115 10.9143L7.167 10.9128C7.29543 10.9099 7.42335 10.9099 7.54502 10.9128C7.7239 10.921 7.90326 10.9398 8.07976 10.9681C8.13745 12.1627 8.4308 13.4515 8.95257 14.7999C9.45512 16.0978 10.2904 17.2972 11.4359 18.3662Z"
    fill="#FF9100"
  />
</svg>
