<svg viewBox="0 0 24 24" xmlns="http://www.w3.org/2000/svg">
  <path
    d="M10 4H4C2.89 4 2 4.89 2 6V18C2 19.097 2.903 20 4 20H20C21.097 20 22 19.097 22 18V8C22 7.46957 21.7893 6.96086 21.4142 6.58579C21.0391 6.21071 20.5304 6 20 6H12L10 4ZM5.5 14.5143C5.5 13.6016 5.88635 12.8262 6.60962 12.2118C7.32808 11.6015 8.18931 11.3 9.16667 11.3H14.7484L12.765 9.6L14.2333 8.34146L18.7683 12.2286L14.2333 16.1157L12.765 14.8571L14.7484 13.1571H9.16667C8.67585 13.1571 8.28289 13.3018 7.95873 13.5796C7.63713 13.8553 7.5 14.1589 7.5 14.5143V17.5H5.5V14.5143Z"
    fill="#0288D1"
  />
</svg>
