<svg viewBox="0 0 24 24" xmlns="http://www.w3.org/2000/svg">
  <path
    d="M10 4H4C2.89 4 2 4.89 2 6V18C2 19.097 2.903 20 4 20H20C21.097 20 22 19.097 22 18V8C22 7.46957 21.7893 6.96086 21.4142 6.58579C21.0391 6.21071 20.5304 6 20 6H12L10 4ZM6.8 14.5143C6.8 13.7042 7.10995 13.0112 7.71961 12.4462C8.32784 11.8825 9.05913 11.6 9.90278 11.6H15.7516L13.6127 9.60001L14.5472 8.7262L18.2928 12.2286L14.5472 15.731L13.6127 14.8572L15.7516 12.8572H9.90278C9.40137 12.8572 8.98229 13.0203 8.63382 13.3461C8.28585 13.6715 8.11667 14.0573 8.11667 14.5143V17.2H6.8V14.5143Z"
    fill="#0288D1"
  />
</svg>
