<svg viewBox="0 0 24 24" xmlns="http://www.w3.org/2000/svg">
  <path
    d="M12 6L10 4H4C2.89 4 2 4.89 2 6V18C2 18.5304 2.21071 19.0391 2.58579 19.4142C2.88695 19.7154 3.27427 19.9106 3.68982 19.9758C3.71131 19.9792 3.73289 19.9822 3.75453 19.9849C3.76502 19.9862 3.7755 19.9874 3.78597 19.9885C3.85673 19.9961 3.92817 20 4 20H19C19.92 20 20.7 19.37 20.93 18.5L23.21 10H6.14L4 18V8H21C21 6.903 20.097 6 19 6H12ZM6.07032 18L7.67532 12H20.6028L18.9983 17.9818L18.9964 17.9888C18.9951 17.9938 18.9932 17.9975 18.9914 18H6.07032Z"
    fill="#0288D1"
  />
</svg>
