<svg viewBox="0 0 24 24" xmlns="http://www.w3.org/2000/svg">
  <path
    d="M19 20H4C3.46957 20 2.96086 19.7893 2.58579 19.4142C2.21071 19.0391 2 18.5304 2 18V6C2 4.89 2.89 4 4 4H10L12 6H19C20.097 6 21 6.903 21 8H4V18L6.14 10H23.21L20.93 18.5C20.7 19.37 19.92 20 19 20ZM8.8 16.1357V18.2H9.95V16.1357C9.95 15.8135 10.0787 15.5388 10.3552 15.3018C10.6326 15.064 10.9687 14.9428 11.375 14.9428H16.0344L14.3427 16.3928L15.175 17.1063L18.3073 14.4214L15.175 11.7366L14.3427 12.45L16.0344 13.9H11.375C10.6807 13.9 10.0757 14.1131 9.57052 14.5422C9.06343 14.973 8.8 15.5073 8.8 16.1357Z"
    fill="#0288D1"
  />
</svg>
