<svg viewBox="0 0 24 24" xmlns="http://www.w3.org/2000/svg">
  <path
    d="M19 20H4C3.46957 20 2.96086 19.7893 2.58579 19.4142C2.21071 19.0391 2 18.5304 2 18V6C2 4.89 2.89 4 4 4H10L12 6H19C20.097 6 21 6.903 21 8H4V18L6.14 10H23.21L20.93 18.5C20.7 19.37 19.92 20 19 20ZM8.5 16.1357V18.5H10.25V16.1357C10.25 15.9089 10.3343 15.7148 10.5504 15.5296C10.769 15.3422 11.0342 15.2429 11.375 15.2429H15.2234L13.8817 16.3929L15.175 17.5014L18.7683 14.4214L15.175 11.3415L13.8817 12.45L15.2234 13.6H11.375C10.6143 13.6 9.93919 13.8354 9.37629 14.3136C8.80858 14.7958 8.5 15.4111 8.5 16.1357Z"
    fill="#0288D1"
  />
</svg>
