<svg
  width="300"
  height="300"
  viewBox="0 0 300 300"
  fill="none"
  xmlns="http://www.w3.org/2000/svg"
>
  <path
    d="M156.504 281.604C140.912 289.244 141.651 290.464 121.274 292.275V286.57C121.274 276.886 114.919 261.685 107.43 253.455C106.21 252.115 101.953 249.372 97.9709 247.359C90.91 243.791 90.5101 243.716 81.9093 244.327C77.0587 244.672 70.2911 245.719 66.8716 246.652C45.7211 252.429 13.0467 236.525 13.0001 220.429C12.9835 214.472 15.5844 212.102 24.095 210.321C34.3422 208.177 41.3824 204.842 42.1544 201.767C43.3336 197.07 41.8508 182.4 39.8156 178.628C38.3815 175.968 37.8903 172.835 37.8758 166.258C37.8571 157.854 38.0354 157.166 41.7534 151.233C43.8963 147.814 47.8464 142.294 50.5323 138.968C55.0855 133.329 55.4409 132.453 55.7984 126.015C56.2129 118.56 53.412 105.355 49.6101 96.831C45.3201 87.2117 45.947 61.1505 50.9447 41.4393C56.0461 21.3158 66.1877 5.17134 72.4734 7.16712C74.5563 7.8272 74.6889 8.18055 81.8617 32.135C83.9828 39.2187 84.2657 39.5949 90.593 43.7553C101.049 50.6297 110.641 61.7774 120.331 78.3177L123.015 82.8999L133.218 84.189C150.519 86.3734 170.786 94.2208 181.854 103.019C184.113 104.815 186.678 106.062 187.553 105.79C188.429 105.519 194.477 102.879 200.992 99.9231C215.071 93.5368 229.252 88.7733 248.551 83.9507C268.94 78.8545 280.316 76.7841 283.52 77.5882C286.301 78.2867 286.316 78.3385 285.673 85.2501C284.943 93.1068 280.631 106.711 275.915 116.043C268.682 130.351 250.911 150.044 234.026 162.46C226.419 168.054 226.031 168.54 225.405 173.247C220.172 212.668 209.535 234.423 181.909 262.203C168.962 275.222 167.943 276 156.504 281.604ZM123.582 228.959C136.276 231.004 147.361 232.834 148.216 233.025H148.215C149.07 233.217 152.201 233.427 155.173 233.493C162.425 233.653 162.854 232.692 161.625 219.032C161.089 213.088 160.404 207.157 160.102 205.852C158.992 201.055 157.686 204.887 156.965 215.058C156.484 221.845 155.773 225.669 154.934 225.99C154.224 226.262 144.145 225.754 132.536 224.857C99.0382 222.274 98.575 222.251 97.9988 223.183C97.1398 224.574 99.0548 225.006 123.582 228.959ZM131.957 181.7C118.293 180.969 95.1689 189.054 85.3734 197.99C81.2275 201.771 81.9777 202.056 88.8272 199.303C91.5089 198.225 93.3804 198.223 98.775 199.296C108.718 201.272 112.849 199.826 120.69 191.624C124.145 188.009 128.26 184.734 129.832 184.347C133.254 183.505 134.589 181.841 131.957 181.7ZM59.6636 164.435C57.2419 170.229 57.6978 173.464 61.8604 180.023C63.9484 183.313 66.1628 185.837 66.7825 185.63C67.4011 185.425 68.7648 182.962 69.8124 180.16C72.7252 172.374 71.8538 164.21 67.2778 156.414C65.2706 152.996 62.7836 150.035 61.7505 149.836C60.0584 149.51 59.9413 150.026 60.5672 155.04C61.0666 159.038 60.8117 161.686 59.6636 164.435ZM141.596 124.214C134.109 130.639 121.274 145.108 121.274 147.122C121.274 147.958 121.658 148.642 122.124 148.642C122.59 148.642 127.837 143.841 133.781 137.972C139.726 132.104 147.736 125.068 151.584 122.338C158.785 117.226 160.406 114.446 156.189 114.446C153.6 114.446 150.772 116.339 141.596 124.214ZM17.9155 215.678C13.9155 219.678 17.2778 227.329 24.7777 234.329L29.9577 230.438C33.6093 226.538 35.6082 220.816 34.4155 217.678C34.0812 216.799 33.015 215.835 31.9848 214.903C30.7159 213.755 29.5018 212.657 29.7777 211.829C23.4314 213.22 18.9891 214.706 17.9155 215.678Z"
    fill="#FBC02D"
  />
</svg>
