<svg width="274" height="287" viewBox="0 0 274 287" fill="none" xmlns="http://www.w3.org/2000/svg">
<path d="M144.088 275.426C128.496 283.066 129.235 284.286 108.858 286.097V280.392C108.858 270.708 102.503 255.507 95.0141 247.277C93.7945 245.937 89.5376 243.194 85.5554 241.181C78.4945 237.613 78.0946 237.538 69.4938 238.149C64.6432 238.494 57.8756 239.541 54.4561 240.474C33.3056 246.251 0.631182 230.347 0.584551 214.251C0.567972 208.294 3.16891 205.924 11.6795 204.143C21.9267 201.999 28.9669 198.664 29.7389 195.589C30.9181 190.892 29.4353 176.222 27.4001 172.45C25.966 169.79 25.4748 166.657 25.4603 160.08C25.4416 151.676 25.6199 150.988 29.3379 145.055C31.4808 141.636 35.4309 136.116 38.1168 132.79C42.67 127.151 43.0254 126.275 43.3829 119.837C43.7974 112.382 40.9965 99.177 37.1946 90.653C32.9046 81.0337 33.5315 54.9725 38.5292 35.2613C43.6306 15.1378 53.7722 -1.0067 60.0579 0.989078C62.1408 1.64916 62.2734 2.00251 69.4462 25.957C71.5673 33.0407 71.8502 33.4169 78.1775 37.5773C88.633 44.4517 98.2254 55.5994 107.915 72.1397L110.599 76.7219L120.802 78.011C138.103 80.1954 158.37 88.0428 169.438 96.8414C171.697 98.6372 174.262 99.8838 175.137 99.6123C176.013 99.3408 182.061 96.7005 188.576 93.7451C202.655 87.3588 216.836 82.5953 236.135 77.7727C256.524 72.6765 267.9 70.6061 271.104 71.4102C273.885 72.1087 273.9 72.1605 273.257 79.0721C272.527 86.9288 268.215 100.533 263.499 109.865C256.266 124.173 238.495 143.866 221.61 156.282C214.003 161.876 213.615 162.362 212.989 167.069C207.756 206.49 197.119 228.245 169.493 256.025C156.546 269.044 155.527 269.822 144.088 275.426ZM111.166 222.781C123.86 224.826 134.945 226.656 135.8 226.847H135.799C136.654 227.039 139.785 227.249 142.757 227.315C150.009 227.475 150.438 226.514 149.209 212.854C148.673 206.91 147.988 200.979 147.686 199.674C146.576 194.877 145.27 198.709 144.549 208.88C144.068 215.667 143.357 219.491 142.518 219.812C141.808 220.084 131.729 219.576 120.12 218.679C86.6227 216.096 86.1595 216.073 85.5833 217.005C84.7243 218.396 86.6393 218.828 111.166 222.781ZM119.541 175.522C105.877 174.791 82.7534 182.876 72.9579 191.812C68.812 195.593 69.5622 195.878 76.4117 193.125C79.0934 192.047 80.9649 192.045 86.3595 193.118C96.3021 195.094 100.433 193.648 108.274 185.446C111.729 181.831 115.844 178.556 117.416 178.169C120.838 177.327 122.173 175.663 119.541 175.522ZM47.2481 158.257C44.8264 164.051 45.2823 167.286 49.4449 173.845C51.5329 177.135 53.7473 179.659 54.367 179.452C54.9856 179.247 56.3493 176.784 57.3969 173.982C60.3097 166.196 59.4383 158.032 54.8623 150.236C52.8551 146.818 50.3681 143.857 49.335 143.658C47.6429 143.332 47.5258 143.848 48.1517 148.862C48.6511 152.86 48.3962 155.508 47.2481 158.257ZM129.18 118.036C121.693 124.461 108.858 138.93 108.858 140.944C108.858 141.78 109.242 142.464 109.708 142.464C110.174 142.464 115.421 137.663 121.365 131.794C127.31 125.926 135.32 118.89 139.168 116.16C146.369 111.048 147.99 108.268 143.773 108.268C141.184 108.268 138.356 110.161 129.18 118.036ZM5.5 209.5C1.49996 213.5 4.86223 221.151 12.3622 228.151L17.5422 224.26C21.1938 220.36 23.1927 214.638 22 211.5C21.6657 210.621 20.5995 209.657 19.5693 208.725C18.3004 207.577 17.0863 206.479 17.3622 205.651C11.0159 207.042 6.57354 208.528 5.5 209.5Z" fill="#FBC02D"/>
</svg>
