<svg width="130" height="136" viewBox="0 0 130 136" fill="none" xmlns="http://www.w3.org/2000/svg">
<path d="M129.778 21.847L64.995 0.0870056L0.072998 22.17L5.048 97.348L65.964 135.693L123.058 98.457L129.778 21.847ZM7.45937 25.9226L7.08688 25.7533L64.856 5.87399L123.276 25.984L118 95.5L106.791 102.608C113.092 96.3148 116.742 86.757 116.799 77.404H116.8C116.879 70.229 114.81 66.257 111.065 64.512C113.717 59.764 115.081 54.4043 115.019 48.966C115.046 44.619 114.181 40.927 112.523 38.309C110 34.346 106.204 33.491 101.7 35.594L58.772 42.743L82.9756 43.939L64.8527 52.0158L29.5661 35.9732L102.458 27.983L7.45937 25.9226ZM64.803 65.4857V127.799L22.7725 102.413L21.379 70.901L53.675 86.795L53.57 73.973L20.968 58.105L20.498 44.2L64.803 65.4857ZM105.531 53.828C105.531 57.965 103.732 61.972 101.55 63.124L75.853 76.732L75.923 61.71L101.236 49.071C103.785 47.779 105.531 49.778 105.531 53.828ZM107.407 81.968C107.39 86.76 105.33 90.802 101.464 93.106L75.854 108.346V91.256L101.69 76.793C105.295 74.776 107.407 76.985 107.407 81.968Z" fill="white"/>
</svg>
