<svg viewBox="0 0 161 161" fill="none" xmlns="http://www.w3.org/2000/svg">
<path d="M142.778 33.847L77.995 12.087L13.073 34.17L18.048 109.348L78.964 147.693L136.058 110.457L142.778 33.847ZM20.4594 37.9226L20.0869 37.7533L77.856 17.874L136.276 37.984L131 107.5L119.791 114.608C126.092 108.315 129.742 98.757 129.799 89.404C129.878 82.229 127.81 78.257 124.065 76.512C126.717 71.764 128.081 66.4043 128.019 60.966C128.046 56.619 127.181 52.927 125.523 50.309C123 46.346 119.204 45.491 114.7 47.594L71.772 54.743L95.9756 55.939L77.8527 64.0158L42.5661 47.9732L115.458 39.983L20.4594 37.9226ZM77.803 77.4857V139.799L35.7725 114.413L34.379 82.901L66.675 98.795L66.57 85.973L33.968 70.105L33.498 56.2L77.803 77.4857ZM118.531 65.828C118.531 69.965 116.732 73.972 114.55 75.124L88.853 88.732L88.923 73.71L114.236 61.071C116.785 59.779 118.531 61.778 118.531 65.828ZM120.407 93.968C120.39 98.76 118.33 102.802 114.464 105.106L88.854 120.346V103.256L114.69 88.793C118.295 86.776 120.407 88.985 120.407 93.968Z" fill="#fff"/>
</svg>
