<svg width="26" height="26" viewBox="0 0 26 26" fill="none" xmlns="http://www.w3.org/2000/svg">
<path d="M0.482971 13C0.482971 6.11561 6.11561 0.482971 13 0.482971C19.8843 0.482971 25.5169 6.11561 25.5169 13C25.5169 19.8843 19.8843 25.5169 13 25.5169C6.11561 25.5169 0.482971 19.8843 0.482971 13ZM3.16518 13.1788C3.16518 15.5928 4.14866 18.0961 6.02621 19.9737C7.90375 21.8512 10.4071 22.7453 12.9105 22.8347L12.82 22.745C12.8203 22.745 12.8206 22.745 12.821 22.745L3.16498 13.09C3.16498 13.1197 3.1649 13.1491 3.16518 13.1788ZM22.835 13C22.835 13 22.835 13 22.835 13H16.576L16.5762 14.7881H20.8678C20.2419 17.4703 18.275 19.7055 15.6822 20.5995L5.40036 10.3177C6.56265 7.1885 9.51308 4.95332 13 4.95332C14.0712 4.95332 15.0997 5.16726 16.0456 5.55526C17.4678 6.13894 18.7031 7.11619 19.616 8.35098L20.9572 7.1885C20.9572 7.18856 20.9571 7.18843 20.9572 7.1885C20.2151 6.18665 19.2882 5.3234 18.2212 4.65626C16.7173 3.71584 14.935 3.16498 13 3.16498C10.0642 3.16498 7.41425 4.48354 5.61202 6.55848C4.5595 7.76991 3.79654 9.23994 3.43398 10.855C3.43399 10.8549 3.43396 10.855 3.43398 10.855L15.235 22.656C19.527 21.583 22.835 17.649 22.835 13Z" fill="#663399"/>
</svg>
