<svg viewBox="0 0 28 28" fill="none" xmlns="http://www.w3.org/2000/svg">
  <path
    d="M1.48297 14C1.48297 7.11561 7.11561 1.48297 14 1.48297C20.8843 1.48297 26.5169 7.11561 26.5169 14C26.5169 20.8843 20.8843 26.5169 14 26.5169C7.11561 26.5169 1.48297 20.8843 1.48297 14ZM4.16518 14.1788C4.16518 16.5928 5.14866 19.0961 7.02621 20.9737C8.90375 22.8512 11.4071 23.7453 13.9105 23.8347L13.82 23.745C13.8203 23.745 13.8206 23.745 13.821 23.745L4.16498 14.09C4.16498 14.1197 4.1649 14.1491 4.16518 14.1788ZM23.835 14C23.835 14 23.835 14 23.835 14H17.576L17.5762 15.7881H21.8678C21.2419 18.4703 19.275 20.7055 16.6822 21.5995L6.40036 11.3177C7.56265 8.1885 10.5131 5.95332 14 5.95332C15.0712 5.95332 16.0997 6.16726 17.0456 6.55526C18.4678 7.13894 19.7031 8.11619 20.616 9.35098L21.9572 8.1885C21.9572 8.18856 21.9571 8.18843 21.9572 8.1885C21.2151 7.18665 20.2882 6.3234 19.2212 5.65626C17.7173 4.71584 15.935 4.16498 14 4.16498C11.0642 4.16498 8.41425 5.48354 6.61202 7.55848C5.5595 8.76991 4.79654 10.2399 4.43398 11.855C4.43399 11.8549 4.43396 11.855 4.43398 11.855L16.235 23.656C20.527 22.583 23.835 18.649 23.835 14Z"
    fill="#663399"
  />
</svg>
