<svg width="300" height="300" viewBox="0 0 300 300" fill="none" xmlns="http://www.w3.org/2000/svg">
<path d="M50.5823 237.585L50.5045 237.896C63.036 247.359 78.3271 252.447 94.0299 252.378H149.235L149.546 252.69H204.985C220.466 252.811 235.574 247.945 248.076 238.813C260.577 229.681 269.807 216.768 274.4 201.984C278.994 187.199 278.707 171.329 273.581 156.721C268.456 142.112 258.764 129.541 245.941 120.868C240.84 102.085 230.367 85.1983 215.808 72.2813L215.357 72.7317L215.418 72.2036C202.706 60.9832 187.343 53.1888 170.781 49.5566C154.218 45.9245 137.003 46.5744 120.762 51.4452C104.521 56.316 89.7896 65.2468 77.9595 77.3939C66.1295 89.541 57.5914 104.504 53.1518 120.868C53.666 120.657 54.1917 120.483 54.7251 120.346C53.8784 120.905 53.0423 121.483 52.2174 122.08C40.0442 130.88 30.9236 143.264 26.1297 157.5C21.3358 171.735 21.1079 187.113 25.4779 201.485C29.8478 215.857 38.5974 228.505 50.5045 237.662L50.5823 237.585ZM185.134 103.816C191.405 109.057 196.441 115.624 199.876 123.046C203.396 130.653 205.143 138.961 204.985 147.341V152.87C212.336 152.87 219.387 155.79 224.585 160.988C229.783 166.187 232.704 173.237 232.704 180.589C232.704 187.94 229.783 194.991 224.585 200.189C219.387 205.388 212.336 208.308 204.985 208.308H149.546L149.468 208.387V207.997H94.0299C90.0997 207.996 86.2155 207.154 82.6375 205.529L82.6619 205.505C78.5753 203.659 74.9977 200.849 72.236 197.316C69.4743 193.783 67.611 189.633 66.8058 185.221C66.0007 180.81 66.2778 176.269 67.6135 171.988C68.9491 167.707 71.3033 163.815 74.4742 160.644C77.645 157.473 81.5378 155.119 85.8185 153.783C90.0993 152.448 94.6401 152.17 99.0515 152.976C103.463 153.781 107.613 155.644 111.146 158.406C114.679 161.167 117.489 164.745 119.335 168.832L151.493 136.674C144.743 127.85 136.044 120.708 126.075 115.804C120.359 112.993 114.314 110.961 108.102 109.747C108.336 109.607 108.556 109.54 108.746 109.578C118.256 99.1337 131.398 92.7196 145.482 91.6484C159.566 90.5773 173.527 94.9302 184.507 103.816H185.134Z" fill="#448AFF"/>
</svg>
