<svg width="500" height="500" viewBox="0 0 500 500" fill="none" xmlns="http://www.w3.org/2000/svg">
<path d="M448.585 207.187L449.14 208.669C457.205 229.751 458.2 252.885 451.974 274.582C445.749 296.279 432.64 315.365 414.623 328.963L414.385 329.148L328.475 393.448L328.449 393.428L328.423 393.448L260.393 444.867C257.376 447.145 253.699 448.378 249.919 448.378C246.139 448.378 242.462 447.145 239.445 444.867L171.415 393.449L86.114 329.519L85.638 329.149L85.426 328.989C67.3989 315.393 54.2809 296.304 48.05 274.601C47.2711 271.888 46.6052 269.153 46.0518 266.402C42.1781 247.145 43.8217 227.122 50.882 208.669L51.464 207.214L107.512 60.92C108.647 58.0481 110.666 55.6119 113.278 53.964C115.228 52.7222 117.441 51.9533 119.741 51.7186C122.041 51.4838 124.364 51.7897 126.525 52.6119C128.686 53.434 130.624 54.7497 132.186 56.454C133.748 58.1583 134.891 60.204 135.522 62.428L173.372 178.305H326.649L364.499 62.428C365.126 60.2007 366.265 58.1512 367.827 56.4437C369.388 54.7362 371.327 53.4183 373.49 52.5954C375.652 51.7726 377.978 51.4678 380.279 51.7055C382.581 51.9431 384.794 52.7166 386.743 53.964C389.355 55.6117 391.375 58.048 392.51 60.92L448.585 207.187Z" fill="#E53935"/>
</svg>
