<svg width="20" height="20" viewBox="0 0 20 20" fill="none" xmlns="http://www.w3.org/2000/svg">
<path d="M11.7024 1.11745C11.8301 1.33978 11.9126 1.58519 11.9451 1.83955C11.9775 2.0939 11.9594 2.35216 11.8916 2.59946C11.8238 2.84676 11.7077 3.0782 11.5501 3.28044C11.3925 3.48269 11.1964 3.65174 10.9731 3.77786L5.12779 7.09926C5.05214 7.14217 4.98918 7.20431 4.94529 7.27938C4.9014 7.35446 4.87814 7.43981 4.87786 7.52677V12.7415C4.87814 12.8285 4.9014 12.9139 4.94529 12.9889C4.98918 13.064 5.05214 13.1261 5.12779 13.1691L9.75474 15.799C9.82966 15.8416 9.91437 15.864 10.0006 15.864C10.0867 15.864 10.1714 15.8416 10.2464 15.799L14.8733 13.1699C14.9491 13.1269 15.0121 13.0646 15.056 12.9894C15.0999 12.9142 15.1231 12.8286 15.1232 12.7415V9.49906L10.9633 11.8323C10.5106 12.0863 9.97589 12.1511 9.47568 12.0125C8.97547 11.8739 8.55034 11.5431 8.29299 11.0924C8.16661 10.8693 8.0856 10.6235 8.05461 10.3691C8.02362 10.1147 8.04327 9.8566 8.11243 9.60979C8.18158 9.36297 8.29887 9.13227 8.45756 8.93097C8.61624 8.72967 8.81317 8.56175 9.03702 8.43687L14.9884 5.09738C16.8012 4.08123 19.044 5.38266 19.044 7.45278V13.137C19.0432 13.7923 18.8689 14.4357 18.5386 15.0016C18.2083 15.5676 17.7339 16.0359 17.1638 16.3589L11.852 19.377C11.2876 19.6975 10.6496 19.866 10.0006 19.866C9.35147 19.866 8.71352 19.6975 8.14912 19.377L2.83733 16.3589C2.26712 16.036 1.7927 15.5677 1.46242 15.0017C1.13213 14.4357 0.957776 13.7923 0.957123 13.137V7.13133C0.957123 5.79948 1.67484 4.57039 2.83733 3.91022L9.02797 0.391506C9.47931 0.135016 10.0138 0.0673925 10.5148 0.203384C11.0158 0.339376 11.4427 0.66795 11.7024 1.11745Z" fill="#FFA726"/>
</svg>
