<svg
  width="24"
  height="24"
  viewBox="0 0 24 24"
  fill="none"
  xmlns="http://www.w3.org/2000/svg"
>
  <path
    fill-rule="evenodd"
    clip-rule="evenodd"
    d="M13.7024 3.11745C13.8301 3.33978 13.9126 3.58519 13.9451 3.83955C13.9776 4.0939 13.9594 4.35216 13.8916 4.59946C13.8238 4.84676 13.7078 5.0782 13.5501 5.28044C13.3925 5.48269 13.1964 5.65174 12.9732 5.77786L7.12782 9.09926C7.05217 9.14217 6.98921 9.20431 6.94532 9.27938C6.90143 9.35446 6.87817 9.43981 6.87789 9.52677V14.7415C6.87817 14.8285 6.90143 14.9139 6.94532 14.9889C6.98921 15.064 7.05217 15.1261 7.12782 15.1691L11.7548 17.799C11.8297 17.8416 11.9144 17.864 12.0006 17.864C12.0868 17.864 12.1715 17.8416 12.2464 17.799L16.8733 15.1699C16.9491 15.1269 17.0122 15.0646 17.0561 14.9894C17.1 14.9142 17.1231 14.8286 17.1233 14.7415V11.4991L12.9633 13.8323C12.5107 14.0863 11.9759 14.1511 11.4757 14.0125C10.9755 13.8739 10.5504 13.5431 10.293 13.0923C10.1666 12.8693 10.0856 12.6235 10.0546 12.3691C10.0237 12.1147 10.0433 11.8566 10.1125 11.6098C10.1816 11.363 10.2989 11.1323 10.4576 10.931C10.6163 10.7297 10.8132 10.5617 11.037 10.4369L16.9884 7.09738C18.8012 6.08123 21.044 7.38266 21.044 9.45278V15.137C21.0433 15.7923 20.8689 16.4357 20.5386 17.0016C20.2083 17.5676 19.734 18.0359 19.1638 18.3589L13.852 21.377C13.2876 21.6975 12.6497 21.866 12.0006 21.866C11.3515 21.866 10.7135 21.6975 10.1491 21.377L4.83736 18.3589C4.26715 18.036 3.79273 17.5677 3.46245 17.0017C3.13216 16.4357 2.95781 15.7923 2.95715 15.137V9.13133C2.95715 7.79948 3.67487 6.57039 4.83736 5.91022L11.028 2.39151C11.4793 2.13502 12.0138 2.06739 12.5148 2.20338C13.0158 2.33938 13.4427 2.66795 13.7024 3.11745Z"
    fill="#FFA726"
  />
</svg>
