<svg viewBox="0 0 300 300" xmlns="http://www.w3.org/2000/svg">
  <path
    d="M173.896 139.325L173.895 139.325C170.475 140.233 167.006 141.154 162.992 142.19C162.91 142.212 162.831 142.233 162.754 142.254L162.751 142.255C160.789 142.782 160.584 142.837 158.759 140.731C156.57 138.249 154.965 136.644 151.9 135.185C142.705 130.66 133.802 131.974 125.483 137.374C115.558 143.796 110.45 153.282 110.596 165.104C110.742 176.78 118.769 186.413 130.299 188.018C140.224 189.332 148.543 185.829 155.111 178.386C156.085 177.195 156.979 175.924 157.971 174.513C158.316 174.022 158.674 173.513 159.051 172.986H130.883C127.818 172.986 127.088 171.088 128.11 168.607C130.007 164.083 133.51 156.493 135.553 152.699C135.991 151.823 137.013 150.363 139.202 150.363H186.171C188.28 143.68 191.703 137.365 196.268 131.39C206.923 117.379 219.766 110.081 237.134 107.016C252.021 104.389 266.033 105.849 278.73 114.46C290.26 122.341 297.412 132.995 299.309 147.007C301.79 166.71 296.098 182.764 282.525 196.484C272.892 206.262 261.07 212.392 247.497 215.165C244.908 215.645 242.318 215.872 239.771 216.096C238.441 216.213 237.122 216.329 235.821 216.479C222.539 216.187 210.426 212.392 200.209 203.635C193.024 197.424 188.074 189.79 185.614 180.903C183.908 184.35 181.867 187.651 179.484 190.792C168.976 204.657 155.257 213.268 137.888 215.603C123.585 217.5 110.304 214.727 98.6279 205.97C87.8276 197.797 81.6977 186.997 80.0922 173.569C78.1949 157.661 82.8653 143.358 92.498 130.806C102.86 117.233 116.58 108.622 133.364 105.557C147.083 103.076 160.219 104.681 172.041 112.708C179.776 117.816 185.322 124.822 188.971 133.287C189.847 134.601 189.263 135.331 187.511 135.768C182.396 137.067 178.185 138.186 173.896 139.325ZM270.456 155.954C270.386 154.765 270.326 153.732 270.119 152.699C267.492 138.25 254.211 130.076 240.345 133.287C226.772 136.352 218.015 144.963 214.804 158.683C212.177 170.067 217.723 181.597 228.231 186.267C236.259 189.77 244.286 189.332 252.021 185.391C263.551 179.407 269.827 170.067 270.557 157.515C270.514 156.961 270.484 156.444 270.456 155.954Z"
    fill="#00ACC1"
  />
  <path
    d="M22.7339 138.395C22.1501 138.395 22.0042 138.104 22.2961 137.666L25.361 133.725C25.6529 133.287 26.3826 132.995 26.9664 132.995H79.0706C79.6544 132.995 79.8003 133.433 79.5084 133.871L77.0273 137.666C76.7354 138.104 76.0056 138.541 75.5678 138.541L22.7339 138.395Z"
    fill="#00ACC1"
  />
  <path
    d="M0.69545 151.823C0.111649 151.823 -0.0343016 151.531 0.257598 151.093L3.32255 147.152C3.61445 146.715 4.3442 146.423 4.928 146.423H71.4812C72.065 146.423 72.3569 146.861 72.2109 147.298L71.0434 150.801C70.8974 151.385 70.3136 151.677 69.7298 151.677L0.69545 151.823Z"
    fill="#00ACC1"
  />
  <path
    d="M36.0153 165.25C35.4315 165.25 35.2856 164.812 35.5775 164.375L37.6208 160.726C37.9127 160.288 38.4965 159.85 39.0803 159.85H68.2703C68.8541 159.85 69.146 160.288 69.146 160.872L68.8541 164.375C68.8541 164.958 68.2703 165.396 67.8324 165.396L36.0153 165.25Z"
    fill="#00ACC1"
  />
</svg>
