<svg width="16" height="21" viewBox="0 0 16 21" fill="none" xmlns="http://www.w3.org/2000/svg">
<path d="M5.314 3.21509C5.314 3.71265 4.95941 4.11609 4.522 4.11609C4.08459 4.11609 3.73 3.71265 3.73 3.21509C3.73 2.71747 4.08459 2.31409 4.522 2.31409C4.95941 2.31409 5.314 2.71747 5.314 3.21509Z" fill="#73CDDC"/>
<path d="M9.432 4.25806C9.86941 4.25806 10.224 3.85468 10.224 3.35706C10.224 2.85944 9.86941 2.45605 9.432 2.45605C8.99459 2.45605 8.64 2.85944 8.64 3.35706C8.64 3.85468 8.99459 4.25806 9.432 4.25806Z" fill="#73CDDC"/>
<path d="M6.857 0.561035C5.63232 0.561035 4.51833 1.09131 3.67685 1.96521L3.02716 1.57935C2.49296 1.26208 1.81566 1.44537 1.51439 1.98877L1.49548 2.02289C1.19421 2.56628 1.38304 3.26398 1.91724 3.58124L2.4753 3.91272C2.23421 4.57257 2.101 5.29907 2.101 6.06305V9.21686C1.88432 9.24188 1.64818 9.34229 1.43904 9.5141C1.0012 9.87378 0.847456 10.4103 1.09566 10.7125C1.29593 10.9562 1.69668 10.973 2.074 10.7814V15.3701C2.074 16.7008 2.47798 17.9178 3.15221 18.8668C2.83011 19.1221 2.65404 19.4642 2.72565 19.7722C2.83374 20.2369 3.46523 20.4478 4.13614 20.2433C4.23967 20.2117 4.33808 20.1721 4.43011 20.1259C5.13385 20.6006 5.95358 20.872 6.83 20.872H9.11699C9.95119 20.872 10.734 20.626 11.4144 20.1929C11.5512 20.2742 11.71 20.3399 11.8852 20.3833C12.566 20.552 13.236 20.3204 13.3818 19.866C13.4984 19.5023 13.2437 19.106 12.7881 18.8759C13.4663 17.9254 13.873 16.7048 13.873 15.3701V10.8214C14.2655 11.0433 14.6955 11.0375 14.9051 10.7823C15.153 10.4807 14.999 9.94446 14.5611 9.58478C14.3522 9.41315 14.1164 9.31274 13.9 9.28741V6.06305C13.9 5.39478 13.7981 4.75519 13.6112 4.16376L14.3174 3.80591C14.8805 3.52063 15.1086 2.83148 14.8267 2.2666L14.8218 2.25677C14.54 1.69189 13.855 1.46527 13.2919 1.75055L12.4966 2.1535C11.6379 1.16803 10.4543 0.561035 9.144 0.561035H6.857ZM8.837 7.56006C8.84237 7.60547 8.84505 7.65173 8.845 7.69806C8.84508 7.78864 8.83471 7.8783 8.81449 7.96204C8.79427 8.04572 8.7646 8.12183 8.72717 8.18591C8.68974 8.25 8.64528 8.30084 8.59635 8.33551C8.54742 8.37018 8.49497 8.38806 8.442 8.38806C8.38902 8.38806 8.33657 8.37018 8.28764 8.33551C8.23871 8.30084 8.19426 8.25 8.15683 8.18591C8.1194 8.12183 8.08972 8.04572 8.0695 7.96204C8.06696 7.95148 8.06457 7.94086 8.06235 7.93018C8.04245 8.01715 8.01181 8.09705 7.97184 8.16418C7.89683 8.29022 7.79508 8.36102 7.68899 8.36102C7.63642 8.36102 7.58436 8.34357 7.53579 8.30975C7.48722 8.27594 7.44309 8.22632 7.40594 8.16382C7.38011 8.12036 7.358 8.07123 7.34018 8.01788C7.33237 7.99451 7.32538 7.97034 7.31927 7.9455C7.30778 7.89868 7.29948 7.84998 7.29452 7.80029C7.29082 7.76324 7.28896 7.72571 7.289 7.68799C7.28898 7.64301 7.29166 7.59808 7.297 7.55402L8.054 7.41901C8.05714 7.43079 8.06007 7.44269 8.0628 7.45465L8.06443 7.46198C8.06737 7.44855 8.07055 7.43524 8.074 7.42206L8.837 7.56006ZM9.224 6.06903C9.224 6.44458 8.68315 6.74902 8.01599 6.74902C7.34883 6.74902 6.808 6.44458 6.808 6.06903C6.808 5.69348 7.34883 5.38904 8.01599 5.38904C8.68315 5.38904 9.224 5.69348 9.224 6.06903ZM7.603 3.29401C7.603 4.42841 6.68339 5.34802 5.549 5.34802C4.41461 5.34802 3.495 4.42841 3.495 3.29401C3.495 2.15961 4.41461 1.24005 5.549 1.24005C6.68339 1.24005 7.603 2.15961 7.603 3.29401ZM10.496 5.33801C9.3616 5.33801 8.442 4.4184 8.442 3.284C8.442 2.14966 9.3616 1.23004 10.496 1.23004C11.6304 1.23004 12.55 2.14966 12.55 3.284C12.55 4.4184 11.6304 5.33801 10.496 5.33801Z" fill="#73CDDC"/>
</svg>
