<svg viewBox="0 0 24 24" fill="none" xmlns="http://www.w3.org/2000/svg">
  <path
    d="M6.4753 4.91272C6.23421 5.5726 6.101 6.29911 6.101 7.06304V11.2168C5.88432 11.2419 5.64819 11.3423 5.43904 11.5141C5.0012 11.8738 4.84746 12.4103 5.09567 12.7125C5.29594 12.9562 5.69668 12.9729 6.074 12.7814V16.37C6.074 18.0529 6.72005 19.5538 7.74169 20.5611C7.07244 20.7664 6.61772 21.3081 6.72565 21.7721C6.83374 22.2369 7.46524 22.4478 8.13614 22.2433C8.58829 22.1054 8.94294 21.814 9.09306 21.4964C9.6307 21.739 10.2165 21.872 10.83 21.872H13.117C13.7442 21.872 14.3424 21.7329 14.8898 21.4798C14.9186 21.8653 15.3154 22.2422 15.8852 22.3833C16.566 22.552 17.236 22.3204 17.3817 21.8661C17.5275 21.4117 17.0937 20.9066 16.4129 20.7379C16.2987 20.7096 16.1848 20.6926 16.0737 20.686C17.1711 19.6799 17.873 18.1236 17.873 16.37V12.8213C18.2655 13.0432 18.6955 13.0375 18.9051 12.7823C19.153 12.4806 18.999 11.9444 18.5611 11.5847C18.3522 11.4131 18.1164 11.3127 17.9 11.2873V7.06304C17.9 6.39479 17.7981 5.75518 17.6112 5.16375L18.3174 4.80591C18.8805 4.52062 19.1086 3.83143 18.8267 3.26658L18.8218 3.25674C18.54 2.69188 17.855 2.46526 17.2919 2.75056L16.4966 3.15351C15.6379 2.16806 14.4543 1.56104 13.144 1.56104H10.857C9.63232 1.56104 8.51833 2.09132 7.67684 2.96524L7.02716 2.57938C6.49296 2.26211 5.81567 2.44541 5.5144 2.98879L5.49549 3.0229C5.19421 3.56629 5.38304 4.264 5.91725 4.58128L6.4753 4.91272ZM12.837 9.56006C12.8424 9.60548 12.8451 9.65172 12.845 9.69806C12.8451 9.78862 12.8347 9.87833 12.8145 9.96203C12.7943 10.0457 12.7646 10.1218 12.7272 10.1859C12.6897 10.25 12.6453 10.3008 12.5964 10.3355C12.5474 10.3702 12.495 10.3881 12.442 10.3881C12.389 10.3881 12.3366 10.3702 12.2876 10.3355C12.2387 10.3008 12.1943 10.25 12.1568 10.1859C12.1194 10.1218 12.0897 10.0457 12.0695 9.96203C12.0493 9.87833 12.0389 9.78862 12.039 9.69806C12.0394 9.60291 12.0513 9.50894 12.074 9.42206L12.837 9.56006ZM11.965 9.41901C11.9877 9.50396 11.9996 9.5959 12 9.68901C12 9.86723 11.9579 10.0382 11.8828 10.1642C11.8078 10.2902 11.7061 10.361 11.6 10.361C11.5474 10.361 11.4954 10.3436 11.4468 10.3098C11.3982 10.2759 11.3541 10.2263 11.3169 10.1638C11.2798 10.1013 11.2503 10.0271 11.2303 9.94548C11.2102 9.86383 11.1999 9.77634 11.2 9.68801C11.2 9.643 11.2027 9.59811 11.208 9.55401L11.965 9.41901ZM13.224 8.06904C13.224 8.44459 12.6832 8.74904 12.016 8.74904C11.3488 8.74904 10.808 8.44459 10.808 8.06904C10.808 7.69348 11.3488 7.38904 12.016 7.38904C12.6832 7.38904 13.224 7.69348 13.224 8.06904ZM9.549 7.05002C8.41461 7.05002 7.495 6.13041 7.495 4.99602C7.495 3.86162 8.41461 2.94202 9.549 2.94202C10.6834 2.94202 11.603 3.86162 11.603 4.99602C11.603 6.13041 10.6834 7.05002 9.549 7.05002ZM16.55 4.98204C16.55 6.11643 15.6304 7.03604 14.496 7.03604C13.3616 7.03604 12.442 6.11643 12.442 4.98204C12.442 3.84765 13.3616 2.92804 14.496 2.92804C15.6304 2.92804 16.55 3.84765 16.55 4.98204Z"
    fill="#73CDDC"
  />
  <path
    d="M8.622 5.81803C9.05941 5.81803 9.414 5.41463 9.414 4.91703C9.414 4.41942 9.05941 4.01603 8.622 4.01603C8.18459 4.01603 7.83 4.41942 7.83 4.91703C7.83 5.41463 8.18459 5.81803 8.622 5.81803Z"
    fill="#73CDDC"
  />
  <path
    d="M13.532 5.95603C13.9694 5.95603 14.324 5.55264 14.324 5.05503C14.324 4.55742 13.9694 4.15403 13.532 4.15403C13.0946 4.15403 12.74 4.55742 12.74 5.05503C12.74 5.55264 13.0946 5.95603 13.532 5.95603Z"
    fill="#73CDDC"
  />
</svg>
