<svg viewBox="0 0 16 16" xmlns="http://www.w3.org/2000/svg">
  <path
    d="M6.65143 1.74923C6.04534 1.8837 5.44683 2.07121 4.88525 2.35437C4.89851 2.8506 4.92976 3.326 4.99511 3.80803C4.7773 3.94724 4.54717 4.06751 4.34356 4.23134C4.13617 4.39044 3.92499 4.54291 3.73748 4.72947C3.35852 4.47728 2.96481 4.24801 2.55845 4.04289C2.11904 4.51639 1.70709 5.02778 1.3709 5.59977C1.62375 6.00888 1.88797 6.39242 2.17302 6.75607H2.18059V10.2676L2.19953 10.2685L4.35209 10.4759C4.40678 10.4812 4.45783 10.5057 4.49615 10.545C4.53448 10.5844 4.55759 10.6361 4.56138 10.6909L4.62767 11.6407L6.50559 11.7743L6.63533 10.8973C6.64349 10.8424 6.67112 10.7922 6.71318 10.7558C6.75523 10.7195 6.80893 10.6995 6.86451 10.6994H9.13544C9.25002 10.6994 9.34757 10.7837 9.36461 10.8973L9.49435 11.7743L11.3723 11.6407L11.4386 10.6909C11.4425 10.6361 11.4657 10.5846 11.504 10.5452C11.5423 10.5059 11.5932 10.4814 11.6479 10.4759L13.7995 10.2685L13.8184 10.2676V9.98727H13.8193V6.75702H13.8269C14.112 6.39336 14.3762 6.00982 14.629 5.60072C14.2907 5.04028 13.8925 4.51826 13.4415 4.04383C13.0333 4.24933 12.6365 4.4823 12.2625 4.72947C12.075 4.54291 11.8638 4.39044 11.6564 4.23134C11.4528 4.06751 11.2236 3.94818 11.0058 3.80803C11.0702 3.32505 11.1024 2.84965 11.1156 2.35437C10.5541 2.07121 9.9546 1.88465 9.34851 1.74923C9.10608 2.15549 8.88542 2.59585 8.69223 3.02674C8.46484 2.99055 8.23496 2.97218 8.00471 2.97182H7.99523C7.76498 2.97214 7.5351 2.99051 7.30771 3.02674C7.11452 2.59585 6.89386 2.15549 6.65143 1.74923ZM4.9487 6.88581C5.12197 6.88106 5.29442 6.91108 5.45589 6.9741C5.61736 7.03711 5.76456 7.13184 5.88881 7.25269C6.01306 7.37353 6.11184 7.51805 6.1793 7.67771C6.24677 7.83737 6.28156 8.00893 6.28163 8.18225C6.28169 8.35558 6.24702 8.52716 6.17967 8.68687C6.11232 8.84658 6.01365 8.99117 5.88949 9.11211C5.76533 9.23305 5.61819 9.32788 5.45677 9.39101C5.29535 9.45414 5.12292 9.48429 4.94965 9.47967C4.61175 9.47066 4.2907 9.33013 4.05484 9.08799C3.81899 8.84585 3.68694 8.52122 3.68682 8.1832C3.6867 7.84518 3.8185 7.52045 4.05418 7.27814C4.28986 7.03583 4.61081 6.89506 4.9487 6.88581ZM11.0512 6.88581C11.3953 6.88581 11.7253 7.0225 11.9686 7.26581C12.2119 7.50912 12.3486 7.83912 12.3486 8.18321C12.3486 8.52731 12.2119 8.85731 11.9686 9.10062C11.7253 9.34393 11.3953 9.48062 11.0512 9.48062C10.7071 9.48062 10.3771 9.34393 10.1338 9.10062C9.89052 8.85731 9.75383 8.52731 9.75383 8.18321C9.75383 7.83912 9.89052 7.50912 10.1338 7.26581C10.3771 7.0225 10.7071 6.88581 11.0512 6.88581ZM7.99997 7.64436C8.23104 7.64436 8.4176 7.81483 8.4176 8.02411V9.21829C8.4176 9.42758 8.23009 9.59805 7.99997 9.59805C7.7689 9.59805 7.58234 9.42853 7.58234 9.21829V8.02411C7.58234 7.81388 7.7689 7.64436 7.99997 7.64436Z"
    fill="#42A5F5"
  />
  <path
    d="M11.8865 10.9191L11.8202 11.8747C11.8164 11.9304 11.7926 11.9829 11.7531 12.0225C11.7135 12.062 11.661 12.0859 11.6052 12.0896L9.31253 12.2525L9.29548 12.2535C9.23991 12.2534 9.18621 12.2334 9.14415 12.197C9.10209 12.1607 9.07447 12.1105 9.0663 12.0555L8.93562 11.1635H7.06432L6.93269 12.0555C6.92422 12.1134 6.8941 12.166 6.8484 12.2026C6.8027 12.2391 6.74482 12.257 6.68647 12.2525L4.39376 12.0887C4.33812 12.0845 4.28582 12.0605 4.24637 12.0211C4.20692 11.9816 4.18294 11.9293 4.17878 11.8737L4.11249 10.9182L2.17681 10.7316L2.18059 11.2127C2.18059 13.2573 4.77351 14.2393 7.99524 14.2507H8.00281C11.2245 14.2393 13.8175 13.2573 13.8175 11.2127L13.8212 10.7316L11.8865 10.9191Z"
    fill="#42A5F5"
  />
</svg>
