<svg viewBox="0 0 300 300" xmlns="http://www.w3.org/2000/svg">
  <path
    d="M124.488 31.7259C113.029 34.2732 101.694 37.8198 91.0678 43.1688C91.3111 52.5525 91.9176 61.5438 93.1472 70.6772C89.0203 73.3213 84.6828 75.5907 80.828 78.6859C76.9114 81.699 72.9109 84.5817 69.3646 88.1059C62.2795 83.4197 54.7806 79.0157 47.0554 75.1283C38.7283 84.0901 30.942 93.7627 24.5813 104.586C29.3667 112.327 34.3621 119.583 39.7562 126.469H39.9073V192.9C40.0289 192.901 40.15 192.906 40.2706 192.917L80.9967 196.844C82.0296 196.944 82.9937 197.406 83.7176 198.15C84.4416 198.893 84.8783 199.87 84.9504 200.905L86.2062 218.882L121.732 221.417L124.179 204.824C124.333 203.783 124.855 202.832 125.652 202.145C126.448 201.457 127.466 201.079 128.518 201.079H171.485C173.66 201.079 175.505 202.673 175.822 204.824L178.27 221.417L213.795 218.882L215.05 200.905C215.122 199.87 215.559 198.894 216.283 198.15C217.007 197.407 217.971 196.944 219.004 196.844L259.714 192.917C259.834 192.906 259.954 192.901 260.076 192.9V187.6L260.093 187.594V126.471H260.244C265.639 119.586 270.631 112.329 275.419 104.589C269.06 93.7646 261.27 84.0917 252.943 75.1312C245.22 79.0187 237.718 83.4224 230.633 88.1089C227.088 84.585 223.094 81.7022 219.172 78.6889C215.318 75.5937 210.976 73.3243 206.857 70.6799C208.083 61.5473 208.689 52.5563 208.934 43.1715C198.306 37.8228 186.972 34.2759 175.508 31.7289C170.931 39.4216 166.745 47.752 163.1 55.8959C158.777 55.1734 154.434 54.906 150.086 54.8541V54.8474C150.055 54.8474 150.027 54.8541 150.001 54.8541C149.974 54.8541 149.946 54.8474 149.919 54.8474V54.8541C145.562 54.9058 141.223 55.1734 136.899 55.8959C133.255 47.7517 129.072 39.4216 124.489 31.7289L124.488 31.7259ZM92.2679 128.904C105.824 128.904 116.811 139.883 116.811 153.434C116.811 166.995 105.824 177.98 92.2679 177.98C78.7189 177.98 67.7282 166.995 67.7282 153.434C67.7282 139.883 78.7189 128.904 92.2679 128.904ZM207.735 128.904C221.283 128.904 232.272 139.883 232.272 153.434C232.272 166.995 221.283 177.98 207.735 177.98C194.177 177.98 183.19 166.995 183.19 153.434C183.19 139.883 194.176 128.904 207.735 128.904ZM149.999 143.26C154.362 143.26 157.906 146.478 157.906 150.439V173.033C157.906 176.997 154.362 180.213 149.999 180.213C145.635 180.213 142.099 176.997 142.099 173.033V150.439C142.099 146.479 145.635 143.26 149.999 143.26Z"
    fill="#4FC3F7"
  />
  <path
    d="M223.539 205.218L222.278 223.291C222.126 225.47 220.393 227.203 218.215 227.36L174.835 230.455C174.729 230.463 174.623 230.466 174.518 230.466C172.362 230.466 170.503 228.884 170.184 226.72L167.697 209.849H132.301L129.813 226.72C129.479 228.99 127.449 230.623 125.163 230.455L81.7824 227.36C79.6041 227.204 77.8715 225.47 77.7196 223.292L76.4584 205.218L39.8381 201.688C39.8549 205.623 39.9057 209.935 39.9057 210.793C39.9057 249.471 88.9678 268.059 149.923 268.273H150.073C211.028 268.059 260.074 249.469 260.074 210.793C260.074 209.919 260.127 205.625 260.145 201.688L223.539 205.218Z"
    fill="#4FC3F7"
  />
</svg>
