<svg viewBox="0 0 24 24" xmlns="http://www.w3.org/2000/svg">
  <path
    d="M20.173 8.483C19.315 6.99419 18.2025 5.66742 16.886 4.563L16.861 4.543C16.6074 4.33211 16.3459 4.13096 16.077 3.94C14.28 2.67 12.317 2 10.394 2C7.95302 2 5.74102 3.302 4.16702 5.668C1.95202 8.994 1.48002 13.656 2.99002 17.269C4.12402 19.981 7.06702 21.739 10.863 21.975C11.139 21.991 11.418 22 11.696 22C13.453 22 15.227 21.662 16.769 21.025C18.731 20.215 20.232 18.977 21.111 17.442C22.415 15.162 22.056 11.731 20.173 8.483ZM11.302 8.991C12.165 8.991 13.025 9.345 13.643 10.039C14.201 10.664 14.482 11.469 14.433 12.305C14.3887 13.1188 14.0272 13.8828 13.426 14.433L13.354 14.497C12.8449 14.9364 12.2083 15.2008 11.5377 15.2512C10.8671 15.3016 10.198 15.1354 9.62902 14.777C9.35576 14.583 9.10578 14.3582 8.88402 14.107C8.82355 14.0388 8.7668 13.9673 8.71402 13.893C8.53054 13.6252 8.39017 13.3303 8.29802 13.019L8.28202 12.962C8.28174 12.9596 8.28107 12.9572 8.28002 12.955C8.00302 11.875 8.32002 10.616 9.18502 9.817L9.25102 9.756C9.81979 9.26233 10.5479 8.99098 11.301 8.992L11.302 8.991ZM10.394 3.151C12.077 3.151 13.812 3.749 15.412 4.881C15.657 5.054 15.897 5.24 16.132 5.434L16.518 5.782C19.468 8.526 20.391 11.202 20.16 13.971C20.009 15.789 18.85 17.241 17.19 18.365C15.61 19.435 13.19 19.742 11.463 19.557C9.76602 19.375 8.00702 18.691 6.87102 17.153C5.93202 15.88 5.65302 14.513 5.78002 13.046C5.90702 11.587 6.49202 10.223 7.44202 9.274C7.97502 8.741 8.88402 8.072 10.336 7.95C9.65602 8.106 9.00602 8.43 8.44902 8.926C7.91388 9.40405 7.5073 10.0088 7.26654 10.6847C7.02578 11.3607 6.95855 12.0863 7.07102 12.795C7.16402 13.431 7.40102 14.043 7.78402 14.573C8.11597 15.051 8.542 15.4563 9.03602 15.764C10.696 16.885 12.764 16.797 14.783 15.458C15.883 14.728 16.627 13.464 16.823 11.987C17.061 10.199 16.487 8.364 15.248 6.954C13.901 5.421 12.036 4.514 10.132 4.464C8.36202 4.418 6.72302 5.116 5.39502 6.481C4.98802 6.898 4.61802 7.351 4.28802 7.83C4.52702 7.297 4.80602 6.787 5.12602 6.307C6.48002 4.272 8.35002 3.151 10.394 3.151Z"
    fill="#FF6F00"
  />
</svg>
