<svg viewBox="0 0 300 300" xmlns="http://www.w3.org/2000/svg">
  <path
    d="M253.814 102.86C263.421 110.089 266.879 122.708 266.533 137.219L266.483 200.702L266.483 200.709C266.472 207.678 264.631 214.521 261.146 220.556C257.662 226.59 252.654 231.605 246.623 235.098L246.616 235.103L170.869 278.862L170.863 278.865C164.823 282.339 157.977 284.168 151.009 284.168C144.041 284.168 137.195 282.339 131.155 278.865L131.149 278.862L55.3945 235.098C49.3602 231.603 44.3498 226.584 40.8646 220.544C37.3794 214.504 35.5416 207.655 35.535 200.681L35.535 113.211L35.535 113.202C35.551 106.226 37.3997 99.3752 40.8963 93.338C44.3924 87.3017 49.4138 82.2893 55.4559 78.8037L122.722 39.9689C124.871 28.3628 134.072 19.0733 146.038 17.0738L146.039 17.0736C159.573 14.8144 172.799 22.5248 177.496 35.4217C182.192 48.3152 177.031 62.7289 165.208 69.7042C155.351 75.52 143.205 74.7859 134.213 68.3818L70.605 105.092L70.5989 105.096C67.6988 106.778 65.9102 109.876 65.903 113.228V200.683C65.9068 202.332 66.3426 203.949 67.1665 205.376C67.9908 206.803 69.1752 207.989 70.6014 208.817L70.6058 208.82L146.323 252.562L146.331 252.567C147.76 253.387 149.378 253.818 151.024 253.818C152.668 253.818 154.286 253.387 155.715 252.567L155.724 252.562L231.441 208.82L231.443 208.819C232.872 207.991 234.056 206.805 234.879 205.378L234.88 205.377C235.704 203.95 236.14 202.332 236.144 200.686L236.144 200.679L236.144 132.882C236.015 130.637 235.896 129.787 235 129C234.104 128.213 230.367 129.424 228.142 130.783C225.917 132.141 179.646 158.304 179.646 158.304C179.327 169.717 172.146 180.095 161.095 184.213C148.191 189.02 133.699 183.919 126.648 172.095L126.647 172.093C119.598 160.267 122.004 145.093 132.369 136.028C141.311 128.208 153.972 126.864 164.203 132.143L212.774 104.595C214.495 103.53 219.568 100.597 226.069 98.7898C232.684 96.951 242.031 95.9444 250.755 100.858L253.735 102.536L253.814 102.86Z"
    fill="#27AE60"
  />
</svg>
