<svg viewBox="0 0 400 400" xmlns="http://www.w3.org/2000/svg">
  <path
    d="M166.065 59.232C166.065 40.4694 181.236 25.2975 200 25.2975C218.764 25.2975 233.934 40.4685 233.934 59.232C233.934 61.6549 233.681 64.0178 233.2 66.2959L299.19 104.397C300.921 102.835 302.841 101.428 304.939 100.21L304.945 100.206L304.952 100.202C321.188 90.8692 341.895 96.4139 351.318 112.641L351.322 112.647L351.326 112.654C360.661 128.89 355.115 149.597 338.888 159.021L338.882 159.025L338.875 159.029C336.796 160.224 334.642 161.176 332.446 161.892V238.131C334.611 238.844 336.736 239.786 338.787 240.965L338.793 240.968C355.11 250.389 360.667 271.101 351.236 287.346C341.893 303.592 321.09 309.12 304.865 299.792C302.48 298.421 300.326 296.804 298.417 294.99L232.988 332.768C233.606 335.332 233.934 338.011 233.934 340.767C233.934 359.437 218.77 374.701 200 374.701C181.237 374.701 166.065 359.531 166.065 340.767C166.065 338.374 166.312 336.039 166.782 333.787L100.798 295.689C99.0929 297.214 97.208 298.59 95.1515 299.784L95.1412 299.79L95.1309 299.796C78.8224 309.117 58.1052 303.593 48.7631 287.34C39.4279 271.104 44.9752 250.397 61.2006 240.974L61.2071 240.97L61.2135 240.966C63.2663 239.786 65.3906 238.844 67.5544 238.131V161.891C65.3593 161.175 63.2055 160.224 61.1268 159.029C44.8763 149.688 39.3475 128.882 48.676 112.655C58.0169 96.4035 78.8232 90.8734 95.0503 100.202L95.0569 100.206L95.0634 100.21C97.1472 101.42 99.0549 102.816 100.778 104.365L166.79 66.2513C166.315 63.9869 166.065 61.639 166.065 59.232ZM193.167 92.4796L103.504 247.776C105.022 249.476 106.392 251.355 107.582 253.404L107.586 253.41L107.59 253.417C108.77 255.469 109.712 257.593 110.425 259.756H289.58C290.293 257.592 291.234 255.468 292.413 253.418C293.604 251.346 294.981 249.448 296.511 247.734L206.869 92.4722C204.651 92.9268 202.354 93.1656 200 93.1656C197.659 93.1656 195.374 92.9294 193.167 92.4796ZM88.8815 161.8V230.451L170.807 88.5564L111.35 122.885C112.94 130.707 111.793 139.115 107.503 146.578C103.203 154.058 96.4745 159.266 88.8815 161.8ZM223.152 315.942L283.529 281.083H118.147L177.499 315.35C183.484 310.049 191.361 306.833 200 306.833C208.956 306.833 217.093 310.289 223.152 315.942ZM288.643 122.932L229.298 88.6677L311.119 230.384V161.799C303.527 159.265 296.799 154.057 292.5 146.578C288.218 139.13 287.068 130.741 288.643 122.932Z"
    fill="#EC407A"
  />
</svg>
