<svg width="206" height="276" viewBox="0 0 206 276" fill="none" xmlns="http://www.w3.org/2000/svg">
<path d="M14.9932 118.201L14.982 118.224H14.975L14.9932 118.201Z" fill="#463014"/>
<path d="M32.677 102.12C32.061 107.513 35.487 112.417 35.487 112.417L35.492 112.42C35.8401 108.416 36.6769 105.556 37.6505 103.52C37.8803 109.059 39.3557 116.185 44.516 121.894C48.2227 125.998 63.6714 134.468 74.0372 125.177C74.5754 126.486 75.1425 128.036 75.62 129.717C77.185 135.234 74.189 143.301 74.189 143.301C74.189 143.301 82.2858 134.133 81.6687 125.816C87.4802 125.559 93.1889 121.282 93.028 115.313C93.028 115.313 82.886 120.911 73.927 110.605C68.695 104.595 51.931 88.001 29.2 93.519C31.5339 94.0323 33.9801 94.7863 36.4747 95.7302L36.422 95.753C34.218 96.723 32.984 99.456 32.677 102.12ZM47.9282 101.153C58.4328 107.059 68.0791 114.965 72.095 121.081V121.07L72.1051 121.085C69.0099 122.881 60.4297 126.694 51.681 120.192C46.0883 116.035 46.3355 106.034 47.9282 101.153Z" fill="#463014"/>
<path d="M173.337 102.12C173.956 107.513 170.531 112.417 170.531 112.417V112.42C170.18 108.395 169.335 105.526 168.355 103.488C168.128 109.032 166.655 116.174 161.482 121.894C157.775 125.997 142.336 134.462 131.972 125.188C131.437 126.494 130.872 128.038 130.397 129.713C128.827 135.23 131.827 143.297 131.827 143.297C131.827 143.297 123.73 134.132 124.343 125.816C118.532 125.56 112.824 121.282 112.986 115.313C112.986 115.313 123.125 120.911 132.084 110.605C137.315 104.595 154.081 88.001 176.813 93.519C174.48 94.0322 172.035 94.7859 169.541 95.7292C169.559 95.737 169.578 95.7449 169.596 95.753C171.799 96.723 173.033 99.456 173.337 102.12ZM133.913 121.073L133.908 121.083C136.998 122.877 145.579 126.696 154.332 120.192C159.928 116.035 159.682 106.034 158.085 101.153C147.579 107.058 137.931 114.965 133.913 121.081V121.073Z" fill="#463014"/>
<path d="M117.698 91.657C112.345 94.897 107.566 96.019 103.007 96.119C98.447 96.019 93.668 94.897 88.315 91.658C88.315 91.658 96.11 101.171 102.968 101.245V101.254H103.006C103.008 101.254 103.009 101.254 103.011 101.254L103.017 101.256L103.024 101.258C103.03 101.26 103.037 101.262 103.044 101.262C109.902 101.188 117.705 91.682 117.705 91.682L117.698 91.657Z" fill="#463014"/>
<path d="M78.035 243.232C75.715 243.232 73.349 242.392 71.709 240.972C70.453 239.889 66.208 235.988 64.335 231.211C63.636 229.424 63.792 227.996 64.807 226.966C65.506 226.262 66.957 225.419 69.901 225.419L71.996 225.416C74.496 225.413 78.697 225.413 82.291 225.413H85.736C87.981 225.413 89.584 225.898 90.505 226.843C91.689 228.061 91.311 229.615 90.982 230.429C90.406 231.859 88.022 236.514 83.976 240.831C82.529 242.385 80.424 243.24 78.048 243.24L78.035 243.232Z" fill="#463014"/>
<path d="M115.04 230.423C115.618 231.852 118.01 236.504 122.053 240.827L122.069 240.845C123.516 242.39 125.621 243.246 127.998 243.246C130.316 243.246 132.676 242.407 134.321 240.984C135.579 239.907 139.822 236.001 141.696 231.224C142.395 229.432 142.24 228.001 141.22 226.973C140.529 226.274 139.073 225.427 136.13 225.427L134.033 225.419C131.533 225.411 127.332 225.411 123.738 225.411H120.285C118.045 225.411 116.443 225.895 115.519 226.838C114.332 228.058 114.71 229.609 115.04 230.423Z" fill="#463014"/>
<path d="M74.8547 33.3287C74.328 19.1003 85.9743 7.80597 90.026 7.32401C90.0621 7.71457 90.0808 8.28711 90.1036 8.98517C90.2226 12.6338 90.4534 19.7115 93.874 22.16C95.061 14.414 99.074 5.87 114.919 0.270996C111.525 9.271 114.466 16.811 115.866 20.305C126.686 10.485 133.976 12.107 133.976 12.107C133.976 12.107 126.911 24.2989 129.158 32.8002C130.901 33.2332 132.617 33.712 134.305 34.2366C137.792 29.5227 147.826 17.303 160.869 13.097C165.211 11.691 169.569 10.984 173.828 10.984C189.443 10.984 198.66 20.292 198.734 20.383L203.109 25.497L196.514 26.788C196.407 26.805 185.43 29.107 180.891 36.277C180.148 37.4617 179.947 39.8 179.735 42.2829L179.731 42.329C179.608 43.8165 179.921 45.263 180.225 46.6685L180.225 46.67C180.451 47.7103 180.679 48.7643 180.727 49.8286C184.819 49.9839 188.329 50.7952 191.174 52.251C195.047 54.233 197.67 57.398 198.764 61.395C201.436 71.195 192.737 82.107 192.432 82.461C191.412 84.27 190.985 97.426 193.329 102.697C193.648 103.418 194.532 104.132 195.646 105.032L195.656 105.04C196.009 105.32 196.396 105.616 196.815 105.928C200.12 108.42 205.12 112.194 205.12 120.885C205.12 132.775 193.065 139.23 183.38 144.41C183.111 144.555 182.844 144.698 182.579 144.84C181.281 145.537 180.04 146.204 178.906 146.86L178.94 146.905C177.493 147.741 172.386 153.026 172.386 160.932C172.383 164.638 172.729 182.283 174.379 194.505C180.593 189.177 186.32 180.583 187.606 170.964C187.606 170.964 203.332 183.099 198.711 209.072C195.886 224.946 186.255 233.857 173.457 238.516C168.729 248.777 157.663 263.121 137.28 265.228C129.508 271.594 118.748 275.716 103.072 275.727C103.056 275.727 103.048 275.719 103.031 275.719H102.99V275.716C87.3236 275.703 76.5673 271.585 68.7964 265.225C48.3791 263.138 37.3016 248.786 32.5662 238.517C19.7656 233.859 10.1344 224.948 7.314 209.072C2.693 183.099 18.414 170.964 18.414 170.964C19.7032 180.58 25.4268 189.171 31.6377 194.5C33.2849 182.277 33.63 164.637 33.63 160.932C33.627 153.026 28.524 147.741 27.077 146.905L27.11 146.86C25.863 146.143 24.5005 145.413 23.066 144.644L22.629 144.41C12.943 139.23 0.880001 132.775 0.880001 120.885C0.880001 112.194 5.88 108.42 9.185 105.928C9.604 105.616 9.999 105.32 10.344 105.04C11.471 104.136 12.351 103.42 12.671 102.697C15.015 97.426 14.588 84.27 13.568 82.461C13.272 82.107 4.564 71.195 7.236 61.395C8.33 57.398 10.953 54.233 14.826 52.251C17.6776 50.7916 21.205 49.9799 25.3109 49.8274C25.3618 48.7728 25.5887 47.7283 25.813 46.697L25.8219 46.6554C26.1192 45.2701 26.4287 43.8282 26.301 42.355C26.091 39.855 25.891 37.495 25.137 36.303C20.6709 29.2482 9.97214 26.914 9.5275 26.817L9.514 26.814L2.919 25.515L7.294 20.409C7.376 20.319 16.594 11.011 32.2 11.011C36.46 11.011 40.817 11.718 45.15 13.124C58.1749 17.3248 68.207 29.5191 71.7064 34.2454C72.7453 33.9225 73.7948 33.6169 74.8547 33.3287ZM164.28 241.065C160.654 241.804 156.872 242.301 152.997 242.603C151.092 247.047 148.901 251.375 146.189 255.359C155.326 252.119 161.014 246.133 164.28 241.065ZM187.61 217.955C194.139 207.217 192.305 188.872 189.624 186.183C183.759 204.701 164.225 209.998 149.597 210.639C151.023 212.86 152.341 214.684 153.323 215.976C153.613 216.252 153.882 216.527 154.132 216.797L154.159 216.812C158.047 221.008 158.788 226.775 156.37 233.949C168.494 233.746 181.168 228.554 187.61 217.955ZM145.245 202.96C152.225 202.761 159.904 201.911 166.601 199.321C165.233 185.356 164.289 166.374 164.762 158.5C165.324 149.102 170.354 142.795 175.019 140.106C176.48 139.266 178.009 138.439 179.55 137.608C187.542 133.29 195.806 128.822 195.806 121.194C195.806 115.233 193.488 113.365 191.036 111.388L191.029 111.382L190.766 111.168L190.757 111.161C190.376 110.852 189.982 110.534 189.589 110.195C190.089 114.082 190.614 117.381 191.035 118.224C191.035 118.224 184.509 110.127 182.575 94.372C181.815 88.166 183.162 75.926 185.321 71.217C185.232 73.8341 185.314 76.4512 185.494 78.9346C185.705 78.4911 185.938 78.1066 186.191 77.79C187.918 75.628 192.556 68.36 191.224 63.483C190.714 61.617 189.538 60.235 187.63 59.257C185.608 58.221 182.878 57.694 179.515 57.694C172.912 57.694 165.585 59.701 161.811 60.901C148.31 65.177 132.021 77.511 127.342 81.195C127.29 81.2339 127.246 81.2676 127.21 81.2948L127.209 81.2956C127.155 81.3365 127.122 81.3622 127.112 81.367L124.119 83.447L125.985 80.315C126.092 80.1316 136.257 63.4112 154.584 55.2776C153.48 53.7153 150.582 50.9102 142.998 47.211C131.462 41.584 118.01 38.731 103.012 38.725C88.014 38.733 74.561 41.585 63.025 47.211C55.4298 50.9146 52.5369 53.7221 51.438 55.284C69.7561 63.42 79.9165 80.1316 80.023 80.315L81.889 83.447L78.904 81.367L78.674 81.195C74.003 77.511 57.715 65.177 44.213 60.901C40.44 59.701 33.113 57.694 26.51 57.694C23.147 57.694 20.417 58.221 18.394 59.257C16.487 60.235 15.311 61.617 14.801 63.483C13.469 68.36 18.107 75.628 19.833 77.79C20.0818 78.1009 20.3103 78.4773 20.519 78.9107C20.6974 76.4345 20.7783 73.8258 20.69 71.217C22.849 75.926 24.199 88.166 23.439 94.372C21.5644 109.643 15.372 117.719 14.9932 118.201C15.412 117.323 15.9311 114.054 16.426 110.207C16.0383 110.54 15.6502 110.854 15.2738 111.158L15.2731 111.159L14.998 111.382L14.9967 111.383C12.5392 113.362 10.221 115.228 10.221 121.194C10.221 128.822 18.485 133.29 26.477 137.608C27.9961 138.42 29.5039 139.253 31 140.106C35.662 142.795 40.694 149.102 41.253 158.5C41.7229 166.374 40.7826 185.355 39.4148 199.32C46.1094 201.909 53.7859 202.76 60.7633 202.96C61.8545 200.739 62.8741 198.36 63.717 195.887V195.876C64.075 194.823 74.249 168.413 77.912 162.393C74.9759 183.374 68.4855 202.036 65.2637 210.606C67.1245 210.352 69.2183 210.208 71.58 210.208C71.58 210.208 93.937 210.195 102.982 210.188L134.45 210.207C136.804 210.207 138.891 210.35 140.747 210.602C137.526 202.03 131.038 183.371 128.106 162.393C131.773 168.413 141.945 194.823 142.306 195.876L142.292 195.887C143.135 198.36 144.154 200.739 145.245 202.96ZM56.4119 210.637C41.7877 209.992 22.2772 204.691 16.408 186.183C13.727 188.872 11.894 207.217 18.422 217.955C24.8645 228.566 37.5595 233.758 49.6964 233.95C47.2729 226.768 48.0131 220.994 51.903 216.797C52.123 216.559 52.3577 216.318 52.6092 216.074C53.5982 214.778 54.9483 212.917 56.4119 210.637ZM42.0089 241.119C45.141 246.162 50.7127 252.167 59.9092 255.397C57.1834 251.404 54.9838 247.064 53.0715 242.606C49.2751 242.313 45.5679 241.832 42.0089 241.119ZM175.465 30.3596C171.477 30.521 167.968 31.795 165.024 34.141C160.713 37.5751 158.512 43.6762 157.739 46.2605C160.339 48.4708 162.133 50.5394 163.346 52.216C165.194 51.7054 167.31 51.1917 169.574 50.7701C171.323 48.3868 171.599 45.1278 171.889 41.6982L171.891 41.679L171.892 41.6721C172.173 38.3442 172.464 34.91 174.245 32.092C174.627 31.4884 175.035 30.9113 175.465 30.3596ZM181.747 24.6344C183.517 23.4536 185.314 22.5067 186.973 21.756C184.416 20.67 179.613 19.059 173.689 19.059C170.416 19.059 167.224 19.552 164.187 20.531C154.585 23.6272 147.172 33.0031 143.873 37.8337C144.736 38.2182 145.589 38.6163 146.434 39.028C147.791 39.6898 149.056 40.3626 150.235 41.0397C151.65 38.1095 154.724 33.6676 161.348 29.011C165.813 25.875 171.166 24.216 176.815 24.216C178.765 24.216 180.453 24.4113 181.747 24.6344ZM62.1329 37.8436C58.8253 33.006 51.4201 23.6553 41.837 20.565C38.803 19.578 35.604 19.085 32.332 19.085C26.412 19.085 21.609 20.705 19.052 21.782C20.7082 22.5273 22.4989 23.4699 24.262 24.6458C25.5585 24.4212 27.2543 24.224 29.214 24.224C34.871 24.224 40.216 25.885 44.68 29.026C51.2959 33.6768 54.3711 38.1113 55.7899 41.0421C56.9657 40.366 58.2275 39.6941 59.581 39.033C60.4228 38.6231 61.2735 38.2266 62.1329 37.8436ZM48.3084 46.2455C47.5351 43.6638 45.3354 37.5558 41.018 34.124C38.062 31.7705 34.5356 30.5037 30.5319 30.3499C30.972 30.9125 31.3899 31.5016 31.781 32.118C33.5643 34.937 33.8528 38.3725 34.1317 41.6943L34.132 41.698C34.4187 45.1246 34.6938 48.3829 36.431 50.7696C38.702 51.1923 40.8235 51.7076 42.6751 52.2196C43.8936 50.5385 45.6953 48.4633 48.3084 46.2455ZM148.676 233.446V233.437C150.64 227.796 150.489 223.619 148.217 221.028C146.663 219.261 143.095 217.148 134.96 217.148L126.467 217.145C120.2 217.138 112.326 217.132 103.01 217.128C93.689 217.132 85.819 217.139 79.551 217.145L71.054 217.147C62.922 217.147 59.354 219.264 57.799 221.036C55.525 223.63 55.376 227.806 57.339 233.446C60.89 243.615 70.427 268.226 103.007 268.269C135.586 268.226 145.126 243.614 148.676 233.446Z" fill="#463014"/>
</svg>
