<svg
  width="300"
  height="300"
  viewBox="0 0 300 300"
  fill="none"
  xmlns="http://www.w3.org/2000/svg"
>
  <path
    d="M61.9932 130.201L61.982 130.224H61.975L61.9932 130.201Z"
    fill="#463014"
  />
  <path
    d="M79.677 114.12C79.061 119.513 82.487 124.417 82.487 124.417L82.492 124.42C82.8401 120.416 83.6769 117.556 84.6505 115.52C84.8803 121.059 86.3557 128.185 91.516 133.894C95.2227 137.998 110.671 146.468 121.037 137.177C121.575 138.486 122.143 140.036 122.62 141.717C124.185 147.234 121.189 155.301 121.189 155.301C121.189 155.301 129.286 146.133 128.669 137.816C134.48 137.559 140.189 133.282 140.028 127.313C140.028 127.313 129.886 132.911 120.927 122.605C115.695 116.595 98.931 100.001 76.2 105.519C78.5339 106.032 80.9801 106.786 83.4747 107.73L83.422 107.753C81.218 108.723 79.984 111.456 79.677 114.12ZM94.9282 113.153C105.433 119.059 115.079 126.965 119.095 133.081V133.07L119.105 133.085C116.01 134.881 107.43 138.694 98.681 132.192C93.0883 128.035 93.3355 118.034 94.9282 113.153Z"
    fill="#463014"
  />
  <path
    d="M220.337 114.12C220.956 119.513 217.531 124.417 217.531 124.417V124.42C217.18 120.395 216.335 117.526 215.355 115.488C215.128 121.032 213.655 128.174 208.482 133.894C204.775 137.997 189.336 146.462 178.972 137.188C178.437 138.494 177.872 140.038 177.397 141.713C175.827 147.23 178.827 155.297 178.827 155.297C178.827 155.297 170.73 146.132 171.343 137.816C165.532 137.56 159.824 133.282 159.986 127.313C159.986 127.313 170.125 132.911 179.084 122.605C184.315 116.595 201.081 100.001 223.813 105.519C221.48 106.032 219.035 106.786 216.541 107.729C216.559 107.737 216.578 107.745 216.596 107.753C218.799 108.723 220.033 111.456 220.337 114.12ZM180.913 133.073L180.908 133.083C183.998 134.877 192.579 138.696 201.332 132.192C206.928 128.035 206.682 118.034 205.085 113.153C194.579 119.058 184.931 126.965 180.913 133.081V133.073Z"
    fill="#463014"
  />
  <path
    d="M164.698 103.657C159.345 106.897 154.566 108.019 150.007 108.119C145.447 108.019 140.668 106.897 135.315 103.658C135.315 103.658 143.11 113.171 149.968 113.245V113.254H150.006C150.008 113.254 150.009 113.254 150.011 113.254L150.017 113.256L150.024 113.258C150.03 113.26 150.037 113.262 150.044 113.262C156.902 113.188 164.705 103.682 164.705 103.682L164.698 103.657Z"
    fill="#463014"
  />
  <path
    d="M125.035 255.232C122.715 255.232 120.349 254.392 118.709 252.972C117.453 251.889 113.208 247.988 111.335 243.211C110.636 241.424 110.792 239.996 111.807 238.966C112.506 238.262 113.957 237.419 116.901 237.419L118.996 237.416C121.496 237.413 125.697 237.413 129.291 237.413H132.736C134.981 237.413 136.584 237.898 137.505 238.843C138.689 240.061 138.311 241.615 137.982 242.429C137.406 243.859 135.022 248.514 130.976 252.831C129.529 254.385 127.424 255.24 125.048 255.24L125.035 255.232Z"
    fill="#463014"
  />
  <path
    d="M162.04 242.423C162.618 243.852 165.01 248.504 169.053 252.827L169.069 252.845C170.516 254.39 172.621 255.246 174.998 255.246C177.316 255.246 179.676 254.407 181.321 252.984C182.579 251.907 186.822 248.001 188.696 243.224C189.395 241.432 189.24 240.001 188.22 238.973C187.529 238.274 186.073 237.427 183.13 237.427L181.033 237.419C178.533 237.411 174.332 237.411 170.738 237.411H167.285C165.045 237.411 163.443 237.895 162.519 238.838C161.332 240.058 161.71 241.609 162.04 242.423Z"
    fill="#463014"
  />
  <path
    d="M121.855 45.3287C121.328 31.1003 132.974 19.806 137.026 19.324C137.062 19.7146 137.081 20.2871 137.104 20.9852C137.223 24.6338 137.453 31.7115 140.874 34.16C142.061 26.414 146.074 17.87 161.919 12.271C158.525 21.271 161.466 28.811 162.866 32.305C173.686 22.485 180.976 24.107 180.976 24.107C180.976 24.107 173.911 36.2989 176.158 44.8002C177.901 45.2332 179.617 45.712 181.305 46.2366C184.792 41.5227 194.826 29.303 207.869 25.097C212.211 23.691 216.569 22.984 220.828 22.984C236.443 22.984 245.66 32.292 245.734 32.383L250.109 37.497L243.514 38.788C243.407 38.805 232.43 41.107 227.891 48.277C227.148 49.4617 226.947 51.8 226.735 54.2829L226.731 54.329C226.608 55.8165 226.921 57.263 227.225 58.6685V58.67C227.451 59.7103 227.679 60.7643 227.727 61.8286C231.819 61.9839 235.329 62.7952 238.174 64.251C242.047 66.233 244.67 69.398 245.764 73.395C248.436 83.195 239.737 94.107 239.432 94.461C238.412 96.27 237.985 109.426 240.329 114.697C240.648 115.418 241.532 116.132 242.646 117.032L242.656 117.04C243.009 117.32 243.396 117.616 243.815 117.928C247.12 120.42 252.12 124.194 252.12 132.885C252.12 144.775 240.065 151.23 230.38 156.41C230.111 156.555 229.844 156.698 229.579 156.84C228.281 157.537 227.04 158.204 225.906 158.86L225.94 158.905C224.493 159.741 219.386 165.026 219.386 172.932C219.383 176.638 219.729 194.283 221.379 206.505C227.593 201.177 233.32 192.583 234.606 182.964C234.606 182.964 250.332 195.099 245.711 221.072C242.886 236.946 233.255 245.857 220.457 250.516C215.729 260.777 204.663 275.121 184.28 277.228C176.508 283.594 165.748 287.716 150.072 287.727C150.056 287.727 150.048 287.719 150.031 287.719H149.99V287.716C134.324 287.703 123.567 283.585 115.796 277.225C95.3791 275.138 84.3016 260.786 79.5662 250.517C66.7656 245.859 57.1344 236.948 54.314 221.072C49.693 195.099 65.414 182.964 65.414 182.964C66.7032 192.58 72.4268 201.171 78.6377 206.5C80.2849 194.277 80.63 176.637 80.63 172.932C80.627 165.026 75.524 159.741 74.077 158.905L74.11 158.86C72.863 158.143 71.5005 157.413 70.066 156.644L69.629 156.41C59.943 151.23 47.88 144.775 47.88 132.885C47.88 124.194 52.88 120.42 56.185 117.928C56.604 117.616 56.999 117.32 57.344 117.04C58.471 116.136 59.351 115.42 59.671 114.697C62.015 109.426 61.588 96.27 60.568 94.461C60.272 94.107 51.564 83.195 54.236 73.395C55.33 69.398 57.953 66.233 61.826 64.251C64.6776 62.7916 68.205 61.9799 72.3109 61.8274C72.3618 60.7728 72.5887 59.7283 72.813 58.697L72.8219 58.6554C73.1192 57.2701 73.4287 55.8282 73.301 54.355C73.091 51.855 72.891 49.495 72.137 48.303C67.6709 41.2482 56.9721 38.914 56.5275 38.817L56.514 38.814L49.919 37.515L54.294 32.409C54.376 32.319 63.594 23.011 79.2 23.011C83.46 23.011 87.817 23.718 92.15 25.124C105.175 29.3248 115.207 41.5191 118.706 46.2454C119.745 45.9225 120.795 45.6169 121.855 45.3287ZM211.28 253.065C207.654 253.804 203.872 254.301 199.997 254.603C198.092 259.047 195.901 263.375 193.189 267.359C202.326 264.119 208.014 258.133 211.28 253.065ZM234.61 229.955C241.139 219.217 239.305 200.872 236.624 198.183C230.759 216.701 211.225 221.998 196.597 222.639C198.023 224.86 199.341 226.684 200.323 227.976C200.613 228.252 200.882 228.527 201.132 228.797L201.159 228.812C205.047 233.008 205.788 238.775 203.37 245.949C215.494 245.746 228.168 240.554 234.61 229.955ZM192.245 214.96C199.225 214.761 206.904 213.911 213.601 211.321C212.233 197.356 211.289 178.374 211.762 170.5C212.324 161.102 217.354 154.795 222.019 152.106C223.48 151.266 225.009 150.439 226.55 149.608C234.542 145.29 242.806 140.822 242.806 133.194C242.806 127.233 240.488 125.365 238.036 123.388L238.029 123.382L237.766 123.168L237.757 123.161C237.376 122.852 236.982 122.534 236.589 122.195C237.089 126.082 237.614 129.381 238.035 130.224C238.035 130.224 231.509 122.127 229.575 106.372C228.815 100.166 230.162 87.926 232.321 83.217C232.232 85.8341 232.314 88.4512 232.494 90.9346C232.705 90.4911 232.938 90.1066 233.191 89.79C234.918 87.628 239.556 80.36 238.224 75.483C237.714 73.617 236.538 72.235 234.63 71.257C232.608 70.221 229.878 69.694 226.515 69.694C219.912 69.694 212.585 71.701 208.811 72.901C195.31 77.177 179.021 89.511 174.342 93.195C174.29 93.2339 174.246 93.2676 174.21 93.2948L174.209 93.2956C174.155 93.3365 174.122 93.3622 174.112 93.367L171.119 95.447L172.985 92.315C173.092 92.1316 183.257 75.4112 201.584 67.2776C200.48 65.7153 197.582 62.9102 189.998 59.211C178.462 53.584 165.01 50.731 150.012 50.725C135.014 50.733 121.561 53.585 110.025 59.211C102.43 62.9146 99.5369 65.7221 98.438 67.284C116.756 75.42 126.917 92.1316 127.023 92.315L128.889 95.447L125.904 93.367L125.674 93.195C121.003 89.511 104.715 77.177 91.213 72.901C87.44 71.701 80.113 69.694 73.51 69.694C70.147 69.694 67.417 70.221 65.394 71.257C63.487 72.235 62.311 73.617 61.801 75.483C60.469 80.36 65.107 87.628 66.833 89.79C67.0818 90.1009 67.3103 90.4773 67.519 90.9107C67.6974 88.4345 67.7783 85.8258 67.69 83.217C69.849 87.926 71.199 100.166 70.439 106.372C68.5644 121.643 62.372 129.719 61.9932 130.201C62.412 129.323 62.9311 126.054 63.426 122.207C63.0383 122.54 62.6502 122.854 62.2738 123.158L62.2731 123.159L61.998 123.382L61.9967 123.383C59.5392 125.362 57.221 127.228 57.221 133.194C57.221 140.822 65.485 145.29 73.477 149.608C74.9961 150.42 76.5039 151.253 78 152.106C82.662 154.795 87.694 161.102 88.253 170.5C88.7229 178.374 87.7826 197.355 86.4148 211.32C93.1094 213.909 100.786 214.76 107.763 214.96C108.855 212.739 109.874 210.36 110.717 207.887V207.876C111.075 206.823 121.249 180.413 124.912 174.393C121.976 195.374 115.486 214.036 112.264 222.606C114.125 222.352 116.218 222.208 118.58 222.208C118.58 222.208 140.937 222.195 149.982 222.188L181.45 222.207C183.804 222.207 185.891 222.35 187.747 222.602C184.526 214.03 178.038 195.371 175.106 174.393C178.773 180.413 188.945 206.823 189.306 207.876L189.292 207.887C190.135 210.36 191.154 212.739 192.245 214.96ZM103.412 222.637C88.7877 221.992 69.2772 216.691 63.408 198.183C60.727 200.872 58.894 219.217 65.422 229.955C71.8645 240.566 84.5595 245.758 96.6964 245.95C94.2729 238.768 95.0131 232.994 98.903 228.797C99.123 228.559 99.3577 228.318 99.6092 228.074C100.598 226.778 101.948 224.917 103.412 222.637ZM89.0089 253.119C92.141 258.162 97.7127 264.167 106.909 267.397C104.183 263.404 101.984 259.064 100.071 254.606C96.2751 254.313 92.5679 253.832 89.0089 253.119ZM222.465 42.3596C218.477 42.521 214.968 43.795 212.024 46.141C207.713 49.5751 205.512 55.6762 204.739 58.2605C207.339 60.4708 209.133 62.5394 210.346 64.216C212.194 63.7054 214.31 63.1917 216.574 62.7701C218.323 60.3868 218.599 57.1278 218.889 53.6982L218.891 53.679L218.892 53.6721C219.173 50.3442 219.464 46.91 221.245 44.092C221.627 43.4884 222.035 42.9113 222.465 42.3596ZM228.747 36.6344C230.517 35.4536 232.314 34.5067 233.973 33.756C231.416 32.67 226.613 31.059 220.689 31.059C217.416 31.059 214.224 31.552 211.187 32.531C201.585 35.6272 194.172 45.0031 190.873 49.8337C191.736 50.2182 192.589 50.6163 193.434 51.028C194.791 51.6898 196.056 52.3626 197.235 53.0397C198.65 50.1095 201.724 45.6676 208.348 41.011C212.813 37.875 218.166 36.216 223.815 36.216C225.765 36.216 227.453 36.4113 228.747 36.6344ZM109.133 49.8436C105.825 45.006 98.4201 35.6553 88.837 32.565C85.803 31.578 82.604 31.085 79.332 31.085C73.412 31.085 68.609 32.705 66.052 33.782C67.7082 34.5273 69.4989 35.4699 71.262 36.6458C72.5585 36.4212 74.2543 36.224 76.214 36.224C81.871 36.224 87.216 37.885 91.68 41.026C98.2959 45.6768 101.371 50.1113 102.79 53.0421C103.966 52.366 105.228 51.6941 106.581 51.033C107.423 50.6231 108.274 50.2266 109.133 49.8436ZM95.3084 58.2455C94.5351 55.6638 92.3354 49.5558 88.018 46.124C85.062 43.7705 81.5356 42.5037 77.5319 42.3499C77.972 42.9125 78.3899 43.5016 78.781 44.118C80.5643 46.937 80.8528 50.3725 81.1317 53.6943L81.132 53.698C81.4187 57.1246 81.6938 60.3829 83.431 62.7696C85.702 63.1923 87.8235 63.7076 89.6751 64.2196C90.8936 62.5385 92.6953 60.4633 95.3084 58.2455ZM195.676 245.446V245.437C197.64 239.796 197.489 235.619 195.217 233.028C193.663 231.261 190.095 229.148 181.96 229.148L173.467 229.145C167.2 229.138 159.326 229.132 150.01 229.128C140.689 229.132 132.819 229.139 126.551 229.145L118.054 229.147C109.922 229.147 106.354 231.264 104.799 233.036C102.525 235.63 102.376 239.806 104.339 245.446C107.89 255.615 117.427 280.226 150.007 280.269C182.586 280.226 192.126 255.614 195.676 245.446Z"
    fill="#463014"
  />
</svg>
