<svg viewBox="0 0 144 144" xmlns="http://www.w3.org/2000/svg">
  <path
    d="M13.3019 34.4119L13.3015 34.4112L9.24186 35.9176C9.24194 35.9177 9.24201 35.9179 9.24208 35.9181L9.24104 35.9185C9.80712 37.3079 10.3859 38.6233 10.9773 39.8645C10.9773 39.8655 10.9771 39.8666 10.9771 39.8666C11.0308 39.9792 11.0851 40.0911 11.1395 40.2025C11.3346 40.6059 11.5311 41.0014 11.7289 41.3888C11.7766 41.483 11.8244 41.5766 11.8724 41.6695C11.8724 41.6701 11.8731 41.6704 11.8739 41.6708C12.5784 43.0321 13.2999 44.2919 14.0381 45.4498C14.1238 45.5879 14.2101 45.7248 14.297 45.8604C14.3141 45.8875 14.3314 45.9145 14.3487 45.9414C14.3707 45.9754 14.3927 46.0093 14.4148 46.0431C15.7788 48.144 17.2785 49.9432 18.9081 51.4293C19.0191 51.5305 19.1306 51.6302 19.2427 51.7284C19.3519 51.8241 19.4616 51.9185 19.572 52.0114C21.6144 53.6876 23.8909 54.9191 26.4218 55.7131C27.9735 56.2 29.6499 56.5315 31.4517 56.7151C31.6701 56.7376 31.8903 56.7579 32.1125 56.7758C32.486 56.806 32.8658 56.83 33.2496 56.848C33.3799 56.854 33.5109 56.8593 33.6425 56.8638C34.0918 56.8798 34.5482 56.8878 35.0116 56.8878C36.1956 56.8878 37.2815 56.8629 38.2723 56.8113C38.3012 56.8098 38.3299 56.8083 38.3585 56.8068C38.3887 56.8051 38.4188 56.8034 38.4488 56.8017C39.1437 56.7628 39.7908 56.7104 40.3912 56.6439C40.6363 56.6172 40.8736 56.588 41.1031 56.556C41.1234 56.5641 41.1439 56.5722 41.1644 56.5806C41.2 56.5956 41.2357 56.6112 41.2713 56.6275C41.2739 56.6289 41.2766 56.6303 41.2794 56.6316C41.3235 56.6526 41.3665 56.6736 41.4107 56.6969C41.705 56.8464 41.9993 57.0414 42.2922 57.2806C42.2919 57.2803 42.2917 57.28 42.2915 57.2796C42.3422 57.3211 42.3929 57.3639 42.4436 57.408C46.7511 61.1508 50.9117 74.1799 55.0733 87.2116C57.699 95.4357 60.3257 103.661 62.9897 109.553L62.9901 109.554H80.8169C83.4809 103.661 86.1075 95.4362 88.7333 87.2125C92.9457 74.0215 97.1573 60.8328 101.521 57.2755L101.517 57.2808C101.81 57.0418 102.104 56.8466 102.398 56.697C102.443 56.6738 102.486 56.6527 102.53 56.6318C102.534 56.6299 102.537 56.6279 102.542 56.626C102.544 56.6245 102.547 56.6229 102.551 56.6215C102.602 56.5978 102.654 56.5766 102.706 56.5563C104.337 56.7829 106.359 56.8894 108.797 56.8894C110.425 56.8894 111.967 56.7897 113.422 56.587C114.823 56.3926 116.144 56.1025 117.386 55.7131C118.813 55.2654 120.159 54.6785 121.428 53.9512C122.409 53.3895 123.344 52.7438 124.234 52.013C124.753 51.5759 125.259 51.1081 125.753 50.6101C125.988 50.3727 126.221 50.1284 126.45 49.8773C127.635 48.5819 128.742 47.1045 129.769 45.4503C131.456 42.8038 133.056 39.6244 134.566 35.9191V35.9176L130.505 34.4118C129.958 35.4051 129.407 36.3199 128.853 37.1587C128.102 38.2936 127.344 39.2891 126.578 40.1518C125.29 41.6074 123.87 42.7723 122.316 43.6545C121.942 43.8621 121.557 44.0528 121.158 44.2314C121.155 44.2322 121.154 44.2338 121.152 44.2352C121.15 44.2364 121.149 44.2376 121.147 44.2383L121.144 44.2405C119.937 44.7801 118.616 45.1859 117.185 45.4503C115.32 45.7591 113.179 45.9159 110.737 45.9158C108.936 45.9158 107.317 45.8241 105.895 45.6498H105.873C105.713 45.6383 105.403 45.5897 105.066 45.5372L104.936 45.5168C104.879 45.508 104.821 45.4991 104.763 45.4901C104.409 45.4355 104.024 45.3761 103.463 45.273C91.4909 43.0723 87.5205 51.3293 86.6628 53.6073C86.5283 53.9639 86.4617 54.1836 86.4617 54.1836L71.9145 94.4808L71.9037 94.4996L71.8929 94.4808L57.3453 54.1836C57.3453 54.1836 57.2792 53.9639 57.1446 53.6074C56.7324 52.5127 55.6016 50.0376 53.2095 48.0055C53.1123 47.923 53.013 47.8411 52.9116 47.7601C50.3152 45.6862 46.3295 44.1721 40.3434 45.2724C39.7822 45.3756 39.3974 45.435 39.0431 45.4896C38.9852 45.4985 38.9277 45.5074 38.8709 45.5162L38.7351 45.5374C38.4007 45.5897 38.0926 45.6379 37.9337 45.6492H37.9112C36.4899 45.8235 34.8709 45.9152 33.0696 45.9152C30.6275 45.9153 28.4864 45.7586 26.6216 45.4498C25.1928 45.1857 23.874 44.7807 22.6681 44.2424C22.666 44.241 22.6639 44.2395 22.6619 44.2381C22.6592 44.2373 22.6574 44.2357 22.6557 44.2343C22.6543 44.2331 22.653 44.232 22.6513 44.2312C22.2536 44.053 21.8664 43.8613 21.4933 43.6543H21.4898C21.4356 43.6236 21.3816 43.5925 21.3278 43.561C21.2857 43.5362 21.2436 43.5111 21.2016 43.4861H21.2008C20.5476 43.0963 19.9187 42.6555 19.3137 42.1629C19.1455 42.0259 18.9792 41.8849 18.8147 41.7399C18.8099 41.7356 18.805 41.7313 18.8002 41.7269C18.7776 41.7066 18.755 41.6863 18.7322 41.666C18.5887 41.5378 18.4465 41.4068 18.3058 41.2729C17.9371 40.9208 17.5783 40.5475 17.2291 40.1527C16.9 39.7822 16.5724 39.387 16.2463 38.9667C16.2419 38.9611 16.2375 38.9553 16.2331 38.9497C16.2239 38.9378 16.2147 38.9259 16.2054 38.914C15.2258 37.6449 14.2591 36.1489 13.3032 34.4135C13.3029 34.413 13.3022 34.4125 13.3019 34.4119Z"
    fill="#FFCC00"
  />
</svg>
