<svg viewBox="0 0 1024 1024" xmlns="http://www.w3.org/2000/svg">
<path d="M224 384C232.487 384 240.626 387.372 246.627 393.373C252.628 399.374 256 407.513 256 416C256 424.487 252.628 432.626 246.627 438.627C240.626 444.628 232.487 448 224 448C215.513 448 207.374 444.628 201.373 438.627C195.372 432.626 192 424.487 192 416C192 407.513 195.372 399.374 201.373 393.373C207.374 387.372 215.513 384 224 384Z" fill="#1976D2"/>
<path d="M480 384C488.487 384 496.626 387.372 502.627 393.373C508.628 399.374 512 407.513 512 416C512 424.487 508.628 432.626 502.627 438.627C496.626 444.628 488.487 448 480 448C471.513 448 463.374 444.628 457.373 438.627C451.372 432.626 448 424.487 448 416C448 407.513 451.372 399.374 457.373 393.373C463.374 387.372 471.513 384 480 384Z" fill="#1976D2"/>
<path d="M896 64C931.346 64 960 92.654 960 128V320C960 576 832 832 672 832H352C192 832 64 640 64 480V160C64 106.98 106.98 64 160 64C213.02 64 256 106.98 256 160V192H448V160C448 106.98 490.98 64 544 64C597.02 64 640 106.98 640 160V192C704 192 768 256 832 320H896V192C860.654 192 832 163.346 832 128C832 92.654 860.654 64 896 64ZM352 592C343.136 592 336 599.136 336 608V614.762L274.719 650.146C272.896 651.192 271.297 652.589 270.016 654.255C268.734 655.921 267.793 657.825 267.249 659.855C266.705 661.886 266.566 664.004 266.843 666.088C267.119 668.172 267.805 670.181 268.86 672C269.908 673.823 271.305 675.422 272.972 676.703C274.638 677.985 276.542 678.925 278.572 679.469C280.603 680.013 282.722 680.15 284.807 679.873C286.891 679.596 288.9 678.911 290.718 677.855L352 642.475L413.281 677.855C415.1 678.911 417.109 679.596 419.193 679.873C421.278 680.15 423.396 680.013 425.427 679.469C427.458 678.925 429.361 677.985 431.028 676.703C432.695 675.421 434.092 673.823 435.14 672C436.195 670.182 436.881 668.173 437.157 666.089C437.434 664.005 437.296 661.886 436.752 659.855C436.208 657.825 435.267 655.921 433.985 654.255C432.704 652.589 431.105 651.192 429.282 650.146L368 614.762V608C368 599.136 360.864 592 352 592ZM320 512C302.272 512 288 526.272 288 544C288 561.728 302.272 576 320 576H384C401.728 576 416 561.728 416 544C416 526.272 401.728 512 384 512H320ZM224 320C170.98 320 128 362.98 128 416C128 469.02 170.98 512 224 512C277.02 512 320 469.02 320 416C320 362.98 277.02 320 224 320ZM480 320C426.98 320 384 362.98 384 416C384 469.02 426.98 512 480 512C533.02 512 576 469.02 576 416C576 362.98 533.02 320 480 320ZM271.578 223.991C269 224.061 266.398 224.76 264 226.145C262.177 227.192 260.579 228.589 259.298 230.256C258.016 231.922 257.076 233.826 256.532 235.856C255.988 237.887 255.85 240.005 256.127 242.089C256.404 244.173 257.089 246.182 258.145 248L290.145 303.426C291.192 305.249 292.589 306.847 294.256 308.128C295.922 309.409 297.826 310.35 299.856 310.894C301.887 311.437 304.005 311.575 306.089 311.298C308.173 311.021 310.182 310.335 312 309.28C313.823 308.233 315.421 306.835 316.702 305.169C317.984 303.503 318.924 301.6 319.468 299.569C320.012 297.539 320.15 295.42 319.873 293.336C319.596 291.252 318.911 289.243 317.855 287.425L285.855 231.999C284.421 229.5 282.335 227.435 279.821 226.025C277.308 224.615 274.459 223.913 271.578 223.991ZM432.422 223.992C429.541 223.914 426.692 224.616 424.179 226.026C421.665 227.436 419.579 229.5 418.145 232L386.145 287.426C385.09 289.244 384.405 291.253 384.128 293.337C383.851 295.421 383.988 297.539 384.532 299.569C385.076 301.6 386.017 303.503 387.298 305.169C388.579 306.835 390.177 308.233 392 309.28C393.818 310.335 395.827 311.021 397.911 311.298C399.995 311.575 402.113 311.437 404.144 310.893C406.174 310.349 408.078 309.409 409.744 308.128C411.411 306.846 412.808 305.248 413.855 303.425L445.855 247.999C446.91 246.181 447.595 244.172 447.872 242.088C448.149 240.004 448.012 237.886 447.468 235.855C446.924 233.825 445.984 231.922 444.702 230.256C443.421 228.589 441.823 227.192 440 226.145C437.693 224.807 435.088 224.067 432.422 223.992ZM160 128C142.272 128 128 142.272 128 160V224C128 241.728 142.272 256 160 256C177.728 256 192 241.728 192 224V160C192 142.272 177.728 128 160 128ZM544 128C526.272 128 512 142.272 512 160V224C512 241.728 526.272 256 544 256C561.728 256 576 241.728 576 224V160C576 142.272 561.728 128 544 128Z" fill="#1976D2"/>
</svg>
