<svg width="174" height="174" viewBox="0 0 174 174" fill="none" xmlns="http://www.w3.org/2000/svg">
<path d="M170.407 1.23012L173.628 0.36499L150.701 0.54999L127.473 0.842991L107.21 12.203L87.262 23.506L91.0471 22.4943L87.0077 23.5767L86.989 23.558L86.9364 23.6106L84.0593 22.8398L86.735 23.555L66.785 12.252L46.522 0.891994L23.294 0.597994L0.367001 0.412994L3.12187 1.15291L0.368 0.415009L0.588888 1.23939L0.368 0.416992L0.552 23.344L0.846001 46.573L12.206 66.836L23.509 86.784L23.0234 84.9673L23.5636 86.9834L23.559 86.988L23.567 86.996L23.5749 87.0254L23.5087 87.2723L12.207 107.217L0.847 127.481L0.552999 150.709L0.368 173.63V173.636L0.368999 173.632L0.376665 173.63L23.295 173.444L46.523 173.151L66.787 161.791L86.7254 150.493L86.99 150.422L23.592 87.023L23.593 87.022L86.99 150.419L87.0093 150.4L91.6668 151.648L87.261 150.47L107.209 161.772L127.472 173.132L150.701 173.426L173.628 173.611L170.17 172.682L173.629 173.609L173.631 173.617L173.446 150.69L173.153 127.461L161.793 107.198L150.49 87.2516L150.42 86.9893L150.421 86.988L150.414 86.9807L154.852 70.4157L150.49 86.735L161.794 66.787L173.154 46.523L173.448 23.295L173.633 0.368011L168.925 17.8944L173.621 0.368988L170.407 1.23012Z" fill="#F25C19"/>
</svg>
