<svg viewBox="0 0 300 300" xmlns="http://www.w3.org/2000/svg">
  <path
    d="M148.014 286.552C146.028 285.176 143.683 280.612 142.344 275.533C141.154 271.016 140.704 259.104 141.499 253.263C141.796 251.088 141.966 249.237 141.873 249.147C141.785 249.055 139.939 248.767 137.771 248.507C125.29 247.001 111.969 242.76 101.828 237.06C99.6774 235.851 97.6614 234.861 97.3514 234.861C97.0392 234.861 95.9444 236.481 94.9155 238.46C90.1381 247.659 81.7926 256.793 75.4499 259.766C73.1349 260.852 70.0482 261.116 68.6214 260.351C66.4691 259.199 65.8315 254.63 67.1176 249.574C67.997 246.111 71.5344 238.825 74.4012 234.569C75.6676 232.689 78.1695 229.501 79.9635 227.483L83.2172 223.816L81.52 222.193C77.0482 217.92 68.6456 208.033 68.6456 207.041C68.6456 206.687 80.1086 198.724 80.944 198.498C81.3683 198.384 82.395 199.399 83.7866 201.312C86.7986 205.452 94.8539 213.417 99.5939 216.939C135.726 243.8 186.654 237.055 214.074 201.774C215.53 199.901 216.948 198.366 217.225 198.366C217.774 198.366 229.121 206.061 229.514 206.698C229.87 207.272 224.911 213.698 220.676 218.157C218.665 220.274 217.02 222.178 217.025 222.387C217.025 222.598 218.607 224.432 220.533 226.465C226.654 232.918 232.678 242.993 234.351 249.574C235.635 254.63 234.997 259.199 232.847 260.351C232.381 260.601 231.15 260.801 230.108 260.799C223.512 260.784 212.575 250.194 206.085 237.539C204.832 235.099 203.625 233.102 203.398 233.102C203.172 233.102 201.899 233.802 200.569 234.652C191.137 240.696 177.058 245.909 164.878 247.865C162.288 248.283 159.956 248.789 159.696 248.989C159.36 249.25 159.402 250.471 159.846 253.21C160.637 258.102 160.332 269.714 159.29 274.41C158.212 279.258 156.559 283.015 154.519 285.244C152.175 287.808 150.355 288.175 148.014 286.552ZM18.3681 187.712C18.2516 187.404 18.2054 171.325 18.2691 151.978L18.3813 116.802H36.8179L36.9344 129.751C37.0223 139.44 37.1894 142.788 37.594 143.045C37.893 143.234 42.5076 143.393 47.85 143.397C55.415 143.401 57.6707 143.274 58.0488 142.817C58.372 142.425 58.5742 138.002 58.6512 129.516L58.7655 116.802H77.2021V188.033H58.7655L58.649 174.44C58.572 165.305 58.3742 160.655 58.0466 160.259C57.6685 159.802 55.4018 159.673 47.7906 159.673C40.1794 159.673 37.9149 159.802 37.5346 160.259C37.2092 160.655 37.0114 165.305 36.9322 174.44L36.8157 188.033L27.6963 188.152C20.6391 188.244 18.5308 188.145 18.3681 187.712ZM92.9918 187.708C92.8752 187.402 92.8313 171.325 92.895 151.978L93.0072 116.802H138.661L138.901 132.398L111.883 132.631L111.76 137.872C111.668 141.77 111.78 143.206 112.2 143.472C112.508 143.67 117.756 143.832 123.857 143.837L134.95 143.843L134.711 159.453L111.886 159.892V172.204L139.98 172.644V188.033L116.59 188.145C98.1143 188.235 93.1589 188.147 92.9918 187.708ZM154.449 187.708C154.332 187.402 154.288 171.325 154.352 151.978L154.464 116.802H172.901L173.34 172.204L200.118 172.644V188.033L177.39 188.147C159.439 188.235 154.611 188.143 154.449 187.708ZM212.83 187.703C212.715 187.4 212.672 171.325 212.733 151.978L212.847 116.802L222.505 116.692C227.817 116.635 232.381 116.734 232.647 116.912C233.298 117.354 243.046 143.909 245.198 151.098C247.434 158.578 247.261 158.134 247.768 157.628C248.006 157.39 249.043 154.44 250.075 151.068C252.348 143.643 261.335 117.901 261.929 117.123C262.254 116.696 264.62 116.595 272.06 116.683L281.766 116.802V188.033L265.326 188.273L265.035 187.108C264.429 184.691 265.242 159.246 266.157 151.976C267.597 140.541 267.379 140.363 263.985 150.217C260.313 160.877 253.016 180.475 252.319 181.545C251.721 182.469 251.361 182.535 247.131 182.535C244.016 182.535 242.45 182.363 242.156 181.985C241.613 181.29 232.651 156.9 230.202 149.454C228.474 144.199 227.536 142.309 227.566 144.147C227.573 144.586 227.977 148.207 228.463 152.198C229.371 159.673 230.176 184.727 229.582 187.097L229.292 188.251H221.167C215.068 188.251 212.988 188.117 212.83 187.703ZM218.636 106.491C216.908 103.558 212.557 98.0837 208.875 94.21C197.02 81.7335 182.746 73.8474 165.219 70.0924C160.2 69.0173 158.868 68.9162 149.634 68.8964C138.762 68.8722 136.368 69.1427 127.948 71.3478C116.551 74.3333 106.159 79.6295 96.9557 87.144C92.5323 90.7561 85.4861 98.187 82.4763 102.415C80.623 105.018 79.6886 105.981 79.2006 105.796C77.6023 105.189 66.889 97.9848 66.8934 97.5231C66.9088 96.481 74.1264 87.432 79.0225 82.3117L84.0856 77.0177L80.7373 73.3858C74.6167 66.7463 68.7489 56.8574 67.1132 50.4246C65.8293 45.3681 66.4669 40.7996 68.6192 39.6454C69.0831 39.397 70.3164 39.1947 71.3585 39.1969C77.954 39.2123 88.8894 49.8047 95.3815 62.4592C96.6325 64.8996 97.8109 66.8936 97.9978 66.8936C98.189 66.8936 99.9039 66.0032 101.812 64.9149C111.617 59.3198 127.357 54.3314 138.072 53.4278C139.921 53.2717 141.667 53.0013 141.95 52.8254C142.339 52.5836 142.28 51.4052 141.715 48.0173C140.673 41.7735 140.998 29.5455 142.339 24.4647C144.465 16.4138 147.88 11.9047 151.353 12.5577C154.596 13.1666 157.74 18.4562 159.378 26.0565C160.444 31.0141 160.47 44.9592 159.422 49.5276C159.035 51.2205 158.846 52.7418 159.004 52.9089C159.162 53.076 161.268 53.5245 163.68 53.9027C177.671 56.1012 188.281 60.0079 201.283 67.74C202.169 68.2677 203 68.5205 203.134 68.305C203.269 68.0896 204.467 65.7306 205.799 63.0638C210.943 52.7704 219.225 43.4158 226.014 40.2324C228.331 39.1463 231.416 38.8825 232.843 39.6476C234.997 40.8018 235.635 45.3681 234.349 50.4246C233.41 54.1181 229.8 61.4083 226.566 66.1439C225.056 68.3556 221.989 72.0161 219.751 74.2784L215.683 78.3895L219.685 82.6458C223.732 86.9483 230.879 96.0721 232.188 98.607C232.781 99.7524 232.801 100.073 232.311 100.524C231.306 101.45 220.511 107.788 219.94 107.788C219.643 107.788 219.056 107.205 218.636 106.491Z"
    fill="#00ACC1"
  />
</svg>
