<svg viewBox="0 0 24 24" xmlns="http://www.w3.org/2000/svg">
  <path
    d="M11.6517 3.9201C11.4485 3.85523 11.2311 3.85013 11.0251 3.90542C10.7407 3.98201 10.4983 4.16835 10.3511 4.42352C10.2039 4.67869 10.164 4.98183 10.2402 5.26639C10.2778 5.40759 10.343 5.53999 10.4318 5.656C10.5207 5.77201 10.6316 5.86936 10.7581 5.94249C10.8846 6.01562 11.0243 6.06309 11.1692 6.08218C11.3141 6.10127 11.4613 6.09161 11.6025 6.05375C11.7436 6.01589 11.8758 5.95061 11.9916 5.86162C12.1075 5.77264 12.2047 5.6617 12.2776 5.53514C12.3506 5.40858 12.3979 5.26889 12.4168 5.12405C12.4357 4.97921 12.4259 4.83205 12.388 4.69099C12.3396 4.51112 12.2469 4.34628 12.1183 4.21159C11.9896 4.07691 11.8291 3.97663 11.6517 3.9201ZM8.05169 3.69198C7.96387 3.66974 7.88085 3.66579 7.80597 3.66346L7.80364 3.6648C6.83569 3.63718 5.87027 3.60547 4.90227 3.57089C4.86318 3.56939 4.82377 3.56757 4.78312 3.56842C4.66118 3.57096 4.53264 3.59029 4.4038 3.6573C4.23203 3.74665 4.09597 3.94317 4.06394 4.16332L4.06345 4.16516C4.03338 4.37435 4.10806 4.58674 4.2318 4.71701C4.35554 4.84727 4.50454 4.91033 4.64201 4.95263L4.64385 4.95312C5.91916 5.34095 7.19658 5.7199 8.56658 6.13187L9.06244 6.28241L8.92961 5.78132C8.76877 5.18251 8.61657 4.68424 8.50724 4.19111C8.46707 4.00976 8.36122 3.84194 8.21495 3.75728C8.16006 3.72554 8.10439 3.70533 8.05169 3.69198ZM10.6645 7.42075C10.5778 7.4 10.4832 7.39917 10.3906 7.42396L10.0287 7.52142C9.73264 7.60074 9.55734 7.90402 9.63666 8.20006L10.7417 12.3222C10.821 12.6182 11.123 12.7912 11.419 12.7119L11.7828 12.6149C12.0789 12.5356 12.2537 12.2342 12.1743 11.9381L11.0693 7.81596C11.0148 7.61244 10.8553 7.46638 10.6645 7.42075Z"
    fill="#8BC34A"
  />
  <path
    d="M21.5778 9.77041L19.3752 10.3606L19.9654 12.5632L14.4575 14.039C14.1682 14.1165 13.897 14.2502 13.6594 14.4325C13.4219 14.6148 13.2225 14.8421 13.0728 15.1014C12.923 15.3608 12.8259 15.6471 12.7868 15.944C12.7477 16.2409 12.7675 16.5426 12.845 16.8318C12.6881 16.2486 12.3063 15.7515 11.7833 15.4495C11.2602 15.1476 10.6388 15.0654 10.0553 15.2212L4.54738 16.697L3.95653 14.4918L1.75391 15.082L2.34476 17.2872C2.42224 17.5764 2.55594 17.8476 2.73823 18.0852C2.92053 18.3228 3.14783 18.5221 3.40717 18.6718C3.66652 18.8216 3.95281 18.9188 4.24971 18.9578C4.54662 18.9969 4.84831 18.9771 5.13756 18.8996L9.5429 17.7192C10.1267 17.5627 10.7486 17.6444 11.2722 17.9463C11.7958 18.2482 12.178 18.7456 12.3351 19.3292L12.6305 20.4318L14.8331 19.8416L14.5377 18.7391C14.3819 18.1551 14.4642 17.5332 14.7667 17.01C15.0692 16.4868 15.567 16.105 16.1508 15.9487L20.5561 14.7683C20.8454 14.6908 21.1165 14.5571 21.3541 14.3748C21.5917 14.1925 21.7911 13.9652 21.9408 13.7059C22.0905 13.4465 22.1877 13.1602 22.2268 12.8633C22.2659 12.5664 22.2461 12.2647 22.1685 11.9755L22.1679 11.9731L21.5778 9.77041Z"
    fill="#8BC34A"
  />
</svg>
