<svg viewBox="0 0 32 32" xmlns="http://www.w3.org/2000/svg">
  <path
    d="M28 6V2H26V6H20V2H18V6H14V8H18V12H20V8H26V12H28V8H32V6H28Z"
    fill="#0288D1"
  />
  <path
    d="M12.5 11C11.6167 10.9998 10.7464 11.2128 9.963 11.6208C9.17959 12.0289 8.5062 12.6199 8 13.3438V4H2V28H8V17C8 16.4696 8.21071 15.9609 8.58579 15.5858C8.96086 15.2107 9.46957 15 10 15C10.5304 15 11.0391 15.2107 11.4142 15.5858C11.7893 15.9609 12 16.4696 12 17V28H18V16.5C18 15.0413 17.4205 13.6424 16.3891 12.6109C15.3576 11.5795 13.9587 11 12.5 11Z"
    fill="#0288D1"
  />
</svg>
