<svg viewBox="0 0 24 24" xmlns="http://www.w3.org/2000/svg">
  <path
    d="M13.646 1.8439C14.4503 2.0882 15.777 2.8305 15.777 3.0344C15.777 3.09078 15.6013 3.20917 15.3871 3.29749C14.688 3.58783 14.6607 3.72783 15.1249 4.67029C15.357 5.14198 15.543 5.69169 15.5383 5.89179C15.5271 6.40858 16.0044 7.59249 16.5212 8.32819C17.1235 9.18512 16.835 10.8031 16.1002 10.6848C15.9593 10.6622 15.606 10.6247 15.3175 10.6021C14.89 10.5683 14.7462 10.4837 14.5508 10.153C14.3779 9.85981 14.1552 9.70571 13.7615 9.60705C13.1254 9.44732 12.8088 9.30637 12.3765 8.99348L12.0646 8.76797L12.3765 9.3806C12.5475 9.71698 13.3161 10.6331 14.0828 11.4158C16.103 13.4754 16.5596 14.6481 15.6369 15.3998C15.2395 15.7249 15.1953 15.8255 15.2188 16.3639C15.2564 17.2142 15.185 17.2339 11.9987 17.2339C8.89049 17.2339 8.70719 17.187 8.85569 16.4465C8.93086 16.0688 8.88576 15.9645 8.49582 15.6159L8.0495 15.2175L8.30977 14.6152C8.45259 14.2835 8.59353 13.6878 8.62172 13.2903L8.67434 12.5668L8.39246 13.4595L8.11245 14.3512L7.80426 13.4689C7.39647 12.3057 7.41432 11.8856 7.8954 11.3228C8.10963 11.0728 8.2844 10.7806 8.2844 10.6744C8.2844 10.5683 8.0946 10.7289 7.86157 11.0315C7.33351 11.7183 7.2978 11.7165 7.11176 10.977C6.92666 10.2403 6.99431 10.0035 7.57029 9.37588C8.19513 8.6956 8.13406 8.58003 7.44626 9.14286L6.87122 9.61455L6.72088 9.01883C6.57054 8.41936 6.77914 7.76913 7.12304 7.76913C7.27432 7.76913 7.88977 7.11704 7.88977 6.95636C7.88977 6.89059 7.77608 6.94415 7.63607 7.07381C7.49701 7.20348 7.20761 7.41207 6.99337 7.53798L6.60437 7.76725L6.51793 7.30684C6.38638 6.60777 6.66075 6.16334 7.36734 5.92844C8.0495 5.70105 8.2844 5.56669 8.2844 5.40226C8.2844 5.33743 8.09178 5.3628 7.85687 5.45864C6.81387 5.88053 6.72087 5.85986 6.85617 5.23783C6.99993 4.5754 7.37108 4.22303 7.93677 4.21083C8.72229 4.19297 8.93837 3.97593 8.18107 3.96653C6.93697 3.94961 8.01852 2.64923 9.28977 2.63223C10.0509 2.62283 10.0546 2.62095 9.61864 2.4631C8.08334 1.90685 11.918 1.31861 13.646 1.8439ZM11.3738 2.66699C11.5954 2.8046 11.8073 2.95717 12.0081 3.12364C12.212 3.29277 12.4412 3.43089 12.5173 3.43089C12.7579 3.43089 12.3341 3.02967 11.8145 2.76376C11.2874 2.49503 10.9303 2.41611 11.3738 2.66699ZM11.044 2.94605C11.044 3.04001 11.1324 3.23263 11.2404 3.37264C11.4189 3.6066 11.4236 3.59157 11.293 3.20069C11.1446 2.75531 11.044 2.65289 11.044 2.94605ZM10.5451 6.32585C9.84603 7.21191 9.69663 8.54995 10.1768 9.62205C10.3684 10.0505 10.3731 10.0524 10.2839 9.67467C10.065 8.74821 10.1805 7.56427 10.5348 7.09637C11.1239 6.32025 11.1333 5.58073 10.5451 6.32585ZM14.2246 6.18307C14.3975 6.45932 14.6888 6.57771 14.9678 6.48375C15.0862 6.44428 15.0205 6.34093 14.7705 6.17744C14.2613 5.84106 14.0123 5.84387 14.2246 6.18307ZM11.5795 9.54318C11.5776 9.67191 12.8527 11.321 13.4625 11.9777C13.9699 12.5245 14.4623 13.6267 14.4623 14.2168C14.4623 14.8031 14.7536 14.9055 14.8353 14.3464C14.965 13.4594 14.5534 12.718 13.0162 11.0756C12.4741 10.4959 11.93 9.88425 11.806 9.71695C11.6839 9.54876 11.5795 9.47177 11.5795 9.54318ZM14.3279 17.6257C14.4679 17.7009 14.606 17.9706 14.6558 18.2618C14.7122 18.5963 14.9434 18.9994 15.338 19.4495C16.2936 20.5423 16.3612 20.5207 12.0343 20.5207H8.28431V20.2163C8.28431 20.0472 8.46472 19.7399 8.69022 19.5257C9.18634 19.0549 9.46728 18.5391 9.46728 18.1012C9.46728 17.9208 9.57064 17.7122 9.69749 17.6389C9.99441 17.4651 14.0075 17.4547 14.3279 17.6257ZM12.491 18.0223C12.491 18.0955 12.8386 18.1538 13.2709 18.1538C13.7012 18.1538 14.0883 18.0946 14.1334 18.0223C14.1851 17.9396 13.8938 17.8907 13.3536 17.8907C12.865 17.8907 12.491 17.948 12.491 18.0223ZM16.5013 20.9896C17.0463 21.2479 17.3094 21.5345 17.424 21.9987L17.5142 22.3604H12.0456C6.06119 22.3604 6.28949 22.3924 6.79969 21.6143C7.29957 20.8504 7.6942 20.7884 12.0766 20.7856C15.4348 20.7828 16.1348 20.8157 16.5013 20.9896ZM13.938 21.1765C13.7087 21.3174 14.0009 21.3945 14.8964 21.4264C15.7458 21.4574 16.2147 21.3541 16.0972 21.1633C16.0079 21.0186 14.1738 21.0299 13.938 21.1765Z"
    fill="#CFD8DC"
  />
</svg>
