<svg viewBox="0 0 16 16" xmlns="http://www.w3.org/2000/svg">
  <path
    d="M2 2V14H4H14V5V2H2ZM8 8H9V12C8.99921 12.265 8.8936 12.5189 8.70623 12.7062C8.51887 12.8936 8.26497 12.9992 8 13H7C6.73503 12.9992 6.48113 12.8936 6.29377 12.7062C6.1064 12.5189 6.00079 12.265 6 12V11H7V12H8V8ZM11 8H13V9H11V10H12C12.265 10.0008 12.5189 10.1064 12.7062 10.2938C12.8936 10.4811 12.9992 10.735 13 11V12C12.9992 12.265 12.8936 12.5189 12.7062 12.7062C12.5189 12.8936 12.265 12.9992 12 13H10V12H12V11H11C10.735 10.9992 10.4811 10.8936 10.2938 10.7062C10.1064 10.5189 10.0008 10.265 10 10V9C10.0008 8.73503 10.1064 8.48113 10.2938 8.29377C10.4811 8.1064 10.735 8.00079 11 8Z"
    fill="#FFCA28"
  />
</svg>
