<svg viewBox="0 0 24 24" xmlns="http://www.w3.org/2000/svg">
  <path d="M18 8V10H20V20H10V18H8V22H22V8H18Z" fill="#FFCA28" />
  <path
    d="M3 2.999H17V17H3V2.999ZM6.6783 14.696C6.99027 15.3576 7.6043 15.9013 8.6541 15.9013C9.8208 15.9013 10.622 15.2793 10.622 13.9186V9.4223H9.2998V13.8879C9.2998 14.5564 9.02745 14.7277 8.5996 14.7277C8.14898 14.7277 7.9618 14.4168 7.75184 14.0503L6.6783 14.696ZM11.33 14.5564C11.7183 15.319 12.5046 15.9013 13.7327 15.9013C14.9776 15.9013 15.9115 15.2566 15.9115 14.0661C15.9115 12.9697 15.2807 12.4795 14.1605 11.9972L13.8337 11.8576C13.2662 11.6159 13.0256 11.4535 13.0256 11.0643C13.0256 10.7454 13.2662 10.4968 13.6554 10.4968C14.0288 10.4968 14.2774 10.6602 14.5032 11.0643L15.5223 10.3879C15.0945 9.6411 14.4874 9.35295 13.6554 9.35295C12.4808 9.35295 11.7261 10.0997 11.7261 11.0872C11.7261 12.1608 12.356 12.6669 13.3048 13.0709L13.6316 13.2105C14.2387 13.4749 14.5963 13.6383 14.5963 14.09C14.5963 14.4633 14.2467 14.7347 13.702 14.7347C13.0562 14.7347 12.6828 14.4009 12.4025 13.9345L11.33 14.5564Z"
    fill="#FFCA28"
  />
</svg>
