<svg viewBox="0 0 16 16" xmlns="http://www.w3.org/2000/svg">
  <path d="M12 5V6H13V13H6V12H5L4.93147 14L14 14.001V5H12Z" fill="#FFCA28" />
  <path
    d="M2 2V11H4H11V4V2H2ZM5 5H6V9C5.99921 9.26497 5.8936 9.51887 5.70623 9.70623C5.51887 9.8936 5.26497 9.99921 5 10H4C3.73503 9.99921 3.48113 9.8936 3.29377 9.70623C3.1064 9.51887 3.00079 9.26497 3 9V8H4V9H5V5ZM8 5H10V6H8V7H9C9.26497 7.00079 9.51887 7.1064 9.70623 7.29377C9.8936 7.48113 9.99921 7.73503 10 8V9C9.99921 9.26497 9.8936 9.51887 9.70623 9.70623C9.51887 9.8936 9.26497 9.99921 9 10H7V9H9V8H8C7.73503 7.99921 7.48113 7.8936 7.29377 7.70623C7.1064 7.51887 7.00079 7.26497 7 7V6C7.00079 5.73503 7.1064 5.48113 7.29377 5.29377C7.48113 5.1064 7.73503 5.00079 8 5Z"
    fill="#FFCA28"
  />
</svg>
