<svg
  width="180"
  height="180"
  viewBox="0 0 180 180"
  fill="none"
  xmlns="http://www.w3.org/2000/svg"
>
  <path
    d="M76.6785 57.3332C79.4399 51.1784 83.9665 45.2438 93.0763 47.366C94.8254 44.4912 91.6982 42.3776 89.3879 42.0301C84.0189 41.2197 77.4471 47.1896 75.8168 51.6734C75.1935 53.3829 74.2131 56.7356 76.6785 57.3332Z"
    fill="black"
  />
  <path
    d="M137.899 57.7534L137.467 57.7363C137.238 61.6268 138.333 64.2927 139.429 66.9581C139.719 67.6634 140.009 68.3686 140.274 69.0965C139.099 69.8362 137.327 69.9326 135.556 70.029C134.022 70.1124 132.488 70.1959 131.34 70.697C131.164 77.9733 142.597 74.3875 144.338 70.3356C142.398 67.5162 140.913 64.2752 139.428 61.0334C138.924 59.9347 138.421 58.8359 137.899 57.7534Z"
    fill="black"
  />
  <path
    d="M99.4591 61.6379C98.9485 60.39 98.4253 59.1109 97.7397 57.8539C96.3873 61.693 100.061 68.2102 102.121 71.5041C100.21 73.3601 97.2122 72.7965 94.3478 72.258C93.1912 72.0405 92.0563 71.8272 91.0236 71.7789C87.5982 77.1907 97.713 78.2085 102.054 76.9255C103.241 76.5759 105.3 74.7938 105.582 73.9951C106.628 71.056 104.937 69.549 103.654 68.4056C103.458 68.2311 103.271 68.0648 103.106 67.9034C101.304 66.1465 100.403 63.9456 99.4591 61.6379Z"
    fill="black"
  />
  <path
    d="M135.831 94.2435C129.296 98.4417 122.008 103.006 111.299 101.948C109.011 99.9593 108.139 95.5311 110.362 92.6071C110.739 93.2572 110.916 94.0855 111.096 94.9255C111.465 96.6562 111.845 98.4361 114.017 98.8068C118.564 99.5844 123.668 97.1171 127.781 95.1291C129.164 94.4602 130.436 93.8456 131.536 93.4271C133.794 89.6192 132.127 87.8173 130.096 85.6217L130.093 85.6193L130.092 85.6181L130.092 85.6172C129.686 85.1789 129.266 84.7249 128.86 84.2361C128.573 83.8894 128.279 83.5379 127.982 83.1817C123.114 77.346 117.171 70.2228 117.399 61.7208C119.009 60.5538 119.447 62.6663 119.706 63.9139C119.772 64.2321 119.826 64.494 119.885 64.6309C122.494 70.7397 129.063 78.5516 133.858 83.7806C134.32 84.286 134.898 84.7832 135.445 85.2522C136.29 85.9788 137.058 86.638 137.188 87.1557C137.544 88.5689 136.966 90.1424 136.453 91.5389C136.068 92.588 135.719 93.5372 135.831 94.2435Z"
    fill="black"
  />
  <path
    d="M47.5544 86.6835C48.1551 87.9904 48.758 89.3019 49.6709 89.8232C51.9309 78.9472 38.3363 73.4467 36.925 83.7047C37.2232 83.5092 37.5056 83.2162 37.7984 82.9124C38.5846 82.0965 39.4457 81.2029 40.8893 81.9118C39.1509 85.3073 39.5668 91.9197 41.9327 94.0675C41.931 93.5685 41.9199 93.0256 41.9082 92.4577C41.826 88.441 41.7181 83.1746 44.7295 83.3573C46.063 83.439 46.807 85.0577 47.5544 86.6835Z"
    fill="black"
  />
  <path
    d="M123.717 110.868C132.645 110.683 136.948 104.306 139.991 98.5149C138.532 99.1799 137.152 99.93 135.772 100.68C132.209 102.617 128.646 104.554 123.726 105.027C123.396 106.153 123.535 108.997 123.717 110.868Z"
    fill="black"
  />
  <path
    d="M121.123 105.359C113.384 105.586 102.92 105.263 97.2255 102.27C99.8341 109.251 111.596 111.713 121.544 111.218L121.542 110.864C121.528 108.912 121.514 106.958 121.123 105.359Z"
    fill="black"
  />
  <path
    d="M122.613 116.393C111.774 116.705 99.8057 117.05 96.1425 107.852C92.1194 107.857 94.0283 109.647 95.3899 110.923C95.7306 111.243 96.0371 111.53 96.2077 111.749C96.6198 112.279 97.0485 112.896 97.5046 113.553C99.001 115.706 100.792 118.285 103.259 119.597C108.337 122.293 118.424 121.164 122.08 119.676C123.433 119.128 124.523 117.61 125.025 116.327C124.23 116.346 123.425 116.369 122.613 116.393Z"
    fill="black"
  />
  <path
    d="M19.2397 160.543C19.8011 162.044 20.5577 164.638 21 166H148.887C150.287 161.608 151.661 157.108 153.047 152.468C153.259 151.758 153.513 150.988 153.779 150.181C154.817 147.032 156.039 143.323 155.673 140.454C155.348 137.881 152.222 135.207 149.518 132.894C148.66 132.161 147.846 131.465 147.176 130.819C146.785 130.442 146.033 129.811 145.12 129.045C142.421 126.781 138.319 123.339 138.006 121.808C137.718 120.405 139.314 117.741 140.651 115.508C141.201 114.591 141.706 113.746 142.02 113.092C143.533 109.942 144.625 106.101 145.385 103.43L145.43 103.27C151.099 83.3423 151.674 55.9648 143.57 39.5829C140.502 33.3779 131.923 24.808 126.556 20.7486C113.901 11.177 90.5019 10.1196 75.2534 15.7324C74.7864 15.9043 74.3212 16.0742 73.8578 16.2433L73.8548 16.2444C70.1002 17.6154 66.4745 18.9393 63.1511 20.8897C61.5684 21.8188 59.9702 22.6992 58.3895 23.57L58.3882 23.5708C49.9928 28.1958 42.0897 32.5497 39.5967 42.4802C32.3001 45.7484 30.0988 55.087 30.4655 65.9277C30.4951 66.7856 30.7016 67.7308 30.9099 68.684C31.2145 70.0778 31.5228 71.4887 31.2866 72.6684C31.1631 73.2849 30.6037 74.0073 30.1249 74.6257C29.8208 75.0186 29.5492 75.3694 29.4424 75.6244C25.9454 83.9645 28.7486 94.9281 32.7908 100.854C35.2337 104.435 39.2781 107.611 44.6151 108.454C44.8268 111.649 45.5965 114.399 47.0719 117.638C47.3218 118.186 47.7552 118.852 48.231 119.583C49.5319 121.581 51.1506 124.068 50.2097 125.98C49.7128 126.994 46.234 128.922 43.7981 130.272C43.0684 130.676 42.4322 131.029 41.9979 131.289C40.182 132.379 38.5081 133.348 36.9074 134.275L36.9044 134.276L36.9032 134.277C32.8989 136.596 29.3483 138.652 25.1532 141.671C24.1302 142.408 22.952 142.971 21.7945 143.525C18.6527 145.027 15.664 146.457 16.3491 151.069C16.7802 153.966 18.0411 157.338 19.2397 160.543ZM101.028 162.191C101.208 162.071 101.388 161.952 101.568 161.833L101.569 161.832C102.032 161.526 102.495 161.22 102.954 160.912C103.284 161.331 103.606 161.757 103.922 162.191H101.028ZM108.561 162.191C107.734 160.869 106.843 159.608 105.864 158.428C106.211 158.06 106.538 157.67 106.865 157.279C107.131 156.961 107.398 156.642 107.676 156.335C109.253 156.995 110.51 156.378 111.697 155.795C112.542 155.381 113.352 154.983 114.216 155.077C115.227 155.184 116.15 155.84 117.137 156.543C118.472 157.492 119.924 158.525 121.877 158.402C121.799 159.665 121.738 160.928 121.684 162.191H117.473C117.452 161.734 117.262 161.3 116.937 160.976C116.592 160.631 116.125 160.437 115.637 160.437C115.149 160.437 114.682 160.63 114.337 160.975C114.012 161.3 113.821 161.734 113.8 162.191H108.561ZM124.291 162.191C124.359 160.998 124.415 159.835 124.46 158.717C129.169 156.513 133.215 159.112 135.23 162.191H124.291ZM137.875 162.191C138.06 161.863 138.245 161.534 138.429 161.205C138.07 160.368 137.474 159.75 136.879 159.132C136.166 158.392 135.453 157.652 135.148 156.537C138.78 149.678 137.11 128.387 127.841 132.881C128.455 131.98 129.541 131.153 130.683 130.284C131.952 129.317 133.291 128.297 134.125 127.065C136.395 128.893 138.142 130.658 139.942 132.476L139.944 132.477C141.244 133.79 142.572 135.132 144.144 136.544C144.641 136.99 145.256 137.457 145.908 137.952C147.919 139.482 150.277 141.274 150.582 143.502C150.766 144.837 150.135 147.74 149.693 149.777C149.59 150.251 149.497 150.679 149.428 151.028C148.735 154.449 147.679 158.333 146.426 162.318C146.297 162.237 146.144 162.191 145.981 162.191H137.875ZM107.629 146.383C115.154 141.366 116.568 155.002 108.475 152.471C108.316 151.57 108.15 150.874 108.005 150.264C107.695 148.966 107.478 148.058 107.629 146.383ZM98.6549 143.437C99.2018 143.736 99.6895 144.053 100.167 144.364C101.55 145.263 102.847 146.106 105.25 146.292C105.239 146.608 105.226 146.927 105.213 147.247L105.2 147.586C104.239 148.217 102.957 148.502 101.674 148.786C100.595 149.026 99.5154 149.265 98.6271 149.712C101.492 149.838 103.747 150.528 105.699 151.501C105.673 152.15 105.648 152.798 105.623 153.447L105.572 154.742C104.259 155.641 102.992 156.717 101.696 157.818C99.7877 159.44 97.8157 161.116 95.5395 162.357C93.7327 163.342 87.3908 165.878 85.4686 165.431C84.6164 165.232 84.3717 164.36 84.0967 163.379C84.0209 163.109 83.9427 162.83 83.8489 162.555C83.6293 161.91 83.342 161.174 83.029 160.372C82.0207 157.789 80.7453 154.522 80.6042 151.393L80.5886 151.054C80.3472 145.844 79.963 137.553 85.4258 138.598C89.93 139.457 95.1685 141.532 98.6549 143.437ZM65.3503 137.387C67.242 138.701 70.3136 138.921 73.3862 139.14C74.9102 139.249 76.4343 139.358 77.8149 139.6C77.9257 140.281 77.6991 141.071 77.4531 141.928C77.217 142.751 76.963 143.636 76.9725 144.546C73.4669 144.33 62.4562 140.325 65.3503 137.387ZM100.999 138.767C100.992 138.922 100.881 138.963 100.77 139.005C100.674 139.04 100.579 139.076 100.55 139.184C104.273 142.094 107.04 142.695 112.107 142.444C113.071 141.745 113.989 140.996 114.906 140.246C116.164 139.219 117.423 138.192 118.799 137.293C117.046 137.45 115.148 137.905 113.199 138.372C109.058 139.364 104.689 140.411 101 138.768L100.999 138.767ZM133.72 148.69C133.851 151.398 133.475 154.128 132.372 155.562C126.701 155.395 121.576 154.722 117.09 153.456C117.233 152.598 117.184 151.746 117.139 150.948C117.086 150.037 117.038 149.194 117.283 148.488C118.286 147.766 119.833 147.632 121.381 147.498C121.763 147.465 122.145 147.432 122.518 147.39C120.885 146.586 118.588 146.268 116.702 146.732C116.672 145.839 116.381 145.182 116.091 144.526C115.967 144.246 115.843 143.965 115.739 143.666C116.711 143.319 118.086 142.385 119.649 141.323C123.211 138.902 127.746 135.82 130.689 137.538C132.707 138.713 133.564 145.426 133.72 148.69ZM57.9399 137.388C59.1382 138.801 60.1501 139.994 60.4784 140.228C64.9363 143.394 70.3607 145.965 75.5995 148.448C76.2154 148.74 76.8287 149.03 77.4375 149.321C77.7914 151.976 78.6114 155.417 80.0515 160.022C80.2016 160.503 80.3492 161.001 80.4991 161.508C80.5661 161.734 80.6336 161.962 80.7019 162.191H26.2082C24.9014 158.352 23.4238 154.631 21.7599 151.061C31.0546 143.886 41.4559 136.3 52.5799 131.914C53.118 131.702 55.8207 134.889 57.9399 137.388ZM39.2813 50.6909C43.3557 46.2039 48.9738 43.4114 55.8107 42.8929C57.686 47.667 56.8477 52.9186 55.9942 58.2656C55.2449 62.9598 54.4839 67.7276 55.537 72.3102C55.6738 72.9057 55.8775 73.5665 56.0863 74.2439C56.9299 76.9807 57.8576 79.9903 54.8025 80.0708C54.902 71.5308 44.3072 66.1116 36.3242 71.1331C36.3069 70.9236 36.2892 70.7113 36.2713 70.4965L36.2707 70.4894L36.2703 70.4839C35.7345 64.0594 35.0116 55.3897 39.2813 50.6909ZM70.8818 22.488C71.4303 22.3319 71.9124 22.7061 72.37 23.1947C72.3252 24.3811 71.4399 24.66 70.5545 24.9389C70.2567 25.0327 69.9588 25.1265 69.693 25.2549C68.8557 26.2828 67.8215 27.0324 66.7444 27.8132C65.7076 28.5646 64.6309 29.345 63.6515 30.4304C62.9193 31.24 62.1561 32.5377 61.3536 33.9021C59.9097 36.3571 58.3387 39.0281 56.5933 39.461C55.7802 39.6639 54.8992 39.541 54.0689 39.4252C53.5073 39.3469 52.9689 39.2718 52.4901 39.3028C50.8007 39.4099 49.3811 39.9241 47.9341 40.4483C46.6927 40.898 45.4311 41.355 43.9619 41.5683C48.0704 32.5867 60.8836 25.3211 70.8818 22.488ZM122.927 25.1533L122.926 25.1543C128.077 28.0607 132.065 33.313 135.759 38.1799C136.339 38.9436 136.912 39.6977 137.48 40.4318C131.599 38.6849 126.593 41.6859 127.505 46.5364C132.43 42.0248 140.841 46.4872 143.327 51.4756C145.391 55.6149 145.652 61.4841 145.924 67.5975C145.966 68.5295 146.007 69.4671 146.056 70.4051C146.943 87.6005 142.91 105.34 134.27 117.769C133.793 118.455 133.332 119.154 132.872 119.851L132.87 119.853L132.87 119.854C131.102 122.532 129.349 125.188 126.772 127C118.942 132.498 107.041 137.481 96.8524 134.065C83.8192 129.691 77.6688 121.145 70.5729 111.286C70.337 110.958 70.1001 110.629 69.8619 110.299C70.0629 115.942 74.0324 120.574 77.9507 124.892C81.3633 128.655 85.4793 132.907 89.9086 134.66C86.2127 133.793 80.5433 133.52 79.0038 136.836C70.3836 136.264 62.3728 135.383 58.2953 129.541C55.0826 124.936 51.8197 117.106 50.3551 111.057C50.0568 109.814 49.5436 107.165 49.6687 106.487C49.8541 105.476 50.6625 104.683 51.4809 103.881C52.7859 102.601 54.1163 101.297 52.9861 99.042C51.1943 99.0251 50.1354 99.888 49.0761 100.751C48.1299 101.522 47.1834 102.294 45.7141 102.439C37.6542 103.235 31.9666 91.7529 32.3322 84.8251C32.6412 78.9354 37.6221 73.2981 44.4333 74.0432C49.2475 74.5703 50.8832 79.8249 51.8165 84.499C54.5919 84.6476 58.6011 84.3804 59.9139 82.2154C59.8241 79.6936 59.2179 77.41 58.627 75.1839C57.98 72.7461 57.3512 70.3774 57.4389 67.8403C57.5507 64.6394 58.2351 61.548 58.9108 58.4953C60.1612 52.8469 61.3824 47.3309 58.8929 41.4977C62.9983 32.1858 75.0385 24.839 83.9451 20.3969C94.9847 14.8942 112.549 19.2978 122.927 25.1533Z"
    fill="black"
  />
</svg>
