<svg viewBox="0 0 300 300" xmlns="http://www.w3.org/2000/svg">
  <path
    d="M195.74 86.6015L178.741 120.929C184.325 126.103 188.267 132.919 189.827 140.639H202.639C204.117 133.33 207.73 126.76 212.904 121.669L195.74 86.6015Z"
    fill="#F4511E"
  />
  <path
    d="M164.451 112.635L195.74 49.3994L226.948 113.045C228.179 112.635 229.411 112.306 230.643 111.978L260.29 24.5158H131.109L160.673 111.731C161.905 111.978 163.219 112.306 164.451 112.635ZM153.693 168.561C165.108 168.561 174.388 159.281 174.388 147.866C174.388 143.678 173.156 139.818 171.021 136.533C170.364 135.465 169.543 134.48 168.722 133.576L168.639 133.494C167.818 132.591 166.833 131.77 165.847 131.113L165.765 131.031C165.519 130.866 165.19 130.62 164.862 130.456C164.78 130.456 164.78 130.374 164.698 130.374C164.369 130.209 164.041 129.963 163.712 129.799H163.63C163.301 129.635 162.891 129.388 162.562 129.224H162.48C162.152 129.06 161.823 128.895 161.495 128.813C161.413 128.813 161.33 128.731 161.248 128.731C161.002 128.649 160.673 128.485 160.427 128.403C160.345 128.403 160.263 128.321 160.099 128.321C159.77 128.238 159.442 128.074 159.113 127.992H159.031C158.62 127.91 158.292 127.828 157.881 127.746C157.799 127.746 157.717 127.746 157.553 127.664C157.224 127.581 156.978 127.581 156.649 127.499C156.485 127.499 156.403 127.499 156.239 127.417C155.992 127.417 155.664 127.335 155.418 127.335H152.215C151.886 127.335 151.64 127.417 151.311 127.417H150.983C150.654 127.499 150.326 127.499 149.997 127.581H149.751C149.34 127.664 149.012 127.746 148.601 127.828C139.568 130.045 132.833 138.258 132.833 147.948C132.998 159.199 142.278 168.561 153.693 168.561ZM240.744 127.171H240.58C240.252 127.171 240.005 127.089 239.677 127.089H238.609C238.198 127.089 237.788 127.089 237.295 127.171H236.885C236.556 127.171 236.228 127.253 235.899 127.253C235.817 127.253 235.653 127.253 235.571 127.335L234.339 127.581H234.257C233.846 127.664 233.517 127.746 233.107 127.828C233.025 127.828 232.86 127.91 232.778 127.91C232.45 127.992 232.121 128.074 231.793 128.238C231.711 128.238 231.629 128.321 231.546 128.321C231.136 128.485 230.725 128.649 230.397 128.813C229.986 128.978 229.658 129.142 229.247 129.306C229.165 129.306 229.083 129.388 229.001 129.388C228.672 129.552 228.344 129.717 228.015 129.963C228.015 129.963 227.933 129.963 227.933 130.045C227.194 130.456 226.455 130.949 225.798 131.523L225.716 131.605C224.648 132.427 223.745 133.33 222.841 134.316C221.938 135.301 221.199 136.451 220.542 137.601C218.817 140.639 217.832 144.17 217.832 147.866C217.832 159.281 227.112 168.561 238.527 168.561C249.942 168.561 259.222 159.281 259.222 147.866C259.222 137.847 251.995 129.388 242.551 127.499C242.058 127.335 241.401 127.253 240.744 127.171ZM67.8733 168.561C79.2886 168.561 88.5686 159.281 88.5686 147.866C88.5686 136.451 79.2886 127.171 67.8733 127.171C56.4581 127.171 47.1781 136.451 47.1781 147.866C47.1781 159.281 56.4581 168.561 67.8733 168.561Z"
    fill="#F4511E"
  />
  <path
    d="M238.691 184.575C221.609 184.575 207.238 172.832 203.132 157.064H189.335C185.229 172.832 170.857 184.575 153.775 184.575C151.804 184.575 149.915 184.411 148.108 184.165C143.345 191.474 137.679 198.208 131.027 204.449C119.283 215.536 105.979 223.749 91.6072 228.922L88.2401 230.154L85.1194 228.512C67.8733 219.642 59.0039 201.657 62.1246 184.247C60.1537 183.918 58.2648 183.426 56.4581 182.769C56.1296 183.344 55.8832 184.001 55.5547 184.658C50.2988 195.498 44.7965 206.667 42.8255 218.657C40.6903 231.468 39.7869 254.874 57.8542 267.356C65.7381 272.777 74.0326 275.487 83.3126 275.487C101.134 275.487 120.351 265.96 140.717 255.859C156.649 247.975 173.074 239.763 190.156 235.574C196.644 234.014 203.214 233.029 209.537 232.125C221.117 230.483 232.121 228.84 241.073 223.667C250.599 218.164 257.087 208.966 258.894 198.454C260.044 192.049 259.387 185.561 257.251 179.566C251.831 182.687 245.508 184.575 238.691 184.575Z"
    fill="#F4511E"
  />
</svg>
