<svg viewBox="0 0 24 24" fill="none" xmlns="http://www.w3.org/2000/svg">
  <path
    d="M12.133 6.116C9.737 6.11867 6.862 5.91333 3.508 5.5V7.759C4.85745 7.9253 6.12936 8.05793 7.32373 8.15689L7.11752 10.162H3.405V11.476H6.98238L6.26 18.5L8.765 18.49L9.01181 11.476H14.8036L15.05 18.479H17.524L16.8226 11.476H20.492V10.162H16.691L16.4927 8.1828C17.7688 8.08154 19.1362 7.94027 20.595 7.759V5.5C17.3117 5.908 14.491 6.11333 12.133 6.116ZM11.291 10.162H9.05805L9.12413 8.28396C9.88236 8.32749 10.6046 8.35541 11.291 8.36773V10.162ZM12.605 10.162V8.37183C13.2661 8.36381 13.9617 8.34065 14.6919 8.30235L14.7573 10.162H12.605Z"
    fill="#BDBDBD"
  />
</svg>
