<svg width="18" height="14" viewBox="0 0 18 14" fill="none" xmlns="http://www.w3.org/2000/svg">
<path d="M9.133 1.11603C6.737 1.11865 3.862 0.91333 0.507996 0.5V2.75897C1.85744 2.92529 3.12936 3.05798 4.32372 3.15692L4.11752 5.16199H0.404999V6.47601H3.98238L3.26 13.5L5.765 13.49L6.01181 6.47601H11.8036L12.05 13.479H14.524L13.8226 6.47601H17.492V5.16199H13.691L13.4927 3.1828C14.7688 3.08154 16.1362 2.94025 17.595 2.75897V0.5C14.3117 0.90802 11.491 1.11334 9.133 1.11603ZM8.291 5.16199H6.05804L6.12413 3.284C6.88236 3.32751 7.60465 3.35541 8.291 3.36774V5.16199ZM9.605 5.16199V3.37183C10.2661 3.36377 10.9617 3.34064 11.6919 3.30231L11.7573 5.16199H9.605Z" fill="#BDBDBD"/>
</svg>
