<svg viewBox="0 0 32 32" xmlns="http://www.w3.org/2000/svg">
  <path
    d="M15 2H6C5.47004 2.00155 4.96223 2.21276 4.5875 2.5875C4.21276 2.96223 4.00155 3.47004 4 4V26C4.00156 26.53 4.21277 27.0378 4.58751 27.4125C4.96224 27.7872 5.47005 27.9984 6 28H12V24H6V22H12V20H6V18H12V16H6V14H12V12H14V4L22 12H24V11L15 2Z"
    fill="#FFCA28"
  />
  <path
    d="M12 12V30H30V12H12ZM20 24C19.9984 24.53 19.7872 25.0378 19.4125 25.4125C19.0378 25.7872 18.53 25.9984 18 26H16C15.47 25.9984 14.9622 25.7872 14.5875 25.4125C14.2128 25.0378 14.0016 24.53 14 24V22H16V24H18V16H20V24ZM28 18H24V20H26C26.53 20.0016 27.0378 20.2128 27.4125 20.5875C27.7872 20.9622 27.9984 21.47 28 22V24C27.9984 24.53 27.7872 25.0378 27.4125 25.4125C27.0378 25.7872 26.53 25.9984 26 26H22V24H26V22H24C23.47 21.9984 22.9622 21.7872 22.5875 21.4125C22.2128 21.0378 22.0016 20.53 22 20V18C22.0016 17.47 22.2128 16.9622 22.5875 16.5875C22.9622 16.2128 23.47 16.0016 24 16H28V18Z"
    fill="#FFCA28"
  />
</svg>
