<svg
  width="24"
  height="24"
  viewBox="0 0 24 24"
  fill="none"
  xmlns="http://www.w3.org/2000/svg"
>
  <path
    d="M6 2H14L20 8V10.14H23.055V23.14H10.055V22H6C5.46957 22 4.96086 21.7893 4.58579 21.4142C4.21071 21.0391 4 20.5304 4 20V4C4 2.89 4.89 2 6 2ZM13 9H18.5L13 3.5V9ZM6 12V14H10.055V12H6ZM6 16V18H10.055V16H6ZM18.2454 18.7635C18.0026 18.614 17.807 18.3989 17.681 18.143L16.555 18.802C16.7945 19.2578 17.1606 19.6346 17.6093 19.8871C18.058 20.1395 18.5701 20.2569 19.084 20.225C20.405 20.225 21.389 19.54 21.389 18.287C21.389 17.126 20.722 16.61 19.539 16.104L19.192 15.955C18.597 15.696 18.34 15.528 18.34 15.111C18.34 15.0924 18.3407 15.074 18.342 15.056C18.3496 14.9765 18.3729 14.8994 18.4105 14.829C18.4482 14.7585 18.4994 14.6963 18.5612 14.6458C18.6231 14.5953 18.6943 14.5576 18.7708 14.5348C18.8473 14.512 18.9276 14.5046 19.007 14.513C19.1989 14.5098 19.3872 14.5651 19.5469 14.6716C19.7066 14.7781 19.8301 14.9306 19.901 15.109L20.983 14.414C20.7995 14.0542 20.514 13.7564 20.1622 13.5579C19.8104 13.3595 19.4079 13.269 19.005 13.298C17.762 13.298 16.968 14.093 16.968 15.134C16.968 16.266 17.635 16.802 18.638 17.23L18.985 17.378C19.619 17.656 19.997 17.826 19.997 18.301C19.997 18.7 19.629 18.988 19.053 18.988C18.768 18.9908 18.4881 18.913 18.2454 18.7635ZM13.664 18.98C13.189 18.98 12.989 18.652 12.771 18.265L11.639 18.951C11.8177 19.3486 12.1127 19.6828 12.4851 19.9095C12.8574 20.1362 13.2897 20.2448 13.725 20.221C14.955 20.221 15.8 19.565 15.8 18.125V13.38H14.41V18.106C14.41 18.8 14.122 18.98 13.664 18.98Z"
    fill="#FFCA28"
  />
</svg>
