<svg width="20" height="22" viewBox="0 0 20 22" fill="none" xmlns="http://www.w3.org/2000/svg">
<path d="M2 0H10L16 6V8.14001H19.055V21.14H6.055V20H2C1.46957 20 0.960859 19.7893 0.585786 19.4142C0.210713 19.0391 0 18.5304 0 18V2C0 0.89 0.89 0 2 0ZM9 7H14.5L9 1.5V7ZM2 10V12H6.055V10H2ZM2 14V16H6.055V14H2ZM14.2454 16.7635C14.0026 16.614 13.807 16.3989 13.681 16.143L12.555 16.802C12.7945 17.2578 13.1606 17.6346 13.6093 17.8871C14.058 18.1395 14.5701 18.2569 15.084 18.225C16.405 18.225 17.389 17.54 17.389 16.287C17.389 15.126 16.722 14.61 15.539 14.104L15.192 13.955C14.597 13.696 14.34 13.528 14.34 13.111C14.34 13.0924 14.3407 13.074 14.342 13.056C14.3496 12.9765 14.3729 12.8994 14.4105 12.829C14.4482 12.7585 14.4994 12.6963 14.5612 12.6458C14.6231 12.5953 14.6943 12.5576 14.7708 12.5348C14.8473 12.512 14.9276 12.5046 15.007 12.513C15.1989 12.5098 15.3872 12.5651 15.5469 12.6716C15.7066 12.7781 15.8301 12.9306 15.901 13.109L16.983 12.414C16.7995 12.0542 16.514 11.7564 16.1622 11.5579C15.8104 11.3595 15.4079 11.269 15.005 11.298C13.762 11.298 12.968 12.093 12.968 13.134C12.968 14.266 13.635 14.802 14.638 15.23L14.985 15.378C15.619 15.656 15.997 15.826 15.997 16.301C15.997 16.7 15.629 16.988 15.053 16.988C14.768 16.9908 14.4881 16.913 14.2454 16.7635ZM9.664 16.98C9.189 16.98 8.989 16.652 8.771 16.265L7.639 16.951C7.81774 17.3486 8.11271 17.6828 8.48506 17.9095C8.85742 18.1362 9.28971 18.2448 9.725 18.221C10.955 18.221 11.8 17.565 11.8 16.125V11.38H10.41V16.106C10.41 16.8 10.122 16.98 9.664 16.98Z" fill="#FFCA28"/>
</svg>
