<svg viewBox="0 0 50 50" xmlns="http://www.w3.org/2000/svg">
  <path
    d="M13.707 44.175C18.9841 44.175 23.262 39.8971 23.262 34.62C23.262 29.3429 18.9841 25.065 13.707 25.065C8.42993 25.065 4.15201 29.3429 4.15201 34.62C4.15201 39.8971 8.42993 44.175 13.707 44.175Z"
    fill="#864E9F"
  />
  <path
    d="M36.291 44.175C41.5681 44.175 45.846 39.8971 45.846 34.62C45.846 29.3429 41.5681 25.065 36.291 25.065C31.0139 25.065 26.736 29.3429 26.736 34.62C26.736 39.8971 31.0139 44.175 36.291 44.175Z"
    fill="#864E9F"
  />
  <path
    d="M24.932 24.935C30.2091 24.935 34.487 20.6571 34.487 15.38C34.487 10.1029 30.2091 5.82501 24.932 5.82501C19.6549 5.82501 15.377 10.1029 15.377 15.38C15.377 20.6571 19.6549 24.935 24.932 24.935Z"
    fill="#864E9F"
  />
</svg>
