<svg width="300" height="300" viewBox="0 0 300 300" fill="none" xmlns="http://www.w3.org/2000/svg">
<path d="M263.013 33.4C263.013 45.1156 253.516 54.613 241.8 54.613C230.084 54.613 220.587 45.1156 220.587 33.4C220.587 21.6844 230.084 12.187 241.8 12.187C253.516 12.187 263.013 21.6844 263.013 33.4Z" fill="#F57C00"/>
<path d="M46.3 65.217C55.4774 65.217 62.917 57.7773 62.917 48.6C62.917 39.4227 55.4774 31.983 46.3 31.983C37.1227 31.983 29.683 39.4227 29.683 48.6C29.683 57.7773 37.1227 65.217 46.3 65.217Z" fill="#F57C00"/>
<path d="M83.1892 65.2355C102.221 50.2114 125.753 42.0272 150 42C174.282 42.0295 197.846 50.2385 216.889 65.3042C235.932 80.3699 249.344 101.412 254.96 125.036C246.245 113.409 231.643 103.485 212.977 96.5026C194.311 89.5204 172.407 85.7893 150 85.775C127.641 85.7764 105.776 89.4789 87.1218 96.4221C68.468 103.365 53.8483 113.243 45.08 124.828C50.7347 101.25 64.1579 80.2595 83.1892 65.2355Z" fill="#F57C00"/>
<path d="M83.1108 234.742C64.0676 219.676 50.656 198.634 45.04 175.01C53.7548 186.637 68.3566 196.562 87.0227 203.544C105.689 210.527 127.593 214.258 150 214.272C172.359 214.271 194.224 210.568 212.878 203.625C231.532 196.682 246.152 186.804 254.92 175.219C249.265 198.797 235.842 219.787 216.811 234.812C197.779 249.836 174.247 258.02 150 258.047C125.718 258.018 102.154 249.808 83.1108 234.742Z" fill="#F57C00"/>
<path d="M84.127 266.8C84.127 279.297 73.9966 289.427 61.5 289.427C49.0035 289.427 38.873 279.297 38.873 266.8C38.873 254.303 49.0035 244.173 61.5 244.173C73.9966 244.173 84.127 254.303 84.127 266.8Z" fill="#F57C00"/>
</svg>
