<svg viewBox="0 0 16 16" xmlns="http://www.w3.org/2000/svg">
  <path
    d="M8 1C6.14348 1 4.36301 1.7375 3.05025 3.05025C1.7375 4.36301 1 6.14348 1 8C1 9.85652 1.7375 11.637 3.05025 12.9497C4.36301 14.2625 6.14348 15 8 15C9.85652 15 11.637 14.2625 12.9497 12.9497C14.2625 11.637 15 9.85652 15 8C15 6.14348 14.2625 4.36301 12.9497 3.05025C11.637 1.7375 9.85652 1 8 1ZM8 2C8.53043 2 9.03914 2.21071 9.41421 2.58579C9.78929 2.96086 10 3.46957 10 4C10 4.53043 9.78929 5.03914 9.41421 5.41421C9.03914 5.78929 8.53043 6 8 6C7.46957 6 6.96086 5.78929 6.58579 5.41421C6.21071 5.03914 6 4.53043 6 4C6 3.46957 6.21071 2.96086 6.58579 2.58579C6.96086 2.21071 7.46957 2 8 2ZM8 10C8.53043 10 9.03914 10.2107 9.41421 10.5858C9.78929 10.9609 10 11.4696 10 12C10 12.5304 9.78929 13.0391 9.41421 13.4142C9.03914 13.7893 8.53043 14 8 14C7.46957 14 6.96086 13.7893 6.58579 13.4142C6.21071 13.0391 6 12.5304 6 12C6 11.4696 6.21071 10.9609 6.58579 10.5858C6.96086 10.2107 7.46957 10 8 10Z"
    fill="#EF5350"
  />
</svg>
