<svg viewBox="0 0 24 24" xmlns="http://www.w3.org/2000/svg">
  <path
    d="M18.957 2.998L12.972 8.982L14.967 10.977L21.95 3.995V2.997M11.975 12.474C11.9068 12.4783 11.8385 12.4686 11.7742 12.4455C11.7099 12.4224 11.651 12.3863 11.6012 12.3396C11.5514 12.2928 11.5117 12.2363 11.4845 12.1736C11.4574 12.1109 11.4434 12.0433 11.4434 11.975C11.4434 11.9067 11.4574 11.8391 11.4845 11.7764C11.5117 11.7137 11.5514 11.6572 11.6012 11.6104C11.651 11.5637 11.7099 11.5276 11.7742 11.5045C11.8385 11.4814 11.9068 11.4717 11.975 11.476C12.1019 11.484 12.2209 11.5401 12.308 11.6328C12.395 11.7255 12.4434 11.8479 12.4434 11.975C12.4434 12.1021 12.395 12.2245 12.308 12.3172C12.2209 12.4099 12.1019 12.466 11.975 12.474ZM5.99 19.955C5.46089 19.955 4.95346 19.7448 4.57932 19.3707C4.20519 18.9965 3.995 18.4891 3.995 17.96C3.995 17.4309 4.20519 16.9235 4.57932 16.5493C4.95346 16.1752 5.46089 15.965 5.99 15.965C6.51911 15.965 7.02654 16.1752 7.40068 16.5493C7.77482 16.9235 7.985 17.4309 7.985 17.96C7.985 18.4891 7.77482 18.9965 7.40068 19.3707C7.02654 19.7448 6.51911 19.955 5.99 19.955ZM5.99 7.985C5.72801 7.985 5.46859 7.9334 5.22655 7.83314C4.9845 7.73288 4.76458 7.58593 4.57932 7.40068C4.39407 7.21543 4.24712 6.9955 4.14686 6.75345C4.0466 6.51141 3.995 6.25199 3.995 5.99C3.995 5.72801 4.0466 5.46859 4.14686 5.22655C4.24712 4.9845 4.39407 4.76457 4.57932 4.57932C4.76458 4.39407 4.9845 4.24712 5.22655 4.14686C5.46859 4.0466 5.72801 3.995 5.99 3.995C6.51911 3.995 7.02654 4.20519 7.40068 4.57932C7.77482 4.95346 7.985 5.46089 7.985 5.99C7.985 6.51911 7.77482 7.02654 7.40068 7.40068C7.02654 7.77481 6.51911 7.985 5.99 7.985ZM9.62 7.625C9.85 7.127 9.98 6.579 9.98 5.99C9.98 5.20085 9.74599 4.42943 9.30757 3.77327C8.86914 3.11712 8.24599 2.60571 7.51691 2.30372C6.78783 2.00173 5.98558 1.92271 5.21159 2.07667C4.43761 2.23062 3.72666 2.61063 3.16865 3.16864C2.61063 3.72666 2.23062 4.43761 2.07667 5.21159C1.92271 5.98557 2.00173 6.78783 2.30372 7.51691C2.60572 8.24598 3.11712 8.86914 3.77328 9.30756C4.42943 9.74599 5.20085 9.98 5.99 9.98C6.579 9.98 7.127 9.85 7.626 9.62L9.98 11.975L7.626 14.329C7.11324 14.0919 6.55494 13.9694 5.99 13.97C5.20085 13.97 4.42943 14.204 3.77328 14.6424C3.11712 15.0809 2.60572 15.704 2.30372 16.4331C2.00173 17.1622 1.92271 17.9644 2.07667 18.7384C2.23062 19.5124 2.61063 20.2233 3.16865 20.7814C3.72666 21.3394 4.43761 21.7194 5.21159 21.8733C5.98558 22.0273 6.78783 21.9483 7.51691 21.6463C8.24599 21.3443 8.86914 20.8329 9.30757 20.1767C9.74599 19.5206 9.98 18.7491 9.98 17.96C9.98 17.372 9.85 16.823 9.62 16.324L11.975 13.97L18.957 20.952H21.95V19.955L9.62 7.625Z"
    fill="#EF6C00"
  />
</svg>
