<svg viewBox="0 0 16 16" xmlns="http://www.w3.org/2000/svg">
  <path
    d="M14.709 8.55802L7.43901 1.31102C7.32565 1.19246 7.18502 1.10342 7.02938 1.05166C6.87373 0.99989 6.70779 0.986968 6.54601 1.01402L2.54601 1.74502C2.14701 1.81902 1.83201 2.12502 1.74601 2.52202L1.01401 6.54602C0.959009 6.87402 1.07101 7.20802 1.31101 7.43802L8.55801 14.708C8.95101 15.098 9.58301 15.098 9.97501 14.708L14.709 9.97502C14.8959 9.78659 15.0008 9.53193 15.0008 9.26652C15.0008 9.0011 14.8959 8.74644 14.709 8.55802ZM5.72801 5.75802C4.29401 7.31202 2.07801 4.99402 3.61101 3.54402C5.02201 2.16602 7.07801 4.24802 5.76101 5.72202L5.72801 5.75802Z"
    fill="#FFB300"
  />
</svg>
