<svg viewBox="0 0 240 240" xmlns="http://www.w3.org/2000/svg">
  <path
    d="M104.909 44.2663L69.4045 24.0412C67.7741 23.0889 65.705 23.0901 64.0756 24.0446L28.579 44.4931L28.549 44.5115C26.8045 45.5859 25.9785 47.0536 25.9915 49.0894C25.9918 49.1326 25.992 49.173 25.992 49.21V170.58C25.992 172.458 26.9465 174.259 28.7203 175.239L99.6247 216.046L99.6901 216.079C101.303 216.881 103.222 216.885 104.84 216.077L104.903 216.045L175.846 175.216L175.865 175.204C177.389 174.289 178.534 172.577 178.534 170.58V133.22L211.32 114.352L211.34 114.34C212.863 113.424 214.009 111.713 214.009 109.716V69.11C214.009 67.2193 212.831 65.2623 211.132 64.4236L175.757 44.0456L175.745 44.0383C174.114 43.083 172.042 43.083 170.411 44.0385L170.399 44.0456L134.951 64.467L134.949 64.4681C133.141 65.5048 132.315 67.0311 132.328 69.0864V69.0874C132.328 69.1292 132.328 69.1681 132.328 69.204V106.563L107.583 120.788V49.033C107.583 47.1553 106.613 45.1554 104.909 44.2663ZM41.9642 49.1186L66.7062 34.8212L91.4418 49.0404L66.6999 63.3378L41.9642 49.1186ZM173.04 83.3326L148.311 69.117L173.04 54.9014L197.769 69.117L173.04 83.3326ZM72.024 72.5382L96.769 58.2409V126.833L80.8056 136.132L80.7995 136.135L72.024 141.213V72.5382ZM36.548 167.343L36.549 58.3301L61.294 72.6273V150.507C61.294 152.405 62.5713 154.317 64.2355 155.186L96.769 173.583V202L36.548 167.343ZM142.886 106.392V78.3232L167.631 92.6203V120.689L142.886 106.392ZM178.367 92.6263L203.112 78.3292V106.483L178.367 120.708V92.6263ZM104.792 134.541L137.566 115.679L162.283 129.888L102.086 164.287L77.4645 150.313L104.792 134.541ZM107.416 202.007V173.581L167.637 139.167V167.349L107.416 202.007Z"
    fill="#FF5252"
  />
</svg>
