<svg viewBox="0 0 1024 1024" xmlns="http://www.w3.org/2000/svg">
<path d="M1024 128C768 128 576 256 448 512L256 896L320 832L384 736C448 736 576 672 608 576C544 592 512 544 512 512C736 512 784 416 864 288C901.924 227.322 944 160 1024 128ZM80 192L64 320H96C112 240 112 224 159.242 224H176C184.837 224 192 231.163 192 240V592C192 600.837 192 608 160 608H128V640H320V608H288C256 608 256 600.837 256 592V240C256 231.163 263.163 224 272 224H288C336 224 336 240 352 320H384L368 192H80Z" fill="#26A69A"/>
</svg>
