<svg viewBox="0 0 1024 1024" xmlns="http://www.w3.org/2000/svg">
<path d="M768 704H576L597.334 640H746.666L768 704Z" fill="#4CAF50"/>
<path d="M725.334 576H618.666L672 416L725.334 576Z" fill="#4CAF50"/>
<path d="M864 64C881.728 64 896 78.272 896 96V928C896 945.728 881.728 960 864 960H512V1024L448 960H384L320 1024V960H256C185.747 960 128.713 903.401 128.008 833.314C128.003 832.877 128 832.439 128 832V192C128 121.308 185.308 64 256 64H864ZM512 704H192V800C192 853.184 234.816 896 288 896H320V832H512V896H832V704L704 320H640L512 704ZM448 192H256V256H512C512 289.778 485.324 342.11 438.053 400.959C430.796 409.993 422.985 419.235 414.93 428.57C410.451 423.328 406.092 418.109 401.928 412.936C370.55 373.95 352 336 352 320H288C288 368 317.45 410.049 352.072 453.064C358.374 460.894 365.005 468.691 371.752 476.454C336.622 514.007 297.503 553.244 257.373 593.373L302.627 638.627C341.551 599.703 379.905 561.32 415.195 523.744C432.377 541.614 449.523 558.777 465.373 574.627L510.627 529.373C493.828 512.574 475.883 494.572 458.318 476.203C468.619 464.39 478.628 452.643 487.948 441.041C538.675 377.889 576 318.222 576 256H704V192H512V128H448V192Z" fill="#4CAF50"/>
</svg>
