<svg viewBox="0 0 32 32" xmlns="http://www.w3.org/2000/svg">
  <path
    d="M6 16V22H2L6 16ZM11.106 9.46304L7.789 11.238C7.30614 11.5169 6.94595 11.9673 6.78011 12.4997C6.61427 13.032 6.65493 13.6073 6.894 14.111L7.227 14.821L14 11.571V11.378C14.0207 11.0272 13.9488 10.6772 13.7917 10.3629C13.6345 10.0486 13.3975 9.78108 13.1045 9.58717C12.8114 9.39325 12.4726 9.27971 12.1218 9.25793C11.7711 9.23615 11.4208 9.30688 11.106 9.46304ZM29.926 17.008C29.8494 16.7349 29.7155 16.4813 29.533 16.264L21.643 7.38104C21.2223 7.00332 20.6957 6.76392 20.1344 6.69524C19.5732 6.62656 19.0044 6.73191 18.505 6.99704L16 8.00004V12.559C16.0031 13.1742 15.8633 13.7816 15.5915 14.3335C15.3197 14.8853 14.9235 15.3665 14.434 15.739L16 20L24.457 22.204L29.081 19.225C29.4398 18.9938 29.7153 18.654 29.8673 18.2552C30.0193 17.8564 30.0399 17.4194 29.926 17.008Z"
    fill="#F44336"
  />
  <path
    fill-rule="evenodd"
    clip-rule="evenodd"
    d="M2 21.9999L6 19.9999L10 21.9999L6 23.9999L2 21.9999ZM14.434 15.7379C14.0642 16.015 13.6635 16.2482 13.24 16.4329L10.696 17.5689C9.83762 17.9005 8.91897 18.0474 8 17.9999V18.7639L17.71 23.6189C18.437 23.9719 19.253 24.0993 20.053 23.9849C20.9842 23.8748 21.8878 23.597 22.72 23.1649C23.3122 22.8695 23.8917 22.5492 24.457 22.2049L14.434 15.7379ZM7.464 14.1029L13.293 11.1659C13.3709 11.1297 13.4569 11.114 13.5426 11.1206C13.6284 11.1272 13.711 11.1557 13.7825 11.2034C13.854 11.2511 13.912 11.3164 13.951 11.393C13.99 11.4697 14.0086 11.555 14.005 11.6409C14.012 12.0579 14 12.5119 14 12.7939C14.0123 13.2326 13.8871 13.6641 13.642 14.0281C13.3969 14.3921 13.0441 14.6704 12.633 14.8239L9.646 15.8909C8.017 16.4719 6.543 14.5669 7.464 14.1029Z"
    fill="#F44336"
  />
</svg>
