<svg viewBox="0 0 300 300" xmlns="http://www.w3.org/2000/svg">
  <path
    d="M106.192 32.75V32.776C104.083 32.762 101.974 32.756 99.865 32.758C92.328 32.692 86.019 36.811 80.532 41.105C74.544 45.808 69.418 51.947 67.812 60.17C66.897 64.992 67.091 69.207 67.091 73.418V106.602C67.091 118.319 62.731 127.026 56.817 132.725C53.485 136.025 46.375 139.038 38.287 141.762V156.752C45.455 158.728 52.355 161.402 56.182 164.799C62.517 170.334 67.084 178.299 67.084 188.703V227.457C67.084 240.332 70.155 250.139 79.091 256.867C88.027 263.589 98.441 266.933 110.335 267.258L118.294 267.205V247.881C112.085 246.064 108.636 243.956 106.15 241.571C101.675 237.519 99.14 230.937 99.14 221.795V190.503C98.97 179.86 97.253 171.535 93.377 165.511C89.501 159.501 81.937 154.23 70.682 149.689C83.103 143.999 91.437 136.581 95.687 127.429C98.191 121.987 99.141 114.648 99.141 105.418V76.726C99.141 67.248 101.341 60.609 105.151 56.816C107.219 54.758 110.897 53.063 116.006 51.691L124.085 51.747V32.75H106.192ZM193.803 32.75V32.776C195.912 32.762 198.021 32.756 200.13 32.758C207.667 32.692 213.976 36.811 219.463 41.105C225.451 45.808 230.577 51.947 232.183 60.17C233.098 64.992 232.904 69.207 232.904 73.418V106.602C232.904 118.319 237.264 127.026 243.178 132.725C246.51 136.025 253.62 139.038 261.708 141.762V156.752C254.54 158.728 247.64 161.402 243.813 164.799C237.478 170.334 232.911 178.299 232.911 188.703V227.457C232.911 240.332 229.84 250.139 220.903 256.867C211.967 263.589 201.553 266.933 189.659 267.258L181.7 267.205V247.881C187.909 246.064 191.358 243.956 193.844 241.571C198.319 237.519 200.854 230.937 200.854 221.795V190.503C201.025 179.86 202.741 171.535 206.617 165.511C210.493 159.501 218.057 154.229 229.312 149.689C216.892 143.999 208.557 136.581 204.307 127.429C201.803 121.987 200.853 114.648 200.853 105.418V76.726C200.853 67.248 198.653 60.609 194.843 56.816C192.775 54.758 189.097 53.063 183.988 51.691L175.91 51.747V32.75H193.803Z"
    fill="#0277BD"
  />
</svg>
