<svg viewBox="0 0 16 16" xmlns="http://www.w3.org/2000/svg">
  <path
    d="M8.5 8.81098C8.5 8.28098 8.868 7.63698 9.32 7.37098L13.18 5.11398C13.632 4.84898 14 5.06198 14 5.59298V10.189C14 10.716 13.632 11.359 13.18 11.625L9.32 13.886C8.868 14.151 8.5 13.937 8.5 13.407V8.81098Z"
    fill="#69F0AE"
  />
  <path
    d="M2 5.59299C2 5.06299 2.368 4.84799 2.82 5.11399L6.68 7.37199C7.132 7.63599 7.5 8.28099 7.5 8.81199V13.407C7.5 13.937 7.132 14.151 6.68 13.887L2.82 11.625C2.368 11.361 2 10.716 2 10.185V5.59299Z"
    fill="#69F0AE"
  />
  <path
    d="M3.336 4.46701C2.888 4.19701 2.888 3.76101 3.336 3.49501L7.157 1.20201C7.604 0.932012 8.33 0.932012 8.777 1.20201L12.665 3.53401C13.112 3.80201 13.112 4.23601 12.665 4.50501L8.843 6.79901C8.396 7.06701 7.67 7.06701 7.219 6.79901L3.336 4.46701Z"
    fill="#69F0AE"
  />
</svg>
