<svg viewBox="0 0 24 24" xmlns="http://www.w3.org/2000/svg">
  <path
    d="M5.83639 20.0316C6.82722 20.145 7.9405 20.7599 8.87217 20.8685C9.80884 20.9818 10.0987 20.2574 10.0987 20.2574C10.0987 20.2574 11.1528 20.0316 12.2609 20.0056C13.3701 19.9758 14.4201 20.2266 14.4201 20.2266C14.4201 20.2266 14.6237 20.6734 15.0038 20.8685C15.3839 21.0674 16.2023 21.0943 16.7268 20.5648C17.2523 20.0316 18.6544 19.3599 19.4416 18.94C20.2339 18.5191 20.0885 17.8773 19.5911 17.6822C19.0937 17.4872 18.6865 17.1797 18.7176 16.5897C18.7447 16.0046 18.2783 15.6145 18.2783 15.6145C18.2783 15.6145 18.6865 14.3269 18.3064 13.2603C17.9263 12.1986 16.6727 10.4911 15.7089 9.20743C14.7452 7.91988 15.5635 6.43343 14.686 4.53377C13.8084 2.63126 11.5329 2.74371 10.3064 3.55463C9.07984 4.3656 9.45588 6.37668 9.51505 7.33085C9.57421 8.28017 9.54213 8.95948 9.42881 9.2036C9.31549 9.45148 8.52421 10.3518 7.99871 11.1061C7.47422 11.8642 7.09406 13.4295 6.70996 14.0752C6.33386 14.7171 6.59664 15.3022 6.59664 15.3022C6.59664 15.3022 6.33392 15.3887 6.12631 15.8096C5.92269 16.2257 5.51551 16.4245 4.78239 16.56C4.05428 16.7032 4.05428 17.1529 4.22981 17.6564C4.40629 18.1589 4.22981 18.4404 4.02619 19.0823C3.82263 19.7241 4.84156 19.9191 5.83639 20.0316ZM16.1361 17.1038C16.6566 17.3219 17.4047 17.0182 17.6324 16.8001C17.8591 16.583 18.0195 16.2601 18.0195 16.2601C18.0195 16.2601 18.2472 16.3687 18.2241 16.7136C18.2 17.0634 18.3805 17.562 18.7215 17.735C19.0625 17.907 19.583 18.1472 19.3132 18.3874C19.0384 18.6276 17.5181 19.2138 17.0638 19.6711C16.6135 20.1256 16.0218 20.4975 15.6617 20.3879C15.2977 20.2794 14.9797 19.8028 15.1362 19.1052C15.2977 18.4105 15.4341 17.6485 15.411 17.2132C15.387 16.778 15.2977 16.1919 15.411 16.1054C15.5243 16.0198 15.7049 16.0611 15.7049 16.0611C15.7049 16.0611 15.6145 16.8867 16.1361 17.1038ZM12.7584 5.34474C13.2598 5.34474 13.664 5.82131 13.664 6.40743C13.664 6.82348 13.4604 7.18383 13.1625 7.3568C13.0873 7.32703 13.0091 7.29337 12.9228 7.25874C13.1034 7.17326 13.2287 6.95514 13.2287 6.70337C13.2287 6.37383 13.0171 6.10286 12.7513 6.10286C12.4926 6.10286 12.2769 6.37377 12.2769 6.70337C12.2769 6.82354 12.308 6.9436 12.3591 7.03777C12.2027 6.9772 12.0613 6.92537 11.948 6.88405C11.8888 6.74086 11.8537 6.57943 11.8537 6.40748C11.8537 5.82137 12.2569 5.34474 12.7584 5.34474ZM11.5168 7.17617C11.7635 7.21748 12.4414 7.49903 12.6922 7.58548C12.9429 7.66811 13.2207 7.82183 13.1936 7.9756C13.1625 8.13411 13.0332 8.13411 12.6922 8.33303C12.3552 8.52811 11.6191 8.96337 11.3834 8.99314C11.1487 9.02291 11.0153 8.89605 10.7645 8.74137C10.5138 8.58377 10.0435 8.21577 10.1618 8.02074C10.1618 8.02074 10.5299 7.75074 10.6904 7.6124C10.8509 7.4692 11.266 7.13194 11.5168 7.17617ZM10.4356 5.51388C10.8308 5.51388 11.1527 5.96451 11.1527 6.51988C11.1527 6.6208 11.1407 6.71491 11.1216 6.80908C11.0233 6.83886 10.9251 6.88788 10.8308 6.96668C10.7846 7.00417 10.7415 7.03777 10.7024 7.07526C10.7645 6.96286 10.7886 6.80143 10.7606 6.63228C10.7064 6.33251 10.4948 6.11057 10.2872 6.14034C10.0785 6.174 9.95419 6.4488 10.0044 6.75246C10.0595 7.05994 10.2671 7.28183 10.4787 7.24823C10.4907 7.2444 10.5018 7.24057 10.5138 7.23668C10.4125 7.33085 10.3182 7.41348 10.22 7.48074C9.93415 7.35291 9.72254 6.97051 9.72254 6.51988C9.7226 5.96068 10.0395 5.51388 10.4356 5.51388ZM8.23429 12.7838C8.64147 12.1689 8.90419 10.8246 9.31137 10.3778C9.7226 9.93194 10.0395 8.98165 9.89509 8.56177C9.89509 8.56177 10.7726 9.56777 11.3834 9.40251C11.9951 9.23337 13.3701 8.25428 13.5737 8.42245C13.7773 8.59154 15.5283 12.2813 15.7048 13.4564C15.8814 14.6306 15.5875 15.5281 15.5875 15.5281C15.5875 15.5281 14.9176 15.3589 14.8313 15.749C14.7451 16.143 14.7451 17.5699 14.7451 17.5699C14.7451 17.5699 13.8395 18.771 12.4374 18.9698C11.0353 19.1649 10.3333 19.0227 10.3333 19.0227L9.546 18.1588C9.546 18.1588 10.1578 18.0724 10.0715 17.4834C9.98527 16.8982 8.20209 16.0872 7.88115 15.3589C7.56034 14.6305 7.82211 13.3997 8.23429 12.7838ZM4.7673 17.1903C4.8375 16.902 5.74609 16.9021 6.09511 16.6993C6.44414 16.4966 6.51428 15.9143 6.79615 15.7606C7.0739 15.603 7.58742 16.1622 7.79903 16.4773C8.00664 16.7848 8.80197 18.1291 9.1269 18.4634C9.45582 18.8007 9.75773 19.2475 9.66344 19.6491C9.57421 20.0507 9.07978 20.3438 9.07978 20.3438C8.63753 20.4745 7.40396 19.9643 6.84338 19.7394C6.28281 19.5136 4.85665 19.4463 4.67313 19.2475C4.4846 19.0447 4.76337 18.5979 4.83756 18.1742C4.9037 17.7456 4.69615 17.4795 4.7673 17.1903Z"
    fill="#F5C11C"
  />
</svg>
