<svg width="36" height="35" viewBox="0 0 36 35" fill="none" xmlns="http://www.w3.org/2000/svg">
<path d="M3.419 0.179993H7.104V26.17L8.73 24.544V2.46997H11.565V21.709L13.372 19.902H13.36V2.52002H16.195V17.079L18.002 15.272H17.99V2.46997H20.825V12.449L22.53 10.744H22.526V2.48999H25.361V7.91296L26.783 6.49097V2.46002H29.618V5.65503H32.809V8.48999H28.793L27.368 9.91498H32.781V12.75H24.533L22.838 14.445H32.801V17.28H20.003L18.208 19.075H32.753V21.91H15.373L13.578 23.705H32.801V26.54H10.743L9.08301 28.2H35.074V31.885H7.104V34.387H3.419V31.885H0.866997V28.2H3.419V0.179993Z" fill="#317EAC"/>
</svg>
