<svg
  width="40"
  height="40"
  viewBox="0 0 40 40"
  fill="none"
  xmlns="http://www.w3.org/2000/svg"
>
  <path
    d="M5.419 3.17999H9.104V29.17L10.73 27.544V5.47002H13.565V24.709L15.372 22.902H15.36V5.52002H18.195V20.079L20.002 18.272H19.99V5.47002H22.825V15.449L24.53 13.744H24.526V5.49002H27.361V10.913L28.783 9.49097V5.46002H31.618V8.65503H34.809V11.49H30.7929L29.3679 12.915H34.781V15.75H26.5329L24.8379 17.445H34.801V20.28H22.0029L20.2079 22.075H34.753V24.91H17.3729L15.5779 26.705H34.801V29.54H12.7429L11.083 31.2H37.074V34.885H9.104V37.387H5.419V34.885H2.867V31.2H5.419V3.17999Z"
    fill="#317EAC"
  />
</svg>
