<svg viewBox="0 0 24 24" xmlns="http://www.w3.org/2000/svg">
  <path
    d="M7.41728 2.7218C4.82398 2.7218 2.72168 4.8241 2.72168 7.4174V16.5826C2.72168 19.1759 4.82398 21.2782 7.41728 21.2782H16.5825C19.1758 21.2782 21.2781 19.1759 21.2781 16.5826V7.4174C21.2781 4.8241 19.1758 2.7218 16.5825 2.7218H7.41728ZM16.8224 6.8783H16.8236C16.9437 6.87831 17.0628 6.90189 17.1738 6.94778C17.2852 6.99383 17.3863 7.06141 17.4715 7.14662C17.6 7.27492 17.6876 7.43853 17.723 7.61658C17.7584 7.79463 17.7403 7.97912 17.6708 8.14681C17.6013 8.31455 17.4836 8.45793 17.3326 8.5587C17.1816 8.65947 17.0039 8.71313 16.8224 8.71288C14.8825 8.71288 14.1298 9.89348 13.1212 11.8372L12.4994 13.0086C11.5483 14.8413 10.3684 17.1217 7.16974 17.1217C7.04921 17.1219 6.92991 17.0982 6.81852 17.0522C6.7071 17.0062 6.60584 16.9388 6.52057 16.8536C6.43529 16.7684 6.36766 16.6673 6.32153 16.5558C6.25199 16.3882 6.23363 16.2036 6.26907 16.0256C6.30451 15.8475 6.39212 15.684 6.52057 15.5556C6.60582 15.4704 6.70712 15.4028 6.81852 15.3568C6.92992 15.3108 7.04919 15.2871 7.16974 15.2873C9.10964 15.2873 9.86244 14.1065 10.8709 12.1628L11.4965 10.9914C12.4473 9.15941 13.6267 6.8802 16.8224 6.8783Z"
    fill="#00BFA5"
  />
</svg>
