<svg viewBox="0 0 24 24" xmlns="http://www.w3.org/2000/svg">
  <path
    d="M12.127 5.64398C10.4078 5.64424 8.75906 6.31664 7.54347 7.51328C6.32789 8.70992 5.645 10.3328 5.645 12.025C5.64527 13.717 6.32828 15.3396 7.54383 16.536C8.75939 17.7325 10.408 18.4047 12.127 18.405C13.8464 18.4052 15.4955 17.7332 16.7115 16.5367C17.9274 15.3403 18.6107 13.7173 18.611 12.025C18.6107 10.3326 17.9274 8.70971 16.7115 7.51323C15.4955 6.31675 13.8464 5.64472 12.127 5.64498V5.64398ZM13.987 7.55998C14.293 7.55985 14.5961 7.61908 14.8788 7.73426C15.1616 7.84945 15.4185 8.01835 15.6349 8.2313C15.8512 8.44425 16.0229 8.69708 16.1399 8.97534C16.257 9.2536 16.3171 9.55183 16.317 9.85298C16.3167 10.4609 16.0711 11.0437 15.6341 11.4734C15.1972 11.903 14.6047 12.1442 13.987 12.144C13.3697 12.144 12.7776 11.9028 12.3409 11.4734C11.9042 11.044 11.6585 10.4615 11.658 9.85398C11.6577 9.55291 11.7177 9.25473 11.8346 8.97649C11.9515 8.69824 12.1229 8.44538 12.3391 8.23235C12.5553 8.01932 12.812 7.85029 13.0946 7.73492C13.3772 7.61956 13.6811 7.56011 13.987 7.55998Z"
    fill="#42A5F5"
  />
  <path
    d="M17.8076 2.86669C16.1296 1.79748 14.1372 1.17798 12 1.17798C6.02317 1.17798 1.178 6.02315 1.178 12C1.178 17.9768 6.02317 22.822 12 22.822C17.9768 22.822 22.822 17.9768 22.822 12C22.822 9.83251 22.1848 7.81386 21.0875 6.12114C21.5015 5.7074 21.757 5.13957 21.757 4.51301C21.757 3.24717 20.7143 2.22101 19.428 2.22101C18.7982 2.22101 18.2268 2.46701 17.8076 2.86669ZM12 2.17798C13.9311 2.17798 15.732 2.73525 17.2506 3.69774C17.1527 3.95104 17.099 4.22586 17.099 4.51301C17.099 5.77884 18.1417 6.80501 19.428 6.80501C19.7155 6.80501 19.9908 6.75375 20.245 6.66003C21.2426 8.19722 21.822 10.0309 21.822 12C21.822 17.4245 17.4245 21.822 12 21.822C6.57546 21.822 2.178 17.4245 2.178 12C2.178 6.57544 6.57546 2.17798 12 2.17798Z"
    fill="#42A5F5"
  />
</svg>
