<svg width="24" height="24" viewBox="0 0 24 24" fill="none" xmlns="http://www.w3.org/2000/svg">
<path d="M22.8 12C22.8 17.9647 17.9647 22.8 12 22.8C6.03534 22.8 1.20001 17.9647 1.20001 12C1.20001 6.03533 6.03534 1.2 12 1.2C17.9647 1.2 22.8 6.03533 22.8 12ZM21.8001 12C21.8001 6.58761 17.4125 2.2 12.0001 2.2C6.58768 2.2 2.20007 6.58761 2.20007 12C2.20007 17.4124 6.58768 21.8 12.0001 21.8C17.4125 21.8 21.8001 17.4124 21.8001 12Z" fill="#42A5F5"/>
<path d="M12.127 5.644C10.4078 5.64426 8.75907 6.31666 7.54349 7.5133C6.32791 8.70994 5.64502 10.3328 5.64502 12.025C5.64529 13.717 6.3283 15.3396 7.54385 16.5361C8.7594 17.7325 10.408 18.4047 12.127 18.405C13.8464 18.4053 15.4955 17.7332 16.7115 16.5367C17.9275 15.3403 18.6107 13.7173 18.611 12.025C18.6107 10.3327 17.9275 8.70973 16.7115 7.51325C15.4955 6.31677 13.8464 5.64374 12.127 5.644ZM13.987 7.56C14.293 7.55987 14.5961 7.61909 14.8788 7.73428C15.1616 7.84947 15.4185 8.01837 15.6349 8.23132C15.8513 8.44427 16.0229 8.6971 16.1399 8.97536C16.257 9.25361 16.3172 9.55184 16.317 9.853C16.3168 10.4609 16.0711 11.0437 15.6342 11.4734C15.1972 11.903 14.6047 12.1443 13.987 12.144C13.3697 12.144 12.7776 11.9028 12.3409 11.4734C11.9042 11.044 11.6586 10.4615 11.658 9.854C11.6578 9.55293 11.7178 9.25475 11.8346 8.9765C11.9515 8.69826 12.1229 8.4454 12.3391 8.23237C12.5553 8.01934 12.812 7.85031 13.0946 7.73494C13.3772 7.61958 13.6811 7.56013 13.987 7.56Z" fill="#42A5F5"/>
<path d="M19.428 6.805C18.1417 6.805 17.099 5.77884 17.099 4.513C17.099 3.24716 18.1417 2.221 19.428 2.221C20.7143 2.221 21.757 3.24716 21.757 4.513C21.757 5.77884 20.7143 6.805 19.428 6.805Z" fill="#42A5F5"/>
</svg>
