<svg viewBox="0 0 40 40" xmlns="http://www.w3.org/2000/svg">
  <path
    d="M28.6727 27.938C28.7794 30.1156 26.0074 31.59 24.2612 30.2843C22.4136 29.1629 22.7138 26.0765 24.7419 25.3309C26.5381 24.5148 28.7259 25.9634 28.6727 27.938Z"
    fill="#ffffff"
  />
  <path
    d="M21.995 29.1267C21.5919 29.2302 21.1799 29.3056 20.7612 29.3503C16.1395 30.0417 11.3636 26.8846 10.1729 22.37C8.82977 17.9715 11.131 12.8637 15.3097 10.9484C19.492 8.83235 25.0416 10.3361 27.5826 14.275C28.6635 15.8669 29.2478 17.7852 29.2425 19.7091C29.2801 21.4136 28.8049 23.0726 27.9618 24.5222C26.8964 23.8591 25.5361 23.6694 24.286 24.2202C22.7766 24.7954 21.9846 26.2033 21.8538 27.5507C21.8038 28.0649 21.8467 28.6063 21.995 29.1267ZM26.042 15.1644C25.8598 13.5531 24.0596 12.2357 22.5411 12.6008C20.4953 12.9212 20.1679 15.9235 22.0422 17.1835C23.8119 18.6203 26.4486 17.2896 26.042 15.1644Z"
    fill="#ffffff"
  />
  <path
    d="M32.1623 9.6914C32.269 11.869 29.4969 13.3434 27.7508 12.0377C25.9032 10.9163 26.2034 7.82994 28.2314 7.08431C30.0276 6.26822 32.2154 7.71679 32.1623 9.6914Z"
    fill="#ffffff"
  />
  <path
    d="M9.96991 14.4321C10.0809 16.5657 7.24787 17.9016 5.67212 16.4591C3.96667 15.1942 4.71508 12.1799 6.81363 11.8587C8.38908 11.4922 10.0124 12.8146 9.96991 14.4321Z"
    fill="#ffffff"
  />
  <path
    d="M37.1989 12.3326C37.2032 15.0093 32.8364 13.686 34.34 11.4587C35.1301 10.1823 37.2573 10.8314 37.1989 12.3326Z"
    fill="#ffffff"
  />
  <path
    d="M22.9283 3.11541C22.8336 3.0225 22.706 2.971 22.5734 2.97222C22.4921 2.97297 22.413 2.9935 22.3426 3.03107L3.36536 9.53543C3.16324 9.6047 3.02747 9.79475 3.02747 10.0084V10.191C3.01899 10.2264 3.01433 10.2629 3.01377 10.2999C3.01312 10.342 3.01781 10.3837 3.02747 10.424V25.7662C3.0092 25.9132 3.0562 26.0669 3.16867 26.1803L15.4322 38.5427C15.5274 38.6387 15.652 38.688 15.7773 38.6905C15.8383 38.6925 15.9 38.6834 15.9592 38.6627L35.0464 31.9817C35.1012 31.9778 35.1559 31.9648 35.2082 31.9423C35.273 31.9145 35.3297 31.8739 35.376 31.8244C35.4781 31.7316 35.5397 31.5983 35.5397 31.4543L35.5397 15.6723C35.5397 15.5101 35.4611 15.3581 35.3288 15.2643C35.3077 15.2493 35.2856 15.2362 35.2628 15.2248L32.3385 12.3539C32.0125 12.7015 31.6316 12.9881 31.2286 13.2024C31.1654 13.236 31.101 13.2682 31.0355 13.2989L33.5 15.5C34 16 33.9235 16.5057 33.9235 17.2212L33.9235 28.9548C33.9235 30.4722 34.0137 30.4722 33.5744 30.8107L17.5137 36.4722C16.0137 36.9722 16 37 15.0137 35.9722L6 27C5 26 4.61807 24.8375 4.61807 23.3937V17.0964C3.59066 16.1043 3.37188 14.6709 3.66544 13.4882C3.91754 12.4724 5.0086 10.8067 6.06241 10.2925L21 5.3C22 5 22.5 5 23.0782 5.48673L25.6711 8.03234C25.8771 7.54226 26.1798 7.08297 26.582 6.70244L22.9283 3.11541Z"
    fill="#ffffff"
  />
</svg>
