<svg viewBox="0 0 40 40" xmlns="http://www.w3.org/2000/svg">
  <path
    d="M34.4969 15.2057V15.2102L34.526 15.2L34.526 30.9821L34.497 30.9922V31.0294L34.469 31.002L15.2803 37.7185V37.7116L15.2734 37.7184L3.00993 25.3559L3.01378 25.3521V9.8495L3 9.83529L3.01378 9.82193V9.53621L22.0543 3.01017L22.0643 3L26.4114 7.26776C26.2895 7.42854 26.1849 7.60146 26.0977 7.78264L22.0645 3.82298V9.6812C21.8693 9.61933 21.6723 9.56319 21.4739 9.51285V3.83344L3.84361 9.87611C4.34621 10.3947 4.85142 10.9167 5.35856 11.4412C5.19055 11.5421 5.03659 11.6612 4.89743 11.7948C4.46484 11.3474 4.03368 10.9019 3.60438 10.4588V24.5345L9.55387 22.5022C9.61654 22.6894 9.68521 22.8741 9.75963 23.056L3.62152 25.1528L15.2803 36.9056V28.4936C15.4752 28.574 15.6725 28.6483 15.8719 28.7164V36.8846L33.9344 30.5623V30.4778L27.638 24.3045C27.7429 24.1303 27.8426 23.953 27.9368 23.773L33.9098 29.6268L33.9098 16.0434L28.9383 17.7893C28.91 17.5913 28.8758 17.3942 28.8356 17.1983L33.883 15.4258L30.278 11.8866C30.4541 11.7922 30.6227 11.6817 30.7801 11.5567L34.4969 15.2057Z"
    fill="#2c4067"
  />
  <path
    d="M9.60437 15.8397L9.27181 15.4949C9.16223 15.655 9.03594 15.803 8.89663 15.9375L9.40141 16.4608C9.46251 16.2517 9.53023 16.0446 9.60437 15.8397Z"
    fill="#2c4067"
  />
  <path
    d="M36.6989 11.8326C36.7032 14.5094 32.3364 13.186 33.84 10.9588C34.6301 9.68226 36.7573 10.3314 36.6989 11.8326Z"
    fill="#2c4067"
  />
  <path
    d="M9.46987 13.9322C9.58085 16.0657 6.74783 17.4016 5.17208 15.9591C3.46663 14.6942 4.21504 11.68 6.31359 11.3587C7.88904 10.9922 9.5124 12.3146 9.46987 13.9322Z"
    fill="#2c4067"
  />
  <path
    d="M27.2508 11.5377C28.9969 12.8434 31.769 11.369 31.6623 9.1914C31.7154 7.21679 29.5276 5.76823 27.7314 6.58432C25.7034 7.32995 25.4032 10.4163 27.2508 11.5377Z"
    fill="#2c4067"
  />
  <path
    d="M28.1727 27.438C28.2794 29.6155 25.5074 31.09 23.7612 29.7843C21.9136 28.6629 22.2138 25.5765 24.2419 24.8309C26.0381 24.0148 28.2259 25.4634 28.1727 27.438Z"
    fill="#2c4067"
  />
  <path
    d="M24.1469 24.5995C25.0906 24.1744 26.1287 24.3173 26.9458 24.8201C28.1071 23.1977 28.7872 21.2356 28.7425 19.2092C28.7478 17.2853 28.1635 15.367 27.0826 13.775C24.5416 9.83616 18.992 8.33243 14.8097 10.4485C10.631 12.3638 8.32975 17.4716 9.67292 21.8701C10.8636 26.3847 15.6395 29.5418 20.2612 28.8504C20.9992 28.7715 21.7165 28.5975 22.401 28.3418C22.2929 27.9522 22.2606 27.5421 22.2994 27.1425C22.4039 26.0664 23.0295 25.0145 24.1469 24.5995ZM25.5421 14.6645C25.9486 16.7897 23.3119 18.1204 21.5422 16.6836C19.6679 15.4236 19.9953 12.4213 22.0411 12.1009C23.5596 11.7358 25.3599 13.0532 25.5421 14.6645Z"
    fill="#2c4067"
  />
</svg>
