<svg viewBox="0 0 40 40" xmlns="http://www.w3.org/2000/svg">
  <path
    d="M35.3151 15.2921C35.338 15.3034 35.2939 15.2771 35.3151 15.2921C35.4474 15.3858 35.526 15.5379 35.526 15.7L35.526 31.482C35.526 31.6258 35.4646 31.759 35.3627 31.8518C35.3163 31.9015 35.2594 31.9422 35.1945 31.9701C35.1421 31.9926 35.0873 32.0057 35.0325 32.0096L15.9455 38.6904C15.887 38.7109 15.8261 38.72 15.7658 38.7183C15.6397 38.7164 15.5143 38.6671 15.4185 38.5705L3.15496 26.208C3.04246 26.0946 2.99546 25.9409 3.01378 25.7938V10.4519C3.00411 10.4115 2.99941 10.3698 3.00006 10.3276C3.00062 10.2906 3.00529 10.2541 3.01378 10.2187V10.0362C3.01378 9.82252 3.14955 9.63247 3.35167 9.56319L22.3283 3.05906C22.516 2.95853 22.7546 2.98618 22.9146 3.14321L26.7113 6.87063C26.3077 7.25075 26.0085 7.71526 25.8114 8.21135L23.0645 5.51453V9.60471C22.5457 9.42466 22.0135 9.28286 21.4739 9.18093V5.03334L5.25156 10.5934L5.77756 11.1352C4.75045 11.6107 4.0912 12.5755 3.84583 13.5642C3.57965 14.6366 3.75713 15.912 4.60438 16.8375V24.3353L9.24032 22.7517C9.38375 23.2669 9.56892 23.7654 9.79133 24.2443L5.03903 25.8677L15.2803 36.1916V29.5466C15.7955 29.773 16.3278 29.9599 16.8719 30.1034V36.6799L33.5607 30.8384L29.5848 27.0702C29.4334 26.4038 29.0972 25.8096 28.6416 25.331C28.8192 25.0473 28.9839 24.7556 29.1347 24.4568L33.9098 28.9826L33.9098 17.249L30.1821 18.5581C30.1246 18.0235 30.0265 17.4935 29.8895 16.9739L33.4598 15.7201L30.8691 13.1767C30.9549 13.1384 31.0389 13.0973 31.121 13.0537C31.5078 12.848 31.8717 12.5736 32.1822 12.2417C33.2267 13.2671 34.2773 14.2731 35.3151 15.2921Z"
    fill="#fff"
  />
  <path
    d="M28.6727 27.9381C28.7795 30.1156 26.0074 31.59 24.2613 30.2844C22.4137 29.163 22.7138 26.0766 24.7419 25.331C26.5381 24.5149 28.7259 25.9635 28.6727 27.9381Z"
    fill="#fff"
  />
  <path
    fill-rule="evenodd"
    clip-rule="evenodd"
    d="M27.8596 24.6942C26.8455 24.0617 25.5501 23.88 24.362 24.4054C22.935 24.9469 22.1782 26.28 22.0529 27.5701C22.005 28.0629 22.0464 28.5796 22.1881 29.0749C21.7237 29.2054 21.247 29.2986 20.7612 29.3505C16.1395 30.0419 11.3636 26.8847 10.1729 22.3702C8.82975 17.9717 11.131 12.8639 15.3097 10.9486C19.492 8.8325 25.0416 10.3362 27.5826 14.2751C28.6635 15.8671 29.2478 17.7853 29.2425 19.7092C29.2816 21.4815 28.7663 23.2046 27.8596 24.6942ZM22.0422 17.1837C23.8119 18.6204 26.4486 17.2898 26.0421 15.1646C25.8599 13.5533 24.0596 12.2359 22.5411 12.6009C20.4953 12.9213 20.1679 15.9237 22.0422 17.1837Z"
    fill="#fff"
  />
  <path
    d="M32.1623 9.69149C32.269 11.8691 29.497 13.3435 27.7508 12.0378C25.9032 10.9164 26.2034 7.83004 28.2314 7.08441C30.0276 6.26832 32.2155 7.71688 32.1623 9.69149Z"
    fill="#fff"
  />
  <path
    d="M9.96992 14.4322C10.0809 16.5658 7.24787 17.9017 5.67212 16.4592C3.96668 15.1943 4.71509 12.18 6.81364 11.8588C8.38909 11.4923 10.0124 12.8147 9.96992 14.4322Z"
    fill="#fff"
  />
  <path
    d="M37.1989 12.3327C37.2033 15.0094 32.8365 13.6861 34.3401 11.4588C35.1301 10.1823 37.2574 10.8315 37.1989 12.3327Z"
    fill="#fff"
  />
</svg>
