<svg
  width="24"
  height="24"
  viewBox="0 0 24 24"
  fill="none"
  xmlns="http://www.w3.org/2000/svg"
>
  <path
    d="M3.999 5.51998L3.997 5.52098L3.99921 5.52458C3.65738 6.08296 3.31284 6.64079 2.96828 7.19865C2.65351 7.70828 2.33873 8.21792 2.026 8.72802C1.62685 9.37519 1.22845 10.0294 0.82988 10.6839C0.574423 11.1034 0.318829 11.5231 0.0629997 11.941L0.0649997 11.943L0.0629997 11.945C0.307549 12.3445 0.55182 12.7454 0.79602 13.1462C1.20582 13.8187 1.61561 14.4913 2.026 15.156C2.3599 15.7015 2.69641 16.2469 3.03299 16.7925C3.35665 17.3172 3.68043 17.842 4.002 18.367H7.332C6.77872 17.4754 6.23239 16.5839 5.68606 15.6923L5.358 15.157C5.12769 14.7796 4.89725 14.4015 4.66673 14.0232C4.24378 13.3292 3.82022 12.6341 3.397 11.943C3.75036 11.366 4.10372 10.7857 4.45693 10.2057C4.75741 9.71228 5.05784 9.21893 5.358 8.72802L5.65719 8.23889C5.75848 8.40399 5.85975 8.56873 5.961 8.73298C6.2729 9.24249 6.58706 9.75201 6.90123 10.2615C7.24683 10.822 7.59242 11.3825 7.935 11.943H11.266C11.5935 11.408 11.9233 10.873 12.253 10.338C12.5828 9.80298 12.9125 9.26798 13.24 8.73298C13.3422 8.56748 13.4443 8.40149 13.5465 8.23513L13.848 8.72798C14.1482 9.21889 14.4485 9.71213 14.749 10.2055C15.1022 10.7856 15.4556 11.3659 15.809 11.943C15.4492 12.5306 15.0894 13.1208 14.7298 13.7109C14.4357 14.1933 14.1417 14.6756 13.848 15.156C13.1934 16.228 12.5354 17.298 11.874 18.366H15.204C15.5415 17.8141 15.8815 17.2627 16.2213 16.7114L16.222 16.7104C16.5414 16.1923 16.8607 15.6742 17.178 15.156C17.592 14.4859 18.0061 13.8079 18.4204 13.1294C18.6615 12.7346 18.9027 12.3396 19.144 11.946L19.142 11.943L19.144 11.941C18.9171 11.5703 18.6901 11.1981 18.4631 10.8259C18.035 10.1237 17.6067 9.42137 17.178 8.72798C16.8505 8.19301 16.5208 7.65829 16.1911 7.12356C15.8613 6.58879 15.5315 6.05401 15.204 5.51898H11.87C11.5591 6.02712 11.2485 6.53707 10.9378 7.04701C10.595 7.60984 10.2521 8.17265 9.909 8.73298L9.60082 9.2374L9.292 8.73298C8.97674 8.21736 8.66148 7.69965 8.34611 7.18175C8.00835 6.62709 7.67016 6.07172 7.332 5.51898L3.999 5.51998Z"
    fill="#F44336"
  />
  <path
    d="M18.714 8.72798C18.0593 7.6566 17.4013 6.58726 16.74 5.51998L20.07 5.51898C20.3975 6.05398 20.7272 6.58873 21.057 7.12348C21.3867 7.65823 21.7165 8.19298 22.044 8.72798C22.4727 9.42138 22.901 10.1237 23.3291 10.8259C23.5561 11.1981 23.7831 11.5703 24.01 11.941L24.008 11.943L24.01 11.945C23.7524 12.3652 23.4949 12.7869 23.2376 13.2084C22.8396 13.8604 22.4418 14.512 22.044 15.157C21.7165 15.692 21.3867 16.227 21.057 16.762C20.7272 17.297 20.3975 17.832 20.07 18.367H16.74C17.404 17.296 18.059 16.226 18.714 15.156C18.9968 14.6934 19.2795 14.2291 19.5623 13.7646C19.9324 13.1567 20.3027 12.5484 20.674 11.943C20.3088 11.3475 19.9445 10.7487 19.5805 10.1502C19.2917 9.67522 19.0029 9.20053 18.714 8.72798Z"
    fill="#F44336"
  />
</svg>
