<svg width="25" height="14" viewBox="0 0 25 14" fill="none" xmlns="http://www.w3.org/2000/svg">
<path d="M3.999 0.52002L3.997 0.520996L3.9992 0.524597C3.65984 1.07898 3.31781 1.63281 2.97574 2.18671L2.97331 2.19055L2.96832 2.19861L2.96223 2.2085L2.57266 2.83948C2.39002 3.13556 2.20766 3.4317 2.026 3.72803C1.6264 4.37592 1.22754 5.03088 0.828522 5.6861L0.825203 5.69159L0.531837 6.17316C0.375633 6.42944 0.219376 6.68555 0.0630035 6.94098L0.0650024 6.94299L0.0630035 6.94501C0.298683 7.33002 0.534096 7.71631 0.769432 8.10248L0.796074 8.14624L0.800674 8.15375L0.803535 8.15851C1.2109 8.82703 1.61806 9.49518 2.026 10.156C2.36013 10.7018 2.69686 11.2477 3.03368 11.7936C3.35712 12.3179 3.68064 12.8423 4.002 13.367H7.332C6.77921 12.4762 6.23335 11.5854 5.68748 10.6946L5.68568 10.6917L5.358 10.157C5.1812 9.86725 5.00433 9.57715 4.82739 9.2868L4.65448 9.00305C4.2355 8.31555 3.81625 7.62762 3.397 6.94299C3.74453 6.37549 4.09206 5.80487 4.43943 5.2345L4.45703 5.20557C4.66282 4.86761 4.86856 4.52979 5.07422 4.19269L5.65719 3.23889C5.75848 3.40399 5.85975 3.56873 5.961 3.73297C6.27291 4.24249 6.5871 4.75201 6.90128 5.26154C7.24686 5.82202 7.59244 6.38251 7.935 6.94299H11.266C11.5935 6.40796 11.9232 5.87299 12.253 5.33801C12.5827 4.80298 12.9125 4.26794 13.24 3.73297C13.3422 3.5675 13.4443 3.40149 13.5465 3.23517C13.6471 3.39941 13.7476 3.56366 13.848 3.72803C14.1481 4.21893 14.4485 4.7121 14.749 5.20551C15.1022 5.78558 15.4556 6.36591 15.809 6.94299C15.4494 7.53027 15.0897 8.1203 14.7302 8.71008C14.436 9.19281 14.1419 9.67529 13.848 10.156C13.1934 11.2281 12.5354 12.298 11.874 13.366H15.204C15.542 12.8133 15.8824 12.2612 16.2228 11.7091C16.5419 11.1914 16.861 10.6738 17.178 10.156C17.5921 9.48584 18.0062 8.80774 18.4205 8.12921C18.6616 7.73444 18.9027 7.33954 19.144 6.94598L19.142 6.94299L19.144 6.94098C18.9175 6.57098 18.691 6.19958 18.4645 5.82812L18.4573 5.81622C18.0311 5.11737 17.6048 4.41827 17.178 3.72803C16.8505 3.19299 16.5208 2.65826 16.191 2.12354C15.8613 1.58875 15.5315 1.05396 15.204 0.518982H11.87C11.56 1.0257 11.2502 1.53424 10.9405 2.04272C10.5967 2.60699 10.253 3.1712 9.909 3.73297C9.80635 3.90118 9.70363 4.06927 9.60081 4.23737L9.292 3.73297C8.97613 3.21637 8.66026 2.69763 8.34427 2.17871L8.33182 2.1582C8.15591 1.86938 7.97997 1.58051 7.80396 1.29187C7.64669 1.03394 7.48937 0.776245 7.332 0.518982L3.999 0.52002Z" fill="#2196F3"/>
<path d="M18.714 3.72803C18.0593 2.65662 17.4013 1.58728 16.74 0.52002L20.07 0.518982C20.3975 1.05396 20.7272 1.58875 21.057 2.12354C21.3867 2.65826 21.7165 3.19299 22.044 3.72803C22.4733 4.4223 22.9021 5.12555 23.3308 5.82855C23.5572 6.19989 23.7836 6.57117 24.01 6.94098L24.008 6.94299L24.01 6.94501C23.7527 7.36475 23.4955 7.78595 23.2385 8.20703C22.8402 8.85944 22.4421 9.51154 22.044 10.157C21.7165 10.692 21.3867 11.227 21.057 11.762C20.7272 12.297 20.3975 12.832 20.07 13.367H16.74C17.404 12.296 18.059 11.226 18.714 10.156C18.8493 9.93463 18.9846 9.71289 19.1199 9.49097C19.6374 8.64197 20.1547 7.78961 20.674 6.94299C20.3087 6.34735 19.9443 5.74829 19.5802 5.14966C19.2914 4.67493 19.0028 4.20038 18.714 3.72803Z" fill="#2196F3"/>
</svg>
