<svg viewBox="0 0 23 24" xmlns="http://www.w3.org/2000/svg">
  <path
    d="M11.5373 1.13503C11.7102 1.12623 11.8675 1.23314 11.9234 1.396C12.6395 2.4448 13.2209 3.60554 13.8598 4.70278C15.072 4.17149 16.2861 3.64459 17.4958 3.10783C17.5453 3.08587 17.5989 3.07453 17.653 3.07453H17.695C17.909 3.07453 18.0825 3.24802 18.0825 3.46203V3.48203C18.0825 3.49507 18.0818 3.50811 18.0805 3.52109L17.6789 7.48551L21.5302 8.33069L21.562 8.33705C21.7431 8.37328 21.8735 8.53231 21.8735 8.71703V8.78203C21.8735 8.89844 21.8212 9.00793 21.7324 9.08109L19.1467 11.9869C20.0126 12.9595 20.8803 13.9298 21.7443 14.9041C21.8264 14.9776 21.8735 15.0826 21.8735 15.193V15.258C21.8735 15.4571 21.7227 15.6238 21.5246 15.6436L21.4783 15.6482C20.2109 15.9354 18.9474 16.2138 17.6769 16.4901C17.8509 17.7819 17.9377 19.0898 18.0734 20.3877C18.0748 20.4011 18.0755 20.4146 18.0755 20.428V20.513C18.0755 20.727 17.902 20.9005 17.688 20.9005H17.653C17.5992 20.9005 17.5459 20.8893 17.4967 20.8676L13.8611 19.2644C13.2014 20.3791 12.5613 21.5042 11.9019 22.6183C11.8445 22.765 11.7023 22.8645 11.541 22.8645H11.449C11.2878 22.8645 11.1443 22.7648 11.0872 22.6157C10.439 21.5023 9.78834 20.3903 9.13296 19.2812L9.12764 19.2719L5.49486 20.8678C5.44573 20.8894 5.39266 20.9005 5.339 20.9005H5.302C5.08799 20.9005 4.9145 20.727 4.9145 20.513V20.409C4.9145 20.3932 4.91547 20.3775 4.91739 20.3618C5.07362 19.0901 5.16126 17.8112 5.3065 16.538V16.4879C4.04313 16.2098 2.78214 15.9258 1.51913 15.6465L1.47937 15.6431C1.27873 15.6262 1.1245 15.4584 1.1245 15.257V15.175C1.1245 15.0631 1.17286 14.9573 1.25585 14.8843L3.79441 12.0368L3.84232 11.981C2.98929 11.0176 2.13104 10.059 1.27484 9.09826C1.18027 9.02559 1.1235 8.91242 1.1235 8.79103V8.70903C1.1235 8.52513 1.25275 8.36657 1.43286 8.32949L1.6142 8.29233C2.84757 8.07648 4.09183 7.7473 5.31223 7.48442C5.18118 6.21149 5.11352 4.87216 4.91898 3.60377C4.916 3.58433 4.9145 3.56469 4.9145 3.54503V3.45303C4.9145 3.23902 5.08799 3.06553 5.302 3.06553H5.32C5.37698 3.06553 5.43326 3.07809 5.48483 3.10233L5.58044 3.14727L9.12897 4.70803L11.0897 1.35577C11.1366 1.27491 11.211 1.21371 11.2995 1.18343L11.3725 1.15843C11.4066 1.14673 11.4423 1.13986 11.4783 1.13803L11.5373 1.13503ZM16.5423 18.9308C16.4679 18.1105 16.3897 17.2854 16.2903 16.4676C15.6312 16.2598 14.9789 16.0387 14.3207 15.8325L14.2686 17.8898L14.2694 17.9367L16.5423 18.9308ZM4.97869 11.1694L6.91371 10.4519L5.75418 8.81031L5.74986 8.80402L3.38056 9.32574C3.37182 9.32774 3.36301 9.32944 3.35416 9.33083L3.34213 9.33272L4.97869 11.1694ZM14.378 7.95494L12.1876 8.73234L12.1802 11.0054L14.3218 10.2855L14.378 7.95494ZM14.7495 11.6025L12.6155 12.315L13.9256 14.0985L16.1606 13.4408L14.7495 11.6025ZM10.1825 14.9111C10.6263 15.548 11.054 16.1951 11.4933 16.8355L12.8045 14.91C12.368 14.3169 11.9339 13.7221 11.4969 13.1292L10.1825 14.9111ZM10.2531 5.53129L11.4909 7.11465L11.4966 7.12168L12.741 5.5287L11.4944 3.40004L10.2531 5.53129ZM8.6139 7.95665L8.66992 10.2838C9.38299 10.5289 10.0978 10.7703 10.8124 11.0092L10.8036 8.73248C10.0734 8.47453 9.34225 8.21967 8.6139 7.95665ZM17.2355 8.80613L16.0756 10.4505L18.0141 11.169L19.6525 9.3309L17.2355 8.80613ZM6.83046 13.438C7.57451 13.6572 8.31822 13.8748 9.0617 14.0953L10.3759 12.3158L8.24187 11.6016L6.83046 13.438ZM8.66779 15.8304C8.00751 16.0342 7.35621 16.2567 6.69579 16.4637C6.59714 17.2825 6.51176 18.1112 6.45021 18.9331L8.70221 17.9451L8.70433 17.9442L8.71926 17.9375L8.66779 15.8304Z"
    fill="#F44336"
  />
</svg>
