<svg width="21" height="22" viewBox="0 0 21 22" fill="none" xmlns="http://www.w3.org/2000/svg">
<path d="M10.5373 0.134965C10.7102 0.126173 10.8675 0.233077 10.9234 0.395942L10.99 0.493466C10.9952 0.501125 11.0002 0.50897 11.0049 0.516984L12.8598 3.70272L16.1604 2.25606C16.1672 2.25308 16.1741 2.2503 16.181 2.24773L16.1938 2.24177L16.4958 2.10777C16.5453 2.08581 16.5989 2.07446 16.653 2.07446H16.695C16.909 2.07446 17.0825 2.24795 17.0825 2.46196V2.48196C17.0825 2.49501 17.0818 2.50805 17.0805 2.52102L16.6789 6.48545L20.5302 7.33063L20.562 7.33699C20.7431 7.37322 20.8735 7.53225 20.8735 7.71697V7.78197C20.8735 7.89838 20.8212 8.00787 20.7324 8.08103L18.1467 10.9869C19.0126 11.9595 19.8803 12.9298 20.7443 13.9041C20.8264 13.9776 20.8735 14.0826 20.8735 14.193V14.258C20.8735 14.4571 20.7226 14.6238 20.5246 14.6436L20.4783 14.6482C19.2109 14.9354 17.9474 15.2137 16.6769 15.4901C16.8509 16.7818 16.9377 18.0897 17.0734 19.3877C17.0748 19.4011 17.0755 19.4145 17.0755 19.428V19.513C17.0755 19.727 16.902 19.9005 16.688 19.9005H16.653C16.5992 19.9005 16.5459 19.8893 16.4966 19.8676L12.8611 18.2644C12.2014 19.379 11.5613 20.5042 10.9019 21.6182C10.8445 21.7649 10.7023 21.8645 10.541 21.8645H10.449C10.2878 21.8645 10.1443 21.7648 10.0872 21.6157C9.43902 20.5023 8.78834 19.3903 8.13296 18.2812L8.12764 18.2718L4.49486 19.8678C4.44573 19.8894 4.39266 19.9005 4.339 19.9005H4.302C4.08799 19.9005 3.9145 19.727 3.9145 19.513V19.409C3.9145 19.3932 3.91546 19.3774 3.91739 19.3617C4.07362 18.0901 4.16126 16.8111 4.3065 15.538V15.4879C3.04463 15.2101 1.73259 14.9575 0.479369 14.6431C0.278722 14.6262 0.124497 14.4584 0.124497 14.257V14.175C0.124497 14.063 0.172861 13.9573 0.255846 13.8842L2.79441 11.0368L2.84232 10.981C1.98928 10.0176 1.13103 9.05895 0.274831 8.09819C0.180269 8.02552 0.123497 7.91236 0.123497 7.79097V7.70897C0.123497 7.52507 0.252743 7.36651 0.432857 7.32943C1.72907 7.06381 3.01857 6.76302 4.31222 6.48435C4.18118 5.21143 4.11351 3.87209 3.91898 2.60371C3.91136 2.55406 3.9145 2.50301 3.9145 2.45297C3.9145 2.23895 4.08799 2.06546 4.302 2.06546H4.32C4.37698 2.06546 4.43326 2.07803 4.48482 2.10227L4.58044 2.14721L8.12897 3.70797L10.0897 0.355713C10.1365 0.274852 10.211 0.213644 10.2994 0.183367L10.3724 0.158367C10.4066 0.146666 10.4423 0.139799 10.4783 0.137965L10.5373 0.134965ZM15.5423 17.9308C15.4679 17.1104 15.3897 16.2854 15.2902 15.4676C14.6312 15.2598 13.9789 15.0387 13.3207 14.8325L13.2686 16.8897L13.2694 16.9367L15.5423 17.9308ZM3.97869 10.1694L5.91371 9.45189L4.75417 7.81024L4.74985 7.80396L2.38056 8.32567C2.37182 8.32768 2.36301 8.32938 2.35415 8.33077L2.34212 8.33266L3.97869 10.1694ZM9.18247 13.911C9.62628 14.548 10.054 15.195 10.4933 15.8354L11.8045 13.91C11.368 13.3169 10.9339 12.7221 10.4969 12.1292L9.18247 13.911ZM13.7495 10.6025L11.6155 11.315L12.9256 13.0985L15.1606 12.4408L13.7495 10.6025ZM13.378 6.95488L11.1876 7.73228L11.1802 10.0054L13.3218 9.28552L13.378 6.95488ZM9.25313 4.53123L10.4909 6.11457L10.4966 6.12162L11.741 4.52864L10.4944 2.39998L9.25313 4.53123ZM7.6139 6.95658L7.66992 9.28378C8.38299 9.52881 9.09779 9.77027 9.81241 10.0092L9.80356 7.73242C9.07341 7.47447 8.34224 7.21961 7.6139 6.95658ZM16.2355 7.80607L15.0756 9.45047L17.014 10.169L18.6525 8.33084L16.2355 7.80607ZM5.83064 12.438C6.57463 12.6572 7.31828 12.8748 8.06169 13.0952L9.3759 11.3158L7.24194 10.6016L5.83064 12.438ZM7.66779 14.8304C7.00751 15.0341 6.3562 15.2567 5.69579 15.4636C5.59714 16.2824 5.51176 17.1111 5.4502 17.933L7.70221 16.9451L7.70432 16.9441L7.71926 16.9375L7.66779 14.8304Z" fill="#F44336"/>
</svg>
