<svg viewBox="0 0 720 720" xmlns="http://www.w3.org/2000/svg">
  <path
    d="M467.245 75.0846C470.918 71.6268 474.561 69.7741 478.21 69.796L478.2 69.797C527.27 70.097 682.94 550.807 682.94 550.807C682.94 550.807 608.597 460.71 558.36 465.015C544.305 466.219 529.707 471.326 511.901 485.555C494.095 499.784 473.082 523.134 446.198 560.826C425.938 589.23 396.844 613.729 372.814 631.127C348.785 648.524 329.82 658.821 329.82 658.821C306.737 608.676 268.021 528.865 254.646 512.701C241.868 500.622 230.383 497.859 218.892 495.095C212.798 493.629 206.702 492.162 200.41 489.306C200.41 489.306 308.107 420.006 362.65 312.486C381.463 275.403 397.469 234.362 411.676 196.742C407.653 203.647 402.305 211.546 394.149 222.761L292.719 362.241L228.741 314.922C228.741 314.922 268.334 271.952 294.014 250.458C305.948 240.469 314.445 238.058 322.607 235.742C331.983 233.082 340.918 230.547 354.116 216.797C367.842 202.497 387.481 174.244 406.005 147.596C424.929 120.372 442.689 94.8226 451.79 87.537C455.429 84.6236 458.233 82.3019 460.482 80.4391C463.512 77.9293 465.537 76.2527 467.245 75.0846Z"
    fill="#FFB74D"
  />
  <path
    d="M209.25 329.98L209.247 329.981L209.245 329.979L209.25 329.98Z"
    fill="#FFB74D"
  />
  <path
    d="M209.247 329.981L270.442 377.653L173.69 473.458L52.37 387.636L209.247 329.981Z"
    fill="#FFB74D"
  />
</svg>
