<svg viewBox="0 0 144 144" xmlns="http://www.w3.org/2000/svg">
  <path
    d="M55.4056 88.5944V55.5667H88.4333V88.5944H55.4056ZM52.6667 130V117.111H36.5556C33.9778 117.111 31.7222 116.144 29.7889 114.211C27.8556 112.278 26.8889 110.022 26.8889 107.444V91.3333H14V81.6667H26.8889V61.6889H14V52.0222H26.8889V35.9111C26.8889 33.3333 27.8556 31.0778 29.7889 29.1444C31.7222 27.2111 33.9778 26.2444 36.5556 26.2444H52.6667V14H62.3333V26.2444H82.3111V14H91.9778V26.2444H108.089C110.667 26.2444 112.922 27.2111 114.856 29.1444C116.789 31.0778 117.756 33.3333 117.756 35.9111V52.0222H130V61.6889H117.756V81.6667H130V91.3333H117.756V107.444C117.756 110.022 116.789 112.278 114.856 114.211C112.922 116.144 110.667 117.111 108.089 117.111H91.9778V130H82.3111V117.111H62.3333V130H52.6667ZM108.089 107.444V35.9111H36.5556V107.444H108.089Z"
    fill="#FF7043"
  />
</svg>
