<svg viewBox="0 0 24 24" xmlns="http://www.w3.org/2000/svg">
  <path
    d="M21.7 12.6C22 7.4 18.1 1.8 12.1 2.5C9.4 2.8 7.8 4.2 7.1 5.7C5.9 8.2 7.2 11.5 11.1 12.6C13.5 13.3 14 14.3 13.7 15.5C13.4 16.6 12.6 17.8 12.4 18.8C12.3 19.1 12.3 19.4 12.3 19.7C12.4 21.9 16.9 22.8 20.4 16.9C21.2 15.7 21.6 14.2 21.7 12.6Z"
    fill="#90A4AE"
  />
  <path
    d="M6.2 11.4V11.3C6.2 11.2 6.2 11.1 6.2 11C6.2 10.9 6.2 10.8 6.1 10.7C5.9 9.7 5.1 9.1 4.1 9.2C3.1 9.3 2.4 10.1 2.3 11.1C2.3 11.3 2.3 11.4 2.3 11.6C2.4 12.7 3.4 13.5 4.4 13.4C5.5 13.2 6.2 12.4 6.2 11.4Z"
    fill="#90A4AE"
  />
  <path
    d="M10.6 16.7C10.2 15.1 8.6 14.1 7 14.6C5.7 14.9 4.9 16 4.8 17.3C4.7 17.7 4.8 18.1 4.9 18.5C5.3 20.1 7 21.1 8.6 20.6C10 20.2 10.9 18.9 10.8 17.4C10.7 17.2 10.7 17 10.6 16.7Z"
    fill="#90A4AE"
  />
</svg>
