<svg viewBox="0 0 24 24" xmlns="http://www.w3.org/2000/svg">
  <path
    d="M11.9699 5.5532L7.0516 8.39278L11.9699 11.3763L16.8849 8.39082L11.9699 5.5532Z"
    fill="#EF5350"
  />
  <path
    d="M11.573 12.9226L6.32003 9.73179V15.3403L11.9699 18.6023L17.6198 15.3403V9.73179L12.3656 12.9226C12.2462 12.9955 12.1091 13.0341 11.9693 13.0341C11.8295 13.0341 11.6923 12.9955 11.573 12.9226Z"
    fill="#EF5350"
  />
  <path
    d="M2.73228 8.39883C2.73228 7.42658 3.42268 6.23842 4.25918 5.75359L10.4417 2.18394C11.2821 1.69911 12.6565 1.69911 13.4968 2.18394L19.6794 5.75359C20.5198 6.23842 21.2076 7.43434 21.2076 8.39883V15.5381C21.2076 16.5078 20.5198 17.6985 19.6794 18.1834L13.4968 21.753C12.6565 22.2378 11.2821 22.2378 10.4417 21.753L4.25918 18.1834C3.4201 17.6985 2.73228 16.5026 2.73228 15.5381V8.39883ZM11.9699 20.1356C12.2191 20.1383 12.4646 20.0759 12.6823 19.9546L18.4331 16.6332C18.6453 16.5032 18.8216 16.3221 18.9458 16.1064C19.07 15.8907 19.1382 15.6473 19.1441 15.3985V13.7812H19.1467L19.1441 13.6882V8.75696C19.1382 8.50798 19.0699 8.26448 18.9454 8.04876C18.8209 7.83304 18.6443 7.65201 18.4318 7.52226L12.6797 4.20084C12.4607 4.0848 12.2165 4.02414 11.9686 4.02414C11.7207 4.02414 11.4766 4.0848 11.2576 4.20084L5.50423 7.52226C5.29181 7.65219 5.11533 7.83326 4.99089 8.04894C4.86645 8.26462 4.79802 8.50803 4.79185 8.75696V15.3985C4.79802 15.6474 4.86645 15.8908 4.99089 16.1065C5.11533 16.3222 5.29181 16.5033 5.50423 16.6332L11.2563 19.9546C11.4744 20.0759 11.7204 20.1383 11.9699 20.1356Z"
    fill="#EF5350"
  />
</svg>
