<svg viewBox="0 0 256 256" xmlns="http://www.w3.org/2000/svg">
<path d="M128 18.753C125.16 29.594 100.906 36.519 99.228 50.265L96.49 42.045C82.21 60.232 83.473 69.446 83.473 69.446L82.273 62.853C71.851 80.279 74.058 88.816 75.261 91.419L75.766 92.311C75.766 92.311 75.541 92.024 75.261 91.419L72.513 86.573C61.689 116.514 71.142 125.706 71.142 125.706L65.32 118.942C62.747 141.882 69.43 151.31 69.43 151.31L65.234 147.37C64.7 162.952 74.911 172.203 74.911 172.203L68.181 167.588C81.132 224.168 106.847 225.692 110.163 225.649L99.913 225.98C106.749 233.298 115.475 236.136 121.377 237.247C124.595 220.18 127.553 178.852 128 70.557C128.447 178.847 131.407 220.177 134.625 237.247C140.528 236.135 149.254 233.296 156.089 225.98L145.841 225.65C149.161 225.692 174.871 224.162 187.821 167.588L181.091 172.204C181.091 172.204 191.302 162.954 190.768 147.371L186.572 151.311C186.572 151.311 193.255 141.884 190.682 118.943L184.86 125.707C184.86 125.707 194.313 116.515 183.489 86.574L180.743 91.414C180.462 92.023 180.235 92.309 180.235 92.309L180.743 91.414C181.947 88.805 184.146 80.27 173.728 62.854L172.529 69.447C172.529 69.447 173.793 60.232 159.512 42.045L156.772 50.266C155.095 36.521 130.842 29.596 128.001 18.756L128 18.753Z" fill="#43A047"/>
</svg>
