<svg viewBox="0 0 120 120" xmlns="http://www.w3.org/2000/svg">
  <path
    d="M67.5697 14.253H21.5807C15.1599 14.253 9.94299 19.4699 9.94299 25.8907C9.94299 32.3115 15.1599 37.5284 21.5807 37.5284H67.5697C73.9905 37.5284 79.2074 32.3115 79.2074 25.8907C79.2074 19.4699 73.9905 14.253 67.5697 14.253Z"
    fill="#FF5722"
  />
  <path
    d="M109.465 25.8907C109.465 32.318 104.147 37.5284 97.5869 37.5284C91.0266 37.5284 85.7084 32.318 85.7084 25.8907C85.7084 19.4634 91.0266 14.253 97.5869 14.253C104.147 14.253 109.465 19.4634 109.465 25.8907Z"
    fill="#FF5722"
  />
  <path
    d="M97.5869 49.0056C104.008 48.524 109.546 53.4199 110.027 59.8407C110.509 66.2615 105.613 71.7994 99.1921 72.281H52.1598C45.739 72.7626 40.201 67.8667 39.7195 61.4459C39.2379 55.0251 44.1338 49.4872 50.5546 49.0056H97.5869Z"
    fill="#FF5722"
  />
  <path
    d="M33.7 60.6432C33.7 54.0619 28.4028 48.7648 21.8215 48.7648C15.2402 48.7648 9.94299 54.0619 9.94299 60.6432C9.94299 67.1443 15.2402 72.4415 21.8215 72.5217C28.4028 72.5217 33.7 67.2246 33.7 60.6432Z"
    fill="#FF5722"
  />
  <path
    d="M21.5807 82.474H67.5697C73.9905 82.474 79.2074 87.6909 79.2074 94.1117C79.2074 100.533 73.9905 105.749 67.5697 105.749H21.5807C15.1599 105.749 9.94299 100.533 9.94299 94.1117C9.94299 87.6909 15.1599 82.474 21.5807 82.474Z"
    fill="#FF5722"
  />
  <path
    d="M109.465 94.1117C109.465 100.539 104.147 105.749 97.5869 105.749C91.0266 105.749 85.7084 100.539 85.7084 94.1117C85.7084 87.6844 91.0266 82.474 97.5869 82.474C104.147 82.474 109.465 87.6844 109.465 94.1117Z"
    fill="#FF5722"
  />
</svg>
