<svg viewBox="0 0 48 48" xmlns="http://www.w3.org/2000/svg">
  <path
    d="M36.364 22.257C35.8628 21.6033 35.2527 21.0367 34.6861 20.4702C33.2261 19.1628 31.57 18.2258 30.1754 16.853C28.6008 15.2316 27.5718 13.159 27.2319 10.9245C26.892 8.69007 27.2583 6.40525 28.2796 4.389C26.2095 4.89018 24.4009 6.0233 22.8537 7.2654C20.0655 9.54665 18.0633 12.6451 17.129 16.1244C16.1946 19.6036 16.3754 23.2883 17.6457 26.6594C17.7329 26.8773 17.82 27.0952 17.82 27.3785C17.82 27.8579 17.4932 28.2937 17.0573 28.468C16.5562 28.6859 16.0331 28.5551 15.6191 28.2065C14.3058 26.6231 13.4676 24.7002 13.2016 22.6603C12.9355 20.6204 13.2523 18.5468 14.1155 16.6795C10.4765 19.643 8.49355 24.6549 8.77685 29.3835C8.90759 30.473 9.03834 31.5626 9.40878 32.6521C9.71385 33.9595 10.3022 35.267 10.9559 36.4219C12.1362 38.3093 13.7154 39.9154 15.5825 41.1276C17.4497 42.3397 19.5595 43.1285 21.7639 43.4385C26.4271 44.0268 31.4171 43.177 34.9909 39.952C36.9502 38.1831 38.3202 35.8561 38.9163 33.2845C39.5124 30.713 39.306 28.0206 38.3249 25.57L38.0416 25.0034C37.584 24.001 36.364 22.257 36.364 22.257ZM29.4779 35.9858C28.8678 36.5088 27.8654 37.0753 27.0809 37.2932C24.6404 38.1649 22.1998 36.9446 20.7616 35.5064C21.8696 35.2676 22.8882 34.7222 23.7012 33.9323C24.5141 33.1425 25.0887 32.14 25.3594 31.0393C25.7298 29.2961 25.0325 27.8579 24.7493 26.18C24.4438 24.6789 24.5723 23.1219 25.1197 21.6911C25.5337 22.5192 25.9695 23.3472 26.4925 24.0009C28.1704 26.18 30.807 27.1387 31.3736 30.1023C31.4608 30.4074 31.5043 30.7125 31.5043 31.0393C31.5267 31.9591 31.3582 32.8736 31.0094 33.7249C30.6606 34.5763 30.1392 35.3461 29.4779 35.9858Z"
    fill="#FF7043"
  />
</svg>
