<svg viewBox="0 0 300 300" xmlns="http://www.w3.org/2000/svg">
  <path
    d="M172.382 24.4094C170.589 24.4094 168.882 24.8361 167.346 25.3482C170.675 27.5674 172.467 30.4694 173.406 33.7981C173.491 34.2248 173.577 34.5662 173.662 34.993C173.747 35.4198 173.833 35.7612 173.833 36.1879C174.089 41.9065 172.296 42.5893 171.101 46.0034C169.224 50.3564 169.736 55.0507 172.04 58.8062C172.211 59.233 172.467 59.7451 172.808 60.2572C170.333 43.7843 184.075 41.309 186.635 36.1879C186.806 31.6643 183.136 28.677 180.234 26.6285C177.247 24.9215 174.686 24.4094 172.382 24.4094ZM193.037 28.0795C192.781 29.6158 192.952 29.1891 192.866 29.9572C192.781 30.4694 192.781 31.1522 192.695 31.6643C192.525 32.1764 192.439 32.6885 192.269 33.2006L191.757 34.7369C191.501 35.2491 191.33 35.6758 191.074 36.2733L190.562 37.0414C190.391 37.2122 190.306 37.4682 190.135 37.6389C189.793 38.0657 189.452 38.5778 189.196 38.9192C188.769 39.346 188.513 39.7727 188.001 40.1141V40.1995C187.574 40.5409 187.233 40.8823 186.806 41.2237C185.441 42.2479 183.904 43.0161 182.453 44.0403C182.026 44.3817 181.514 44.6378 181.173 44.9792C180.746 45.3206 180.319 45.662 179.978 46.0034L178.783 47.1983C178.442 47.6251 178.1 48.0519 177.844 48.4786C177.503 48.9054 177.161 49.4175 176.905 49.8442C176.649 50.3564 176.479 50.7831 176.223 51.3806C176.052 51.8927 175.796 52.3195 175.71 52.9169C175.54 53.5144 175.369 54.0265 175.284 54.5386C175.198 54.7947 175.198 55.1361 175.113 55.3921C175.028 55.6482 175.028 55.9042 174.942 56.1603C174.942 56.6724 174.857 57.2699 174.857 57.782C174.857 58.2087 174.857 58.5502 174.942 58.9769C174.942 59.489 175.028 60.0011 175.113 60.5986C175.198 61.1107 175.284 61.6228 175.454 62.1349L175.966 63.6713C176.137 64.0127 176.308 64.3541 176.393 64.6101L161.457 58.8062C158.896 58.1234 156.421 57.4406 153.946 56.8431C152.58 56.5017 151.214 56.1603 149.849 55.9042C145.923 55.1361 141.996 54.5386 137.985 54.1118C137.814 54.1118 137.814 54.0265 137.643 54.0265C133.717 53.5997 129.876 53.429 126.036 53.429C123.134 53.429 120.317 53.5997 117.5 53.7704C113.574 54.0265 109.563 54.5386 105.636 55.2214C104.698 55.3921 103.673 55.5628 102.734 55.7335C100.686 56.1603 98.8082 56.5871 96.8451 57.0138C95.9063 57.2699 94.8821 57.5259 93.9432 57.782C93.0043 58.2087 92.0654 58.6355 91.1266 58.9769C90.4438 59.3183 89.6756 59.6597 88.9928 59.9158C88.8221 60.0011 88.7367 60.0011 88.6514 60.0865C87.9685 60.4279 87.4564 60.684 86.859 61.0254C86.6883 61.1107 86.5176 61.1961 86.4322 61.1961C85.7494 61.5375 84.9812 61.8789 84.3838 62.2203C83.957 62.391 83.4449 62.647 83.1035 62.9031C82.9328 63.0738 82.6767 63.1592 82.506 63.2445C81.9086 63.5859 81.3111 63.9273 80.799 64.1834C80.2015 64.5248 79.6894 64.8662 79.2626 65.1223C78.8359 65.4637 78.3238 65.7197 77.9824 66.0611C77.897 66.1465 77.8117 66.1465 77.8117 66.2318C77.3849 66.4879 76.9581 66.8293 76.6167 67.1707L76.446 67.3414C76.1046 67.5975 75.7632 67.8535 75.5071 68.1096C75.3364 68.1949 75.2511 68.2803 75.0804 68.3656C74.739 68.6217 74.3976 68.9631 74.1415 69.2192C74.0562 69.3899 73.9708 69.3899 73.8855 69.4752C73.4587 69.902 73.1173 70.158 72.6905 70.5848C72.6052 70.5848 72.6052 70.6701 72.5198 70.7555C72.0931 71.0969 71.7517 71.4383 71.3249 71.8651C71.2395 71.9504 71.2395 72.0358 71.1542 72.0358C70.8128 72.3772 70.4714 72.7186 70.2153 73.06C70.0446 73.2307 69.8739 73.3161 69.7886 73.4868C69.4472 73.9135 69.1057 74.2549 68.679 74.6817C68.5936 74.8524 68.5083 74.8524 68.4229 75.0231C67.9108 75.5352 67.4841 76.0473 66.8866 76.5594L66.7159 76.7301C65.6917 77.8397 64.5821 78.9493 63.3872 79.8882C62.1922 80.9124 60.9973 81.9366 59.717 82.7901C58.4367 83.729 57.1565 84.4972 55.7908 85.2653C54.5106 85.9481 53.1449 86.631 51.6939 87.2284C50.3283 87.8259 48.8773 88.338 47.4263 88.7648C44.6951 89.3622 41.8785 90.4718 39.4886 90.6425C38.9765 90.6425 38.379 90.8132 37.8669 90.8132C37.2695 90.9839 36.7573 91.0693 36.2452 91.24C35.7331 91.4107 35.221 91.6667 34.7089 91.8374C34.1968 92.0081 33.6847 92.2642 33.1726 92.5202C32.7458 92.8617 32.2337 93.1177 31.7216 93.4591C31.2948 93.8005 30.7827 94.1419 30.4413 94.5687C30.0145 94.9101 29.5024 95.3369 29.161 95.7636C28.7343 96.1904 28.3928 96.6172 28.0514 97.0439C27.71 97.556 27.3686 97.9828 27.1126 98.5802C26.7712 99.007 26.4297 99.5191 26.1737 100.117C25.9176 100.714 25.6616 101.226 25.4909 101.824C25.3202 102.336 25.0641 102.933 24.8934 103.531C24.7227 104.043 24.6374 104.555 24.552 105.067C24.552 105.152 24.4667 105.238 24.4667 105.238C24.2959 105.835 24.2959 106.603 24.2959 107.03C24.2106 107.457 24.1252 107.884 24.1252 108.31C24.1252 108.566 24.1252 108.908 24.2106 109.164C24.2959 109.591 24.3813 110.017 24.4667 110.359C24.6374 110.786 24.7227 111.127 24.8934 111.554V111.639C25.0641 112.066 25.3202 112.407 25.5762 112.834C25.8323 113.261 26.0883 113.602 26.4297 114.029C26.7712 114.37 27.1126 114.712 27.5393 115.053C27.9661 115.48 28.3075 115.736 28.7343 116.077C30.2706 117.443 30.6974 117.87 32.6604 118.979L33.6847 119.491C33.77 119.491 33.8554 119.577 33.8554 119.577C33.8554 119.748 33.8554 119.748 33.9407 119.918C34.0261 120.43 34.1114 120.942 34.2821 121.455C34.4528 122.052 34.6235 122.564 34.7942 122.991C34.965 123.418 35.1357 123.759 35.3064 124.186C35.3917 124.357 35.4771 124.442 35.4771 124.527C35.7331 125.039 35.9892 125.466 36.2452 125.978C36.5866 126.405 36.928 126.917 37.1841 127.344C37.5255 127.771 37.8669 128.197 38.2937 128.539C38.7204 128.966 39.0618 129.222 39.4886 129.648C39.4886 129.648 39.574 129.734 39.6593 129.734C40.0861 130.075 40.4275 130.417 40.8542 130.673C41.281 131.014 41.7931 131.27 42.3052 131.526C42.732 131.782 43.2441 132.038 43.8416 132.209C44.2683 132.38 44.6951 132.55 45.1218 132.636C45.2072 132.721 45.2925 132.721 45.3779 132.806C45.6339 132.892 45.9754 132.977 46.2314 132.977C46.0607 136.477 45.9754 139.805 46.4875 141C47.0849 142.28 49.9015 138.354 52.8035 133.745C52.3768 138.269 52.1207 143.475 52.8035 145.097C53.4863 146.719 57.4125 141.683 60.8266 136.05C106.917 125.381 148.995 157.217 153.434 202.283C152.58 195.284 143.959 191.358 139.948 192.297C137.985 197.076 134.656 203.307 129.364 207.148C129.791 202.88 129.62 198.442 128.681 194.174C127.23 200.149 124.414 205.782 120.658 210.562C114.513 210.989 108.282 208.002 105.039 203.563C104.783 203.392 104.698 202.966 104.527 202.71C104.356 202.283 104.1 201.771 104.015 201.344C103.844 200.917 103.673 200.405 103.588 199.978C103.503 199.552 103.503 199.04 103.503 198.527V197.589C103.588 197.162 103.673 196.65 103.844 196.223C104.015 195.796 104.1 195.284 104.271 194.857C104.527 194.431 104.698 193.918 105.039 193.492C106.149 190.334 106.149 187.858 104.1 186.322C103.673 186.066 103.332 185.895 102.905 185.639C102.649 185.554 102.308 185.469 102.052 185.383C101.881 185.298 101.71 185.213 101.54 185.213C101.113 185.042 100.601 184.956 100.174 184.871C99.7471 184.7 99.235 184.7 98.8082 184.7C98.3815 184.615 97.8694 184.53 97.3573 184.53C97.0159 184.53 96.6744 184.615 96.4184 184.615C95.9063 184.615 95.4795 184.7 94.9674 184.786C94.5406 184.871 94.0285 184.956 93.6018 185.042C93.175 185.213 92.6629 185.298 92.2361 185.469C91.8094 185.639 91.3826 185.895 90.9559 186.066C90.5291 186.237 90.1877 186.493 89.7609 186.749C74.5683 196.65 83.6156 219.78 94.0285 226.438C90.1023 227.12 86.1762 227.974 85.0666 228.827L84.8959 228.998C87.7125 230.705 90.6145 232.156 93.6871 233.351C97.8694 234.717 102.308 235.912 104.185 236.509V236.594C109.563 237.704 115.025 238.131 120.573 237.789C149.337 235.741 172.979 213.891 177.247 184.956C177.417 185.554 177.503 186.066 177.674 186.664C177.844 187.858 178.1 189.053 178.271 190.334V190.419C178.442 191.016 178.442 191.614 178.527 192.126V192.382C178.612 192.98 178.698 193.577 178.698 194.089C178.783 194.772 178.868 195.54 178.868 196.223V197.247C178.868 197.589 178.954 197.93 178.954 198.271C178.954 198.698 178.868 199.04 178.868 199.466V200.405C178.868 200.832 178.783 201.259 178.783 201.685C178.783 201.942 178.783 202.198 178.698 202.539C178.698 202.966 178.612 203.478 178.612 203.99C178.527 204.161 178.527 204.417 178.527 204.587C178.442 205.1 178.356 205.526 178.356 206.124C178.356 206.294 178.356 206.551 178.271 206.721C178.186 207.404 178.1 207.916 178.015 208.599V208.77C177.844 209.367 177.759 209.965 177.588 210.562V210.733C177.417 211.33 177.332 211.928 177.161 212.525C177.161 212.611 177.076 212.696 177.076 212.781C176.905 213.379 176.82 213.976 176.649 214.574V214.744C176.479 215.427 176.223 215.939 176.137 216.537C176.052 216.622 176.052 216.707 176.052 216.707C175.881 217.39 175.625 217.988 175.454 218.671C175.198 219.353 175.028 219.865 174.772 220.548C174.515 221.231 174.345 221.829 174.089 222.426C173.833 223.109 173.577 223.621 173.321 224.304H173.235C172.979 224.901 172.723 225.499 172.382 226.096C172.296 226.267 172.211 226.438 172.211 226.523C172.126 226.608 172.126 226.694 172.04 226.694C167.773 235.229 161.542 242.654 153.775 248.544C153.263 248.885 152.751 249.227 152.239 249.653C152.068 249.824 151.897 249.824 151.812 249.995C151.385 250.336 150.873 250.678 150.361 250.934L150.532 251.36H150.617C151.556 251.19 152.409 251.104 153.348 250.934H153.434C155.141 250.678 156.848 250.336 158.469 249.995C158.896 249.909 159.408 249.824 159.92 249.653C160.262 249.568 160.518 249.483 160.859 249.483C161.286 249.397 161.798 249.312 162.225 249.227C162.652 249.056 162.993 249.056 163.42 248.885C169.906 247.349 176.223 245.215 182.283 242.654C171.955 256.737 158.128 268.175 141.911 275.6C149.422 275.088 156.848 273.808 164.103 271.759C190.306 263.992 212.326 246.41 225.556 222.682C222.91 237.704 216.935 252.043 208.059 264.505C214.375 260.322 220.179 255.543 225.385 250.08C239.98 234.887 249.54 215.512 252.783 194.772C255.002 205.014 255.685 215.683 254.661 226.096C301.605 160.631 258.587 92.691 240.578 74.8524C240.493 74.6817 240.407 74.6817 240.407 74.511C240.322 74.5963 240.322 74.5963 240.322 74.6817C240.322 74.5963 240.322 74.5963 240.237 74.511C240.237 75.2791 240.151 76.0473 240.066 76.8155C239.895 78.3518 239.639 79.7175 239.383 81.1684C239.042 82.6194 238.7 84.0704 238.273 85.436C237.847 86.8017 237.335 88.2527 236.737 89.6183C236.14 90.8986 235.542 92.2642 234.774 93.5445C234.091 94.7394 233.238 96.105 232.469 97.2146C231.616 98.4095 230.677 99.6045 229.824 100.714C228.885 101.909 227.775 102.933 226.751 103.957C226.068 104.555 225.556 105.067 224.873 105.579C224.361 106.006 223.934 106.433 223.337 106.859C222.142 107.798 221.032 108.652 219.667 109.42C218.472 110.188 217.106 110.956 215.826 111.639C214.46 112.322 213.095 112.834 211.729 113.431C210.363 113.944 208.912 114.37 207.461 114.797C206.01 115.224 204.559 115.48 203.108 115.736C201.572 115.992 200.121 116.163 198.67 116.248C197.646 116.333 196.622 116.419 195.512 116.419C193.976 116.419 192.525 116.248 191.074 116.163C189.537 115.992 188.086 115.821 186.635 115.48C185.099 115.224 183.733 114.797 182.283 114.37H182.197C183.648 114.2 185.099 114.114 186.465 113.858C188.001 113.602 189.367 113.261 190.818 112.919C192.269 112.493 193.72 112.066 195.085 111.554C196.536 111.042 197.902 110.359 199.182 109.761C200.548 109.079 201.743 108.396 203.108 107.628C204.303 106.774 205.584 105.921 206.779 105.067C207.973 104.128 209.083 103.189 210.107 102.165C211.217 101.226 212.156 100.117 213.18 99.007C214.119 97.8121 215.058 96.7025 215.911 95.5076C216.082 95.3369 216.167 95.0808 216.338 94.8248C217.021 93.8005 217.618 92.7763 218.216 91.6667C218.899 90.3864 219.581 89.1062 220.179 87.7405C220.776 86.3749 221.288 85.0093 221.715 83.5583C222.142 82.1927 222.483 80.7417 222.825 79.2907C223.081 77.7544 223.337 76.3887 223.508 74.9377C223.678 73.4014 223.764 71.9504 223.764 70.4994C223.764 69.4752 223.678 68.451 223.593 67.3414C223.422 65.8051 223.251 64.4394 223.081 62.9885C222.825 61.4521 222.483 60.0865 222.142 58.6355C221.715 57.2699 221.203 55.8189 220.691 54.4533C220.179 53.0876 219.496 51.722 218.899 50.4417C218.216 49.1614 217.448 47.8812 216.679 46.6009L214.119 43.0161C213.18 41.9065 212.156 40.7969 211.131 39.6874C210.619 39.1753 210.022 38.5778 209.424 38.0657C206.522 35.7612 203.45 33.6274 200.377 31.6643C199.95 31.4082 199.524 31.2375 199.097 30.9815C197.048 29.4451 195.085 28.7623 193.037 28.0795Z"
    fill="#EA2845"
  />
</svg>
