<svg viewBox="0 0 24 24" xmlns="http://www.w3.org/2000/svg">
  <path
    d="M11.2501 2.2324L11.1231 2.35935V6.92576L11.2501 7.05467H12.7755L12.9025 6.92576V2.35935L12.7755 2.2324H11.2501ZM6.68942 5.45507L5.64448 6.5V6.71095L7.24412 8.31058H8.35155L8.49999 8.16214V7.0547L6.90036 5.45507L6.68942 5.45507ZM1.02727 11.1094L0.900318 11.2364V12.7637L1.02727 12.8907H7.11727L7.24422 12.7637V11.2364L7.11727 11.1094H1.02727ZM16.885 11.1094L16.7581 11.2364V12.7637L16.885 12.8907H22.975L23.102 12.7637V11.2364L22.975 11.1094H16.885ZM7.24422 15.6895L5.64459 17.2892V17.4981L6.68952 18.545H6.90046L8.5001 16.9454V15.836L8.35165 15.6895L7.24422 15.6895ZM11.2501 16.9454L11.1231 17.0743V21.6407L11.2501 21.7677H12.7755L12.9025 21.6407V17.0743L12.7755 16.9454H11.2501Z"
    fill="#00BFA5"
  />
  <path
    d="M14.8547 15.1717H13.3325L13.2053 15.0446V11.4813C13.2053 10.8474 12.9562 10.356 12.1917 10.3388C11.7982 10.3285 11.3481 10.3388 10.8671 10.3577L10.7949 10.4316V15.0429L10.6678 15.17H9.14557L9.01842 15.0429V8.95587L9.14557 8.82873H12.5713C13.9028 8.82873 14.9818 9.90768 14.9818 11.2392V15.0448L14.8547 15.1717Z"
    fill="#00BFA5"
  />
</svg>
