<svg width="500" height="500" viewBox="0 0 500 500" fill="none" xmlns="http://www.w3.org/2000/svg">
<path d="M16.822 251.017C16.356 250.65 16.948 249.502 23.046 238.939C26.752 232.52 29.9 227.352 30.041 227.454C30.184 227.556 30.764 227.616 31.331 227.586C31.899 227.557 50.882 227.6 73.514 227.682C93.287 227.755 109.45 227.754 113.74 227.692C113.82 227.692 114.118 227.692 114.45 227.692C114.963 227.693 115.559 227.694 115.566 227.692L115.589 227.655C116.422 227.458 117.611 225.488 131.867 200.795L147.287 174.089L172.628 173.997C177.532 173.979 181.392 173.989 185.316 173.999L185.378 173.999C192.243 174.028 197.288 174.105 198.384 174.215C198.334 174.879 190.962 187.895 167.654 228.347C158.498 244.149 148.636 261.172 137.284 280.789C109.049 329.582 85.879 369.463 85.792 369.413C85.706 369.363 79.824 359.483 72.724 347.457L59.817 325.592L74.983 299.323C88.54 275.843 90.093 273.022 89.62 272.749C89.329 272.58 75.702 272.402 59.335 272.35C42.97 272.299 29.491 272.207 29.385 272.146C29.278 272.084 26.522 267.397 23.262 261.729C20.002 256.061 17.104 251.241 16.822 251.017Z" fill="#5075C1"/>
<path d="M240.967 71.402C233.826 59.031 228.083 48.788 228.206 48.639L228.205 48.635C228.44 48.352 278.466 47.79 278.942 48.065C278.95 48.0697 279.067 48.2647 279.186 48.4624C279.269 48.6008 279.352 48.7404 279.4 48.817L293.761 73.833C301.923 88.05 308.811 99.804 309.067 99.952C309.138 99.992 309.229 99.968 309.338 99.902C309.363 99.9344 309.391 99.973 309.419 100.012C309.487 100.106 309.556 100.2 309.573 100.203C310.084 100.284 312.344 96.532 325.168 74.32L340.166 48.342L341.926 48.253C342.893 48.204 348.379 48.17 354.113 48.18C359.848 48.19 364.883 48.107 365.303 47.995C365.352 47.9812 365.381 47.976 365.418 47.9671C365.427 47.965 365.437 47.9627 365.447 47.96C365.813 48.052 366.064 48.429 366.547 49.416C366.977 50.294 369.801 55.257 372.822 60.442C375.842 65.629 378.416 70.135 378.542 70.459C378.683 70.82 375.805 76.061 366.647 92.009C365.925 93.2536 365.22 94.4693 364.515 95.684C362.25 99.5913 359.991 103.488 357.176 108.299L335.54 145.275L335.966 146.188C335.938 146.309 335.942 146.435 335.976 146.554C336.142 147.025 342.888 158.869 350.966 172.874C359.045 186.879 365.787 198.731 365.948 199.211C366.049 199.51 365.987 199.925 365.296 201.328L358.69 212.771C355.295 218.665 351.945 224.586 348.64 230.531C344.218 238.12 341.586 242.501 340.686 243.75C340.163 243.205 338.746 241.015 337.243 238.402C330.36 226.432 253.167 92.533 240.967 71.402Z" fill="#5075C1"/>
<path d="M209.603 332.209C209.534 331.991 209.513 331.838 209.56 331.729L209.562 331.73C209.577 331.698 209.598 331.67 209.624 331.647C210.189 331.551 211.164 331.485 212.284 331.475C214.41 331.457 245.236 331.487 284.196 331.547C400.018 331.725 429.485 331.726 433.936 331.522L433.982 331.521C434.701 331.454 435.369 331.446 435.471 331.505C435.573 331.564 429.75 341.843 422.53 354.348C416.559 364.69 413.395 370.147 411.529 373.214C409.726 376.142 409.173 376.803 408.936 376.711C408.262 376.449 352.821 376.254 350.865 376.506C349.644 376.664 349.514 376.774 349.71 377.486C349.78 377.744 352.06 381.81 355.15 387.26C363.412 402.099 378.434 428.382 379.009 428.742C379.335 428.946 377.949 431.565 372.715 440.63L366.707 451.036C366.237 451.69 365.987 451.907 365.856 451.831C365.599 451.684 359.904 451.572 353.199 451.585C346.492 451.598 340.807 451.495 340.566 451.355C340.324 451.215 330.698 434.67 319.172 414.588C307.646 394.506 297.966 377.722 297.659 377.292C297.174 376.612 293.075 376.504 266.425 376.46C249.553 376.433 235.581 376.313 235.375 376.194C234.941 375.944 209.931 333.259 209.603 332.209Z" fill="#5075C1"/>
<path d="M127.231 440.415C130.595 446.216 133.347 451.204 133.347 451.499L133.346 451.502C133.346 451.945 135.679 452.04 146.574 452.04H159.804L160.168 451.08C160.704 449.67 188.97 401.043 189.658 400.347C190.178 399.822 190.338 399.879 191.084 400.857C192.282 402.424 219.834 450.535 219.944 451.249C220.024 451.768 223.314 451.853 246.337 451.943C260.803 451.999 272.639 451.929 272.639 451.789C272.639 451.649 272.395 451.337 272.095 451.095C271.537 450.645 259.305 429.485 196.685 320.635C176.77 286.021 160.214 257.278 159.894 256.765C159.408 255.986 159.23 255.92 158.816 256.37C158.07 257.179 133.61 300.18 133.61 300.68C133.61 300.918 140.492 313.078 148.904 327.703C162.192 350.806 164.146 354.409 163.8 355.169C163.581 355.65 153.887 372.426 142.258 392.448C130.629 412.471 121.115 429.081 121.115 429.36C121.115 429.639 123.867 434.614 127.231 440.415Z" fill="#5075C1"/>
<path d="M303.866 320.007C302.116 323.026 300.793 325.673 300.927 325.889L300.928 325.885C301.086 326.141 304.686 326.188 311.236 326.02C316.772 325.877 328.269 325.761 336.787 325.761H352.273L367.165 300.014C375.356 285.853 382.419 273.749 382.861 273.117L383.664 271.967L426.504 272.216C450.065 272.353 469.53 272.338 469.76 272.182C469.989 272.026 472.817 267.282 476.045 261.639C479.273 255.997 482.237 251.062 482.633 250.674C483.496 249.826 483.498 249.807 482.793 249.102C482.486 248.795 479.896 244.476 477.036 239.505C474.177 234.534 471.408 229.801 470.881 228.987L469.924 227.507H439.928C414.278 227.507 409.9 227.426 409.715 226.943C409.593 226.626 416.065 215.079 424.525 200.522C432.789 186.301 439.55 174.523 439.55 174.349C439.55 173.799 414.052 130.756 413.69 130.694C413.499 130.662 407.499 140.756 400.356 153.127C388.156 174.257 310.79 308.063 303.866 320.007Z" fill="#5075C1"/>
<path d="M64.677 167.747C64.677 167.847 110.804 167.974 167.177 168.029L167.178 168.028C223.548 168.083 274.233 168.172 279.808 168.226C285.384 168.28 290.043 168.167 290.16 167.977C290.278 167.786 284.571 157.665 277.478 145.485L264.582 123.34H233.745C204.866 123.34 202.871 123.296 202.317 122.649C201.991 122.271 192.525 105.889 181.281 86.249C170.037 66.608 160.584 50.147 160.274 49.671C159.964 49.194 159.726 48.661 159.744 48.487C159.761 48.313 153.71 48.17 146.298 48.17C134.101 48.17 132.812 48.232 132.726 48.818C132.673 49.174 129.948 54.095 126.67 59.752C123.392 65.409 120.71 70.139 120.71 70.262C120.71 70.385 127.369 82.103 135.507 96.302C143.645 110.501 150.304 122.393 150.304 122.729C150.304 123.275 147.085 123.34 119.972 123.34H89.64L77.158 145.453C70.294 157.615 64.677 167.647 64.677 167.747Z" fill="#5075C1"/>
</svg>
