<svg viewBox="0 0 24 24" xmlns="http://www.w3.org/2000/svg">
  <path
    d="M16.6931 5.53601H11.3531C10.6249 5.53271 9.90315 5.67342 9.22948 5.95004C8.55581 6.22666 7.94347 6.63373 7.42769 7.14784C6.9119 7.66196 6.50284 8.27297 6.22403 8.94574C5.94523 9.61851 5.80217 10.3398 5.80311 11.068V16.41C5.80337 17.8752 6.38558 19.2802 7.42169 20.3161C8.4578 21.352 9.86296 21.934 11.3281 21.934H16.6691C17.3952 21.934 18.1143 21.7909 18.785 21.5128C19.4558 21.2347 20.0652 20.8271 20.5783 20.3133C21.0915 19.7995 21.4983 19.1896 21.7756 18.5185C22.0528 17.8474 22.195 17.1281 22.1941 16.402V11.068C22.196 9.60579 21.6181 8.20247 20.5872 7.16553C19.5563 6.1286 18.1553 5.54262 16.6931 5.53601ZM11.2961 11.508C11.0649 11.7438 10.7664 11.9022 10.4416 11.9617C10.1168 12.0211 9.78155 11.9786 9.48187 11.8399C9.18218 11.7013 8.93273 11.4733 8.76774 11.1872C8.60274 10.9012 8.53029 10.5711 8.56032 10.2423C8.59035 9.91345 8.72139 9.60195 8.93546 9.35053C9.14952 9.09911 9.43614 8.92008 9.75598 8.838C10.0758 8.75592 10.4132 8.77482 10.7219 8.89209C11.0306 9.00936 11.2954 9.21926 11.4801 9.49301C11.6863 9.79865 11.7806 10.1661 11.7471 10.5333C11.7135 10.9004 11.5542 11.2448 11.2961 11.508ZM16.5971 19.256C16.0438 19.2558 15.5029 19.0915 15.0429 18.784C14.5829 18.4764 14.2244 18.0393 14.0128 17.5281C13.8012 17.0168 13.7459 16.4542 13.854 15.9115C13.9621 15.3688 14.2286 14.8704 14.62 14.4792C15.0113 14.088 15.5099 13.8216 16.0526 13.7137C16.5953 13.6058 17.1579 13.6613 17.6691 13.8731C18.1803 14.0849 18.6172 14.4435 18.9246 14.9036C19.232 15.3637 19.3961 15.9047 19.3961 16.458C19.3961 16.8255 19.3237 17.1895 19.183 17.529C19.0423 17.8685 18.8362 18.177 18.5762 18.4368C18.3163 18.6967 18.0077 18.9028 17.6682 19.0433C17.3286 19.1839 16.9646 19.2561 16.5971 19.256Z"
    fill="#0288D1"
  />
  <path
    d="M4.00439 5.86334C4.88756 5.86334 5.60351 5.14739 5.60351 4.26422C5.60351 3.38105 4.88756 2.6651 4.00439 2.6651C3.12122 2.6651 2.40527 3.38105 2.40527 4.26422C2.40527 5.14739 3.12122 5.86334 4.00439 5.86334Z"
    fill="#0288D1"
  />
  <path
    d="M4.00445 6.46301C5.21881 6.46301 6.20324 5.47858 6.20324 4.26422C6.20324 3.04986 5.21881 2.06543 4.00445 2.06543C2.7901 2.06543 1.80566 3.04986 1.80566 4.26422C1.80566 5.47858 2.7901 6.46301 4.00445 6.46301Z"
    fill="#0288D1"
  />
</svg>
