<svg viewBox="0 0 124 124" xmlns="http://www.w3.org/2000/svg">
  <path
    d="M68.4801 98H108.44C109.72 98 110.94 97.55 112.04 96.92C113.2 96.3405 114.192 95.4728 114.92 94.4C115.59 93.3156 115.962 92.074 116 90.8C116 89.54 115.56 88.3 114.92 87.2L87.9201 40.76C87.3283 39.7039 86.4562 38.8318 85.4001 38.24C84.1851 37.5693 82.8273 37.199 81.4401 37.16C80.1701 37.16 78.94 37.61 77.84 38.24C76.7839 38.8318 75.9118 39.7039 75.3201 40.76L68.4801 52.64L54.8 29.6C54.16 28.5 53.38 27.35 52.28 26.72C51.18 26.09 49.96 26 48.68 26C47.4 26 46.1801 26.09 45.0801 26.72C43.9018 27.4337 42.9137 28.4218 42.2001 29.6L8.72005 87.2C8.16124 88.3136 7.91254 89.5571 8.00005 90.8C8.00005 92.06 8.08005 93.3 8.72005 94.4C9.44838 95.4728 10.4401 96.3405 11.6001 96.92C12.6856 97.5872 13.9265 97.9595 15.2001 98H40.4001C50.3901 98 57.6501 93.52 62.7201 85.04L74.9601 63.8L81.4401 52.64L101.24 86.48H74.9601L68.4801 98ZM40.0401 86.48H22.4001L48.68 41.12L62 63.8L53.18 79.18C49.8101 84.68 45.9801 86.48 40.0401 86.48Z"
    fill="#00E676"
  />
</svg>
