<svg viewBox="0 0 24 24" xmlns="http://www.w3.org/2000/svg">
  <path
    d="M12 13.862L9.2512 18.2955L4.6404 10.7586V18.6502H1.3596V5.3502H4.6404L9.2512 13.2418V9.695L11.9113 13.8625L12 13.862ZM12.532 8.8078V5.3497H9.25122V8.8078H12.532ZM17.4975 12.4433C17.1173 12.4195 16.7396 12.5187 16.4202 12.7263C16.1008 12.9339 15.8567 13.2389 15.7241 13.596C15.9556 13.2662 16.2924 13.025 16.6792 12.9122C17.0661 12.7993 17.4798 12.8216 17.8522 12.9753C18.2069 13.1527 18.7389 13.33 19.0049 13.2413C18.8354 12.9978 18.6102 12.7984 18.348 12.6596C18.0858 12.5208 17.7942 12.4466 17.4975 12.4433ZM20.5123 13.33C20.1576 13.33 19.803 13.1527 19.537 12.798L19.3596 12.532C19.2464 12.3285 19.096 12.148 18.9163 12C18.5986 11.8011 18.2261 11.708 17.8523 11.7339C17.4196 11.7324 16.996 11.8575 16.6336 12.0939C16.2712 12.3302 15.9859 12.6674 15.8129 13.0639C16.0203 12.7654 16.3038 12.5278 16.6339 12.3756C16.964 12.2234 17.3288 12.1623 17.6905 12.1984C18.0523 12.2346 18.3977 12.3668 18.6912 12.5813C18.9847 12.7959 19.2154 13.0849 19.3597 13.4186C19.4469 13.5423 19.5714 13.6348 19.715 13.6827C19.8586 13.7305 20.0137 13.7312 20.1577 13.6846C20.601 13.6846 20.5124 14.0393 21.2217 14.128V14.0393C21.2217 13.6846 20.9557 13.596 20.5123 13.4186L20.5123 13.33ZM22.2857 14.4827C22.3876 14.4346 22.4744 14.3596 22.5368 14.2659C22.5993 14.1722 22.6351 14.0632 22.6404 13.9507C22.6404 11.2906 20.5123 9.07388 17.8522 9.07388C17.0633 9.07243 16.2862 9.26594 15.5901 9.63721C14.894 10.0085 14.3004 10.546 13.8621 11.202L12.5321 9.07388H9.2513L12.3547 13.8621L9.3399 18.6503H12.532L13.7734 16.4336L15.1921 18.5617H18.2955L15.5467 14.1282C15.5275 14.0406 15.5275 13.9498 15.5467 13.8622C15.5463 13.2423 15.7863 12.6464 16.2163 12.1999C16.6462 11.7534 17.2326 11.491 17.8521 11.4681C19.1821 11.4681 19.3595 12.2661 19.6255 12.6208C20.2462 13.3301 21.3989 13.0641 21.3989 13.9508C21.4036 14.053 21.4335 14.1525 21.486 14.2404C21.5384 14.3283 21.6118 14.4019 21.6996 14.4545C21.7874 14.5072 21.8868 14.5373 21.9891 14.5423C22.0913 14.5472 22.1933 14.5267 22.2857 14.4827ZM22.6404 14.66C22.4631 14.9261 22.1084 14.9261 21.931 15.1921C21.8424 15.4581 22.0197 15.5467 22.0197 15.5467C22.0197 15.5467 22.3744 15.7241 22.5517 15.2807V14.66H22.6404Z"
    fill="#039BE5"
  />
</svg>
