<svg viewBox="0 0 56 56" xmlns="http://www.w3.org/2000/svg">
  <path
    d="M13.7863 2.85364C13.24 3.39999 5.03998 13.24 5.03998 17.6136C5.03998 21.4071 10.4175 26.8144 10.5071 26.9042L10.5063 26.9063V40.0263C10.5063 40.0263 15.9736 42.2135 19.2536 44.3999C22.5336 46.5862 27.4536 53.1462 27.4536 53.1462H28.5463C28.5463 53.1462 33.4663 46.5862 36.7463 44.3999C40.0263 42.2135 45.4935 40.0263 45.4935 40.0263V26.9063L45.4928 26.9042C45.5834 26.8134 50.9598 21.4068 50.9598 17.6136C50.9598 13.24 42.7599 3.39999 42.2135 2.85364C42.4935 4.11395 42.7286 5.16799 42.927 6.05712L42.9281 6.06212C43.7214 9.618 43.9257 10.5337 44.0564 11.4599C44.1017 11.7809 44.1381 12.1032 44.1872 12.5372L44.1873 12.5387L44.1877 12.5414C44.2098 12.7377 44.2346 12.9569 44.264 13.209C44.3511 13.9541 44.3877 14.7272 44.0897 15.416C43.4519 16.8889 42.0462 18.0613 40.7292 18.8926C37.5214 15.4505 33.1913 13.24 27.9999 13.24C22.8086 13.24 18.4785 15.4505 15.2707 18.8926C13.9536 18.0613 12.5479 16.8889 11.9102 15.416C11.6121 14.7272 11.6487 13.9541 11.7358 13.209C11.7651 12.9573 11.7897 12.7385 11.8118 12.5424C11.8611 12.1058 11.8976 11.7822 11.943 11.4599C12.0732 10.537 12.2768 9.6244 13.0634 6.09896L13.0648 6.09282C13.2649 5.19624 13.5026 4.13086 13.7863 2.85364ZM30.1862 26.9063C30.1862 28.1137 29.2074 29.0926 27.9999 29.0926C26.7924 29.0926 25.8135 28.1137 25.8135 26.9063C25.8135 25.6988 26.7924 24.7199 27.9999 24.7199C29.2074 24.7199 30.1862 25.6988 30.1862 26.9063Z"
    fill="#78909C"
  />
</svg>
