<svg width="56" height="56" viewBox="0 0 56 56" fill="none" xmlns="http://www.w3.org/2000/svg">
<path d="M42.2135 2.85364C42.7599 3.39999 50.9598 13.24 50.9598 17.6136C50.9598 21.4072 45.582 26.8147 45.4928 26.9042L45.4935 26.9063V40.0263C45.4935 40.0263 40.0262 42.2135 36.7462 44.3999C33.4663 46.5862 28.5463 53.1462 28.5463 53.1462H27.4536C27.4536 53.1462 22.5336 46.5862 19.2536 44.3999C15.9736 42.2135 10.5063 40.0263 10.5063 40.0263V26.9063L10.5071 26.9042C10.4175 26.8144 5.03999 21.4071 5.03999 17.6136C5.03999 13.24 13.24 3.39999 13.7863 2.85364C13.502 4.13327 13.264 5.20027 13.0637 6.0979L13.0634 6.09896C12.2768 9.6244 12.0732 10.537 11.943 11.4599C11.8976 11.7822 11.8611 12.1058 11.8118 12.5424C11.7897 12.7385 11.7651 12.9573 11.7359 13.209C11.6487 13.9541 11.6121 14.7272 11.9102 15.416C12.5479 16.8889 13.9536 18.0613 15.2707 18.8926C18.4785 15.4505 22.8086 13.24 27.9999 13.24C33.1912 13.24 37.5213 15.4505 40.7291 18.8926C42.0462 18.0613 43.4519 16.8889 44.0897 15.416C44.3877 14.7272 44.3511 13.9541 44.264 13.209C44.2345 12.9557 44.2096 12.7357 44.1874 12.5387C44.1382 12.1043 44.1017 11.7811 44.0564 11.4599C43.9257 10.5337 43.7214 9.618 42.9281 6.06212L42.927 6.05712C42.7286 5.16799 42.4935 4.11395 42.2135 2.85364ZM30.1863 26.9063C30.1863 25.6988 29.2074 24.7199 27.9999 24.7199C26.7924 24.7199 25.8136 25.6988 25.8136 26.9063C25.8136 28.1137 26.7924 29.0926 27.9999 29.0926C29.2074 29.0926 30.1863 28.1137 30.1863 26.9063Z" fill="#78909C"/>
</svg>
