<svg viewBox="0 0 16 16" xmlns="http://www.w3.org/2000/svg">
  <path
    d="M13.7214 6.44158C13.7056 6.20014 13.503 6.10694 13.2609 6.2787C12.7063 6.17929 12.1618 6.22605 11.8933 6.20351C11.3046 6.12127 10.8145 5.81046 10.8145 5.81046C10.8861 5.7155 10.8519 5.51024 10.3921 5.49613C10.2656 5.45459 10.1358 5.39442 10.0131 5.34445C10.0549 5.25669 10.0029 5.12708 10.0029 5.12708C10.19 5.07557 10.2186 4.8326 10.1449 4.6895C10.3835 4.69593 10.3455 4.32787 10.3126 4.20041C10.4997 4.12966 10.5255 3.90677 10.448 3.73064C10.6738 3.67921 10.6802 3.41531 10.6609 3.22875C10.8931 3.21587 10.8609 2.81048 10.8609 2.72678C11.061 2.59809 11.0158 2.42433 11.0472 2.22298C11.1706 1.97388 11.0029 1.90313 10.8847 2.16856C10.7578 2.39858 10.5951 2.49899 10.5966 2.66892C10.6546 2.76541 10.1644 2.90698 10.3192 3.20943C10.2095 3.34456 9.95156 3.51832 10.0432 3.7255C9.99666 3.82713 9.66766 4.06528 9.80957 4.29047C9.50002 4.49642 9.51846 4.54609 9.58384 4.73449C9.49572 4.7909 9.40575 4.8772 9.35373 4.97163C9.25239 4.85145 9.15374 4.63216 9.1552 4.33592C9.1552 4.0849 8.68661 4.36029 8.68661 4.8559C8.68661 4.89851 8.68223 4.93722 8.67624 4.97409C8.51412 4.99271 8.31121 5.02828 8.05544 5.0886C8.0473 5.09419 8.04338 5.10286 8.04146 5.11282C8.03139 5.07565 8.02371 5.0361 8.02017 4.99379C7.97546 4.70329 7.64109 4.26104 7.47798 4.80723C7.39377 5.00735 7.34429 5.14386 7.31548 5.25094C7.31548 5.25094 7.28966 5.26826 7.24195 5.29769C7.04073 5.42202 6.96828 5.81016 6.23739 6.0552C5.99068 6.1379 5.66883 6.20428 5.24173 6.23877C4.50646 6.29802 3.09906 7.56585 3.00479 8.77557C2.98305 9.0794 3.02861 9.82848 3.28108 10.4856C3.28123 10.486 3.28131 10.4866 3.28146 10.4871C3.28261 10.4903 3.28392 10.4933 3.28515 10.4965C3.28914 10.5067 3.29306 10.5169 3.29713 10.527C3.31865 10.582 3.34162 10.6347 3.3659 10.685C3.51072 10.9937 3.70856 11.2668 3.97548 11.4424C4.11101 11.5479 4.23225 11.6155 4.31138 11.6541C4.76522 12.4014 5.7283 13.3597 7.54405 12.793C10.3296 12.0048 11.8668 13.8515 12.0439 13.9811C12.305 14.2442 11.3689 11.6943 9.38654 10.5482C8.21463 9.91034 8.95029 8.81167 9.03427 8.42368C9.03427 8.42368 9.97368 9.07956 10.6544 8.07724C11.2694 8.23528 11.6814 7.96518 12.2103 8.15618C12.5317 8.29668 13.8829 8.21183 13.3808 7.45838C13.6965 7.25274 13.7299 7.31927 13.8878 7.00617C13.9727 6.62661 13.7801 6.54536 13.7214 6.44158Z"
    fill="#77AA99"
  />
</svg>
