<svg viewBox="0 0 24 24" xmlns="http://www.w3.org/2000/svg">
  <path
    d="M20.47 17.38C20.79 17.21 21 16.88 21 16.5V7.5C21 7.12 20.79 6.79 20.47 6.62L12.57 2.18C12.41 2.06 12.21 2 12 2C11.79 2 11.59 2.06 11.43 2.18L3.53 6.62C3.21 6.79 3 7.12 3 7.5V16.5C2.9995 16.6811 3.04864 16.8589 3.14208 17.014C3.23552 17.1692 3.36968 17.2957 3.53 17.38L11.43 21.82C11.59 21.94 11.79 22 12 22C12.21 22 12.41 21.94 12.57 21.82L20.47 17.38ZM10.2807 5.11638L12 4.15L17.96 7.5L16.1576 8.5131L10.2807 5.11638ZM8.28733 6.23682L14.2551 9.58243L12 10.85L6.04 7.5L8.28733 6.23682ZM11 19.29L5 15.91V9.21L11 12.58V19.29ZM19 9.21V15.91L13 19.29V12.58L19 9.21Z"
    fill="#29B6F6"
  />
</svg>
