<svg viewBox="0 0 16 16" xmlns="http://www.w3.org/2000/svg">
  <path
    d="M2.997 14.967C2.65262 14.8807 2.34341 14.6219 2.23165 14.3264C2.09553 13.9666 2.07494 14.0436 3.35065 10.1406C4.62665 6.23684 4.53205 6.56134 4.36115 6.67444C3.61964 7.16515 2.65775 6.75592 2.41115 5.84479C2.23556 5.1961 2.4381 4.83819 3.30984 4.25669C4.58364 3.40702 5.28904 2.78059 5.91274 1.94489C6.40454 1.28598 6.59504 1.14677 7.10704 1.07214C7.7301 0.981328 8.31054 1.21012 8.52534 1.63119C8.6005 1.77852 8.54455 1.78548 8.94151 1.57936C13.9333 -1.01264 15.8729 5.74686 11.0559 8.94776C9.69501 9.85207 7.09031 10.5464 6.21601 10.238L6.08822 10.1929L5.94365 10.6318C5.86413 10.8732 5.56606 11.7924 5.28127 12.6745C4.65867 14.6028 4.63635 14.6456 4.12927 14.8833C3.90082 14.9904 3.27502 15.0367 2.997 14.967ZM3.72557 14.1951C3.99789 14.1265 3.94985 14.2469 4.99547 11.0147C6.26287 7.09721 6.45857 6.63011 7.37587 5.33391C9.40527 2.46621 12.2108 1.93671 11.9533 4.46996C11.7352 6.61526 9.77607 8.19006 6.95227 8.48986C6.46005 8.54211 6.37616 8.60651 6.30602 8.98589C6.20584 9.52782 6.48612 9.61737 7.65592 9.41718C10.6992 8.89634 12.7619 7.01938 13.047 4.51148C13.4117 1.30368 9.87972 0.86028 7.48632 3.8133C7.19805 4.16897 7.19281 4.23063 7.54575 3.11492C7.93836 1.87382 7.93454 1.84942 7.34798 1.84932C7.04186 1.84926 6.95094 1.89586 6.74375 2.15899C6.67213 2.24995 6.50093 2.46882 6.3633 2.64537C5.78314 3.38962 4.9211 4.13497 3.7317 4.92047C3.0802 5.35078 3.0237 5.46217 3.26442 5.84174C3.42138 6.08924 3.60103 6.16193 3.82473 6.06847C4.06175 5.96944 5.40003 4.95857 5.82553 4.55727C5.95023 4.43963 6.05226 4.35301 6.05226 4.36477C6.05226 4.37653 5.35222 6.53447 4.49666 9.16007C3.64106 11.7858 2.94106 13.9546 2.94106 13.9798C2.94106 14.1784 3.34817 14.2901 3.72557 14.1951ZM7.68807 7.58591C9.69557 7.15384 11.0949 5.84261 11.1743 4.31901C11.2054 3.7223 11.1436 3.62794 10.7382 3.65257C9.61706 3.72066 7.68706 5.75327 6.98156 7.60877L6.94843 7.6959L7.16586 7.67367C7.28545 7.66144 7.52048 7.62198 7.68807 7.58591Z"
    fill="#9575CD"
  />
</svg>
