<svg viewBox="0 0 16 16" xmlns="http://www.w3.org/2000/svg">
<path d="M2.997 14.967C2.653 14.881 2.343 14.622 2.232 14.327C2.096 13.967 2.075 14.044 3.351 10.141C4.627 6.238 4.532 6.561 4.361 6.674C3.62 7.165 2.658 6.756 2.411 5.844C2.236 5.196 2.438 4.838 3.31 4.257C4.584 3.407 5.289 2.781 5.913 1.945C6.405 1.286 6.595 1.147 7.107 1.072C7.73 0.982 8.311 1.21 8.525 1.632C8.6 1.779 8.545 1.785 8.942 1.579C13.933 -1.013 15.872 5.747 11.056 8.948C9.695 9.852 7.09 10.546 6.216 10.238L6.088 10.193L5.944 10.632C5.864 10.873 5.566 11.792 5.281 12.674C4.659 14.603 4.636 14.646 4.129 14.884C3.901 14.99 3.275 15.037 2.997 14.967ZM3.726 14.195C3.998 14.127 3.95 14.247 4.996 11.015C6.263 7.097 6.459 6.63 7.376 5.334C9.406 2.466 12.211 1.937 11.953 4.47C11.735 6.615 9.776 8.19 6.953 8.49C6.46 8.542 6.376 8.607 6.306 8.986C6.206 9.528 6.486 9.617 7.656 9.417C10.699 8.897 12.762 7.019 13.047 4.511C13.412 1.304 9.88 0.861 7.487 3.813C7.198 4.169 7.193 4.231 7.546 3.115C7.938 1.874 7.935 1.849 7.348 1.849C7.042 1.849 6.951 1.896 6.744 2.159C6.672 2.249 6.501 2.469 6.364 2.645C5.784 3.39 4.921 4.135 3.732 4.92C3.08 5.35 3.024 5.462 3.264 5.842C3.421 6.089 3.601 6.162 3.824 6.068C4.062 5.969 5.4 4.958 5.826 4.558C5.95 4.44 6.052 4.353 6.052 4.365C6.052 4.377 5.352 6.535 4.497 9.16C3.96953 10.7638 3.45086 12.3705 2.941 13.98C2.941 14.178 3.348 14.29 3.726 14.195ZM7.688 7.585C9.696 7.154 11.095 5.843 11.174 4.319C11.205 3.722 11.144 3.628 10.738 3.653C9.618 3.721 7.688 5.753 6.982 7.609L6.948 7.696L7.166 7.674C7.34121 7.65236 7.51538 7.622 7.688 7.585Z" fill="#9575CD"/>
</svg>
