<svg viewBox="0 0 16 16" xmlns="http://www.w3.org/2000/svg">
  <path
    d="M12.278 8C11.9685 8 11.6717 7.87705 11.4528 7.65819C11.234 7.43934 11.111 7.14251 11.111 6.833C11.1113 6.52367 11.2343 6.22709 11.4532 6.00845C11.672 5.78981 11.9687 5.667 12.278 5.667C12.5872 5.66726 12.8836 5.7902 13.1022 6.00881C13.3208 6.22742 13.4437 6.52384 13.444 6.833C13.444 7.14233 13.3212 7.43901 13.1025 7.65784C12.8839 7.87667 12.5873 7.99973 12.278 8ZM9.944 4.889C9.63467 4.88873 9.33809 4.76567 9.11945 4.54684C8.90081 4.32801 8.778 4.03133 8.778 3.722C8.77826 3.41284 8.9012 3.11642 9.11981 2.89781C9.33842 2.6792 9.63484 2.55626 9.944 2.556C10.2533 2.556 10.55 2.67881 10.7688 2.89745C10.9877 3.11609 11.1107 3.41267 11.111 3.722C11.1111 3.87534 11.081 4.0272 11.0225 4.1689C10.9639 4.3106 10.8779 4.43937 10.7695 4.54784C10.6612 4.65631 10.5325 4.74236 10.3908 4.80107C10.2492 4.85978 10.0973 4.889 9.944 4.889ZM6.056 4.89C5.74649 4.89 5.44966 4.76705 5.23081 4.54819C5.01195 4.32934 4.889 4.03251 4.889 3.723C4.88927 3.41367 5.01233 3.11709 5.23116 2.89845C5.44999 2.67981 5.74667 2.557 6.056 2.557C6.36516 2.55726 6.66158 2.6802 6.88019 2.89881C7.0988 3.11742 7.22174 3.41384 7.222 3.723C7.222 4.03233 7.09919 4.32901 6.88055 4.54784C6.66191 4.76667 6.36533 4.88973 6.056 4.89ZM3.722 8C3.41267 7.99973 3.11609 7.87667 2.89745 7.65784C2.67881 7.43901 2.556 7.14233 2.556 6.833C2.55626 6.52384 2.6792 6.22742 2.89781 6.00881C3.11642 5.7902 3.41284 5.66726 3.722 5.667C3.87525 5.66687 4.02703 5.69692 4.16867 5.75545C4.31031 5.81398 4.43903 5.89983 4.54749 6.0081C4.65595 6.11637 4.74202 6.24495 4.80079 6.38648C4.85955 6.52802 4.88987 6.67975 4.89 6.833C4.89 6.98634 4.85978 7.13817 4.80107 7.27982C4.74236 7.42148 4.65631 7.55017 4.54784 7.65855C4.43937 7.76693 4.3106 7.85287 4.1689 7.91145C4.0272 7.97004 3.87534 8.00013 3.722 8ZM8 1C6.14348 1 4.36301 1.7375 3.05025 3.05025C1.7375 4.36301 1 6.14348 1 8C1 9.85652 1.7375 11.637 3.05025 12.9497C4.36301 14.2625 6.14348 15 8 15C8.30951 15 8.60634 14.877 8.82519 14.6582C9.04405 14.4393 9.167 14.1425 9.167 13.833C9.167 13.53 9.05 13.258 8.863 13.056C8.67541 12.8399 8.57084 12.5641 8.568 12.278C8.568 11.9687 8.69081 11.672 8.90945 11.4532C9.12809 11.2343 9.42467 11.1113 9.734 11.111H11.111C12.1424 11.111 13.1316 10.7013 13.8609 9.97194C14.5903 9.24261 15 8.25343 15 7.222C15 3.784 11.866 1 8 1Z"
    fill="#4FC3F7"
  />
</svg>
