<svg viewBox="0 0 24 24" xmlns="http://www.w3.org/2000/svg">
  <path d="M9.19694 13.3495H12.6307C14.0967 13.3495 15.3528 13.1094 16.3987 12.6293C17.4533 12.1492 18.2592 11.4676 18.8165 10.5845C19.3738 9.70141 19.6524 8.65544 19.6524 7.44656C19.6524 6.25484 19.3738 5.196 18.8165 4.27006C18.2592 3.34411 17.4533 2.61965 16.3987 2.09666C15.3528 1.5651 14.0967 1.29932 12.6307 1.29932H5.33884V20.024H9.19694V13.3495ZM12.6307 10.3401H9.19694V4.3215H12.6307C13.368 4.3215 13.9681 4.46725 14.4311 4.75875C14.8941 5.05025 15.2327 5.43606 15.4471 5.91618C15.6614 6.3963 15.7686 6.915 15.7686 7.47229C15.7686 8.02099 15.6614 8.51397 15.4471 8.95123C15.2327 9.38848 14.8941 9.73142 14.4311 9.98005C13.9681 10.2201 13.368 10.3401 12.6307 10.3401Z" fill="#0288d1"/>
</svg>
