<svg viewBox="0 0 24 24" xmlns="http://www.w3.org/2000/svg">
  <path
    d="M16.145 6.113V16.637L16.988 17.125L17.227 17.262L18.902 16.297C18.9844 16.2496 19.0528 16.1813 19.1003 16.0989C19.1477 16.0165 19.1724 15.9231 19.172 15.828V8.172C19.172 7.977 19.07 7.801 18.902 7.703L16.145 6.113ZM5.973 13.25L4.895 13.875L4.828 13.914V15.828C4.82756 15.9231 4.85231 16.0165 4.89974 16.0989C4.94717 16.1813 5.01557 16.2496 5.098 16.297L11.73 20.125C11.8119 20.1731 11.9051 20.1984 12 20.1984C12.0949 20.1984 12.1881 20.1731 12.27 20.125L15.074 18.504L5.973 13.25ZM8.129 12.008L13.992 15.395V8.621L8.129 12.008ZM13.992 6.137V4.871L12.27 3.875C12.1881 3.82691 12.0949 3.80155 12 3.80155C11.9051 3.80155 11.8119 3.82691 11.73 3.875L5.098 7.703C4.93 7.801 4.828 7.977 4.828 8.172V11.426L13.992 6.137ZM10.652 2.012C11.0613 1.7739 11.5264 1.64847 12 1.64847C12.4736 1.64847 12.9387 1.7739 13.348 2.012L19.98 5.84C20.3892 6.07635 20.7288 6.41634 20.9648 6.82574C21.2007 7.23514 21.3246 7.69948 21.324 8.172V15.828C21.324 16.789 20.812 17.68 19.98 18.16L13.348 21.988C12.9387 22.2261 12.4736 22.3515 12 22.3515C11.5264 22.3515 11.0613 22.2261 10.652 21.988L4.02 18.16C3.61083 17.9237 3.27117 17.5837 3.03523 17.1743C2.79928 16.7649 2.67538 16.3005 2.676 15.828V8.172C2.676 7.207 3.187 6.32 4.02 5.84L10.652 2.012Z"
    fill="#9575CD"
  />
</svg>
