<svg viewBox="0 0 24 24" xmlns="http://www.w3.org/2000/svg">
  <path
    d="M11.057 2.981C11.5937 3.71555 11.0852 4.6337 11.1982 5.453C11.1941 5.90373 11.1008 6.34919 10.9239 6.76374C10.7469 7.17829 10.4897 7.55374 10.167 7.8685C8.75442 9.493 7.00282 10.9056 6.07052 12.8973C5.68303 13.9 5.61066 14.9971 5.86307 16.0421C6.11547 17.087 6.68064 18.0301 7.48312 18.7454C8.18942 19.48 9.02282 20.0874 9.95512 20.4829C10.1246 21.2881 8.86742 20.6665 8.50012 20.4829C7.54776 20.1573 6.68107 19.6211 5.9645 18.9143C5.24793 18.2075 4.69992 17.3483 4.36122 16.4005C4.02703 15.5052 3.93464 14.5377 4.09336 13.5954C4.25207 12.653 4.65628 11.7691 5.26528 11.0327C6.53658 9.4223 8.40128 8.49 9.92688 7.1763C10.4919 6.62539 10.9298 5.8767 10.8592 5.0574C11.0146 4.37936 10.6049 3.5883 11.0711 2.9668L11.057 2.981ZM10.9863 21.91C10.8168 22.1078 10.5202 22.2349 10.4919 22.1501C10.4496 22.0654 10.7038 22.023 10.8733 21.8252C11.0428 21.6416 11.0005 21.3026 11.1135 21.3026C11.2123 21.3026 11.1558 21.6981 10.9722 21.91L10.9863 21.91ZM13.1476 21.91C13.3171 22.1078 13.5997 22.2208 13.642 22.1501C13.6703 22.0654 13.4302 22.0089 13.2465 21.8111C13.0911 21.6275 13.1335 21.2885 13.0064 21.2885C12.9216 21.2885 12.9781 21.6981 13.1476 21.8959L13.1476 21.91ZM12.1164 22.3903C12.0176 22.3903 12.0458 22.0936 12.0458 21.7405C12.0458 21.3732 12.0175 21.0766 12.1164 21.0766C12.2012 21.0766 12.1729 21.3732 12.1729 21.7405C12.1729 22.0936 12.1871 22.3903 12.1164 22.3903ZM11.622 1.62528C11.961 1.86542 11.8763 3.70178 11.8763 4.76128C11.8763 6.41398 12.0599 8.13738 11.0711 9.67708C10.1106 11.1744 9.02281 12.7848 9.12171 14.6494C9.22059 16.4858 10.1105 18.1526 11.2688 19.6923C11.9327 20.5681 10.9157 20.2008 10.393 19.777C9.53486 19.1031 8.84102 18.2431 8.36384 17.2618C7.88665 16.2805 7.6386 15.2037 7.6384 14.1125C7.77966 12.2055 9.2346 10.7647 10.2658 9.30974C11.071 8.17964 11.4524 7.43104 11.4806 5.66524C11.5089 4.25264 11.3393 2.13374 11.523 1.68174C11.5371 1.63936 11.5938 1.5829 11.622 1.62528ZM12.1588 3.85718C12.074 3.85718 12.1164 4.25271 12.1871 4.5776C12.6108 6.8377 11.9893 9.0979 11.4384 11.2592C10.7107 13.833 10.8095 16.5704 11.7209 19.085C12.3283 20.653 13.4301 19.8761 13.8822 20.653C14.2212 21.2463 15.1535 20.8508 15.8598 20.5117C18.0917 19.4099 19.8716 17.404 19.9704 14.9461C19.9987 14.4517 19.9704 13.9573 19.8998 13.4488C19.6173 11.6124 18.1199 10.3835 16.7497 9.36644C15.5349 8.47651 14.0093 7.88324 13.0911 6.75314C12.5684 6.10335 12.7944 5.11454 12.7097 4.29524C12.6673 3.84321 12.4554 4.25286 12.3283 4.02685C12.2435 3.89972 12.1871 3.85718 12.1588 3.85718ZM12.8792 7.47338C12.9357 7.47338 13.0487 7.54401 13.2041 7.69939C13.868 8.37743 14.6167 9.05549 15.3654 9.62049C16.6367 10.5811 17.7951 11.7111 18.3318 13.1237C18.6708 13.9995 18.6708 14.9601 18.5578 15.8641C18.3742 17.2484 17.3712 18.3079 16.4389 19.2684C16.0999 19.6215 15.3795 20.0594 15.3653 19.9464C15.2806 19.5792 16.1281 18.774 16.5236 18.2513C17.2625 17.1523 17.6125 15.8377 17.5177 14.5168C17.423 13.1959 16.8891 11.9447 16.001 10.9623C14.8992 9.74753 13.6844 9.05533 13.0063 7.88293C12.865 7.62866 12.8226 7.47328 12.8933 7.47328L12.8792 7.47338Z"
    fill="#BA68C8"
  />
</svg>
