<svg viewBox="0 0 32 32" xmlns="http://www.w3.org/2000/svg">
  <path
    d="M16.08 4.6C16.08 4.6 18.514 4.5 20.55 6.099C20.6245 6.16332 20.7196 6.19872 20.818 6.19872C20.9164 6.19872 21.0115 6.16332 21.086 6.099C21.1605 6.03108 21.2053 5.93659 21.2107 5.83594C21.2161 5.73529 21.1817 5.63654 21.115 5.561C21.013 5.437 20.565 4.987 20.211 4.968C20.211 4.968 20.914 4.006 22.742 4.006C25.065 4.006 30 7.381 30 13.702C30 19.776 26.023 21.085 24.942 21.085C23.297 21.085 21.592 19.388 21.592 18.303C22.2004 17.9522 22.7263 17.4748 23.134 16.903C23.5421 16.3293 23.8218 15.6745 23.954 14.983C23.954 14.983 24.042 12.393 23.954 10.197C23.9363 10.1002 23.8879 10.0116 23.8161 9.94427C23.7443 9.87695 23.6528 9.83444 23.555 9.823C23.5005 9.82167 23.4463 9.83123 23.3955 9.85111C23.3447 9.87099 23.2984 9.9008 23.2593 9.93879C23.2202 9.97679 23.1891 10.0222 23.1677 10.0724C23.1464 10.1225 23.1353 10.1765 23.135 10.231C23.135 10.2767 23.1388 10.3666 23.1443 10.5003C23.1687 11.0839 23.2279 12.5018 23.162 14.717C23.118 16.183 21.73 17.329 21.077 17.587C21.2897 16.989 21.4657 16.38 21.605 15.76C21.655 15.522 21.605 15.355 21.445 15.288C21.4007 15.2676 21.3525 15.2567 21.3037 15.2559C21.2549 15.2552 21.2065 15.2647 21.1615 15.2839C21.1166 15.303 21.0762 15.3313 21.0429 15.367C21.0095 15.4026 20.984 15.4449 20.968 15.491C20.9602 15.5067 20.9328 15.5872 20.8865 15.7228C20.3007 17.4392 16.7004 27.989 11.858 27.989C7.442 27.989 4.897 21.689 4.897 20.244C4.897 18.799 5.818 18.117 6.631 18.117C7.444 18.117 8.553 18.934 8.688 19.194C8.823 19.454 8.106 20.077 8.106 20.077L7.481 19.572C7.41038 19.5174 7.32301 19.4891 7.23381 19.4918C7.14462 19.4946 7.05914 19.5282 6.992 19.587C6.9236 19.6536 6.88419 19.7445 6.88232 19.8399C6.88045 19.9354 6.91626 20.0278 6.982 20.097C7.142 20.257 11.915 24.103 11.915 24.103C11.9904 24.1746 12.0886 24.2174 12.1923 24.2242C12.2961 24.2309 12.3989 24.2012 12.483 24.14C12.555 24.0719 12.5972 23.9781 12.6003 23.879C12.6035 23.7799 12.5675 23.6836 12.5 23.611L11.156 22.528L12.587 18.498C12.587 18.498 10.39 17.516 8.955 18.6C8.955 18.6 8.198 17.339 6.695 17.339C6.05168 17.3288 5.42918 17.5669 4.957 18.004C4.48288 18.4431 4.19393 19.0464 4.149 19.691C4.149 19.691 2 17.6 2 13.735C2 9.358 5.467 4 9.487 4C10.3943 3.99978 11.2737 4.31433 11.975 4.89L11.087 5.564C11.012 5.63556 10.9671 5.73304 10.9616 5.83655C10.956 5.94006 10.9901 6.0418 11.057 6.121C11.1201 6.19122 11.2071 6.23544 11.301 6.24505C11.3949 6.25466 11.489 6.22898 11.565 6.173C11.5761 6.16482 11.5954 6.14801 11.6229 6.124C11.9419 5.84571 13.3699 4.6 16.08 4.6ZM19.76 13.005C19.8205 13.004 19.8804 12.986 19.931 12.9529C19.9817 12.9198 20.0219 12.873 20.047 12.818C20.0471 12.818 20.0476 12.8174 20.0483 12.8161C20.0494 12.8144 20.0511 12.8115 20.0533 12.8076C20.0934 12.7375 20.322 12.338 20.717 12.338C21.1434 12.338 21.3749 12.759 21.3914 12.7889L21.392 12.79C21.4148 12.8382 21.4494 12.8798 21.4926 12.9111C21.5357 12.9424 21.586 12.9624 21.6389 12.9691C21.6918 12.9759 21.7455 12.9693 21.7952 12.9498C21.8448 12.9304 21.8888 12.8988 21.923 12.858C21.9632 12.8079 21.988 12.7472 21.9942 12.6832C22.0004 12.6193 21.9877 12.5546 21.9579 12.4977C21.9398 12.4628 21.5447 11.697 20.717 11.697C19.9024 11.697 19.5059 12.481 19.4744 12.5433L19.473 12.546C19.4496 12.5948 19.439 12.6488 19.4422 12.7028C19.4453 12.7569 19.4621 12.8092 19.491 12.855C19.5196 12.9006 19.5592 12.9383 19.6063 12.9645C19.6533 12.9907 19.7062 13.0046 19.76 13.005ZM10.6063 12.9645C10.6533 12.9907 10.7062 13.0046 10.76 13.005C10.8205 13.004 10.8804 12.986 10.931 12.9529C10.9817 12.9198 11.0219 12.873 11.047 12.818C11.0474 12.818 11.0495 12.8143 11.0533 12.8076C11.0934 12.7375 11.322 12.338 11.717 12.338C12.1434 12.338 12.3749 12.759 12.3914 12.7889L12.392 12.79C12.4148 12.8382 12.4494 12.8798 12.4926 12.9111C12.5357 12.9424 12.586 12.9624 12.6389 12.9691C12.6918 12.9759 12.7455 12.9693 12.7952 12.9498C12.8448 12.9304 12.8888 12.8988 12.923 12.858C12.9632 12.8079 12.988 12.7472 12.9942 12.6832C13.0004 12.6193 12.9878 12.5549 12.958 12.498C12.94 12.4631 12.5447 11.697 11.717 11.697C10.9024 11.697 10.5059 12.481 10.4744 12.5433C10.4738 12.5444 10.4733 12.5453 10.473 12.546C10.4496 12.5948 10.439 12.6488 10.4422 12.7028C10.4453 12.7569 10.4621 12.8092 10.491 12.855C10.5196 12.9006 10.5592 12.9383 10.6063 12.9645Z"
    fill="#5C6BC0"
  />
</svg>
