<svg viewBox="0 0 24 24" fill="none" xmlns="http://www.w3.org/2000/svg">
  <path
    d="M16.136 7.17202C18.484 7.80202 20.386 7.63002 21.178 7.49002V7.49102C21.3325 7.46387 21.4768 7.43575 21.6107 7.40965C22.4532 7.24552 22.8841 7.16158 22.834 7.90102C22.784 8.65802 22.603 9.83003 22.187 11.378C21.289 14.733 18.331 21.2 12.777 19.711C11.2585 19.304 10.2053 18.4793 9.4948 17.4272C9.3083 17.5031 9.11089 17.5697 8.902 17.626C4.614 18.781 2.345 13.811 1.657 11.231C1.34 10.041 1.202 9.13802 1.165 8.55802C1.1279 7.98772 1.46077 8.05165 2.10965 8.17626C2.21285 8.19608 2.32403 8.21744 2.443 8.23802C3.055 8.34402 4.52 8.47402 6.333 7.98502C7.52094 7.66461 8.44785 7.1892 9.07997 6.78752C9.39952 5.75145 9.71229 4.97617 9.97001 4.45303C10.2973 3.78888 10.6277 4.07601 11.2729 4.63688C11.3767 4.72712 11.4886 4.82444 11.61 4.92603C12.228 5.44302 13.786 6.54202 16.136 7.17202ZM8.22777 13.3378C8.18567 13.3487 8.14374 13.3605 8.102 13.373C6.032 13.961 5.738 15.664 5.738 15.664L8.4525 14.8948C8.33987 14.3863 8.26752 13.8633 8.22777 13.3378ZM12.376 9.32603C10.891 8.90303 10.016 10.266 10.016 10.266L13.976 11.391C13.976 11.391 13.862 9.74803 12.376 9.32603ZM10.626 13.528C10.626 13.528 11.029 15.611 13.64 16.376C16.226 17.13 17.642 15.49 17.642 15.49L10.626 13.528ZM18.48 11.158C16.996 10.734 16.122 12.096 16.122 12.096L20.082 13.223C20.082 13.223 19.964 11.582 18.48 11.158ZM6.351 10.464L3.304 11.267C3.304 11.267 3.977 12.238 5.119 11.938C6.261 11.637 6.351 10.464 6.351 10.464Z"
    fill="#4CAF50"
  />
</svg>
