<svg viewBox="0 0 32 32" xmlns="http://www.w3.org/2000/svg">
  <path
    d="M3.2 12L5.6 8H10C11.0609 8 12.0783 7.57857 12.8284 6.82843C13.5786 6.07828 14 5.06087 14 4H18.4298L15.7881 8.52686C15.1701 9.5822 14.2872 10.4578 13.2268 11.067C12.1663 11.6762 10.9651 11.9978 9.74219 12H3.2Z"
    fill="#536DFE"
  />
  <path
    d="M20.7448 4L17.5156 9.53467C16.721 10.8914 15.5857 12.0172 14.2223 12.8004C12.8589 13.5836 11.3146 13.9971 9.74219 14H2V18H9.74219C11.3147 18.003 12.8591 18.4166 14.2227 19.1998C15.5862 19.9829 16.7216 21.1086 17.5166 22.4653L20.7451 28H23L29.1596 18.7735C29.7078 17.9524 30.0003 16.9873 30.0003 16C30.0003 15.0127 29.7078 14.0476 29.1596 13.2265L23 4H20.7448ZM21.6955 25.7637L20.5738 23.8408L24.3272 18.2183C24.7674 17.5622 25.0024 16.79 25.0024 16C25.0024 15.21 24.7674 14.4378 24.3272 13.7817L20.5738 8.15917L21.6955 6.23634L25.9912 12.6714C26.6511 13.6561 27.0034 14.8147 27.0034 16C27.0034 17.1853 26.6511 18.3439 25.9912 19.3286L21.6955 25.7637ZM19.1468 21.3945L16 16L19.1468 10.6055L21.2306 13.5228C21.7469 14.2456 22.0244 15.1117 22.0244 16C22.0244 16.8883 21.7469 17.7544 21.2306 18.4772L19.1468 21.3945Z"
    fill="#536DFE"
  />
  <path
    d="M14 28H18.4302L15.7891 23.4731C15.1708 22.4178 14.2877 21.5423 13.2271 20.9331C12.1665 20.324 10.9653 20.0023 9.74219 20H3.2L5.6 24H10C11.0609 24 12.0783 24.4214 12.8284 25.1716C13.5786 25.9217 14 26.9391 14 28Z"
    fill="#536DFE"
  />
</svg>
