<svg width="79" height="78" viewBox="0 0 79 78" fill="none" xmlns="http://www.w3.org/2000/svg">
<path d="M9.37167 50.3748L6.48166 54.5468H11.297C12.746 57.1757 14.5679 59.6116 16.7285 61.7723C22.7681 67.8118 30.9594 71.2048 39.5006 71.2048C48.0418 71.2048 56.2331 67.8118 62.2726 61.7723C64.4333 59.6116 66.2551 57.1757 67.7042 54.5468H72.5187L69.6292 50.3757C70.989 46.7742 71.7051 42.9241 71.7051 39.0002C71.7051 30.459 68.3122 22.2677 62.2726 16.2281C56.2331 10.1886 48.0418 6.79565 39.5006 6.79565C30.9594 6.79565 22.7681 10.1886 16.7285 16.2281C10.689 22.2677 7.29605 30.459 7.29605 39.0002C7.29605 42.9238 8.01204 46.7735 9.37167 50.3748ZM36.7166 10.8999L12.2147 46.2706C11.588 43.9187 11.2628 41.4762 11.2628 39.0002C11.2628 31.5111 14.2378 24.3287 19.5335 19.0331C24.1688 14.3977 30.2497 11.5404 36.7166 10.8999ZM66.7862 46.2717L54.6138 28.7003V25.8884H52.6659L42.2826 10.8997C48.7502 11.5398 54.8319 14.3972 59.4677 19.0331C64.7634 24.3287 67.7384 31.5111 67.7384 39.0002C67.7384 41.4766 67.4131 43.9195 66.7862 46.2717ZM39.4997 13.9654L47.7592 25.8884H31.2404L39.4997 13.9654ZM26.5115 50.5134H14.1823L26.5115 32.715V50.5134ZM29.9291 45.0884C30.4833 46.1261 31.1913 47.0863 32.0384 47.9333C33.1481 49.0431 34.452 49.9141 35.8701 50.5134H29.9291V45.0884ZM45.2552 50.5134C46.6733 49.9141 47.9772 49.0431 49.0869 47.9333C49.934 47.0863 50.6419 46.1261 51.1962 45.0884V50.5134H45.2552ZM29.9291 29.3061H33.9856C33.2886 29.7598 32.6354 30.2877 32.0384 30.8848C31.1913 31.7318 30.4833 32.6919 29.9291 33.7296V29.3061ZM47.1397 29.3061H50.1268L51.1962 30.8498V33.7296C50.6419 32.6919 49.934 31.7318 49.0869 30.8848C48.4899 30.2877 47.8367 29.7598 47.1397 29.3061ZM54.6138 35.7833L64.8179 50.5134H54.6138V35.7833ZM63.0736 54.5468C62.0316 56.1267 60.826 57.6091 59.4677 58.9673C54.1721 64.263 46.9897 67.238 39.5006 67.238C32.0115 67.238 24.8291 64.263 19.5335 58.9673C18.1752 57.6091 16.9696 56.1267 15.9276 54.5468H63.0736ZM34.3054 33.1517C35.9649 31.4922 38.2157 30.5599 40.5626 30.5599C42.9096 30.5599 45.1604 31.4922 46.8199 33.1517C48.4795 34.8113 49.4118 37.0621 49.4118 39.409C49.4118 41.756 48.4795 44.0068 46.8199 45.6663C45.1604 47.3259 42.9096 48.2582 40.5626 48.2582C38.2157 48.2582 35.9649 47.3259 34.3054 45.6663C32.6458 44.0068 31.7135 41.756 31.7135 39.409C31.7135 37.0621 32.6458 34.8113 34.3054 33.1517Z" fill="#E53935"/>
</svg>
