<svg xmlns="http://www.w3.org/2000/svg" width="67" height="66" fill="none"><path fill="#E53935" fill-rule="evenodd" d="M33.5 4.762a28.238 28.238 0 1 0 0 56.476 28.238 28.238 0 0 0 0-56.476ZM10.73 10.228a32.205 32.205 0 1 1 45.544 45.545 32.205 32.205 0 0 1-45.545-45.545Z" clip-rule="evenodd"/><path fill="#E53935" fill-rule="evenodd" d="m33.5.882 33.019 47.665H.482L33.5.882Zm0 7.083L8.182 44.513h50.636L33.5 7.965Z" clip-rule="evenodd"/><path fill="#E53935" fill-rule="evenodd" d="M33.5 24.603c-2.335 0-4.59.971-6.265 2.726-1.677 1.757-2.632 4.155-2.632 6.671s.955 4.914 2.632 6.671c1.675 1.755 3.93 2.726 6.265 2.726 2.335 0 4.59-.971 6.265-2.726 1.677-1.757 2.632-4.155 2.632-6.671s-.955-4.914-2.632-6.671c-1.675-1.755-3.93-2.726-6.265-2.726Zm-8.584.512c2.263-2.371 5.35-3.718 8.584-3.718 3.235 0 6.32 1.347 8.584 3.718 2.261 2.369 3.519 5.566 3.519 8.885 0 3.32-1.258 6.516-3.519 8.885-2.263 2.371-5.35 3.718-8.584 3.718-3.235 0-6.32-1.347-8.584-3.718-2.261-2.369-3.519-5.566-3.519-8.885 0-3.32 1.258-6.516 3.519-8.885Z" clip-rule="evenodd"/><path fill="#E53935" d="M20.5 20h25v3.42h-25V20Z"/><path fill="#E53935" d="M20 22h3.42v25H20V22ZM43 22h3.42v25H43V22Z"/></svg>
