<svg viewBox="0 0 24 24" xmlns="http://www.w3.org/2000/svg">
  <path
    d="M21.783 4.039C22.271 4.039 22.579 4.437 22.45 4.924L19.305 19.075C19.195 19.563 18.718 19.961 18.23 19.961H2.218C1.731 19.961 1.422 19.563 1.552 19.075L4.696 4.925C4.806 4.437 5.283 4.039 5.771 4.039H21.783ZM15.812 15.98H11.832C11.6115 15.9813 11.4006 16.0701 11.2455 16.2269C11.0904 16.3836 11.0039 16.5955 11.005 16.816C11.005 17.283 11.374 17.661 11.831 17.661H15.812C15.923 17.6611 16.033 17.6394 16.1357 17.597C16.2383 17.5546 16.3316 17.4923 16.4102 17.4139C16.4887 17.3354 16.5511 17.2422 16.5936 17.1396C16.6361 17.037 16.658 16.9271 16.658 16.816C16.6561 16.5931 16.5661 16.38 16.4076 16.2234C16.249 16.0667 16.0349 15.9792 15.812 15.98ZM5.811 16.258C5.71713 16.3236 5.6372 16.4072 5.57582 16.5039C5.51444 16.6006 5.47283 16.7086 5.4534 16.8214C5.43397 16.9343 5.43709 17.0499 5.4626 17.1616C5.4881 17.2732 5.53548 17.3788 5.602 17.472C5.6676 17.5685 5.75167 17.6511 5.84934 17.7149C5.94702 17.7788 6.05637 17.8227 6.17109 17.844C6.28581 17.8654 6.40363 17.8639 6.51775 17.8395C6.63187 17.8151 6.74003 17.7684 6.836 17.702C14.151 12.556 14.2 12.497 14.25 12.467C14.3342 12.3913 14.4022 12.2994 14.4502 12.1969C14.4981 12.0943 14.5249 11.9831 14.529 11.87C14.5385 11.6715 14.4823 11.4753 14.369 11.312L9.473 6.06C9.39451 5.97431 9.29953 5.90535 9.19375 5.85725C9.08796 5.80916 8.97355 5.78293 8.85739 5.78013C8.74122 5.77732 8.62568 5.79801 8.5177 5.84095C8.40972 5.88389 8.31152 5.94819 8.229 6.03C8.14407 6.10736 8.07534 6.20081 8.0268 6.30493C7.97826 6.40905 7.95087 6.52177 7.94622 6.63656C7.94157 6.75134 7.95975 6.86591 7.99971 6.97362C8.03966 7.08132 8.10061 7.18002 8.179 7.264L12.309 11.682L5.811 16.258Z"
    fill="#03A9F4"
  />
</svg>
