<svg viewBox="0 0 2000 2000" xmlns="http://www.w3.org/2000/svg">
  <path
    d="M1092.82 978.704C1077.88 981.097 1062.35 982.288 1046.23 982.288H936.914V790.544H1046.23C1062.35 790.544 1077.88 791.748 1092.82 794.128C1107.74 796.523 1120.89 801.156 1132.24 808.016C1143.58 814.891 1152.7 824.592 1159.57 837.136C1166.43 849.68 1169.87 866.116 1169.87 886.416C1169.87 906.731 1166.43 923.152 1159.57 935.696C1152.7 948.24 1143.58 957.956 1132.24 964.816C1120.89 971.691 1107.74 976.324 1092.82 978.704Z"
    fill="#FFB74D"
  />
  <path
    d="M1066.94 1673.01C1029.97 1709.97 970.027 1709.97 933.059 1673.01L326.994 1066.94C290.024 1029.97 290.025 970.032 326.993 933.064L933.059 326.999C970.027 290.03 1029.97 290.029 1066.94 326.999L1673 933.064C1709.97 970.032 1709.97 1029.97 1673 1066.94L1066.94 1673.01ZM1186.9 698.705C1158.81 687.057 1124.77 681.233 1084.75 681.233H796.243V1320.98H936.912V1091.6H1084.75C1124.77 1091.6 1158.81 1085.78 1186.9 1074.13C1214.97 1062.48 1237.81 1047.11 1255.44 1027.98C1273.05 1008.87 1285.91 986.922 1293.97 962.128C1302.03 937.349 1306.06 912.107 1306.06 886.416C1306.06 860.139 1302.03 834.756 1293.97 810.256C1285.91 785.771 1273.05 763.972 1255.44 744.848C1237.81 725.738 1214.97 710.353 1186.9 698.705Z"
    fill="#FFB74D"
  />
  <path
    d="M886.86 1825.53L174.47 1113.14C111.986 1050.66 111.986 949.351 174.47 886.867L886.86 174.475C949.344 111.99 1050.65 111.99 1113.13 174.475L1825.52 886.865C1888.01 949.349 1888.01 1050.66 1825.52 1113.14L1113.13 1825.53C1050.65 1888.01 949.344 1888.01 886.86 1825.53ZM901.192 1705.25C955.878 1759.73 1044.38 1759.67 1098.99 1705.06L1705.06 1099C1759.73 1044.32 1759.73 955.68 1705.06 901.008L1098.99 294.943C1044.32 240.27 955.675 240.27 901.003 294.943L294.939 901.008C240.265 955.68 240.265 1044.32 294.938 1099L901.183 1705.24L901.192 1705.25Z"
    fill="#FFB74D"
  />
</svg>
