<svg viewBox="0 0 24 24" xmlns="http://www.w3.org/2000/svg">
  <path
    d="M18.8079 17.864L9.58994 20.52C9.30794 20.601 9.03794 20.364 9.09694 20.087L12.3899 4.72103C12.4519 4.43403 12.8599 4.38803 12.9879 4.65503L19.0859 17.27C19.1125 17.3266 19.1262 17.3884 19.1262 17.4509C19.1262 17.5134 19.1125 17.5751 19.0859 17.6317C19.0594 17.6883 19.0208 17.7384 18.9727 17.7783C18.9247 17.8183 18.8684 17.8482 18.8079 17.864ZM20.3879 17.238L13.3289 2.63003C13.2391 2.44836 13.1022 2.29411 12.9324 2.18331C12.7627 2.07251 12.5664 2.00922 12.3639 2.00003C12.161 1.98609 11.9581 2.02724 11.7766 2.11912C11.5951 2.211 11.4418 2.35021 11.3329 2.52203L3.67494 14.606C3.43694 14.982 3.44194 15.446 3.68794 15.819L7.43094 21.468C7.65394 21.805 8.04094 22 8.44194 22C8.55594 22 8.67094 21.984 8.78294 21.952L19.6479 18.822C19.9809 18.725 20.2529 18.496 20.3959 18.192C20.5379 17.888 20.5359 17.54 20.3889 17.237L20.3879 17.238Z"
    fill="#00BFA5"
  />
</svg>
