<svg width="70" height="70" viewBox="0 0 70 70" fill="none" xmlns="http://www.w3.org/2000/svg">
<path d="M35.0002 20.3525C25.5003 20.3525 17.7989 28.0505 17.7989 37.5504L52.1981 37.5515C52.1981 28.0505 44.4989 20.3525 35.0002 20.3525Z" fill="#E53935"/>
<path d="M34.999 69.9138C54.2837 69.9138 69.9126 54.2837 69.9126 35.0002C69.9126 15.7179 54.2825 0.0878296 34.999 0.0878296C15.7144 0.0878296 0.0877571 15.7179 0.0877571 35.0002C0.0877571 54.2826 15.7144 69.9138 34.999 69.9138ZM56.4653 36.7569V38.344L61.4617 38.3428V44.1644H8.5375V38.3417H13.5327V36.7569H8.55898C8.74328 30.2906 11.2993 24.1179 15.7404 19.4143L19.4572 23.1299L20.5819 22.0097L16.8652 18.2907C21.5678 13.8497 27.7399 11.294 34.2055 11.1104V16.0841H35.7926L35.7948 11.1104C42.2605 11.2938 48.4326 13.8495 53.1352 18.2907L49.4195 22.0085L50.5409 23.1333L54.2588 19.4143C58.7 24.1178 61.2561 30.2905 61.4402 36.7569H56.4653Z" fill="#E53935"/>
</svg>
