<svg
  width="80"
  height="80"
  viewBox="0 0 80 80"
  fill="none"
  xmlns="http://www.w3.org/2000/svg"
>
  <path
    d="M40.0002 25.3525C30.5003 25.3525 22.7989 33.0505 22.7989 42.5504L57.1981 42.5515C57.1981 33.0505 49.4989 25.3525 40.0002 25.3525Z"
    fill="#E53935"
  />
  <path
    fill-rule="evenodd"
    clip-rule="evenodd"
    d="M39.999 74.9138C59.2837 74.9138 74.9126 59.2837 74.9126 40.0002C74.9126 20.7179 59.2825 5.08783 39.999 5.08783C20.7144 5.08783 5.08776 20.7179 5.08776 40.0002C5.08776 59.2826 20.7144 74.9138 39.999 74.9138ZM61.4653 41.7569V43.344L66.4617 43.3428V49.1644H13.5375V43.3417H18.5327V41.7569H13.559C13.7433 35.2906 16.2993 29.1179 20.7404 24.4143L24.4572 28.1299L25.5819 27.0097L21.8652 23.2907C26.5678 18.8497 32.7399 16.294 39.2055 16.1104V21.0841H40.7926L40.7948 16.1104C47.2605 16.2938 53.4326 18.8495 58.1352 23.2907L54.4195 27.0085L55.5409 28.1333L59.2588 24.4143C63.7 29.1178 66.2561 35.2905 66.4402 41.7569H61.4653Z"
    fill="#E53935"
  />
</svg>
