<svg
  width="128"
  height="128"
  viewBox="0 0 128 128"
  fill="none"
  xmlns="http://www.w3.org/2000/svg"
>
  <path
    d="M89.75 54.79C91.0203 54.79 92.05 53.7602 92.05 52.49C92.05 51.2197 91.0203 50.19 89.75 50.19C88.4797 50.19 87.45 51.2197 87.45 52.49C87.45 53.7602 88.4797 54.79 89.75 54.79Z"
    fill="#A86454"
  />
  <path
    d="M39.25 54.79C40.5203 54.79 41.55 53.7602 41.55 52.49C41.55 51.2197 40.5203 50.19 39.25 50.19C37.9797 50.19 36.95 51.2197 36.95 52.49C36.95 53.7602 37.9797 54.79 39.25 54.79Z"
    fill="#A86454"
  />
  <path
    d="M89.1339 27.0621C82.912 25.4494 74.9053 24.59 64.75 24.59C53.6785 24.59 45.0331 25.6114 38.4602 27.5268C38.7115 27.3058 38.85 27.1899 38.85 27.1899C39.55 26.3899 29.55 26.6899 21.45 30.4899C14.75 33.7899 -0.55 50.4899 -0.0500004 51.5899C0.228848 52.2034 2.62265 54.372 5.06729 56.5866C7.00612 58.343 8.97693 60.1284 9.95 61.1899C10.3509 61.6195 10.9815 63.0989 11.7642 64.9351C13.7146 69.5108 16.6096 76.3026 19.25 74.59C20.3554 73.8672 20.7378 70.9932 21.0734 67.0672C21.1044 67.3532 21.1352 67.6387 21.1659 67.9236C21.4525 70.5832 21.7335 73.1908 22.15 75.69C22.4519 77.6525 23.9693 79.4631 25.4661 81.2491C26.9439 83.0124 28.4016 84.7518 28.65 86.59C29.4046 92.088 32.8323 95.9881 39.5908 98.4154C41.1546 100.327 43.1824 100.519 45.1961 100.709C46.5336 100.835 47.8649 100.961 49.05 101.59C53.07 103.6 57.2194 103.477 61.4461 103.351H61.4471C62.4768 103.321 63.5118 103.29 64.55 103.29H64.65C65.6268 103.29 66.5939 103.313 67.5523 103.336H67.5546C71.8931 103.439 76.0555 103.537 80.15 101.49C81.3384 100.884 82.6739 100.789 84.0152 100.694C86.0849 100.548 88.1684 100.4 89.7469 98.3697C96.3036 95.9392 99.5536 92.0537 100.25 86.59C100.501 84.6859 101.881 82.9325 103.271 81.1661C104.656 79.4074 106.051 77.6358 106.35 75.69C106.684 73.6871 106.931 71.6145 107.163 69.5014C107.466 72.1572 107.889 74.0267 108.75 74.59C111.39 76.3026 114.285 69.5108 116.236 64.9351C117.019 63.0989 117.649 61.6195 118.05 61.1899C119.023 60.1285 120.993 58.3434 122.932 56.5872C125.377 54.3726 127.771 52.2034 128.05 51.5899C128.55 50.4899 113.25 33.7899 106.55 30.4899C98.9205 26.9107 89.6054 26.4366 89.1339 27.0621ZM55.05 68.79C55.05 69.2318 54.6918 69.59 54.25 69.59C53.8082 69.59 53.45 69.2318 53.45 68.79C53.45 68.3482 53.8082 67.99 54.25 67.99C54.6918 67.99 55.05 68.3482 55.05 68.79ZM49.65 74.39C49.2082 74.39 48.85 74.0318 48.85 73.59C48.85 73.1482 49.2082 72.79 49.65 72.79C50.0918 72.79 50.45 73.1482 50.45 73.59C50.45 74.0318 50.0918 74.39 49.65 74.39ZM48.95 68.79C48.95 69.2318 48.5918 69.59 48.15 69.59C47.7082 69.59 47.35 69.2318 47.35 68.79C47.35 68.3482 47.7082 67.99 48.15 67.99C48.5918 67.99 48.95 68.3482 48.95 68.79ZM73.75 69.59C73.3082 69.59 72.95 69.2318 72.95 68.79C72.95 68.3482 73.3082 67.99 73.75 67.99C74.1918 67.99 74.55 68.3482 74.55 68.79C74.55 69.2318 74.1918 69.59 73.75 69.59ZM79.15 73.59C79.15 74.0318 78.7918 74.39 78.35 74.39C77.9082 74.39 77.55 74.0318 77.55 73.59C77.55 73.1482 77.9082 72.79 78.35 72.79C78.7918 72.79 79.15 73.1482 79.15 73.59ZM79.85 69.59C79.4082 69.59 79.05 69.2318 79.05 68.79C79.05 68.3482 79.4082 67.99 79.85 67.99C80.2918 67.99 80.65 68.3482 80.65 68.79C80.65 69.2318 80.2918 69.59 79.85 69.59ZM100.85 56.39C100.85 61.2501 96.9101 65.19 92.05 65.19C90.9964 65.19 89.986 65.0048 89.0496 64.6652C87.4822 63.0343 85.708 61.4619 84.0746 60.1142C83.5456 58.9832 83.25 57.7211 83.25 56.39C83.25 51.5299 87.1899 47.59 92.05 47.59C96.9101 47.59 100.85 51.5299 100.85 56.39ZM36.95 65.19C32.0899 65.19 28.15 61.2501 28.15 56.39C28.15 51.5299 32.0899 47.59 36.95 47.59C41.8101 47.59 45.75 51.5299 45.75 56.39C45.75 57.4394 45.5663 58.4459 45.2293 59.3791C43.2834 60.9393 41.02 62.8937 39.1033 64.9246C38.4142 65.0979 37.6929 65.19 36.95 65.19ZM66.11 63.0548C65.3168 63.2133 64.75 63.3266 64.75 63.49C64.8062 63.7146 64.8308 64.0653 64.8593 64.4714C64.8815 64.7884 64.9062 65.1392 64.95 65.49C64.95 65.9197 64.9559 66.5 64.9626 67.162C64.9871 69.5645 65.0225 73.0419 64.8261 74.2931C69.229 74.4466 75.85 80.288 75.85 87.59V87.99C75.75 80.89 67.35 75.09 64.65 75.09C61.95 75.09 53.55 80.89 53.45 87.99V87.59C53.45 80.4131 60.0225 74.4928 64.4253 74.2951C64.15 72.789 64.15 67.6973 64.15 65.49C64.15 65.0669 64.1865 64.5343 64.2154 64.1128L64.2156 64.1105L64.2157 64.1084C64.2345 63.8345 64.25 63.608 64.25 63.49C64.25 63.2347 60.1961 62.1832 58.9867 61.8751C59.9973 62.1254 62.971 62.8208 63.55 62.49C64.15 62.09 64.45 60.89 64.45 60.89C64.45 60.89 64.65 62.09 65.45 62.49C66.25 62.99 69.95 61.79 69.95 61.79C68.8849 62.5 67.2596 62.8249 66.11 63.0548ZM58.65 61.79C58.65 61.79 58.7755 61.8228 58.9867 61.8751C58.7746 61.8211 58.65 61.79 58.65 61.79ZM67.2327 59.5916C67.4396 60.3938 67.2606 61.1335 66.8327 61.2439C66.4049 61.3543 65.8904 60.7934 65.6834 59.9913C65.4765 59.1891 65.6556 58.4494 66.0834 58.339C66.5112 58.2286 67.0258 58.7895 67.2327 59.5916ZM61.6933 61.2292C61.2714 61.0983 61.1283 60.3508 61.3737 59.5595C61.6192 58.7683 62.1602 58.233 62.5822 58.3639C63.0042 58.4948 63.1473 59.2424 62.9019 60.0336C62.6564 60.8248 62.1153 61.3601 61.6933 61.2292ZM67.25 56.4899C67.25 56.4811 67.2322 56.4816 67.1992 56.4899H67.25ZM61.5008 56.4899H67.1992C67.0654 56.5237 66.6823 56.6862 66.2331 56.8768C65.5371 57.172 64.6825 57.5345 64.35 57.5899C64.0175 57.5345 63.1629 57.172 62.467 56.8768C62.0177 56.6862 61.6346 56.5237 61.5008 56.4899ZM61.45 56.4899H61.5008C61.4678 56.4816 61.45 56.4811 61.45 56.4899Z"
    fill="#A86454"
  />
</svg>
