<svg viewBox="0 0 100 100" xmlns="http://www.w3.org/2000/svg">
  <path
    d="M98.272 38.448L79.414 19.58L74.328 24.668L90.641 40.99L74.328 57.31L79.414 62.397L98.272 43.536C98.6074 43.2016 98.8732 42.8041 99.0543 42.3664C99.2354 41.9288 99.328 41.4596 99.327 40.986C99.3273 40.5141 99.2342 40.0469 99.0532 39.6111C98.8721 39.1753 98.6066 38.7807 98.272 38.448ZM25.676 42.694L20.587 37.605L1.72298 56.468C1.38836 56.8016 1.12339 57.1984 0.943476 57.6353C0.763563 58.0722 0.672297 58.5405 0.674984 59.013C0.674984 59.974 1.04598 60.877 1.72298 61.555L20.587 80.42L25.676 75.333L9.35498 59.013L25.676 42.694Z"
    fill="#42A5F5"
  />
  <path
    d="M70.7405 35.5446L63.0421 28.3586H29.2217L36.9201 35.5446H70.7405ZM63.0421 53.575L70.7405 46.3771H36.9201L29.2217 53.575H63.0421ZM70.7405 71.5935L63.0421 64.3956H29.2217L36.9201 71.5935H70.7405Z"
    fill="#42A5F5"
  />
</svg>
