<svg viewBox="0 0 32 32" xmlns="http://www.w3.org/2000/svg">
<path d="M20 10C21.1046 10 22 9.10457 22 8C22 6.89543 21.1046 6 20 6C18.8954 6 18 6.89543 18 8C18 9.10457 18.8954 10 20 10Z" fill="#F4511E"/>
<path d="M25.573 11.335C25.2361 10.9028 24.8685 10.4954 24.473 10.116L21.648 12.948C21.913 13.2032 22.1622 13.4743 22.394 13.76C23.0993 14.6399 23.593 15.67 23.837 16.771C23.9234 17.1761 23.9783 17.5874 24.001 18.001C24.0009 20.1229 23.1578 22.1578 21.6574 23.6581C20.1569 25.1584 18.1219 26.0011 16 26.001C13.8781 26.0009 11.8432 25.1578 10.3429 23.6574C8.84265 22.1569 7.99987 20.1219 8 18C7.99681 17.0357 8.23578 16.086 8.695 15.238C9.01989 14.5437 9.4507 13.904 9.972 13.342C10.152 13.162 11.786 11.596 13.712 9.758L16 7.553V2L10.943 6.873C9.831 7.933 7.23 10.418 7.066 10.595C6.25431 11.4667 5.58298 12.4592 5.076 13.537C4.36902 14.9185 4.00024 16.4481 4 18C4 19.5759 4.31039 21.1363 4.91345 22.5922C5.5165 24.0481 6.40042 25.371 7.51472 26.4853C8.62902 27.5996 9.95189 28.4835 11.4078 29.0866C12.8637 29.6896 14.4241 30 16 30C17.5759 30 19.1363 29.6896 20.5922 29.0866C22.0481 28.4835 23.371 27.5996 24.4853 26.4853C25.5996 25.371 26.4835 24.0481 27.0866 22.5922C27.6896 21.1363 28 19.5759 28 18C27.9729 17.3028 27.8879 16.6091 27.746 15.926C27.3808 14.2501 26.6375 12.6799 25.573 11.335Z" fill="#F4511E"/>
</svg>
