<svg viewBox="0 0 24 24" xmlns="http://www.w3.org/2000/svg">
  <path
    d="M11.9379 16.414C12.8379 15.313 13.4059 13.478 13.4059 11.679C13.4059 9.71599 12.7089 7.82499 11.5339 6.55899C10.3779 5.31099 8.87395 4.70599 6.96395 4.70599C5.05395 4.70599 3.55095 5.31099 2.39495 6.55899C1.21995 7.82499 0.522949 9.71599 0.522949 11.716C0.522949 13.716 1.21995 15.606 2.39495 16.873C3.55095 18.121 5.07495 18.726 6.96495 18.726C8.34095 18.726 9.36895 18.451 10.4329 17.809L12.0109 19.295L13.4059 17.809L11.9379 16.414ZM8.54295 13.202L7.14695 14.689L8.55995 16.029C8.13795 16.249 7.53295 16.377 6.94495 16.377C4.74295 16.377 3.27495 14.524 3.27495 11.717C3.27495 8.90799 4.74295 7.05499 6.96395 7.05499C9.20295 7.05499 10.6529 8.88999 10.6529 11.735C10.6529 12.835 10.4509 13.827 10.0469 14.635L8.54295 13.202Z"
    fill="#FBC02D"
  />
  <path
    d="M17.589 4.72803L16.978 8.72803H15.478L15.138 10.728H16.638L16.318 12.728H14.818L14.478 14.728H15.978L15.368 18.728H17.368L17.978 14.728H18.978L18.368 18.728H20.368L20.978 14.728H22.478L22.818 12.728H21.318L21.638 10.728H23.138L23.478 8.72803H21.978L22.589 4.72803H20.589L19.978 8.72803H18.978L19.589 4.72803H17.589ZM18.638 10.728H19.638L19.318 12.728H18.318L18.638 10.728Z"
    fill="#FBC02D"
  />
</svg>
