<svg viewBox="0 0 51 51" xmlns="http://www.w3.org/2000/svg">
  <path
    d="M29.5846 25.4216C29.5846 25.9678 29.477 26.5086 29.268 27.0133C29.059 27.5179 28.7526 27.9764 28.3664 28.3627C27.9801 28.7489 27.5216 29.0552 27.017 29.2643C26.5123 29.4733 25.9715 29.5809 25.4253 29.5809C24.8791 29.5809 24.3382 29.4733 23.8336 29.2643C23.329 29.0552 22.8704 28.7489 22.4842 28.3627C22.098 27.9764 21.7916 27.5179 21.5826 27.0133C21.3736 26.5086 21.266 25.9678 21.266 25.4216C21.266 24.3185 21.7042 23.2605 22.4842 22.4805C23.2642 21.7005 24.3222 21.2623 25.4253 21.2623C26.5284 21.2623 27.5863 21.7005 28.3664 22.4805C29.1464 23.2605 29.5846 24.3185 29.5846 25.4216ZM43.8882 14.7606C42.9838 13.2046 41.886 11.7694 40.621 10.4892L35.8127 13.2654C34.314 11.9851 32.6105 11.0045 30.7924 10.3558C29.1508 12.0195 27.8467 13.8784 26.9067 15.9001C32.2591 15.5358 37.787 17.473 42.9188 21.4824L45.945 19.7353C45.4723 17.9969 44.7812 16.3254 43.8882 14.7608V14.7606ZM43.8894 36.0801C44.7847 34.5189 45.4787 32.8506 45.9549 31.115L41.1466 28.3388C41.5059 26.4008 41.5035 24.4353 41.1562 22.5363C38.8947 21.9465 36.6328 21.7466 34.412 21.9434C37.4037 26.3966 38.49 32.1524 37.5836 38.6015L40.6098 40.3486C41.8789 39.07 42.9809 37.6358 43.8894 36.0801L43.8894 36.0801ZM25.4272 46.7411C27.2269 46.7358 29.0187 46.5027 30.7599 46.0473V40.4951C32.6179 39.8373 34.3188 38.8525 35.7898 37.6022C35.1698 35.3487 34.2119 33.2898 32.931 31.465C30.5704 36.2824 26.1288 40.1012 20.0905 42.5408V46.0352C21.8324 46.495 23.6255 46.7323 25.427 46.7412L25.4272 46.7411ZM6.96326 36.0822C7.86768 37.6382 8.96547 39.0734 10.2304 40.3536L15.0388 37.5775C16.5375 38.8577 18.2409 39.8383 20.059 40.487C21.7006 38.8233 23.0047 36.9644 23.9448 34.9427C18.5924 35.307 13.0645 33.3698 7.93259 29.3604L4.90647 31.1075C5.37915 32.8459 6.07026 34.5174 6.96326 36.082V36.0822ZM6.96201 14.7627C6.06671 16.3239 5.37268 17.9922 4.89648 19.7278L9.70481 22.504C9.34546 24.442 9.34789 26.4075 9.69517 28.3065C11.9567 28.8963 14.2186 29.0962 16.4394 28.8994C13.4477 24.4462 12.3614 18.6904 13.2678 12.2413L10.2416 10.4942C8.97247 11.7728 7.87046 13.2071 6.96196 14.7628L6.96201 14.7627ZM25.4242 4.1017C23.6245 4.10697 21.8327 4.34008 20.0915 4.79549V10.3477C18.2335 11.0055 16.5326 11.9903 15.0617 13.2406C15.6816 15.4941 16.6395 17.553 17.9204 19.3778C20.2812 14.5604 24.7226 10.7416 30.7609 8.30201V4.80764C29.019 4.34777 27.2259 4.11053 25.4244 4.10156L25.4242 4.1017Z"
    fill="#1976D2"
  />
</svg>
