<svg viewBox="0 0 24 24" xmlns="http://www.w3.org/2000/svg">
  <path
    d="M20.5208 7.66228L21.2553 9.01778C21.7822 9.96667 21.6945 11.1305 21.0558 11.9996C21.0239 12.0473 20.9842 12.0949 20.9445 12.1425L20.8402 12.2627L17.5827 18.2829L19.451 21.9588C19.5319 22.0983 19.3621 22.2311 19.235 22.1577L19.2597 22.1823L10.2219 19.5267L8.56923 19.5427C7.57122 19.5507 6.64509 19.0404 6.13413 18.1872L2.79683 12.6533C2.2363 11.7113 2.2786 10.4827 2.8736 9.57335L6.05381 3.26884C6.55683 2.41566 7.46699 1.88939 8.46497 1.88141L13.7264 1.86547L15.4909 1.81763C16.5128 1.80965 17.4549 2.35188 17.9579 3.22896L19.9699 6.71344L19.9859 6.69747L20.1375 6.96859L20.5208 7.66228ZM15.5488 18.5541H15.5472L15.5548 18.5381V18.5532L15.5488 18.5541ZM15.5411 18.5085L14.7484 12.1035L16.0817 10.7559L8.57656 2.51133L8.56174 2.52972L9.68699 8.98573L7.77082 10.8356L15.5411 18.5085Z"
    fill="#29B6F6"
  />
</svg>
