<svg
  width="512"
  height="512"
  viewBox="0 0 512 512"
  fill="none"
  xmlns="http://www.w3.org/2000/svg"
>
  <path
    d="M459.575 255.915C459.575 303.344 443.359 346.986 416.17 381.6V381.606C378.314 249.363 268.963 107.875 186.291 64.5087C208.021 56.5995 231.477 52.2813 255.941 52.2813C368.407 52.2813 459.575 143.449 459.575 255.915Z"
    fill="#E53935"
  />
  <path
    d="M121.755 102.749C159.43 120.774 195.004 147.953 226.77 182.174L226.775 182.17C182.274 226.881 130.308 306.922 102.667 389.972C71.3109 354.151 52.3017 307.255 52.3017 255.911C52.3017 194.851 79.1863 140.073 121.755 102.749Z"
    fill="#E53935"
  />
  <path
    d="M160.383 435.765C176.282 359.031 220.211 275.862 264.296 228.35L264.304 228.347C305.52 286.18 337.143 357.069 353.895 434.474C324.832 450.451 291.452 459.548 255.944 459.548C221.403 459.548 188.881 450.937 160.383 435.765Z"
    fill="#E53935"
  />
</svg>
