<svg viewBox="0 0 24 24" xmlns="http://www.w3.org/2000/svg">
  <path
    d="M4.49113 6.36835H2.61391V19.5089C2.61391 20.5461 3.45397 21.3861 4.49113 21.3861H17.6317V19.5089H4.49113V6.36835Z"
    fill="#0288D1"
  />
  <path
    d="M19.5089 2.61391H8.24557C7.20841 2.61391 6.36835 3.45397 6.36835 4.49113V15.7545C6.36835 16.7916 7.20841 17.6317 8.24557 17.6317H19.5089C20.5461 17.6317 21.3861 16.7916 21.3861 15.7545V4.49113C21.3861 3.45397 20.5461 2.61391 19.5089 2.61391ZM13.1048 12.7218C13.6764 13.3413 14.4723 13.6632 15.5104 13.6707L16.5804 13.5741C16.9268 13.5093 17.2159 13.4211 17.4571 13.3169L17.795 15.2795C17.5857 15.3921 17.2478 15.4963 16.7972 15.593C16.3392 15.6981 15.8004 15.7545 15.181 15.7545C13.4032 15.7225 12.0676 15.1913 11.174 14.1776C10.257 13.1554 9.82243 11.8602 9.82243 10.2917C9.85435 8.43329 10.4016 7.00942 11.4641 6.01168C12.4937 5.00643 13.8125 4.49113 15.4062 4.49113C16.0098 4.49113 16.5326 4.54745 16.9671 4.64412C17.4017 4.7408 17.7237 4.84499 17.933 4.96607L17.4496 6.96906L16.6133 6.69592C16.2913 6.6152 15.9131 6.57484 15.4869 6.57484C14.5615 6.5664 13.789 6.86487 13.1864 7.45995C12.5754 8.04752 12.2694 8.94859 12.2375 10.1472C12.244 11.2407 12.5341 12.0939 13.1048 12.7218Z"
    fill="#0288D1"
  />
</svg>
