<svg viewBox="0 0 24 24" xmlns="http://www.w3.org/2000/svg">
  <path
    d="M16 20H17V16.25H16V20ZM16.5 15.275C16.6333 15.275 16.75 15.2237 16.85 15.1212C16.95 15.0187 17 14.8992 17 14.7625C17 14.6258 16.95 14.5062 16.85 14.4037C16.75 14.3012 16.6333 14.25 16.5 14.25C16.35 14.25 16.2292 14.3 16.1375 14.4C16.0458 14.5 16 14.619 16 14.7571C16 14.8952 16.0458 15.0161 16.1375 15.1196C16.2292 15.2232 16.35 15.275 16.5 15.275ZM4.5 3.5V10.875V10.775V20.5V3.5ZM6.975 13.5H11.1384C11.3461 13.2167 11.575 12.95 11.825 12.7C12.075 12.45 12.3417 12.2167 12.625 12H6.975V13.5ZM6.975 17.75H10.05C10.0167 17.5167 10.0042 17.2708 10.0125 17.0125C10.0208 16.7542 10.0417 16.5 10.075 16.25H6.975V17.75ZM4.5 22C4.1 22 3.75 21.85 3.45 21.55C3.15 21.25 3 20.9 3 20.5V3.5C3 3.1 3.15 2.75 3.45 2.45C3.75 2.15 4.1 2 4.5 2H13.525L19 7.475V11.35C18.7667 11.25 18.525 11.1583 18.275 11.075C18.025 10.9917 17.7667 10.925 17.5 10.875V8.15H12.775V3.5H4.5V20.5H10.975C11.1583 20.7833 11.358 21.0507 11.5739 21.3022C11.7899 21.5537 12.0319 21.7863 12.3 22H4.5ZM16.375 12.275C17.7168 12.275 18.8606 12.7479 19.8064 13.6936C20.7521 14.6394 21.225 15.7832 21.225 17.125C21.225 18.4668 20.7521 19.6106 19.8064 20.5564C18.8606 21.5021 17.7168 21.975 16.375 21.975C15.0332 21.975 13.8894 21.5021 12.9436 20.5564C11.9979 19.6106 11.525 18.4668 11.525 17.125C11.525 15.7832 11.9979 14.6394 12.9436 13.6936C13.8894 12.7479 15.0332 12.275 16.375 12.275Z"
    fill="#42A5F5"
  />
</svg>
