<svg viewBox="0 0 24 24" xmlns="http://www.w3.org/2000/svg">
  <path
    d="M11.8097 2.23834C9.39921 2.23834 7.20306 3.9751 6.33337 6.50336C5.14729 9.80525 5.89605 12.974 7.30975 15.4767C7.19823 15.6909 7.14246 15.9655 7.16575 16.2353C7.1985 17.1183 7.93393 17.8213 8.81602 17.8213L8.86719 17.8214L8.87421 17.8212C9.78955 17.7917 10.4959 17.0237 10.4665 16.1123C10.437 15.2264 9.70016 14.5201 8.81602 14.5201H8.7624C8.74592 14.5201 8.72213 14.5201 8.69537 14.5214C7.72602 12.8572 7.32589 11.052 7.47233 9.09939L7.47246 9.09759C7.57202 7.6042 8.06862 6.31746 8.93374 5.25459L8.93621 5.25144C9.2771 4.81652 9.78519 4.48389 10.3353 4.25648C10.8843 4.02949 11.4591 3.9141 11.917 3.90193C13.1665 3.87869 14.0717 4.6409 14.6865 5.61402C15.3029 6.58972 15.5987 7.73724 15.6351 8.37898C15.6405 8.47563 15.7092 8.55706 15.8035 8.57883C16.1246 8.65293 16.6781 8.82875 17.0629 8.95704C17.132 8.98007 17.2081 8.96703 17.2655 8.92229C17.323 8.87754 17.3543 8.80703 17.3489 8.73439C17.0356 4.50489 14.4073 2.23834 11.8097 2.23834Z"
    fill="#AB47BC"
  />
  <path
    d="M10.5815 8.09766L10.5745 8.09788C9.65917 8.12741 8.95281 8.89515 8.98221 9.80657C9.01174 10.6924 9.74855 11.399 10.6327 11.399H10.6839L10.6938 11.3988C11.2901 11.3716 11.8107 11.0216 12.0747 10.529H12.3982C14.2989 10.529 16.0995 11.0787 17.7281 12.156C18.9737 12.9781 19.8635 14.0439 20.3572 15.3277L20.3586 15.3313C20.7729 16.3548 20.7435 17.3366 20.3162 18.1683C19.6373 19.4524 18.5089 20.1492 17.0039 20.1492C16.0186 20.1492 15.077 19.8522 14.5857 19.6311C14.5066 19.5955 14.414 19.6102 14.3499 19.6685C14.0756 19.9179 13.5707 20.3219 13.2184 20.5736C13.1553 20.6186 13.121 20.6938 13.1281 20.7709C13.1353 20.848 13.1829 20.9155 13.2531 20.9482C14.3763 21.4706 15.5335 21.7617 16.6456 21.7617C19.1807 21.7617 21.0741 20.3625 21.8035 18.9306L21.8043 18.9291C22.5882 17.3613 22.5188 14.7085 20.5458 12.4714C18.5557 10.1418 15.6275 8.86538 12.2959 8.86538H12.0142C11.727 8.39888 11.2046 8.09777 10.6327 8.09777L10.5815 8.09766Z"
    fill="#AB47BC"
  />
  <path
    d="M5.14083 11.2946C5.12708 11.2213 5.07675 11.1601 5.00745 11.1325C4.93816 11.1049 4.85954 11.1146 4.79912 11.1584C0.986077 13.9196 1.36067 17.6862 2.54435 19.4886C3.43908 20.8442 5.23227 21.6593 7.17848 21.6593C7.70301 21.6593 8.23098 21.6071 8.76097 21.4751C12.0612 20.8289 14.5775 18.88 16.0225 15.9862C16.8179 15.8435 17.403 15.1341 17.375 14.2956C17.3455 13.4097 16.6087 12.7034 15.7245 12.7034H15.6734L15.6663 12.7035C14.751 12.733 14.0446 13.5008 14.074 14.4122L14.0744 14.4197C14.0992 14.7914 14.2309 15.1267 14.4387 15.385C13.5924 16.9842 12.3159 18.1711 10.4035 19.1763C9.08551 19.8726 7.72299 20.1194 6.36221 19.9463C5.26229 19.7995 4.42818 19.3155 3.90597 18.5327C3.13051 17.3447 3.05813 16.072 3.71355 14.7855L3.71428 14.784C4.18046 13.8517 4.92055 13.1599 5.38861 12.815C5.46311 12.7601 5.49477 12.6641 5.46756 12.5756C5.36642 12.2469 5.21547 11.6927 5.14083 11.2946Z"
    fill="#AB47BC"
  />
</svg>
