<svg viewBox="0 0 32 32" xmlns="http://www.w3.org/2000/svg">
  <path
    d="M10 23V27C10 27.2652 9.89464 27.5196 9.70711 27.7071C9.51957 27.8946 9.26522 28 9 28H5C4.73478 28 4.48043 27.8946 4.29289 27.7071C4.10536 27.5196 4 27.2652 4 27V23C4 22.7348 4.10536 22.4804 4.29289 22.2929C4.48043 22.1054 4.73478 22 5 22H9C9.26522 22 9.51957 22.1054 9.70711 22.2929C9.89464 22.4804 10 22.7348 10 23ZM4 15V19C4 19.2652 4.10536 19.5196 4.29289 19.7071C4.48043 19.8946 4.73478 20 5 20H9C9.26522 20 9.51957 19.8946 9.70711 19.7071C9.89464 19.5196 10 19.2652 10 19V15C10 14.7348 9.89464 14.4804 9.70711 14.2929C9.51957 14.1054 9.26522 14 9 14H5C4.73478 14 4.48043 14.1054 4.29289 14.2929C4.10536 14.4804 4 14.7348 4 15ZM4 7V11C4 11.2652 4.10536 11.5196 4.29289 11.7071C4.48043 11.8946 4.73478 12 5 12H9C9.26522 12 9.51957 11.8946 9.70711 11.7071C9.89464 11.5196 10 11.2652 10 11V7C10 6.73478 9.89464 6.48043 9.70711 6.29289C9.51957 6.10536 9.26522 6 9 6H5C4.73478 6 4.48043 6.10536 4.29289 6.29289C4.10536 6.48043 4 6.73478 4 7ZM17 22H13C12.7348 22 12.4804 22.1054 12.2929 22.2929C12.1054 22.4804 12 22.7348 12 23V27C12 27.2652 12.1054 27.5196 12.2929 27.7071C12.4804 27.8946 12.7348 28 13 28H17C17.2652 28 17.5196 27.8946 17.7071 27.7071C17.8946 27.5196 18 27.2652 18 27V23C18 22.7348 17.8946 22.4804 17.7071 22.2929C17.5196 22.1054 17.2652 22 17 22ZM12 15V19C12 19.2652 12.1054 19.5196 12.2929 19.7071C12.4804 19.8946 12.7348 20 13 20H17C17.2652 20 17.5196 19.8946 17.7071 19.7071C17.8946 19.5196 18 19.2652 18 19V15C18 14.7348 17.8946 14.4804 17.7071 14.2929C17.5196 14.1054 17.2652 14 17 14H13C12.7348 14 12.4804 14.1054 12.2929 14.2929C12.1054 14.4804 12 14.7348 12 15ZM12.41 7.368L14.047 11.018C14.1556 11.2598 14.3557 11.4486 14.6034 11.5429C14.8511 11.6372 15.1261 11.6293 15.368 11.521L19.018 9.884C19.1378 9.83024 19.2459 9.7534 19.3361 9.65786C19.4262 9.56233 19.4967 9.44996 19.5434 9.3272C19.5901 9.20443 19.6121 9.07367 19.6083 8.94238C19.6045 8.81108 19.5748 8.68183 19.521 8.562L17.884 4.912C17.8302 4.79215 17.7534 4.68407 17.6579 4.59393C17.5623 4.50379 17.45 4.43335 17.3272 4.38664C17.2044 4.33993 17.0737 4.31786 16.9424 4.3217C16.8111 4.32553 16.6818 4.3552 16.562 4.409L12.912 6.047C12.6702 6.15558 12.4814 6.3557 12.3871 6.6034C12.2928 6.8511 12.3017 7.12611 12.41 7.368ZM25 22H21C20.7348 22 20.4804 22.1054 20.2929 22.2929C20.1054 22.4804 20 22.7348 20 23V27C20 27.2652 20.1054 27.5196 20.2929 27.7071C20.4804 27.8946 20.7348 28 21 28H25C25.2652 28 25.5196 27.8946 25.7071 27.7071C25.8946 27.5196 26 27.2652 26 27V23C26 22.7348 25.8946 22.4804 25.7071 22.2929C25.5196 22.1054 25.2652 22 25 22ZM22.744 12.682L20.549 16.026C20.4037 16.2476 20.3523 16.5179 20.4061 16.7774C20.4599 17.0369 20.6145 17.2644 20.836 17.41L24.18 19.605C24.2898 19.6771 24.4127 19.7269 24.5417 19.7515C24.6707 19.7761 24.8033 19.7751 24.932 19.7484C25.0606 19.7218 25.1827 19.67 25.2913 19.5962C25.3999 19.5223 25.4929 19.4278 25.565 19.318L27.76 15.974C27.9053 15.7524 27.9567 15.4821 27.9029 15.2226C27.8491 14.9631 27.6945 14.7356 27.473 14.59L24.129 12.395C24.0192 12.3229 23.8963 12.2731 23.7673 12.2485C23.6383 12.2239 23.5057 12.2249 23.377 12.2516C23.2484 12.2782 23.1263 12.33 23.0177 12.4038C22.9091 12.4777 22.8161 12.5722 22.744 12.682ZM22 5V9C22 9.26522 22.1054 9.51957 22.2929 9.70711C22.4804 9.89464 22.7348 10 23 10H27C27.2652 10 27.5196 9.89464 27.7071 9.70711C27.8946 9.51957 28 9.26522 28 9V5C28 4.73478 27.8946 4.48043 27.7071 4.29289C27.5196 4.10536 27.2652 4 27 4H23C22.7348 4 22.4804 4.10536 22.2929 4.29289C22.1054 4.48043 22 4.73478 22 5Z"
    fill="#039BE5"
  />
</svg>
