<svg viewBox="0 0 16 16" xmlns="http://www.w3.org/2000/svg">
  <path
    d="M5.445 2.97499C3.724 2.98899 3.04 3.92999 3 3.99999V2.99999H1V13H3V6.99999C3.647 6.15599 4.609 5.27599 6 5.99999V2.99999C5.81556 2.98201 5.63031 2.97367 5.445 2.97499ZM10.748 2.99999C9.868 2.99999 9.086 3.20699 8.396 3.62299C7.713 4.03299 7.183 4.62299 6.808 5.38899C6.434 6.14899 6.248 7.01399 6.248 7.98199V8.23199C6.248 9.67599 6.691 10.832 7.576 11.699C8.467 12.567 9.62 13 11.033 13C11.835 13 12.567 12.848 13.226 12.545C13.886 12.236 14.409 11.808 14.795 11.262L13.529 9.84599C12.971 10.565 12.195 10.924 11.203 10.924C10.561 10.924 10.029 10.734 9.607 10.354C9.191 9.97399 9.083 9.62999 9 8.99999H15V7.78499C15 6.25799 14.62 5.07999 13.86 4.24799C13.104 3.41599 12.066 2.99999 10.747 2.99999H10.748ZM10.74 5.08599C11.287 5.08599 11.709 5.24399 12.006 5.55899C12.303 5.86799 12.456 6.30699 12.469 6.87699L12.48 6.99999H9C9.089 6.35799 9.177 5.94599 9.492 5.60199C9.812 5.25699 10.229 5.08599 10.74 5.08599Z"
    fill="#EF5350"
  />
</svg>
