<svg viewBox="0 0 24 24" xmlns="http://www.w3.org/2000/svg">
  <path
    d="M3.22195 3.65998C3.22195 3.57198 3.29195 3.50098 3.37995 3.50098H15.136C18.253 3.50098 20.779 6.03798 20.779 9.16798V10.268C20.779 10.356 20.709 10.428 20.621 10.428H17.175C17.1541 10.4278 17.1334 10.4236 17.1142 10.4155C17.0949 10.4074 17.0775 10.3956 17.0628 10.3807C17.0481 10.3658 17.0365 10.3482 17.0287 10.3289C17.0208 10.3096 17.0168 10.2889 17.017 10.268V9.16798C17.018 8.66822 16.8206 8.18849 16.468 7.83426C16.1155 7.48003 15.6367 7.2803 15.137 7.27898H7.14195C7.09978 7.27898 7.05934 7.29573 7.02952 7.32555C6.9997 7.35536 6.98295 7.39581 6.98295 7.43798V20.342C6.98295 20.43 6.91295 20.502 6.82495 20.497C5.85353 20.4539 4.93629 20.0373 4.26473 19.334C3.59318 18.6308 3.21923 17.6954 3.22095 16.723L3.22195 3.65998Z"
    fill="#E53935"
  />
  <path
    d="M10.278 11.0569C10.2573 11.0568 10.2367 11.0608 10.2176 11.0688C10.1985 11.0768 10.1811 11.0886 10.1667 11.1034C10.1522 11.1183 10.1409 11.1359 10.1334 11.1552C10.1259 11.1746 10.1223 11.1952 10.123 11.2159C10.162 12.1877 10.5749 13.1068 11.2756 13.7812C11.9763 14.4556 12.9105 14.8332 13.883 14.8349H16.39C16.737 14.8349 17.017 15.1169 17.017 15.4649V20.3429C17.017 20.4309 17.088 20.502 17.176 20.498C18.1474 20.4549 19.0647 20.0382 19.7362 19.335C20.4078 18.6318 20.7817 17.6963 20.78 16.724V15.464C20.78 13.03 18.815 11.0569 16.39 11.0569H10.278Z"
    fill="#E53935"
  />
</svg>
