<svg viewBox="0 0 24 24" xmlns="http://www.w3.org/2000/svg">
  <path
    d="M6.52946 10.6214C6.52946 9.16348 7.71462 7.97842 9.17066 7.97842C10.6283 7.97842 11.8137 9.16348 11.8137 10.6214C11.8138 10.7474 11.7892 10.8722 11.7411 10.9886C11.693 11.1051 11.6224 11.2109 11.5334 11.3001C11.4443 11.3893 11.3386 11.4601 11.2222 11.5084C11.1058 11.5567 10.981 11.5816 10.8549 11.5816C10.7289 11.5816 10.6041 11.5567 10.4877 11.5084C10.3713 11.4601 10.2656 11.3893 10.1765 11.3001C10.0875 11.2109 10.0169 11.1051 9.96882 10.9886C9.92072 10.8722 9.89606 10.7474 9.89623 10.6214C9.89576 10.4295 9.81909 10.2456 9.68309 10.1102C9.54708 9.97474 9.36285 9.89883 9.17089 9.89913C8.97918 9.89918 8.79532 9.97525 8.65964 10.1107C8.52395 10.246 8.44752 10.4297 8.44711 10.6214C8.44986 10.749 8.4271 10.8759 8.38016 10.9945C8.33322 11.1132 8.26304 11.2214 8.17374 11.3126C8.08445 11.4038 7.97783 11.4763 7.86014 11.5258C7.74245 11.5753 7.61607 11.6007 7.4884 11.6007C7.36072 11.6007 7.23434 11.5753 7.11665 11.5258C6.99896 11.4763 6.89235 11.4038 6.80305 11.3126C6.71375 11.2214 6.64357 11.1132 6.59663 10.9945C6.54969 10.8759 6.5267 10.749 6.52946 10.6214ZM17.4721 15.0622C17.4723 15.1882 17.4477 15.3131 17.3996 15.4295C17.3515 15.546 17.2809 15.6519 17.1919 15.7411C17.1029 15.8302 16.9971 15.901 16.8807 15.9493C16.7643 15.9976 16.6395 16.0224 16.5134 16.0225H7.61792C7.49188 16.0224 7.36708 15.9976 7.25066 15.9493C7.13424 15.901 7.02848 15.8302 6.93944 15.7411C6.8504 15.6519 6.77982 15.546 6.73173 15.4295C6.68365 15.3131 6.659 15.1882 6.65921 15.0622C6.659 14.9362 6.68365 14.8114 6.73173 14.6949C6.77981 14.5784 6.85039 14.4725 6.93943 14.3833C7.02847 14.2941 7.13422 14.2234 7.25064 14.175C7.36706 14.1267 7.49187 14.1018 7.61792 14.1018H16.5134C16.6395 14.1018 16.7643 14.1267 16.8807 14.175C16.9971 14.2234 17.1029 14.2941 17.1919 14.3833C17.281 14.4725 17.3515 14.5784 17.3996 14.6949C17.4477 14.8114 17.4723 14.9362 17.4721 15.0622ZM13.3153 11.1594C13.2448 11.055 13.1956 10.9377 13.1704 10.8142C13.1453 10.6908 13.1448 10.5636 13.1688 10.4399C13.1929 10.3162 13.2411 10.1985 13.3106 10.0935C13.3802 9.98842 13.4698 9.8981 13.5743 9.82768L15.7979 8.32581C16.2338 8.02285 16.8332 8.14542 17.1296 8.58144C17.2001 8.68588 17.2493 8.80319 17.2744 8.92664C17.2995 9.0501 17.3001 9.1773 17.276 9.30097C17.252 9.42464 17.2038 9.54236 17.1342 9.64741C17.0646 9.75246 16.975 9.84277 16.8705 9.91319L14.6469 11.4148C14.4897 11.5234 14.3032 11.5816 14.1121 11.5818C13.9549 11.5817 13.8001 11.5431 13.6613 11.4695C13.5224 11.3958 13.4036 11.2894 13.3153 11.1594ZM19.4048 17.0642C19.4048 17.2455 19.3326 17.4194 19.2042 17.548L17.5516 19.2008C17.4232 19.3291 17.249 19.4011 17.0675 19.4011H6.93412C6.75256 19.4011 6.57859 19.329 6.45018 19.2008L4.79761 17.548C4.66928 17.4197 4.59715 17.2457 4.59707 17.0642V6.93714C4.59707 6.7554 4.6692 6.58148 4.79739 6.45333L6.45018 4.80031C6.57857 4.67208 6.75263 4.60005 6.93412 4.60005H17.0677C17.2495 4.60005 17.4235 4.67216 17.5516 4.80031L19.2044 6.45333C19.268 6.51684 19.3185 6.59226 19.3529 6.67527C19.3873 6.75829 19.405 6.84727 19.405 6.93714L19.4048 17.0642ZM20.8114 5.34775L18.6535 3.18994C18.3266 2.86299 17.8832 2.67925 17.4208 2.67912H6.57904C6.34997 2.67917 6.12316 2.72435 5.91156 2.81208C5.69997 2.8998 5.50774 3.02836 5.34586 3.19039L3.18949 5.34797C2.86268 5.67498 2.67914 6.11834 2.6792 6.58059V17.4203C2.67917 17.6493 2.72426 17.8761 2.81189 18.0876C2.89952 18.2992 3.02798 18.4914 3.18993 18.6534L5.34765 20.8112C5.50955 20.9731 5.70176 21.1015 5.91332 21.1891C6.12487 21.2767 6.35161 21.3218 6.5806 21.3218H17.4206C17.883 21.3217 18.3265 21.1381 18.6535 20.8112L20.8114 18.6534C20.9734 18.4915 21.1019 18.2992 21.1895 18.0876C21.2772 17.8761 21.3222 17.6493 21.3222 17.4203V6.58104C21.3222 6.35201 21.2771 6.12521 21.1895 5.91361C21.1019 5.702 20.9734 5.50972 20.8114 5.34775Z"
    fill="#00BFA5"
  />
</svg>
