<svg viewBox="0 0 800 800" xmlns="http://www.w3.org/2000/svg">
  <path
    d="M633.79 294.71C633.79 372.117 591.482 439.5 529.12 475.22C525.36 478.354 523.166 483.368 525.36 488.069L632.23 699.289C635.05 705.87 630.662 713.392 623.454 713.392H215.104L217.298 712.138C232.654 703.364 339.208 493.078 443.248 393.418C547.298 293.76 560.458 326.979 503.105 218.548C503.105 218.548 547.293 304.73 509.686 311.311C480.227 316.639 412.536 251.141 437.606 192.221C462.677 134.557 561.396 145.526 606.836 192.535C624.072 222.62 633.788 257.407 633.788 294.705M248.318 435.415C206.951 511.569 180.626 567.035 166.21 605.895V96.325C166.21 90.997 170.598 86.61 175.925 86.61H428.835C502.168 87.863 566.415 126.724 602.455 185.328C576.13 152.422 534.763 133.618 494.025 133.618C416.618 133.618 397.188 161.824 248.325 435.408L248.318 435.415Z"
    fill="#F44336"
  />
</svg>
