<svg viewBox="0 0 128 128" xmlns="http://www.w3.org/2000/svg">
  <path
    d="M48.3665 39.4681L33.8242 54.661L37.2979 63.1284L63.5626 94.5988L89.8241 63.1284L93.2979 54.661L78.7556 39.4681H48.3665Z"
    fill="#FF1744"
  />
  <path
    d="M120 64C120 71.3213 118.594 78.3145 116.04 84.7231L116.027 84.7175L107.7 86.374L102.494 78.6038C104.218 74.0659 105.16 69.1418 105.16 64C105.16 42.6183 88.8586 25.0454 68.0044 23.0322L68.0101 22.9707L73.6418 15.3703L69.3842 8.25635C97.7863 10.9634 120 34.8892 120 64Z"
    fill="#FF1744"
  />
  <path
    d="M106.557 89.4308L114.698 87.8118C105.749 106.834 86.4119 120 64.0003 120C41.5249 120 22.1427 106.761 13.2275 87.6535L13.2389 87.6478L17.7449 80.4495L26.97 81.9933H26.9734C33.6464 95.7096 47.7194 105.16 64.0003 105.16C80.4567 105.16 94.6572 95.5023 101.243 81.5467L101.292 81.5695"
    fill="#FF1744"
  />
  <path
    d="M64.8078 22.8397V22.8488C64.54 22.8431 64.2712 22.8397 64 22.8397C41.2682 22.8397 22.8397 41.2671 22.8397 64C22.8397 69.3172 23.8491 74.3952 25.6834 79.0618L25.6344 79.0824L16.3034 77.5215L11.8965 84.5591C9.37972 78.196 8 71.2598 8 64C8 33.0719 33.0719 8 64 8C64.6768 8 65.3478 8.01139 66.0189 8.03532L70.3791 15.3236"
    fill="#FF1744"
  />
</svg>
