<svg viewBox="0 0 32 32" xmlns="http://www.w3.org/2000/svg">
  <path
    d="M30 12L26 10V6H22L20 2L16 4L12 2L10 6H6V10L2 12L4 16L2 20L6 22V26H10L12 30L16 28L20 30L22 26H26V22L30 20L28 16L30 12ZM6 16C6.00013 14.6227 6.28696 13.2604 6.84222 12H10V20H6.84222C6.28696 18.7396 6.00013 17.3773 6 16ZM16 26C14.451 25.998 12.9236 25.6355 11.5389 24.9413C10.1541 24.247 8.94991 23.24 8.02155 22H16V20H14V18H18C18.819 18.819 18.297 20.308 19.179 21.37C19.3618 21.575 19.5871 21.7377 19.8393 21.8465C20.0915 21.9553 20.3644 22.0077 20.639 22H23.9785C23.0501 23.24 21.8459 24.247 20.4611 24.9413C19.0764 25.6355 17.549 25.998 16 26ZM14 14V12H18C18.2652 12 18.5196 12.1054 18.7071 12.2929C18.8946 12.4804 19 12.7348 19 13C19 13.2652 18.8946 13.5196 18.7071 13.7071C18.5196 13.8946 18.2652 14 18 14H14ZM25.1578 20H24C23.4701 19.9984 22.9623 19.7872 22.5875 19.4125C22.2128 19.0377 22.0016 18.5299 22 18C22 17.4696 21.7893 16.9609 21.4142 16.5858C21.0391 16.2107 20.5304 16 20 16C20.394 16 20.7841 15.9225 21.1481 15.7718C21.5121 15.621 21.8428 15.4001 22.1214 15.1215C22.4 14.843 22.621 14.5123 22.7718 14.1483C22.9226 13.7844 23.0003 13.3943 23.0003 13.0003C23.0003 12.9465 22.9989 12.8928 22.996 12.839C22.9262 12.0527 22.5605 11.3222 21.9728 10.7952C21.3851 10.2682 20.6192 9.98399 19.83 10H8.02155C9.49065 8.03846 11.6298 6.68565 14.0317 6.1991C16.4336 5.71256 18.9306 6.12626 21.0472 7.36145C23.1639 8.59664 24.7524 10.5671 25.5104 12.8976C26.2683 15.2281 26.1429 17.756 25.1578 20Z"
    fill="#FF7043"
  />
</svg>
