<svg viewBox="0 0 500 500" xmlns="http://www.w3.org/2000/svg">
  <path
    d="M426.939 94.2137C419.737 65.959 393.164 48.751 361.042 41.8781C328.631 34.9436 288.496 37.8955 249.745 51.6608C204.445 67.7572 154.976 93.1463 119.098 126.697C76.6236 166.425 67.9868 202.728 71.449 220.591L71.4492 220.592C76.8321 248.453 98.3164 270.547 120.243 288.056C131.29 296.877 142.881 304.859 153.258 312.006L153.427 312.122C159.566 316.35 165.198 320.233 170.13 323.855C162.454 328.028 152.009 334.048 141.29 341.269C132.134 347.438 122.627 354.581 114.429 362.301C106.309 369.947 99.0324 378.563 94.8752 387.754C86.5876 406.08 87.0234 422.448 91.6943 434.981C96.1591 446.961 104.899 456.187 113.914 458.699L113.915 458.699L113.917 458.7C153.357 469.676 193.065 449.857 214.177 418.38L214.178 418.379C224.557 402.896 229.215 385.33 230.226 369.343C230.959 357.746 229.794 346.634 227.261 337.397C235.618 336.063 245.226 335.738 256.772 337.085C300.072 342.144 305.437 367.972 304.4 375.206C303.433 381.955 298.6 387.286 292.978 390.744C291.63 391.574 289.734 392.741 288.361 394.1C287.478 394.974 286.401 396.3 285.761 398.165C285.096 400.1 285.147 401.893 285.4 403.289L285.403 403.302C285.658 404.695 286.235 406.564 287.652 408.281C289.178 410.129 291.116 411.125 292.913 411.575C294.523 411.977 295.982 411.936 296.906 411.866C297.861 411.795 298.805 411.642 299.533 411.517C301.75 411.142 304.672 409.981 307.5 408.491C310.539 406.891 314.127 404.567 317.615 401.409C324.641 395.046 331.46 385.072 332.02 370.982L332.02 370.98C333.383 336.375 300.775 301.15 248.056 302.065L248.055 302.065C230.813 302.367 218.305 303.782 208.526 306.544C200.767 298.524 191.692 291.163 182.714 284.182C180.405 282.386 178.108 280.619 175.835 278.871C168.563 273.277 161.522 267.862 155.016 262.213C137.805 247.269 127.071 232.935 128.035 215.213C128.406 208.431 129.661 195.76 142.588 178.68C155.739 161.305 181.298 138.948 231.352 114.005C271.91 93.7935 307.996 86.6926 334.902 87.478C348.374 87.8713 359.293 90.2325 367.27 93.6949C375.348 97.2014 379.696 101.498 381.442 105.331C384.449 111.936 384.626 120.647 381.169 130.823C377.72 140.971 370.806 152.036 360.593 162.603C340.19 183.714 307.374 202.046 266.09 206.674C235.721 210.076 221.016 198.232 218.534 195.494L218.528 195.487C214.066 190.573 208.653 185.722 201.7 189.52L201.655 189.544L201.625 189.561C195.681 192.873 195.761 199.068 196.106 201.634C197.296 210.498 203.632 218.363 210.033 223.946C216.031 229.177 224.127 234.192 234.226 237.505C252.141 243.382 292.686 245.995 340.859 227.373L340.865 227.371C368.613 216.621 393.194 196.403 409.329 172.613C425.42 148.89 433.689 120.678 426.939 94.2137ZM181.984 357.549C185.279 355.496 188.263 353.77 190.724 352.406C191.789 361.485 190.858 369.921 188.287 377.681L188.286 377.686L188.284 377.691C187.498 380.075 186.555 382.406 185.462 384.666L185.459 384.672L185.456 384.677C182.716 390.365 178.993 395.768 174.35 400.839C167.414 408.403 159.155 413.54 151.817 416.161C143.942 418.975 139.086 418.277 137.56 417.392C137.51 417.362 137.413 417.302 137.271 417.076C137.108 416.819 136.865 416.306 136.689 415.411C136.324 413.551 136.375 410.655 137.325 406.828C139.213 399.217 144.241 389.625 152.472 380.923C161.564 371.313 172.82 363.261 181.984 357.549Z"
    fill="#EC407A"
  />
</svg>
