<svg viewBox="0 0 256 256" xmlns="http://www.w3.org/2000/svg">
  <path
    d="M202.56 28.909L53.4604 50.891V100.376L53.4473 100.416L82.993 109.972L53.4464 114.328V163.791L53.4453 163.794L53.4464 163.794V163.816L53.4923 163.809L82.7637 173.277L53.4414 177.6V227.087L202.539 205.105V155.617L202.537 155.617L202.551 155.573L173.372 146.135L202.546 141.834V92.346L202.526 92.349L202.543 92.296L173.031 82.7506L202.56 78.397V28.909ZM152.488 85.7792L182.108 95.3593L103.536 106.943L73.916 97.3632L152.488 85.7792ZM152.829 149.164L182.098 158.631L103.307 170.248L74.0355 160.781L152.829 149.164Z"
    fill="#F44336"
  />
</svg>
