<svg viewBox="0 0 32 32" xmlns="http://www.w3.org/2000/svg">
  <path
    d="M12 2C10.6868 2 9.38642 2.25866 8.17317 2.7612C6.95991 3.26375 5.85752 4.00035 4.92893 4.92893C3.05357 6.8043 2 9.34784 2 12C2.00455 14.3341 2.82541 16.593 4.32037 18.3855C5.81532 20.1779 7.89019 21.391 10.1855 21.8145C10.609 24.1098 11.8221 26.1847 13.6145 27.6796C15.407 29.1746 17.6659 29.9954 20 30C22.6522 30 25.1957 28.9464 27.0711 27.0711C28.9464 25.1957 30 22.6522 30 20C29.9998 17.6655 29.1828 15.4046 27.6906 13.6093C26.1985 11.8139 24.1252 10.5971 21.8301 10.1699C21.4029 7.87482 20.1861 5.80154 18.3907 4.30939C16.5954 2.81723 14.3345 2.00024 12 2ZM12 6C13.2403 6.00053 14.45 6.38544 15.4626 7.10176C16.4752 7.81808 17.2409 8.8306 17.6543 10H10V17.6523C8.83093 17.239 7.81863 16.4736 7.10233 15.4614C6.38604 14.4492 6.00094 13.24 6 12C6 10.4087 6.63214 8.88258 7.75736 7.75736C8.88258 6.63214 10.4087 6 12 6ZM14 14H17.6543H18V14.3477V18H14.3477H14L14 14ZM22 14.3457C23.1694 14.7591 24.1819 15.5248 24.8982 16.5374C25.6146 17.55 25.9995 18.7597 26 20C26 21.5913 25.3679 23.1174 24.2426 24.2426C23.1174 25.3679 21.5913 26 20 26C18.76 25.9991 17.5508 25.614 16.5386 24.8977C15.5264 24.1814 14.761 23.1691 14.3477 22H22V14.3457Z"
    fill="#0288D1"
  />
</svg>
