<svg viewBox="0 0 250 250" xmlns="http://www.w3.org/2000/svg">
  <path
    d="M32.2649 71.4023L32.254 71.396L125.106 17.795L217.746 71.185L217.735 71.1914L217.745 71.194V178.815L125.317 232.204V232.205L125.316 232.204L125.315 232.205L125.312 232.202L32.254 178.604V71.404L32.2649 71.4023ZM59.4737 87.2211L59.477 87.231V164.043L125.315 202.238L190.945 163.409V86.173L190.946 86.176L190.944 86.1669L125.106 48.605L59.477 87.223L59.4737 87.2211Z"
    fill="#4FC3F7"
  />
  <path
    d="M142.751 142.992L152.274 148.612L152.269 148.615L152.273 148.616V167.978L158.523 171.393L181.383 157.867V131.404L171.923 125.822L158.585 133.713L158.569 133.697L152.273 130.256V137.358L142.751 142.992Z"
    fill="#4FC3F7"
  />
  <path
    d="M100.256 128.157L92.083 132.993L92.082 132.992V132.995L77.7943 125.188L68.855 130.476V158.014L92.0254 170.673L100.256 165.802V148.403L100.257 148.403L100.247 148.397L109.129 143.142L100.256 138.293V128.157Z"
    fill="#4FC3F7"
  />
  <path
    d="M112.192 144.816L103.256 150.102V177.654L126.419 190.311L149.273 176.789V150.324L139.804 144.736L126.483 152.617V152.625L126.476 152.621L126.475 152.622L126.472 152.619L112.192 144.816Z"
    fill="#4FC3F7"
  />
  <path
    d="M146.983 70.6344L123.758 56.9276L100.959 70.4172V77.8547L117.88 87.841L117.874 87.8446L117.88 87.846V96.8344L126.046 92.0029L132.356 95.7269V88.344L132.363 88.3436L146.983 79.6932V70.6344Z"
    fill="#4FC3F7"
  />
  <path
    d="M126.048 95.4876L149.273 109.194V135.647L126.417 149.17L103.256 136.514V108.972L126.048 95.4876Z"
    fill="#4FC3F7"
  />
  <path
    d="M114.88 89.554L91.6552 75.8474L68.855 89.3367V116.884L92.0218 129.544L100.256 124.672V107.272L100.247 107.267L114.88 98.6093V89.554Z"
    fill="#4FC3F7"
  />
  <path
    d="M135.356 97.4975V90.0584L158.157 76.5677L181.383 90.2741V116.739L158.533 130.258L152.273 126.838V107.483L152.274 107.482L152.273 107.481V107.476L152.258 107.473L135.356 97.4975Z"
    fill="#4FC3F7"
  />
</svg>
