<svg viewBox="0 0 24 24" xmlns="http://www.w3.org/2000/svg">
  <path
    d="M10.0979 15.4324C10.8665 14.906 11.3945 14.096 11.5659 13.1803C11.7372 12.2647 11.5379 11.3184 11.0117 10.5498L8.1158 12.5319C7.73085 12.7938 7.25772 12.8925 6.80015 12.8061C6.34259 12.7198 5.93794 12.4555 5.67494 12.0712C5.41283 11.6862 5.31403 11.213 5.4002 10.7553C5.48637 10.2976 5.75047 9.89276 6.13464 9.62944L8.78022 7.81857L10.4776 6.65537C10.8583 6.39481 11.184 6.06179 11.4361 5.67533C11.6881 5.28888 11.8616 4.85656 11.9465 4.40306C12.0315 3.94956 12.0262 3.48377 11.9311 3.0323C11.8361 2.58082 11.653 2.1525 11.3923 1.77179L8.4964 3.75854L4.15255 6.72795L4.14696 6.73354C3.57594 7.12441 3.08754 7.624 2.70971 8.20374C2.33188 8.78349 2.07201 9.43201 1.94497 10.1122C1.81793 10.7925 1.82621 11.4911 1.96932 12.1681C2.11243 12.8452 2.38759 13.4873 2.77904 14.058C4.41403 16.4597 7.69612 17.073 10.0979 15.4324ZM13.9076 8.56767C13.8964 8.57325 13.8909 8.57884 13.8853 8.58442L13.9076 8.56767C13.139 9.09403 12.611 9.90412 12.4396 10.8198C12.2683 11.7354 12.4676 12.6816 12.9938 13.4503L15.8888 11.4682C16.079 11.3372 16.2933 11.2451 16.5194 11.1972C16.7454 11.1494 16.9786 11.1469 17.2057 11.1897C17.4327 11.2325 17.649 11.3199 17.842 11.4468C18.0351 11.5736 18.2011 11.7375 18.3306 11.9289C18.8815 12.7291 18.6767 13.8198 17.8764 14.3706L15.2309 16.1815L13.5279 17.3447C13.1472 17.6053 12.8215 17.9383 12.5694 18.3247C12.3174 18.7112 12.1439 19.1435 12.059 19.597C11.974 20.0505 11.9793 20.5163 12.0744 20.9678C12.1694 21.4193 12.3525 21.8476 12.6132 22.2283L15.5091 20.2462L19.852 17.2721C21.0051 16.4828 21.7976 15.2678 22.0553 13.8944C22.3131 12.521 22.0149 11.1014 21.2265 9.94769C20.8379 9.37491 20.3399 8.88461 19.7611 8.50499C19.1823 8.12536 18.5342 7.86391 17.854 7.73565C17.1738 7.6074 16.475 7.61489 15.7978 7.75767C15.1205 7.90046 14.4781 8.17574 13.9076 8.56767Z"
    fill="#0288D1"
  />
</svg>
