<svg viewBox="0 0 700 700" xmlns="http://www.w3.org/2000/svg">
  <path
    d="M630.53 534.27L374.04 135.29C371.466 131.244 367.913 127.913 363.71 125.605C359.507 123.297 354.789 122.088 349.994 122.088C345.199 122.088 340.481 123.297 336.278 125.605C332.075 127.913 328.522 131.244 325.948 135.29L69.4578 534.27C66.7577 538.576 65.2583 543.526 65.1149 548.606C64.9714 553.686 66.1892 558.713 68.642 563.164C71.0948 567.615 74.6934 571.33 79.0648 573.922C83.4362 576.515 88.4214 577.891 93.5038 577.909H606.484C611.566 577.891 616.551 576.515 620.923 573.922C625.294 571.33 628.893 567.615 631.346 563.164C633.798 558.713 635.016 553.686 634.873 548.606C634.729 543.526 633.23 538.576 630.53 534.27ZM350 202.97L425.7 321.42H350L293.002 378.418L259.16 344.576L350 202.97Z"
    fill="#CFD8DC"
  />
</svg>
