<svg viewBox="0 0 200 200" xmlns="http://www.w3.org/2000/svg">
  <path
    d="M55.08 32.875L62.845 18.65L69.916 67.989L69.947 67.996C69.947 68.023 69.94 68.083 69.934 68.127L73.759 94.83L78.789 103.101C83.624 101.47 91.833 99.204 100.143 99.204C108.464 99.204 116.727 101.475 121.583 103.104L126.613 94.83L137.51 18.65L145.117 32.876C147.836 37.942 171.626 82.833 171.626 99.053V100.003L160.84 129.228C162.315 142.635 165.005 169.214 164.255 181.348L120.958 181.347V181.353H110.214V181.347H89.708V181.353H76.628V181.347H41.018L41.018 181.346H36.064C35.282 169.215 37.876 142.635 39.354 129.226L28.374 100.006V99.053C28.374 82.833 52.358 37.942 55.08 32.875ZM59.224 68.165L56.995 52.632C48.638 69.619 39.877 89.776 39.275 98.189L44.075 111.103C54.491 96.747 58.374 73.972 59.224 68.165ZM161.123 98.189C160.522 89.776 151.756 69.619 143.4 52.632L141.346 66.951C141.653 69.299 145.182 94.993 156.436 110.797L161.123 98.189ZM70.45 146.559V146.558C60.338 146.558 67.902 155.132 68.788 156.108H87.916C86.174 153.926 79.596 146.559 70.45 146.559ZM129.898 146.558C120.756 146.558 114.176 153.926 112.432 156.108H131.56C132.451 155.132 140.016 146.558 129.898 146.558Z"
    fill="#607D8B"
  />
</svg>
