<svg viewBox="0 0 144 144" xmlns="http://www.w3.org/2000/svg">
  <path
    d="M80.7263 15.6146L128.385 63.2737C133.205 68.0931 133.205 75.9069 128.385 80.7263L80.7263 128.385C75.9069 133.205 68.0931 133.205 63.2737 128.385L15.6146 80.7263C10.7951 75.9069 10.7951 68.0931 15.6146 63.2737L63.2737 15.6146C68.0931 10.7951 75.9069 10.7951 80.7263 15.6146ZM52.2361 52.6672L59.941 44.1617L57.4786 41.9311L49.7669 50.4439L47.3498 48.2675L42.4782 61.1262L54.7572 54.9372L52.2361 52.6672ZM41.3971 81.7184L51.5662 91.8876L49.2168 94.237L61.8029 99.7748L56.265 87.1888L53.9156 89.5382L43.7465 79.369L41.3971 81.7184ZM81.493 109.972C81.493 104.729 77.2428 100.479 72 100.479C66.7572 100.479 62.507 104.729 62.507 109.972C62.507 115.215 66.7572 119.465 72 119.465C77.2428 119.465 81.493 115.215 81.493 109.972ZM34.0281 81.493C39.2709 81.493 43.5211 77.2428 43.5211 72C43.5211 66.7572 39.2709 62.507 34.0281 62.507C28.7852 62.507 24.5351 66.7572 24.5351 72C24.5351 77.2428 28.7852 81.493 34.0281 81.493ZM65.1176 85.2902L61.795 85.2902L66.7789 98.1057L71.7627 85.2902L68.4401 85.2902V50.1661H68.4124L65.1176 53.8254V85.2902ZM53.3016 59.5133L50.8278 57.2859L45.9562 70.1445L58.2352 63.9555L55.771 61.7368L69.4552 46.0365L66.9505 43.8535L53.3016 59.5133ZM84.0591 44.1619L92.1452 53.0859L89.562 55.4118L101.841 61.6008L96.9694 48.7422L94.6144 50.8627L86.5212 41.9309L84.0591 44.1619ZM90.2268 89.3958L88.0198 87.1888L82.4819 99.7748L95.0679 94.237L92.5761 91.7452L102.603 81.7184L100.254 79.369L90.2268 89.3958ZM75.5599 45.8943V85.2902H72.2373L77.2211 98.1057L82.205 85.2902L78.8824 85.2902V45.8943H75.5599ZM77.2211 43.0464C82.2018 43.0464 86.2395 39.0088 86.2395 34.0281C86.2395 29.0474 82.2018 25.0097 77.2211 25.0097C72.2405 25.0097 68.2028 29.0474 68.2028 34.0281C68.2028 39.0088 72.2405 43.0464 77.2211 43.0464ZM66.4438 43.521C68.1126 43.521 69.6822 43.1029 71.0507 42.367C68.0564 40.757 66.025 37.6263 66.025 34.0281C66.025 30.4298 68.0564 27.2991 71.0507 25.6891C69.6822 24.9533 68.1126 24.5351 66.4438 24.5351C61.1239 24.5351 56.8112 28.7852 56.8112 34.0281C56.8112 39.2709 61.1239 43.521 66.4438 43.521ZM109.972 81.9676C115.477 81.9676 119.94 77.505 119.94 72C119.94 66.495 115.477 62.0324 109.972 62.0324C104.467 62.0324 100.004 66.495 100.004 72C100.004 77.505 104.467 81.9676 109.972 81.9676Z"
    fill="#0F3A80"
  />
</svg>
