<svg viewBox="0 0 24 24" xmlns="http://www.w3.org/2000/svg">
  <path
    fill-rule="evenodd"
    clip-rule="evenodd"
    d="M15.4112 15.4108C15.4109 15.4108 15.4105 15.4108 15.4102 15.4108C15.3856 19.1317 12.3617 22.1404 8.63508 22.1404C4.89321 22.1404 1.85983 19.107 1.85983 15.3652C1.85983 11.6382 4.86908 8.6141 8.59038 8.59006C8.59038 8.59004 8.59038 8.59007 8.59038 8.59006L10.2896 10.2892L6.7549 13.8239L10.2042 17.2732L13.7389 13.7385L15.4112 15.4108ZM15.4112 15.4108L15.4116 8.5896L8.59038 8.59006C8.61519 4.86943 11.639 1.8605 15.3655 1.8605C19.1073 1.8605 22.1407 4.89388 22.1407 8.63575C22.1407 12.3622 19.1318 15.386 15.4112 15.4108ZM15.4112 15.4108C15.4111 15.4108 15.4114 15.4108 15.4112 15.4108ZM8.59038 8.59006C8.59038 8.59004 8.59038 8.59007 8.59038 8.59006Z"
    fill="#00BFA5"
  />
</svg>
