<svg viewBox="0 0 24 24" xmlns="http://www.w3.org/2000/svg">
  <path
    d="M15.4112 15.4108C15.4115 15.4108 15.4109 15.4108 15.4112 15.4108C15.3866 19.1317 12.3617 22.1404 8.63511 22.1404C4.89324 22.1404 1.85986 19.107 1.85986 15.3652C1.85986 11.6382 4.86911 8.61407 8.59041 8.59003C8.59041 8.59004 8.59041 8.59001 8.59041 8.59003L10.2896 10.2892L6.75493 13.8239L10.2042 17.2732L13.7389 13.7385L15.4112 15.4108ZM15.4112 15.4108L15.4116 8.58957L8.59041 8.59003C8.61522 4.8694 11.639 1.86047 15.3655 1.86047C19.1073 1.86047 22.1407 4.89385 22.1407 8.63572C22.1407 12.3622 19.1318 15.386 15.4112 15.4108ZM15.4112 15.4108C15.4115 15.4108 15.4109 15.4108 15.4112 15.4108ZM8.59041 8.59003C8.59041 8.59004 8.59041 8.59001 8.59041 8.59003Z"
    fill="#00BFA5"
  />
</svg>
