<svg viewBox="0 0 64 64" xmlns="http://www.w3.org/2000/svg">
  <path
    d="M5.26953 32C5.26953 17.238 17.2385 5.27002 31.9995 5.27002C46.7605 5.27002 58.7295 17.239 58.7295 32C58.7295 46.761 46.7605 58.73 31.9995 58.73C17.2385 58.73 5.26953 46.761 5.26953 32ZM31.9995 8.81202C21.5776 8.81202 12.7608 15.6866 9.83842 25.1487L37.1411 9.38397C35.4874 9.00964 33.7665 8.81202 31.9995 8.81202ZM8.80953 32C8.80953 39.4674 12.3394 46.1103 17.8216 50.3516L33.0273 41.5726L17.2543 30.2984C17.1398 30.2232 17.0433 30.1218 16.9735 30.001C16.856 29.7976 16.8241 29.5558 16.8849 29.3289C16.9456 29.102 17.0941 28.9085 17.2975 28.791L45.0008 12.7966C43.3172 11.6546 41.4756 10.7282 39.5154 10.057L9.23822 27.5393C8.95691 28.9828 8.80953 30.4742 8.80953 32ZM34.7116 40.6002L39.0126 38.117L24.1288 27.08C24.0829 27.046 24.0405 27.0077 24.0021 26.9657L19.3743 29.6375L34.7116 40.6002ZM25.6565 26.0105L40.6833 37.1524L44.9751 34.6746L30.0908 23.64C30.0444 23.6056 30.0015 23.5668 29.9629 23.5242L25.6565 26.0105ZM31.6184 22.5684L47.0734 34.0268C47.0912 34.0386 47.1087 34.051 47.1257 34.064C47.218 34.1349 47.2954 34.2232 47.3535 34.324C47.4706 34.5275 47.5023 34.7692 47.4416 34.996C47.3808 35.2228 47.2327 35.4163 47.0295 35.534L19.4117 51.4785C21.1454 52.6012 23.0385 53.4986 25.0495 54.1296L54.6368 37.0471C54.9974 35.4223 55.1875 33.7334 55.1875 32C55.1875 24.7048 51.8191 18.1967 46.5527 13.9462L31.6184 22.5684ZM27.5084 54.7544C28.9614 55.0396 30.463 55.189 31.9995 55.189C42.1866 55.189 50.8387 48.6202 53.9523 39.4872L27.5084 54.7544Z"
    fill="#CFD8DC"
  />
</svg>
