<svg viewBox="0 0 50 50" fill="none" xmlns="http://www.w3.org/2000/svg">
  <path
    d="M8.9 8.84L10.14 41.86V41.87C10.1594 42.3723 10.3663 42.849 10.7198 43.2063C11.0734 43.5635 11.548 43.7754 12.05 43.8L38.9 45C39.1706 45.0121 39.4408 44.9694 39.6945 44.8745C39.9482 44.7796 40.1801 44.6343 40.3762 44.4475C40.5724 44.2607 40.7287 44.0362 40.8359 43.7875C40.9431 43.5387 40.9989 43.2709 41 43V7.01C41.0006 6.73474 40.9446 6.46229 40.8356 6.20955C40.7265 5.9568 40.5667 5.72915 40.3661 5.5407C40.1655 5.35225 39.9282 5.20702 39.6692 5.11401C39.4101 5.021 39.1347 4.98219 38.86 5L36.6549 5.13821L36.82 9.76C36.8215 9.81746 36.8065 9.87414 36.7767 9.92331C36.747 9.97248 36.7037 10.0121 36.6521 10.0373C36.6004 10.0626 36.5427 10.0725 36.4856 10.0659C36.4285 10.0593 36.3745 10.0364 36.33 10L34.84 8.83L33.08 10.17C33.0348 10.204 32.9808 10.2245 32.9244 10.2291C32.868 10.2338 32.8114 10.2223 32.7612 10.1962C32.7111 10.1701 32.6693 10.1303 32.6407 10.0814C32.6122 10.0325 32.5981 9.97656 32.6 9.92L32.7965 5.38004L10.78 6.76C10.2574 6.79351 9.76859 7.02962 9.41747 7.41809C9.06635 7.80656 8.88069 8.31672 8.9 8.84ZM33.65 19.93C32.94 20.48 27.67 20.86 27.67 20.08C27.78 17.09 26.44 16.96 25.71 16.96C25 16.96 23.81 17.17 23.81 18.77C23.81 20.4025 25.5472 21.3245 27.5856 22.4063C30.4793 23.942 33.98 25.7998 33.98 30.47C33.98 34.94 30.34 37.42 25.7 37.42C20.91 37.42 16.73 35.48 17.2 28.76C17.38 27.97 23.47 28.16 23.47 28.76C23.4 31.53 24.03 32.35 25.63 32.35C26.85 32.35 27.41 31.68 27.41 30.54C27.41 28.8199 25.6007 27.8033 23.5189 26.6336C20.6993 25.0493 17.38 23.1843 17.38 18.91C17.38 14.65 20.32 11.81 25.55 11.81C30.79 11.81 33.65 14.61 33.65 19.93Z"
    fill="#FF4081"
  />
</svg>
