<svg viewBox="0 0 24 24" xmlns="http://www.w3.org/2000/svg">
  <path
    d="M10.9457 3.79002V2.34802H13.0557V3.79202C14.8726 4.02262 16.5614 4.85048 17.8565 6.14546C19.1517 7.44045 19.9798 9.12912 20.2107 10.946H21.6527V13.056H20.2097C19.9789 14.8728 19.1509 16.5613 17.8559 17.8563C16.561 19.1513 14.8724 19.9792 13.0557 20.21V21.651H10.9457V20.208C9.1289 19.9772 7.44034 19.1493 6.14538 17.8543C4.85041 16.5593 4.02246 14.8708 3.79166 13.054H2.34766V10.944H3.79166C4.02246 9.12727 4.85041 7.43871 6.14538 6.14374C7.44034 4.84878 9.1289 4.02083 10.9457 3.79002ZM10.9457 5.93019C9.69352 6.14382 8.53858 6.74089 7.64029 7.639C6.74177 8.53735 6.14438 9.69255 5.93066 10.945H7.17366V13.055H5.92966C6.14338 14.3075 6.74077 15.4627 7.63929 16.361C8.53782 17.2594 9.69314 17.8565 10.9457 18.07V16.826H13.0547V18.07C14.3072 17.8565 15.4625 17.2594 16.361 16.361C17.2595 15.4627 17.8569 14.3075 18.0707 13.055H16.8267V10.945H18.0707C17.857 9.69269 17.2598 8.53759 16.3614 7.63926C15.4631 6.74093 14.308 6.14369 13.0557 5.93002V7.17402H10.9457V5.93019Z"
    fill="#EF5350"
  />
</svg>
