<svg viewBox="0 0 30 30" xmlns="http://www.w3.org/2000/svg">
  <path
    d="M10.9421 3.6149C8.99832 4.44187 4.55612 8.6996 4.54102 12.0543C4.56717 15.5225 8.99832 19.6667 10.9421 20.4939C11.3877 20.6834 12.0794 20.9454 12.8097 20.9454C13.4758 20.9454 14.0398 20.617 14.6136 19.9265C15.5782 18.7662 15.4623 17.0977 14.1767 16.1509C12.6382 15.0185 11.3793 14.0021 11.3531 12.0543C11.3792 10.1068 12.6385 8.74738 14.1767 7.61478C15.4621 6.66791 15.7127 5.23158 14.7481 4.07128C14.1742 3.38099 13.4758 3.1629 12.8097 3.1629C12.0794 3.1629 11.3877 3.42518 10.9421 3.6149Z"
    fill="#B71C1C"
  />
  <path
    d="M17.2304 26.837C16.5677 26.837 15.8725 26.6189 15.3014 25.9291C14.3415 24.7693 14.5924 23.334 15.8715 22.3879C17.4026 21.256 18.6541 19.8971 18.6803 17.9506C18.6542 16.0041 17.4011 14.7113 15.8715 13.5735C14.7423 12.7337 14.3414 11.1321 15.3014 9.9721C15.8725 9.2823 16.5675 9.06421 17.2307 9.06421C17.9575 9.06421 18.6458 9.32646 19.0894 9.51569C21.0236 10.3422 25.4254 14.474 25.4594 17.9507C25.4485 21.2277 21.0236 25.5589 19.0894 26.3857C18.6458 26.5749 17.9574 26.837 17.2304 26.837Z"
    fill="#B71C1C"
  />
</svg>
