<svg viewBox="0 0 412 395" xmlns="http://www.w3.org/2000/svg">
  <path
    d="M208.489 362.707C246.686 226.118 245.578 225.499 273.189 128.109L279.829 131.944C283.436 134.027 286.389 132.323 286.389 128.167V81.7221C293.716 56.0608 299.458 36.2319 301.14 30.2697H331.054L380.748 76.3059L348.111 104.511L372.789 131.192L210.14 362.704C209.344 364.011 208.237 363.713 208.489 362.704V362.707ZM226.258 68.3006C227.727 68.3006 228.927 69.1127 228.927 70.1207V93.923C228.927 94.9284 227.727 95.7456 226.259 95.7456H186.079C184.602 95.7456 183.406 94.9318 183.406 93.923V70.1207C183.406 69.1161 184.601 68.3006 186.079 68.3006H226.258Z"
    fill="#CFD8DC"
  />
  <path
    d="M275.851 41.9508L231.65 67.4681C232.162 68.248 232.474 69.1466 232.474 70.1266V93.9297C232.474 95.1649 231.995 96.278 231.206 97.1766L275.851 122.95C278.895 124.707 281.391 123.27 281.391 119.759V45.1451C281.391 41.6312 278.895 40.1977 275.851 41.9508ZM179.852 93.928V70.1258C179.852 69.1509 180.164 68.2522 180.671 67.4723L136.469 41.9508C133.427 40.1977 130.933 41.632 130.933 45.1451V119.758C130.933 123.268 133.424 124.709 136.469 122.946L181.112 97.1698C180.327 96.2712 179.851 95.1607 179.851 93.9255L179.852 93.928Z"
    fill="#CFD8DC"
  />
  <path
    d="M202.088 362.707H203.739C165.548 226.118 166.647 225.499 139.039 128.109L132.398 131.944C128.793 134.027 125.839 132.323 125.839 128.167V81.7221C118.51 56.0608 112.771 36.2319 111.084 30.2697H81.173L31.4805 76.3059L64.1138 104.511L39.4358 131.192L202.088 362.707Z"
    fill="#CFD8DC"
  />
  <path
    d="M204.903 145.447C211.566 145.447 216.967 140.045 216.967 133.382C216.967 126.719 211.566 121.318 204.903 121.318C198.24 121.318 192.839 126.719 192.839 133.382C192.839 140.045 198.24 145.447 204.903 145.447Z"
    fill="#CFD8DC"
  />
  <path
    d="M204.903 217.183C211.566 217.183 216.967 211.782 216.967 205.119C216.967 198.456 211.566 193.055 204.903 193.055C198.24 193.055 192.839 198.456 192.839 205.119C192.839 211.782 198.24 217.183 204.903 217.183Z"
    fill="#CFD8DC"
  />
  <path
    d="M204.903 288.919C211.565 288.919 216.966 283.518 216.966 276.856C216.966 270.193 211.565 264.792 204.903 264.792C198.241 264.792 192.84 270.193 192.84 276.856C192.84 283.518 198.241 288.919 204.903 288.919Z"
    fill="#CFD8DC"
  />
</svg>
