<svg viewBox="0 0 24 24" xmlns="http://www.w3.org/2000/svg">
  <path
    d="M10.9519 14.143L4.97063 12.3237C4.88565 12.2936 4.8118 12.241 4.75802 12.1723C4.70424 12.1036 4.67283 12.0218 4.66759 11.9367L4.61 7.62695C4.61285 7.54232 4.64255 7.46042 4.69531 7.39171C4.74808 7.323 4.8215 7.2706 4.90618 7.24123L19.001 3.01374C19.1683 2.9636 19.3026 3.05488 19.3026 3.21946V7.52795C19.2987 7.61329 19.2681 7.69568 19.2147 7.76491C19.1614 7.83415 19.0875 7.8872 19.0023 7.91753L13.187 9.73555L19.0983 11.4661C19.2656 11.515 19.4 11.6873 19.4 11.8506V16.0986C19.396 16.1838 19.3657 16.266 19.3129 16.3354C19.2601 16.4047 19.187 16.4583 19.1024 16.4895L4.97063 20.9844C4.80609 21.0384 4.67171 20.9471 4.67033 20.7851L4.64154 16.3506C4.64486 16.266 4.6749 16.1841 4.72787 16.1154C4.78084 16.0468 4.85435 15.9944 4.93909 15.9649L10.9519 14.143Z"
    fill="#FFB74D"
  />
</svg>
