<svg viewBox="0 0 32 32" xmlns="http://www.w3.org/2000/svg">
  <path
    d="M4.625 26C3.903 26 3.285 25.755 2.771 25.265C2.257 24.775 2 24.187 2 23.5V8.49C2 7.802 2.257 7.215 2.771 6.73C3.01692 6.49248 3.30724 6.30576 3.62536 6.1805C3.94348 6.05525 4.28316 5.99391 4.625 6H27.375C28.097 6 28.715 6.245 29.229 6.735C29.743 7.225 30 7.813 30 8.5V23.51C30 24.198 29.743 24.785 29.229 25.27C28.9831 25.5075 28.6928 25.6942 28.3746 25.8195C28.0565 25.9448 27.7168 26.0061 27.375 26H4.625ZM6 22H19V18H6V22ZM21 22H26V18H21V22ZM6 16H11V12H6V16ZM13 16H26V12H13V16Z"
    fill="#FF9800"
  />
</svg>
