<svg
  width="256"
  height="256"
  viewBox="0 0 256 256"
  fill="none"
  xmlns="http://www.w3.org/2000/svg"
>
  <path
    d="M128.963 17.002C127.035 16.9891 125.117 17.0259 123.213 17.1113C121.309 17.1967 119.419 17.3306 117.541 17.5117C113.786 17.8739 110.086 18.4246 106.451 19.1543C97.3637 20.9787 88.681 23.9218 80.5449 27.8223C75.6633 30.1625 70.9779 32.8472 66.5215 35.8438C62.0651 38.8403 57.8363 42.1479 53.8672 45.7324C52.5442 46.9273 51.2506 48.1531 49.9863 49.4082C47.4577 51.9185 45.0494 54.5471 42.7695 57.2832C39.3497 61.3874 36.2186 65.7335 33.4102 70.2891C31.5379 73.3261 29.81 76.4556 28.2324 79.668C27.4436 81.2742 26.6921 82.9026 25.9805 84.5488C24.5571 87.8413 23.2905 91.211 22.1895 94.6484C21.6389 96.3671 21.1286 98.1024 20.6621 99.8535C19.7291 103.356 18.968 106.92 18.3848 110.537C18.0932 112.346 17.8452 114.167 17.6445 116C17.4438 117.833 17.2891 119.68 17.1816 121.535C17.0741 123.391 17.0139 125.255 17.002 127.131C16.9895 129.08 17.0278 131.016 17.1152 132.938C17.2027 134.859 17.3388 136.767 17.5234 138.66C18.6311 150.017 21.4652 160.831 25.7324 170.865C29.9996 180.899 35.7015 190.155 42.5469 198.4C43.6878 199.775 44.8594 201.121 46.0625 202.438C47.2656 203.754 48.4991 205.041 49.7617 206.299C51.0243 207.556 52.3154 208.785 53.6348 209.98C54.9542 211.176 56.3023 212.341 57.6758 213.473C60.4228 215.737 63.2753 217.871 66.2227 219.867C70.6437 222.862 75.2787 225.546 80.0898 227.889C86.5047 231.013 93.2337 233.53 100.191 235.375C105.41 236.758 110.756 237.764 116.195 238.359C119.821 238.757 123.489 238.973 127.186 238.998C131.027 239.025 134.826 238.85 138.574 238.486C140.448 238.305 142.311 238.076 144.158 237.801C146.006 237.525 147.838 237.203 149.656 236.836C153.292 236.103 156.866 235.19 160.369 234.107C167.375 231.941 174.097 229.096 180.453 225.654C182.042 224.794 183.608 223.895 185.15 222.961C189.777 220.159 194.187 217.034 198.348 213.617C199.734 212.478 201.094 211.306 202.424 210.104C203.754 208.901 205.053 207.669 206.324 206.406C208.866 203.88 211.287 201.236 213.576 198.482C218.155 192.976 222.21 187.033 225.662 180.738C226.525 179.165 227.35 177.57 228.137 175.953C228.923 174.336 229.672 172.698 230.379 171.041C231.793 167.727 233.046 164.335 234.129 160.875C235.753 155.685 236.992 150.341 237.814 144.879C238.089 143.058 238.318 141.223 238.498 139.377C238.678 137.531 238.809 135.673 238.893 133.805C238.976 131.936 239.012 130.058 238.996 128.17C239.03 124.358 238.864 120.59 238.508 116.875C238.33 115.018 238.103 113.173 237.832 111.344C237.561 109.514 237.243 107.698 236.881 105.898C236.519 104.099 236.113 102.316 235.662 100.549C235.211 98.7815 234.716 97.0295 234.18 95.2969C233.106 91.8317 231.864 88.4393 230.463 85.127C229.762 83.4708 229.021 81.8352 228.242 80.2207C227.463 78.6062 226.647 77.0119 225.793 75.4414C224.938 73.8709 224.047 72.323 223.119 70.7988C221.264 67.7506 219.265 64.7981 217.133 61.9492C212.868 56.2515 208.069 50.9719 202.818 46.1836C201.506 44.9865 200.165 43.82 198.797 42.6856C196.061 40.4167 193.215 38.2757 190.273 36.2715C187.332 34.2673 184.293 32.3986 181.166 30.6777C178.039 28.9568 174.823 27.3838 171.531 25.9648C168.239 24.5459 164.87 23.282 161.434 22.1836C159.715 21.6344 157.979 21.1257 156.229 20.6602C149.226 18.7978 141.975 17.6146 134.557 17.1836C132.702 17.0759 130.837 17.0144 128.963 17.002ZM89.4727 62.0059C91.0228 62.0198 92.623 62.0547 94.3203 62.0547V76.1445C92.9232 76.2439 91.6429 76.4463 90.3711 76.4082C81.791 76.1454 81.3471 79.0692 80.7207 86.1719C80.3299 90.626 80.8701 95.1559 80.5664 99.625C80.2491 104.072 79.6539 108.495 78.7852 112.869C77.5474 119.208 73.6505 123.923 68.25 127.924C78.7337 134.746 79.9266 145.347 80.6074 156.111C80.9737 161.896 80.8057 167.721 81.3926 173.477C81.8501 177.944 83.5877 179.085 88.2012 179.221C90.1035 179.277 92.0075 179.234 94.2012 179.234V193.021C80.5665 195.327 69.3342 191.455 66.5781 179.93C65.6345 175.692 65.0542 171.38 64.8418 167.043C64.549 162.451 65.057 157.808 64.707 153.225C63.7375 140.613 62.1028 136.307 50 135.711V120.016C50.8674 119.813 51.7477 119.662 52.6328 119.562C59.2684 119.236 62.0646 117.202 63.5488 110.666C64.2242 106.994 64.6237 103.275 64.7422 99.543C65.2678 92.326 65.0828 84.9925 66.2852 77.8926C68.0227 67.6254 74.3971 62.6364 84.9258 62.0781C86.4237 61.9978 87.9225 61.9919 89.4727 62.0059ZM170.998 62.0938C182.707 62.4345 190.397 68.4668 191.258 81.3008C191.702 87.9336 191.636 94.5976 192.061 101.23C192.247 104.839 192.787 108.422 193.674 111.924C195.132 117.371 197.971 119.285 203.705 119.547C204.645 119.59 205.579 119.75 206.867 119.893V135.584C206.17 135.813 205.456 135.984 204.73 136.096C197.046 136.574 193.544 139.727 192.768 147.432C192.272 152.35 192.313 157.324 191.973 162.26C191.83 167.679 191.336 173.084 190.496 178.439C188.535 188.143 182.477 192.983 172.467 193.574C169.245 193.765 166.001 193.604 162.527 193.604V179.578C164.397 179.462 166.047 179.303 167.701 179.264C173.682 179.121 175.797 177.192 176.09 171.252C176.414 164.727 176.554 158.195 176.846 151.668C177.269 142.234 179.854 133.806 188.643 127.922C183.614 124.337 179.575 119.994 178.529 114.139C177.264 107.041 176.857 99.7884 176.176 92.5918C175.839 88.9942 175.855 85.3644 175.504 81.7695C175.125 77.8887 172.46 76.5461 168.928 76.459C166.904 76.41 164.872 76.4492 162.285 76.4492V62.7539C165.381 62.24 168.296 62.0151 170.998 62.0938ZM97.0371 118.789H97.1992C102.212 118.872 106.21 123.002 106.127 128.016C106.127 128.18 106.121 128.344 106.111 128.508C105.829 133.407 101.63 137.149 96.7305 136.867C96.533 136.871 96.3381 136.867 96.1406 136.857C91.1514 136.61 87.3069 132.364 87.5547 127.375C87.8025 122.386 92.0478 118.541 97.0371 118.789ZM128.273 118.789C133.756 118.747 137.397 122.299 137.426 127.719C137.456 133.284 134.003 136.846 128.557 136.869C123.017 136.894 119.37 133.389 119.34 128.002C119.324 127.727 119.32 127.453 119.328 127.178C119.482 122.391 123.487 118.635 128.273 118.789ZM160.08 118.789C165.125 118.814 169.6 123.078 169.328 127.957C169.044 133.247 164.422 137.64 159.867 136.873H159.799C154.754 136.88 150.658 132.795 150.652 127.75C150.824 122.691 155.02 118.703 160.08 118.789Z"
    fill="#43A047"
  />
</svg>
