<svg viewBox="0 0 32 32" xmlns="http://www.w3.org/2000/svg">
  <path
    d="M4 28V6.00001C4 5.46958 4.21072 4.96086 4.5858 4.58579C4.96087 4.21071 5.46958 4 6.00001 4H28V23C28 23.317 27.9376 23.631 27.8162 23.9239C27.6949 24.2168 27.5171 24.4829 27.2929 24.7071L24.7071 27.2929C24.4829 27.5171 24.2168 27.6949 23.9239 27.8162C23.631 27.9376 23.317 28 23 28H4ZM11.3106 15.2444L18 8L9.64709 8.00002C8.54251 8.00002 7.81364 8.87982 8.04119 9.96062C8.41589 11.7404 8.85408 13.5328 9.45619 15.2291C9.54078 15.4675 9.74278 15.8367 9.97282 15.9366C10.1966 16.0338 10.4299 16.0082 10.6536 15.8773C10.8349 15.7711 11.0517 15.5307 11.2182 15.3461C11.2512 15.3095 11.2822 15.2751 11.3106 15.2444ZM7.99997 23.0196C8.00267 24.191 9.19973 24.2915 9.99997 23.436L15 18.0001H8.99997C8.5296 18.0126 7.98141 18.5299 7.99997 19.0001V23.0196ZM13.2249 16H16.045C16.6074 15.9947 17.1413 15.7515 17.5145 15.3306L24 8.00003H22C21.4376 8.00533 20.3731 8.34418 20 8.765L13.2249 16Z"
    fill="#00E676"
  />
</svg>
