<svg viewBox="0 0 32 32" xmlns="http://www.w3.org/2000/svg">
  <path
    d="M4 28V6C4 5.46957 4.21071 4.96086 4.58579 4.58579C4.96086 4.21071 5.46957 4 6 4H28V23C28 23.317 27.9376 23.6309 27.8163 23.9238C27.695 24.2167 27.5172 24.4828 27.293 24.707L24.707 27.293C24.4828 27.5172 24.2167 27.695 23.9238 27.8163C23.6309 27.9376 23.317 28 23 28H4ZM11.31 15.244L18 8H9.64699C8.54299 8 7.81399 8.88 8.04099 9.961C8.41599 11.74 8.85399 13.533 9.45599 15.229C9.54099 15.467 9.74299 15.837 9.97299 15.937C10.197 16.034 10.43 16.008 10.654 15.877C10.8359 15.77 11.0554 15.5262 11.2223 15.3408C11.2536 15.306 11.283 15.2734 11.31 15.244ZM7.99999 23.02C8.00299 24.191 9.19999 24.291 9.99999 23.436L15 18H8.99999C8.52999 18.013 7.98099 18.53 7.99999 19V23.02ZM13.225 16H16.045C16.3231 15.9972 16.5975 15.9361 16.8505 15.8207C17.1035 15.7053 17.3295 15.5381 17.514 15.33L24 8H22C21.438 8.005 20.373 8.345 20 8.765L13.225 16Z"
    fill="#00E676"
  />
</svg>
