<svg viewBox="0 0 16 16" xmlns="http://www.w3.org/2000/svg">
  <path
    d="M2.3271 5.5C2.30391 5.50428 2.28056 5.50762 2.2571 5.51C2.20658 5.51379 2.15643 5.52148 2.1071 5.533C2.05324 5.54302 2.00037 5.55774 1.9491 5.577L1.8511 5.617C1.62573 5.71587 1.43097 5.87333 1.2871 6.073L1.2171 6.169C1.1651 6.239 1.0531 6.517 1.0321 6.63C0.994097 6.83 0.990097 7.051 1.0201 7.199C1.0701 7.445 1.1431 7.61 1.2831 7.801C1.3181 7.849 1.5711 8.117 1.8461 8.396C2.2041 8.761 2.3491 8.919 2.3661 8.955C2.39323 9.01876 2.39441 9.0906 2.36938 9.15522C2.34436 9.21984 2.2951 9.27214 2.2321 9.301C2.1911 9.319 2.0921 9.323 1.8651 9.324C1.7201 9.324 1.5771 9.33 1.5481 9.336C1.42208 9.36477 1.3092 9.43461 1.2272 9.53453C1.1452 9.63445 1.09873 9.75879 1.0951 9.888C1.09108 9.98862 1.11274 10.0886 1.15806 10.1785C1.20337 10.2685 1.27084 10.3454 1.3541 10.402C1.4711 10.484 1.5561 10.499 1.9041 10.499C2.1641 10.499 2.3141 10.492 2.4241 10.467C2.44527 10.4619 2.46662 10.4576 2.4881 10.454C2.5941 10.434 2.9021 10.289 2.9531 10.234C3.07368 10.1417 3.18072 10.033 3.2711 9.911C3.4021 9.727 3.5081 9.453 3.5351 9.228C3.5451 9.144 3.5451 8.93 3.5361 8.881C3.5331 8.864 3.5251 8.817 3.5161 8.775C3.47232 8.56042 3.38147 8.35822 3.2501 8.183C3.2131 8.135 2.9601 7.869 2.6871 7.59C2.1451 7.036 2.1441 7.036 2.1571 6.917C2.1791 6.733 2.3551 6.627 2.5161 6.702C2.5541 6.718 2.9821 7.15 4.2371 8.428C5.1551 9.366 5.9261 10.148 5.9481 10.166C5.9911 10.201 6.0361 10.233 6.0821 10.264C6.5761 10.594 7.2141 10.574 7.6961 10.218C7.7721 10.162 7.9191 10.012 7.9781 9.933L8.0191 9.877L8.1541 10.013C8.2731 10.132 8.3041 10.162 8.3601 10.207C8.3671 10.212 8.4051 10.24 8.4471 10.267C8.9141 10.583 9.5711 10.577 10.0401 10.25C10.1221 10.193 10.1501 10.17 10.2371 10.084C10.4435 9.86956 10.582 9.59889 10.6351 9.306C10.6531 9.215 10.6551 8.898 10.6401 8.821C10.5986 8.59846 10.5092 8.38759 10.3781 8.203C10.2002 8.00101 10.0158 7.8049 9.8251 7.615C9.64871 7.43829 9.47568 7.25826 9.3061 7.075C9.28742 7.04 9.27601 7.00157 9.27258 6.96205C9.26914 6.92252 9.27374 6.8827 9.2861 6.845C9.30912 6.78732 9.3497 6.73834 9.4021 6.705C9.4351 6.686 9.4801 6.684 9.7901 6.68L10.1401 6.677L10.1301 6.741C10.1191 6.816 10.1201 7.099 10.1301 7.157L10.1441 7.235C10.1601 7.317 10.2021 7.445 10.2451 7.539C10.3531 7.775 10.3391 7.759 11.5351 8.981C11.9299 9.39077 12.3313 9.79415 12.7391 10.191C12.9401 10.351 13.1231 10.434 13.3731 10.48C13.4811 10.499 13.6701 10.505 13.7611 10.492C14.0783 10.4511 14.3725 10.3045 14.5962 10.0759C14.8199 9.84733 14.9601 9.55003 14.9941 9.232C15.0231 8.951 14.9521 8.756 14.7721 8.612C14.6827 8.54195 14.5742 8.50063 14.4608 8.49349C14.3474 8.48634 14.2346 8.51372 14.1371 8.572C14.0513 8.62373 13.9798 8.69613 13.9291 8.78259C13.8784 8.86906 13.8503 8.96684 13.8471 9.067C13.8381 9.247 13.7031 9.353 13.5371 9.311C13.4811 9.298 13.4391 9.256 12.4071 8.206C11.8171 7.606 11.3211 7.091 11.3041 7.064C11.2778 7.01322 11.2682 6.95545 11.2767 6.8989C11.2851 6.84235 11.3112 6.7899 11.3511 6.749C11.4151 6.687 11.4541 6.679 11.7061 6.679C11.9891 6.679 12.0711 6.662 12.1931 6.577C12.2776 6.51934 12.3457 6.44076 12.3908 6.34892C12.4359 6.25709 12.4565 6.15513 12.4504 6.053C12.4444 5.95086 12.412 5.85204 12.3564 5.76616C12.3007 5.68029 12.2238 5.61029 12.1331 5.563C12.0131 5.5 12.0291 5.501 10.7081 5.5C9.3981 5.5 9.3321 5.502 9.1821 5.543C9.1561 5.55 9.1261 5.558 9.1171 5.559C9.04075 5.58375 8.96624 5.61383 8.8941 5.649C8.7381 5.729 8.5281 5.904 8.4161 6.045C8.3391 6.145 8.2361 6.342 8.1911 6.474C8.0451 6.907 8.1051 7.362 8.3561 7.745C8.4161 7.837 8.5211 7.951 8.9441 8.385C9.2271 8.675 9.4681 8.927 9.4791 8.947C9.5211 9.031 9.4991 9.161 9.4291 9.238C9.3711 9.303 9.3341 9.317 9.2291 9.317C9.1521 9.317 9.1261 9.312 9.0941 9.291C8.48066 8.68074 7.87197 8.06573 7.2681 7.446C5.9231 6.075 5.4651 5.616 5.4141 5.584C5.28438 5.50607 5.12932 5.48202 4.9821 5.517C4.87598 5.54667 4.77996 5.60472 4.70437 5.68489C4.62878 5.76506 4.57648 5.86432 4.5531 5.972C4.5263 6.12791 4.55915 6.28819 4.6451 6.421C4.6621 6.447 5.2181 7.021 5.8801 7.696C6.9761 8.816 7.0851 8.928 7.0981 8.977C7.11139 9.02011 7.11387 9.06583 7.10533 9.11012C7.09678 9.15442 7.07747 9.19593 7.0491 9.231C6.9911 9.313 6.8371 9.345 6.7391 9.293C6.7171 9.28 5.9361 8.493 5.0041 7.545C3.6601 6.175 3.2921 5.807 3.2191 5.758C2.99235 5.59662 2.72234 5.50709 2.4441 5.501C2.3811 5.501 2.3281 5.498 2.3271 5.5Z"
    fill="#FFCA28"
  />
</svg>
