<svg
  width="32"
  height="32"
  viewBox="0 0 32 32"
  fill="none"
  xmlns="http://www.w3.org/2000/svg"
>
  <path
    d="M27.216 20.903C26.8451 20.9037 26.4777 20.8309 26.1351 20.6888C25.7925 20.5467 25.4815 20.338 25.22 20.075L21.063 15.918C20.6493 15.5092 20.3728 14.9818 20.272 14.409C20.2147 14.0765 20.2181 13.7363 20.282 13.405H19.052C18.752 13.405 18.625 13.605 18.576 13.723C18.5334 13.8167 18.5215 13.9214 18.5417 14.0222C18.562 14.1231 18.6135 14.215 18.689 14.285L20.486 16.082C20.8841 16.4752 21.1555 16.9786 21.2651 17.5273C21.3747 18.076 21.3175 18.645 21.101 19.161C20.894 19.66 20.553 20.087 20.118 20.395C19.6422 20.7282 19.0748 20.9056 18.494 20.903H18.436C18.0651 20.9037 17.6977 20.8309 17.3551 20.6888C17.0125 20.5467 16.7015 20.338 16.44 20.075L16.042 19.677C15.852 19.957 15.615 20.199 15.338 20.393C14.8622 20.7262 14.2948 20.9036 13.714 20.901C13.3429 20.9018 12.9754 20.8291 12.6326 20.687C12.2898 20.5448 11.9786 20.3362 11.717 20.073L5.197 13.553C5.14941 13.5052 5.09283 13.4674 5.03052 13.4417C4.96821 13.4159 4.90142 13.4028 4.834 13.403C4.534 13.403 4.407 13.603 4.358 13.72C4.31509 13.8137 4.30282 13.9185 4.32293 14.0196C4.34303 14.1207 4.3945 14.2129 4.47 14.283L6.267 16.08C6.66475 16.4732 6.93591 16.9764 7.04567 17.5248C7.15543 18.0732 7.09878 18.642 6.883 19.158C6.67787 19.6541 6.33677 20.0822 5.899 20.393C5.42309 20.7258 4.85573 20.9029 4.275 20.9H3.453C3.29866 20.9045 3.14498 20.8781 3.00106 20.8221C2.85714 20.7662 2.72591 20.682 2.61513 20.5744C2.50436 20.4669 2.41629 20.3382 2.35616 20.196C2.29602 20.0537 2.26503 19.9009 2.26503 19.7465C2.26503 19.5921 2.29602 19.4393 2.35616 19.297C2.41629 19.1548 2.50436 19.0261 2.61513 18.9186C2.72591 18.811 2.85714 18.7268 3.00106 18.6709C3.14498 18.6149 3.29866 18.5885 3.453 18.593H4.263C4.563 18.593 4.69 18.393 4.739 18.275C4.78167 18.1814 4.79382 18.0768 4.77372 17.9759C4.75362 17.8751 4.70229 17.7831 4.627 17.713L2.832 15.918C2.41886 15.5093 2.14282 14.9823 2.042 14.41C1.95142 13.881 2.01205 13.3372 2.21691 12.8411C2.42178 12.3451 2.76255 11.9169 3.2 11.606C3.67686 11.2727 4.24522 11.0953 4.827 11.098C5.58 11.098 6.29 11.392 6.823 11.926L13.343 18.446C13.3906 18.4938 13.4472 18.5316 13.5095 18.5573C13.5718 18.5831 13.6386 18.5962 13.706 18.596C14.006 18.596 14.134 18.396 14.183 18.278C14.2256 18.1849 14.2379 18.0808 14.2182 17.9803C14.1984 17.8798 14.1477 17.7881 14.073 17.718L9.422 13.068C9.31478 12.9608 9.22972 12.8335 9.17169 12.6934C9.11366 12.5533 9.0838 12.4031 9.0838 12.2515C9.0838 12.0999 9.11366 11.9497 9.17169 11.8096C9.22972 11.6695 9.31478 11.5422 9.422 11.435C9.52922 11.3278 9.65652 11.2427 9.79661 11.1847C9.93671 11.1267 10.0869 11.0968 10.2385 11.0968C10.3901 11.0968 10.5403 11.1267 10.6804 11.1847C10.8205 11.2427 10.9478 11.3278 11.055 11.435L15.703 16.083L15.709 16.088L18.066 18.445C18.1136 18.4928 18.1702 18.5306 18.2325 18.5563C18.2948 18.5821 18.3616 18.5952 18.429 18.595H18.487C18.787 18.595 18.914 18.395 18.963 18.278C19.0056 18.1843 19.0175 18.0796 18.9973 17.9788C18.977 17.8779 18.9255 17.786 18.85 17.716L17.056 15.918C16.6429 15.5093 16.3668 14.9823 16.266 14.41C16.1756 13.8809 16.2365 13.3371 16.4415 12.841C16.6466 12.345 16.9875 11.9169 17.425 11.606C17.9016 11.2729 18.4696 11.0955 19.051 11.098H23.751C24.0571 11.098 24.3506 11.2196 24.567 11.436C24.7834 11.6524 24.905 11.9459 24.905 12.252C24.905 12.5581 24.7834 12.8516 24.567 13.068C24.3506 13.2844 24.0571 13.406 23.751 13.406H23.058C22.758 13.406 22.631 13.606 22.582 13.723C22.5392 13.8168 22.5271 13.9217 22.5474 14.0228C22.5677 14.1239 22.6193 14.216 22.695 14.286L26.852 18.443C26.8997 18.4909 26.9565 18.5288 27.0189 18.5545C27.0814 18.5803 27.1484 18.5934 27.216 18.593C27.3422 18.593 27.4633 18.5429 27.5526 18.4536C27.6419 18.3643 27.692 18.2432 27.692 18.117C27.6875 17.9627 27.7139 17.809 27.7699 17.6651C27.8258 17.5211 27.91 17.3899 28.0176 17.2791C28.1251 17.1684 28.2538 17.0803 28.396 17.0202C28.5383 16.96 28.6911 16.929 28.8455 16.929C28.9999 16.929 29.1527 16.96 29.295 17.0202C29.4372 17.0803 29.5659 17.1684 29.6734 17.2791C29.781 17.3899 29.8652 17.5211 29.9211 17.6651C29.9771 17.809 30.0035 17.9627 29.999 18.117C29.999 18.8555 29.7058 19.5639 29.1837 20.0863C28.6617 20.6087 27.9545 20.9025 27.216 20.903Z"
    fill="#FDD835"
  />
</svg>
