<svg
  width="100"
  height="100"
  viewBox="0 0 100 100"
  fill="none"
  xmlns="http://www.w3.org/2000/svg"
>
  <path
    d="M46.6774 7.77234C50.2962 7.45523 53.9415 7.64746 57.5069 8.34341C59.9684 8.82295 62.3857 9.50714 64.7334 10.3889C66.4011 11.0595 68.0333 11.815 69.6238 12.6524C72.6453 14.3136 75.511 16.3176 77.9614 18.7576C79.2187 19.9926 80.4109 21.2922 81.5331 22.6512C82.755 24.2292 83.8752 25.8835 84.8868 27.6039C86.6178 30.5693 87.9415 33.7543 88.822 37.0732C89.3353 38.7549 89.6251 40.4969 89.6838 42.2543C89.2062 41.9013 88.8324 41.434 88.4274 40.9979C85.9044 38.153 83.4851 35.2042 81.014 32.297C79.903 31.0303 78.8335 29.7012 77.6187 28.528C76.6635 29.3586 75.9574 30.4177 75.1372 31.3729C72.8114 34.1555 70.4856 36.9382 68.1287 39.6897C67.8182 38.6673 67.3487 37.7002 66.7373 36.824C65.8236 35.4223 64.7646 34.1036 63.5601 32.9407C60.2665 29.761 55.9235 27.896 51.3497 27.6973C49.468 27.5724 47.5781 27.7299 45.7429 28.1646C44.1761 28.4817 42.6623 29.0201 41.2471 29.7635C38.509 31.1366 36.1624 33.1796 34.4254 35.7026C33.419 37.0674 32.647 38.5903 32.1412 40.2088C35.3807 40.2192 38.6202 40.1881 41.8597 40.2088C40.9356 41.5275 39.8661 42.7319 38.8486 43.9779C36.2425 47.0928 33.574 50.1869 30.9575 53.3226C29.9438 54.6183 28.8982 55.8889 27.8219 57.1331C26.0879 59.3136 24.2501 61.4109 22.4227 63.5083C22.1304 63.2842 21.853 63.0414 21.5921 62.7815C20.3253 61.5147 19.1521 60.165 17.9684 58.8256C14.1371 54.4128 10.4303 49.8962 6.68207 45.4211C5.66454 44.2167 4.66777 42.9915 3.59832 41.8493C3.183 41.3821 2.78845 40.9045 2.45619 40.375C5.31152 40.375 8.16684 40.3334 11.0118 40.2919C11.628 36.1289 12.9668 32.1056 14.9677 28.4034C16.4347 25.7098 18.193 23.1854 20.2111 20.8757C22.0541 18.8281 24.1074 16.9801 26.3371 15.3623C32.307 11.0356 39.342 8.41542 46.6878 7.78273L46.6774 7.77234Z"
    fill="#8BC34A"
  />
  <path
    d="M77.5668 36.5021C78.2936 37.0524 78.8854 37.7481 79.5188 38.3918C82.0626 41.1537 84.4715 44.0402 86.8907 46.9059C89.528 50.0415 92.1342 53.2084 94.7818 56.3336C95.6851 57.4446 96.7546 58.4206 97.5437 59.625C94.6884 59.6458 91.8331 59.6666 88.9777 59.7185C88.1786 65.0249 86.2141 70.0884 83.2255 74.5454C82.4676 75.7083 81.6681 76.8504 80.7855 77.9303C76.8059 82.6682 71.7931 86.4309 66.1323 88.9292C60.4715 91.4275 54.3134 92.5949 48.131 92.3419C45.5313 92.1848 42.9501 91.8027 40.4164 91.1998C38.5475 90.7325 36.6889 90.1407 34.8823 89.4554C32.7549 88.5928 30.6965 87.5689 28.7252 86.3924C26.1876 84.8856 23.8502 83.0645 21.7686 80.9725C20.6264 79.8304 19.5155 78.6467 18.4875 77.3904C17.2655 75.8196 16.1453 74.1723 15.1338 72.4584C13.3683 69.4439 12.0233 66.202 11.1364 62.823C10.6899 61.1617 10.3057 59.4797 10.2746 57.7561C10.6899 57.9949 10.9806 58.3895 11.3129 58.7321C14.0436 61.7847 16.629 64.9619 19.3078 68.0768C20.3046 69.2189 21.2494 70.4234 22.3604 71.4617C23.2014 70.7349 23.8452 69.8419 24.5408 68.9905C26.9601 66.0833 29.3897 63.176 31.8505 60.2999C32.1412 61.4109 32.7434 62.4077 33.356 63.3629C35.1677 66.1958 37.673 68.519 40.6345 70.1119C42.1721 70.9235 43.8194 71.5076 45.5249 71.8458C47.4353 72.2508 49.4081 72.4584 51.3497 72.2819C52.6995 72.1781 54.0389 71.8978 55.3472 71.5966C58.3151 70.7361 61.03 69.1684 63.259 67.0281C64.491 65.8092 65.5622 64.438 66.4466 62.9476C67.0384 61.9508 67.5472 60.9022 67.8587 59.7912H58.1402C58.8047 58.8152 59.5731 57.9222 60.3207 57.0293C62.9372 53.8625 65.616 50.758 68.2533 47.6119C69.4577 46.2206 70.5375 44.7254 71.7731 43.3445C72.7491 42.1816 73.6836 40.9668 74.6803 39.8143C75.6356 38.6929 76.622 37.6027 77.5876 36.4917L77.5668 36.5021Z"
    fill="#8BC34A"
  />
</svg>
