<svg viewBox="0 0 256 256" xmlns="http://www.w3.org/2000/svg">
  <path
    d="M165.09 99.183C165.089 103.168 163.907 107.064 161.693 110.378C159.479 113.691 156.332 116.274 152.65 117.799C148.968 119.324 144.916 119.724 141.007 118.946C137.098 118.169 133.508 116.251 130.689 113.433C128.345 111.09 126.616 108.205 125.653 105.033C124.691 101.862 124.526 98.5022 125.172 95.2517C125.818 92.0012 127.256 88.9602 129.359 86.3982C131.461 83.8363 134.163 81.8323 137.225 80.564C140.287 79.2956 143.614 78.802 146.912 79.1268C150.21 79.4517 153.378 80.5849 156.133 82.4262C158.889 84.2675 161.148 86.76 162.71 89.6829C164.272 92.6058 165.09 95.8689 165.09 99.183Z"
    fill="#FFCA28"
  />
  <path
    d="M111.04 136.74C99.91 136.74 90.888 145.762 90.888 156.891C90.888 168.021 99.91 177.043 111.04 177.043C122.169 177.043 131.192 168.021 131.192 156.891C131.192 145.762 122.169 136.74 111.04 136.74Z"
    fill="#FFCA28"
  />
  <path
    d="M186.7 163.76C178.601 168.996 169.59 172.663 160.136 174.57C162.876 166.759 163.785 158.422 162.793 150.204C170.808 147.401 178.05 142.75 183.932 136.626C189.814 130.503 194.171 123.079 196.649 114.958C200.388 102.705 199.652 89.5225 194.573 77.7619C189.494 66.0012 180.402 56.4273 168.919 50.748C157.436 45.0687 144.31 43.653 131.88 46.7533C119.45 49.8536 108.526 57.2683 101.056 67.675C90.8026 68.8285 80.8248 71.7412 71.561 76.285C77.087 58.4536 88.9076 43.2395 104.82 33.4779C120.733 23.7162 139.651 20.073 158.051 23.227C176.451 26.3797 193.077 36.1145 204.831 50.6174C216.585 65.1204 222.665 83.4021 221.939 102.056C221.458 114.417 218.004 126.479 211.87 137.221C205.735 147.963 197.101 157.067 186.699 163.762L186.7 163.76Z"
    fill="#FFCA28"
  />
  <path
    d="M69.182 92.314C77.3296 87.0247 86.4052 83.3262 95.929 81.414C93.048 89.2239 92.0134 97.5946 92.906 105.871C84.9186 108.713 77.7119 113.395 71.868 119.537C66.0242 125.679 61.7073 133.11 59.266 141.229C56.8242 149.348 56.3271 157.928 57.8149 166.275C59.3027 174.622 62.7336 182.502 67.8303 189.277C72.927 196.053 79.5465 201.534 87.1536 205.278C94.7607 209.022 103.142 210.924 111.62 210.829C120.098 210.735 128.434 208.647 135.956 204.735C143.477 200.823 149.973 195.196 154.918 188.309C165.166 187.185 175.144 184.303 184.413 179.791C180.742 191.594 174.281 202.339 165.577 211.116C156.874 219.894 146.183 226.444 134.411 230.214C122.639 233.985 110.132 234.863 97.9487 232.776C85.7653 230.689 74.2642 225.696 64.419 218.222C54.574 210.748 46.6746 201.012 41.3893 189.838C36.104 178.665 33.5884 166.382 34.0555 154.03C34.5225 141.679 37.9585 129.621 44.0725 118.878C50.1866 108.136 58.7987 99.0242 69.18 92.315L69.182 92.314Z"
    fill="#FFCA28"
  />
</svg>
