<svg viewBox="0 0 16 16" xmlns="http://www.w3.org/2000/svg">
  <path
    d="M10.78 1.44499C12.515 2.34299 13.354 4.32499 12.9 6.17499C13.432 6.64226 13.7959 7.27117 13.9359 7.96521C14.0759 8.65925 13.9842 9.38005 13.675 10.017C12.9051 11.577 11.048 12.205 9.52205 11.417C9.38091 11.3448 9.24754 11.2631 9.12237 11.1728C9.10282 11.1911 9.08166 11.208 9.05903 11.223L7.69403 12.14C7.1171 12.525 6.65291 13.0565 6.34903 13.68L5.87603 14.641C5.71503 14.966 5.33003 15.091 5.01803 14.931L3.66303 14.233C3.51117 14.1522 3.3967 14.0155 3.34388 13.8518C3.29106 13.6881 3.30402 13.5103 3.38003 13.356L3.85303 12.394C4.16003 11.771 4.30203 11.069 4.26303 10.371L4.17003 8.70601C4.16807 8.674 4.16935 8.64211 4.17369 8.6108C4.01235 8.55964 3.85489 8.49493 3.70305 8.41699C2.17605 7.62999 1.56305 5.73099 2.33305 4.17099C2.63618 3.54097 3.14553 3.03348 3.77665 2.73265C4.40777 2.43183 5.12275 2.35573 5.80305 2.51699C6.98805 1.04699 9.04505 0.55299 10.78 1.44499ZM5.11669 8.75327L5.27603 11.602L6.03873 10.0584C5.90604 9.94332 5.78888 9.81046 5.6908 9.66307C5.50759 9.38772 5.39691 9.07055 5.36905 8.74099C5.28492 8.74859 5.20073 8.75267 5.11669 8.75327ZM6.88856 10.4844L6.12503 12.035L8.43498 10.4868C8.37738 10.4073 8.32369 10.3253 8.27405 10.241C7.99755 10.4133 7.68101 10.5109 7.35547 10.524C7.19813 10.5304 7.0413 10.5169 6.88856 10.4844Z"
    fill="#00695C"
  />
</svg>
