<svg viewBox="0 0 1024 1024" xmlns="http://www.w3.org/2000/svg">
<path d="M80 192L64 320H96C112 240 112 224 159.242 224H176C184.837 224 192 231.163 192 240V592C192 600.837 192 608 160 608H128V640H320V608H288C256 608 256 600.837 256 592V240C256 231.163 263.163 224 272 224H288C336 224 336 240 352 320H384L368 192H80ZM640 192V224C656 224 685.713 224 692.57 240L776 434.666L708.57 592C701.713 608 656 608 640 608V640H768V608C768 608 733.715 608 740.572 592L792 472L843.428 592C846.531 599.24 841.908 608 832 608V640H960V608C944 608 914.287 608 907.43 592L824 397.334L891.43 240C898.287 224 944 224 960 224V192H832V224C832 224 866.285 224 859.428 240L808 360L756.572 240C753.469 232.76 758.092 224 768 224V192H640ZM320 384V416H352C384 416 384 423.163 384 432V784C384 792.837 384 800 352 800H320V832H624L640 704H608C592 784 592 800 544 800H480C448 800 448 792.837 448 784V624H528C536.837 624 544 624 544 656V672H576V544H544V560C544 592 536.837 592 528 592H448V432C448 423.163 448 416 480 416H544C592 416 592 432 608 512H640L624 384H320Z" fill="#42A5F5"/>
</svg>
