<svg width="200" height="200" viewBox="0 0 200 200" fill="none" xmlns="http://www.w3.org/2000/svg">
<path d="M156.379 64.774C157.601 72.739 157.026 78.586 156.903 79.656H156.902C155.398 79.249 153.88 78.872 152.363 78.52C147.334 77.416 142.247 76.598 137.137 76.013C137.099 76.0077 137.06 76.003 137.022 75.9985C137.005 75.9966 136.988 75.9948 136.971 75.993C136.908 75.9861 136.844 75.98 136.78 75.9738L136.777 75.9736L136.776 75.9735C136.717 75.9678 136.659 75.9622 136.6 75.956C136.637 75.8824 136.667 75.8058 136.69 75.727C138.437 69.361 138.365 62.685 138.202 59.607L156.379 64.774Z" fill="#F4EDAE"/>
<path d="M135.861 60.615C135.971 63.826 135.89 69.646 134.395 75.093C134.339 75.2969 134.339 75.5121 134.395 75.716C132.492 75.517 130.588 75.346 128.685 75.192C130.821 70.716 131.288 65.949 131.388 64.269C133.029 63.103 134.662 61.705 135.861 60.615Z" fill="#F4EDAE"/>
<path d="M81.401 64.27C81.5 65.948 81.966 70.707 84.099 75.18C82.195 75.332 80.294 75.508 78.394 75.709C78.445 75.514 78.451 75.304 78.394 75.094C76.9 69.656 76.823 63.832 76.928 60.616C78.127 61.705 79.755 63.104 81.401 64.27Z" fill="#F4EDAE"/>
<path d="M76.099 75.727C76.1221 75.8019 76.1512 75.8748 76.186 75.945C76.0908 75.9581 75.9975 75.9679 75.9041 75.9777C75.819 75.9866 75.7338 75.9955 75.647 76.007C73.097 76.317 70.548 76.64 68.007 77.064C65.471 77.492 62.939 77.958 60.428 78.514C58.904 78.866 57.392 79.242 55.882 79.652C55.76 78.576 55.189 72.729 56.412 64.773L74.583 59.606C74.426 62.685 74.349 69.36 76.099 75.727Z" fill="#F4EDAE"/>
<path d="M122.33 41.167V32.496H91.13V41.167H95.396V36.761H104.222V63.534H100.59V68.5H112.872V63.534H109.24V36.761H118.066V41.167H122.33Z" fill="#F4EDAE"/>
<path d="M184.297 72.785C184.371 73.377 184.433 73.9704 184.483 74.565C184.589 75.761 184.632 76.96 184.642 78.161C184.664 80.563 184.504 82.966 184.198 85.345C183.87 87.729 183.433 90.098 182.786 92.388C182.473 93.5291 182.106 94.6547 181.686 95.761C181.477 96.307 181.249 96.846 181.009 97.369C180.891 97.63 180.768 97.888 180.638 98.135L180.491 98.425L180.422 98.4591C180.265 98.5377 180.108 98.6157 179.953 98.69L178.888 99.2C178.698 99.2864 178.505 99.3715 178.312 99.4567L178.307 99.4591L178.303 99.4607C178.117 99.5429 177.931 99.6252 177.746 99.709L179.64 92.525C179.198 92.407 175.062 91.335 167.958 90.017C168.177 89.97 168.397 89.922 168.615 89.87C170.092 89.5111 171.543 89.0483 172.955 88.485C173.655 88.1948 174.338 87.8649 175 87.497C175.657 87.121 176.302 86.693 176.802 86.125C169.685 88.448 154.978 87.396 141.898 86.045C129.945 84.813 117.956 84.014 105.908 83.99C93.86 84.014 81.875 84.813 69.918 86.046C56.844 87.396 42.136 88.448 35.018 86.126C35.518 86.693 36.165 87.12 36.822 87.497C37.479 87.867 38.167 88.19 38.867 88.485C40.7774 89.2468 42.7565 89.8238 44.777 90.208C38.298 91.441 34.539 92.411 34.119 92.526L36.099 100.067C36.064 100.102 36.0273 100.136 35.989 100.168C35.6059 99.9956 35.1775 99.7966 34.7701 99.6073L34.7681 99.6064C34.4531 99.46 34.1508 99.3196 33.892 99.202L32.825 98.693L32.7825 98.6722C32.6195 98.5926 32.4498 98.5097 32.288 98.427L32.135 98.136C31.7524 97.3606 31.4047 96.5685 31.093 95.762C30.674 94.668 30.314 93.536 29.994 92.389C29.347 90.1 28.909 87.731 28.582 85.346C28.2701 82.9646 28.122 80.5646 28.139 78.163C28.1435 76.9624 28.1956 75.7625 28.295 74.566C28.344 73.971 28.41 73.376 28.481 72.786C28.534 72.367 28.601 71.929 28.667 71.524C30.262 70.188 32.065 68.998 33.944 67.918C35.981 66.729 38.113 65.663 40.283 64.673C42.448 63.655 44.66 62.733 46.891 61.833C48.009 61.381 49.133 60.943 50.255 60.524C51.2735 60.1285 52.2953 59.7575 53.3248 59.3836L53.657 59.263C51.27 59.659 48.904 60.201 46.554 60.805C45.0269 61.2038 43.5098 61.6399 42.004 62.113C52.73 34.073 78.379 15.813 106.389 15.813C134.395 15.813 160.047 34.074 170.775 62.114C169.267 61.642 167.749 61.2 166.223 60.805C163.876 60.201 161.512 59.659 159.123 59.264L159.554 59.4207C160.548 59.7816 161.538 60.1413 162.52 60.524C163.647 60.943 164.771 61.381 165.884 61.833C168.115 62.733 170.333 63.654 172.493 64.674C174.668 65.663 176.798 66.728 178.834 67.918C180.713 68.999 182.519 70.188 184.107 71.525C184.182 71.9432 184.245 72.3633 184.297 72.785ZM166.941 83.459C164.717 82.159 162.263 81.313 159.823 80.513C159.613 80.446 159.408 80.385 159.196 80.323C159.21 80.272 159.224 80.219 159.233 80.162C159.272 79.881 160.18 73.2 158.606 63.646C158.529 63.189 158.196 62.818 157.754 62.694L155.166 61.958C154.61 41.917 146.354 32.49 146.098 32.2C153.472 44.066 153.406 58.142 153.276 61.419L137.218 56.856C137.213 56.8543 137.207 56.8533 137.202 56.8524L137.2 56.8522C137.193 56.851 137.186 56.8497 137.181 56.847C137.114 56.832 137.042 56.823 136.976 56.818L136.968 56.8177L136.964 56.8174L136.955 56.8165L136.949 56.8157C136.938 56.8144 136.927 56.813 136.914 56.813C136.829 56.809 136.737 56.818 136.652 56.837C136.649 56.837 136.645 56.8376 136.642 56.8385L136.637 56.8399L136.63 56.842L136.627 56.8433C136.623 56.8444 136.62 56.8454 136.617 56.8461C136.614 56.8466 136.612 56.847 136.609 56.847C136.537 56.865 136.471 56.888 136.399 56.917C136.376 56.9319 136.353 56.9449 136.328 56.956L136.292 56.9793C136.252 57.0053 136.212 57.0315 136.171 57.06C136.167 57.0626 136.163 57.065 136.158 57.0674C136.152 57.071 136.146 57.0746 136.14 57.0792C136.136 57.082 136.132 57.0852 136.128 57.089C136.114 57.099 136.108 57.109 136.098 57.117C136.092 57.1255 136.083 57.132 136.074 57.1385L136.073 57.1392L136.063 57.146C136.059 57.1494 136.055 57.153 136.051 57.157C135.684 57.5192 135.311 57.8762 134.934 58.228C135.096 52.936 134.838 37.758 127.616 25.178C127.767 25.619 133.502 42.388 131.523 61.182C130.885 61.6934 130.228 62.1805 129.553 62.642C129.234 62.861 129.039 63.222 129.03 63.607C129.03 63.67 128.891 69.661 126.246 74.757C126.203 74.839 126.174 74.923 126.15 75.009C119.57 74.556 112.977 74.366 106.39 74.362C99.806 74.366 93.206 74.547 86.626 74.994C86.601 74.913 86.573 74.833 86.536 74.757C83.9879 69.8495 83.7666 64.1119 83.7483 63.6388C83.7476 63.6207 83.7472 63.6103 83.747 63.608C83.743 63.222 83.547 62.862 83.229 62.642C82.5514 62.1824 81.8928 61.6954 81.255 61.182C79.279 42.388 85.013 25.619 85.166 25.178C77.937 37.758 77.686 52.937 77.847 58.227C77.167 57.593 76.739 57.171 76.729 57.157C76.7209 57.1489 76.712 57.1423 76.7031 57.1357C76.6955 57.1301 76.6879 57.1245 76.681 57.118L76.653 57.089C76.6442 57.0788 76.6341 57.0737 76.6241 57.0687C76.6193 57.0663 76.6145 57.0639 76.61 57.061C76.558 57.023 76.504 56.991 76.453 56.961C76.424 56.947 76.406 56.932 76.377 56.917C76.307 56.888 76.245 56.865 76.178 56.851C76.1731 56.8499 76.1685 56.8485 76.1642 56.8469L76.1552 56.8435C76.1511 56.8419 76.147 56.8403 76.1432 56.8391C76.1391 56.8378 76.135 56.837 76.131 56.837C76.041 56.818 75.95 56.809 75.868 56.813C75.8558 56.813 75.843 56.8144 75.831 56.8157C75.8204 56.8169 75.8104 56.818 75.802 56.818C75.735 56.823 75.669 56.832 75.602 56.847L75.564 56.855L59.507 61.42C59.379 58.142 59.312 44.067 66.687 32.2C66.429 32.491 58.175 41.916 57.614 61.958L55.03 62.694C54.582 62.818 54.254 63.189 54.178 63.646C52.603 73.2 53.507 79.881 53.55 80.162C53.5569 80.2057 53.5673 80.2436 53.5781 80.2827L53.588 80.319C53.4948 80.3484 53.4016 80.376 53.3088 80.4036C53.1934 80.4378 53.0786 80.4719 52.965 80.509C50.519 81.309 48.065 82.16 45.842 83.459C47.032 82.987 48.265 82.65 49.497 82.345C50.733 82.036 51.976 81.765 53.223 81.531C55.72 81.061 58.228 80.661 60.75 80.356C63.262 80.024 65.79 79.752 68.32 79.538L68.4659 79.5256C70.9481 79.3157 73.4267 79.1062 75.913 78.962C86.053 78.363 96.221 78.172 106.393 78.167C116.567 78.177 126.734 78.333 136.873 78.957C139.393 79.104 141.902 79.3162 144.416 79.5287L144.419 79.5289L144.467 79.533C146.996 79.7487 149.52 80.0215 152.037 80.351C154.559 80.6606 157.069 81.0528 159.565 81.527C160.813 81.7617 162.054 82.0345 163.286 82.345C164.523 82.65 165.751 82.987 166.941 83.459ZM125.542 29.29H87.925V44.372H98.609V39.966H101.01V60.322H97.385V71.704H116.082V60.322H112.442V39.965H114.852V44.371H125.542V29.29Z" fill="#F4EDAE"/>
<path d="M123.879 90.801C124.212 90.381 124.527 89.977 124.807 89.611C121.898 89.906 119.035 90.329 116.238 90.859C106.659 92.651 97.815 95.636 90.453 98.691C95.663 98.438 101.151 98.286 106.873 98.286C110.241 98.2864 113.609 98.3387 116.975 98.443C119.791 95.735 122.166 92.966 123.879 90.801Z" fill="#F4EDAE"/>
<path d="M73.249 99.968C76.127 97.11 79.095 94.754 81.722 92.908C71.607 95.258 62.3 98.708 54.145 102.458C60.4865 101.436 66.8574 100.606 73.249 99.968Z" fill="#F4EDAE"/>
<path d="M168.774 129.099L171.772 108.124C170.435 107.836 168.732 107.479 166.694 107.086L163.981 126.06C163.934 126.397 163.748 126.703 163.474 126.898L153.315 134.007C153.071 134.177 152.768 134.254 152.471 134.221L121.849 130.743C121.36 130.685 120.95 130.349 120.807 129.877L115.293 111.72C113.813 111.339 110.021 110.454 106.7 110.454C103.371 110.454 99.582 111.34 98.103 111.72L92.589 129.878C92.5255 130.086 92.408 130.274 92.2483 130.422C92.0886 130.57 91.8925 130.673 91.68 130.72L61.058 137.533C60.8911 137.569 60.7185 137.571 60.5507 137.539C60.383 137.507 60.2235 137.441 60.082 137.345L49.93 130.23C49.644 130.03 49.453 129.721 49.41 129.374L46.67 107.164C45.532 107.382 44.505 107.591 43.591 107.788C42.94 108.144 42.297 108.5 41.664 108.858L44.572 132.395L59.331 142.735L96.576 134.446L102.076 116.332C102.143 116.112 102.27 115.914 102.443 115.762C102.616 115.61 102.829 115.51 103.056 115.472C104.451 115.247 105.674 115.133 106.701 115.133C107.724 115.133 108.952 115.247 110.34 115.472C110.568 115.508 110.781 115.608 110.955 115.761C111.128 115.913 111.255 116.111 111.321 116.332L116.96 134.899L154.414 139.157L168.774 129.099Z" fill="#F4EDAE"/>
<path d="M172.918 104.969L175.554 94.969C171.729 94.102 164.686 92.651 155.094 91.295C150.194 94.816 144.831 97.633 139.564 99.879C155.684 101.449 167.528 103.781 172.918 104.969Z" fill="#F4EDAE"/>
<path d="M111.647 174.616C112.585 174.546 113.527 174.426 114.47 174.284C113.248 173.008 112.162 171.824 111.309 170.867C110.748 172.151 110.181 173.432 109.609 174.711L109.824 174.706C110.212 174.706 110.627 174.679 111.04 174.652L111.043 174.652C111.246 174.639 111.448 174.626 111.647 174.616Z" fill="#F4EDAE"/>
<path d="M127.06 181.228C123.069 180.933 119.442 179.273 116.516 176.375V176.374C116.364 176.224 116.217 176.075 116.069 175.924C114.642 176.213 113.199 176.421 111.748 176.547C111.529 176.555 111.315 176.568 111.1 176.58C110.707 176.602 110.312 176.624 109.894 176.624L108.937 176.632L108.571 176.623C104.674 182.418 96.03 183.545 95.634 183.593C95.277 183.636 94.981 183.688 94.577 183.761C99.398 185.082 104.317 185.654 109.17 185.329C114.037 185.002 120.356 183.951 127.06 181.228Z" fill="#F4EDAE"/>
<path d="M79.0909 116.5C80.1642 116.473 81.0119 115.58 80.9843 114.507C80.9567 113.434 80.0642 112.586 78.9909 112.614C77.9176 112.641 77.07 113.534 77.0975 114.607C77.1251 115.68 78.0176 116.528 79.0909 116.5Z" fill="#F4EDAE"/>
<path d="M113.325 101.676C111.852 102.878 110.299 103.976 108.675 104.964L103.275 108.224C101.082 108.501 98.9117 108.936 96.781 109.524C96.5839 109.582 96.4043 109.688 96.2581 109.832C96.1119 109.976 96.0036 110.155 95.943 110.351L90.443 128.474L61.048 135.011L51.789 128.526L49.096 106.706C54.354 105.74 61.386 104.622 69.832 103.676C68.9114 104.777 68.0382 105.916 67.215 107.091L62.186 114.309L69.508 109.428C69.618 109.352 74.28 106.284 81.908 102.553C92.3608 101.768 102.845 101.476 113.325 101.676ZM67.567 126.256C69.4091 125.261 71.4628 125.274 74.4561 125.294L74.4582 125.294C74.8572 125.297 75.2729 125.3 75.707 125.3C76.104 125.31 76.512 125.305 76.939 125.296C77.302 125.292 77.667 125.286 78.053 125.276C78.2768 125.274 78.4983 125.273 78.7171 125.272C82.2199 125.26 85.0198 125.25 84.968 119.624C84.91 113.649 82.256 108.819 78.454 108.857C74.648 108.89 70.965 113.786 71.193 119.757C71.255 121.313 71.483 122.436 71.85 123.245C68.533 124.076 67.619 126.128 67.567 126.256Z" fill="#F4EDAE"/>
<path d="M135.475 113.068C135.494 114.141 134.64 115.026 133.568 115.046C132.495 115.066 131.609 114.212 131.589 113.139C131.57 112.066 132.424 111.18 133.496 111.161C134.569 111.141 135.455 111.995 135.475 113.068Z" fill="#F4EDAE"/>
<path d="M164.278 106.641L161.628 125.192L152.292 131.729L122.936 128.393L117.459 110.355C117.398 110.159 117.29 109.981 117.144 109.837C116.998 109.693 116.819 109.587 116.622 109.528C116.44 109.475 112.806 108.438 108.952 108.104L109.656 108.057C110.265 108.014 120.39 106.772 132.481 102.604C145.869 103.632 156.803 105.28 164.278 106.641ZM145.517 123.811C145.48 123.67 144.68 121.266 141.139 121.688C141.548 120.8 141.729 119.601 141.601 117.958C141.133 111.997 137.665 107.258 133.863 107.39C130.061 107.525 127.625 112.467 127.835 118.443C128.045 124.415 131.237 124.373 135.039 124.239C137.089 124.201 138.768 123.926 140.209 123.689C142.362 123.336 143.984 123.07 145.517 123.811Z" fill="#F4EDAE"/>
<path d="M177.491 120.603C177.894 116.126 177.537 115.165 177.087 114.794C176.628 114.417 175.092 113.542 173.598 112.734L171.138 129.977C171.09 130.31 170.904 130.616 170.624 130.811L167.103 133.274C167.031 133.634 166.972 133.945 166.917 134.231C166.755 135.069 166.634 135.7 166.375 136.729C168.388 137.199 171.69 137.561 173.265 137.256C174.691 135.705 176.996 126.084 177.491 120.603Z" fill="#F4EDAE"/>
<path d="M47.832 139.162C47.64 138.548 47.455 137.926 47.279 137.302L42.713 134.098C42.421 133.898 42.236 133.59 42.194 133.242L39.962 115.128C38.31 116.013 36.404 117.098 35.894 117.526C35.455 117.889 35.118 118.822 35.599 123.137C36.189 128.462 38.887 138.49 40.333 139.947C42.078 140.252 45.937 139.719 47.832 139.162Z" fill="#F4EDAE"/>
<path d="M118.375 138.706L118.509 137.55L115.879 137.249C115.394 137.198 114.985 136.854 114.842 136.384L109.196 117.784C108.249 117.656 107.412 117.589 106.702 117.589C105.868 117.599 105.035 117.664 104.209 117.784L98.723 135.846C98.595 136.268 98.246 136.593 97.815 136.687L59.34 145.253C59.25 145.27 59.16 145.28 59.07 145.28C58.823 145.28 58.576 145.204 58.367 145.056L56.967 144.081L52.781 141.15V141.146L51.087 139.96C51.2017 140.314 51.3259 140.662 51.45 141.009L51.477 141.084L51.472 141.089C51.801 142.054 55.042 151.385 61.632 160.517C68.5102 158.485 74.4755 156.595 76.5831 155.928L76.5856 155.927L76.5883 155.926L76.5912 155.925L76.743 155.877C80.721 149.753 86.377 143.674 90.397 143.464C91.092 143.43 91.812 143.41 92.524 143.41C94.3933 143.415 96.2606 143.531 98.116 143.758C96.8026 142.563 96.415 141.186 96.1948 140.404C96.1671 140.305 96.142 140.216 96.118 140.138C96.118 140.138 101.252 144.153 107.785 143.311C114.317 142.469 118.375 138.706 118.375 138.706Z" fill="#F4EDAE"/>
<path d="M163.669 135.686C163.463 136.545 163.242 137.401 163.007 138.252C161.281 143.786 159.242 148.682 156.979 153.006C156.479 153.04 155.951 153.06 155.385 153.06C153.638 153.06 151.854 152.912 149.879 152.73C146.453 152.416 141.015 151.794 139.298 151.594C137.818 150.414 132.756 146.392 128.544 143.077C128.439 142.993 128.343 142.912 128.252 142.835C128.199 142.79 128.148 142.747 128.097 142.705L128.096 142.704C127.354 142.077 126.511 141.365 124.804 141.365C123.254 141.365 120.988 141.93 115.514 143.587C118.358 141.46 118.377 138.715 118.377 138.715L118.511 137.559L154.605 141.659C154.899 141.693 155.204 141.617 155.451 141.446L163.669 135.686Z" fill="#F4EDAE"/>
<path d="M38.206 94.969C39.764 94.615 41.869 94.165 44.452 93.667C42.565 94.9557 40.7264 96.314 38.94 97.739L38.206 94.969Z" fill="#F4EDAE"/>
<path d="M110.785 164.408L112.197 166.09C112.229 166.13 115.365 169.863 119.2 173.665C121.75 176.192 124.83 177.471 128.362 177.471C129.626 177.465 130.885 177.309 132.113 177.008C133.045 176.781 134.041 176.543 135.064 176.298L135.91 176.096C140.68 174.956 146.081 173.661 148.7 172.927C149.265 172.773 149.833 172.634 150.405 172.509C153.89 171.704 158.668 170.593 161.2 165.521C163.104 161.715 165.67 156.775 167.575 153.154C165.925 153.915 164.195 154.74 162.966 155.387C161.072 156.381 158.592 156.863 155.386 156.863C153.479 156.863 151.606 156.703 149.535 156.519C145.394 156.138 138.386 155.313 138.315 155.303L137.778 155.243L137.354 154.905C137.339 154.894 136.979 154.608 136.371 154.125C134.43 152.582 129.968 149.036 126.188 146.063C126.002 145.911 125.83 145.768 125.674 145.639L125.638 145.609C125.115 145.163 125.115 145.163 124.803 145.163C123.214 145.163 118.596 146.595 108.486 149.729L108.45 149.74L107.827 149.938L107.217 149.708L107.197 149.701C106.791 149.555 100.285 147.218 92.529 147.218C91.877 147.218 91.227 147.235 90.594 147.268C89.796 147.309 85.316 149.437 79.588 158.5L79.217 159.082L78.56 159.292C78.465 159.326 68.606 162.508 58.15 165.498L57.471 165.691L56.829 165.393C56.8042 165.383 56.2462 165.125 55.3586 164.714L55.3185 164.696C53.7642 163.977 51.2306 162.806 48.776 161.677C50.899 164.814 53.614 168.727 56.003 171.795C60.176 177.169 65.436 182.135 75.521 182.135C76.786 182.135 78.13 182.058 79.51 181.901C89.6745 180.752 92.3612 180.283 93.7918 180.033L93.831 180.026L94.0374 179.991C94.4263 179.924 94.7646 179.866 95.18 179.816C95.2676 179.805 103.66 178.716 106.015 173.432C108.395 168.111 108.915 166.759 108.953 166.66L108.955 166.655L109.812 164.367C109.812 164.367 109.918 163.774 110.092 163.59C110.092 163.594 110.092 163.594 110.097 163.594L110.114 163.608C110.384 163.802 110.784 164.408 110.784 164.408H110.785Z" fill="#F4EDAE"/>
<path d="M150.35 89.98L150.346 89.9779C150.338 89.9737 150.331 89.97 150.322 89.97C147.422 89.7518 144.521 89.5595 141.618 89.393C137.584 89.1653 133.549 88.9679 129.512 88.801C129.06 89.4663 128.595 90.1231 128.118 90.771C125.922 93.744 121.565 99.196 115.978 103.819C123.886 102.402 137.6 98.894 149.465 90.616C149.607 90.5158 149.748 90.4134 149.889 90.3112C150.043 90.1993 150.197 90.0878 150.35 89.98Z" fill="#F4EDAE"/>
<path d="M112.06 88.319C110.013 88.287 107.964 88.269 105.918 88.264H105.914C102.911 88.269 99.902 88.301 96.889 88.361L91.336 90.992C91.334 90.994 91.3278 90.9976 91.3184 91.0026C91.3145 91.0047 91.31 91.0071 91.3051 91.0096C91.2921 91.0165 91.2759 91.025 91.258 91.035C90.423 91.442 83.131 95.121 76.271 101.683C82.421 98.45 91.459 94.227 102.094 90.952C105.379 89.9406 108.704 89.0622 112.06 88.319Z" fill="#F4EDAE"/>
<path d="M75.16 91.149C78.613 90.1824 82.1039 89.3564 85.624 88.673C80.488 88.86 75.349 89.099 70.218 89.388C67.236 89.553 64.269 89.755 61.302 89.979C59.8216 90.0864 58.3431 90.2178 56.867 90.373C56.445 90.414 56.032 90.46 55.611 90.515C51.741 92.83 36.896 102.149 26.706 114.333C36.609 107.452 53.859 97.111 75.16 91.149Z" fill="#F4EDAE"/>
</svg>
