<svg viewBox="0 0 24 24" xmlns="http://www.w3.org/2000/svg">
  <path
    d="M6 2H14L20 8V10.14H23.055V23.14H10.055V22H6C5.46957 22 4.96086 21.7893 4.58579 21.4142C4.21071 21.0391 4 20.5304 4 20V4C4 2.89 4.89 2 6 2ZM13 9H18.5L13 3.5V9ZM6 12V14H10.055V12H6ZM6 16V18H10.055V16H6ZM20.866 13.884C20.6229 13.6253 20.3087 13.4444 19.963 13.364H19.964C19.6032 13.2975 19.2344 13.2857 18.87 13.329C18.5125 13.3782 18.1788 13.5362 17.9141 13.7814C17.6493 14.0266 17.4664 14.3473 17.39 14.7C17.3489 15.0067 17.3574 15.318 17.415 15.622C17.4932 15.8884 17.6287 16.1345 17.812 16.343C18.1967 16.7199 18.6616 17.005 19.172 17.177C19.824 17.459 20.053 17.593 20.164 17.755C20.2472 17.877 20.2847 18.0244 20.2699 18.1713C20.2551 18.3182 20.1889 18.4551 20.083 18.558C19.8785 18.6983 19.6391 18.7791 19.3914 18.7914C19.1437 18.8038 18.8975 18.7472 18.68 18.628C18.4638 18.491 18.2769 18.3126 18.13 18.103L18.043 17.977L17.627 18.222L17.091 18.53C17.045 18.5548 17.0009 18.5829 16.959 18.614C17.0588 18.8157 17.1849 19.0034 17.334 19.172C17.7299 19.5771 18.245 19.8448 18.804 19.936C19.1684 19.986 19.5375 19.9903 19.903 19.949C20.2471 19.9182 20.5766 19.7959 20.8575 19.5947C21.1383 19.3936 21.3602 19.1209 21.5 18.805C21.6021 18.517 21.6399 18.2101 21.6109 17.9059C21.5819 17.6017 21.4867 17.3075 21.332 17.044C21.058 16.627 20.614 16.337 19.581 15.889C19.02 15.646 18.841 15.527 18.745 15.327C18.7003 15.2442 18.6785 15.151 18.682 15.057C18.679 14.674 18.962 14.445 19.399 14.475C19.5374 14.4796 19.6725 14.5192 19.7914 14.5902C19.9103 14.6612 20.0093 14.7613 20.079 14.881C20.14 14.972 20.195 15.032 20.209 15.022C20.59 14.788 21.218 14.367 21.214 14.347C21.1173 14.1791 21.0004 14.0236 20.866 13.884ZM16.579 14.557L16.574 13.965L16.567 13.378L14.044 13.37C12.657 13.369 11.513 13.372 11.507 13.382C11.4909 13.5802 11.4852 13.7792 11.49 13.978V14.557H13.37V19.897H14.7V14.557H16.579Z"
    fill="#0288D1"
  />
</svg>
