<svg viewBox="0 0 16 16" xmlns="http://www.w3.org/2000/svg">
  <path
    d="M14 13.3C14 13.4857 13.9262 13.6637 13.795 13.795C13.6637 13.9262 13.4857 14 13.3 14H8V8H14V13.3Z"
    fill="#795548"
  />
  <path
    d="M14 8H8V2H13.3C13.4857 2 13.6637 2.07375 13.795 2.20503C13.9262 2.3363 14 2.51435 14 2.7V8Z"
    fill="#795548"
  />
  <path
    d="M8 8H2V2.7C2 2.51435 2.07375 2.3363 2.20503 2.20503C2.3363 2.07375 2.51435 2 2.7 2H8V8Z"
    fill="#795548"
  />
  <path
    d="M8 14H2.7C2.51435 14 2.3363 13.9262 2.20503 13.795C2.07375 13.6637 2 13.4857 2 13.3V8H8V14Z"
    fill="#795548"
  />
</svg>
