<svg viewBox="0 0 16 16" xmlns="http://www.w3.org/2000/svg">
  <path d="M2 2V14H14V2H2ZM3 3H13V13H3V3Z" fill="#0288D1" />
  <path d="M5 7V8H6V12H7V8H8V7H5Z" fill="#0288D1" />
  <path
    d="M10 7C9.73503 7.00079 9.48113 7.1064 9.29377 7.29377C9.1064 7.48113 9.00079 7.73503 9 8V9C9.00079 9.26497 9.1064 9.51887 9.29377 9.70623C9.48113 9.8936 9.73503 9.99921 10 10H11V11H9V12H11C11.265 11.9992 11.5189 11.8936 11.7062 11.7062C11.8936 11.5189 11.9992 11.265 12 11V10C11.9992 9.73503 11.8936 9.48113 11.7062 9.29377C11.5189 9.1064 11.265 9.00079 11 9H10V8H12V7H10Z"
    fill="#0288D1"
  />
</svg>
