<svg viewBox="0 0 24 24" xmlns="http://www.w3.org/2000/svg">
  <path d="M3 3V21H21V3H3ZM4 4H20V20H4V4Z" fill="#0288D1" />
  <path
    d="M15.988 10.311C14.478 10.311 13.5095 11.2715 13.5095 12.5415C13.5095 13.9215 14.3188 14.5703 15.5388 15.0903L15.9587 15.2719C16.7387 15.6119 17.1989 15.8209 17.1989 16.4008C17.1989 16.8808 16.7485 17.2309 16.0485 17.2309C15.2185 17.2309 14.7386 16.8016 14.3786 16.2016L12.9997 17.0005C13.4997 17.9805 14.5095 18.731 16.0895 18.731C17.6895 18.731 18.8883 17.9016 18.8883 16.3716C18.8883 14.9616 18.0783 14.3314 16.6383 13.7114L16.2184 13.5317C15.4884 13.2217 15.1793 13.0102 15.1793 12.5102C15.1793 12.1002 15.4879 11.7816 15.9879 11.7816C16.4679 11.7816 16.7877 11.9902 17.0777 12.5102L18.3882 11.641C17.8382 10.681 17.058 10.311 15.988 10.311ZM7.2888 10.3911V11.8911H8.7888V19.1411H10.5388V11.8911H12.2888V10.3911H7.2888Z"
    fill="#0288D1"
  />
</svg>
