<svg viewBox="0 0 24 24" xmlns="http://www.w3.org/2000/svg">
  <path
    d="M16.1634 2.9243C15.6603 3.80818 15.9589 4.93839 16.8303 5.4487C17.7016 5.95901 18.8158 5.65617 19.3189 4.77229C19.822 3.88841 19.5235 2.7582 18.6521 2.24789C17.7807 1.73758 16.6665 2.04042 16.1634 2.9243Z"
    fill="#DD4814"
  />
  <path
    d="M5.4371 14.0126C5.92975 15.9474 7.11586 17.5993 8.71028 18.6799L10.0423 16.4166C8.67403 15.4398 7.77927 13.8266 7.77927 12C7.77927 10.1734 8.67403 8.56023 10.0423 7.58342L8.71028 5.32013C7.11586 6.40065 5.92975 8.05258 5.4371 9.98744C6.01269 10.4632 6.38033 11.1878 6.38033 12C6.38033 12.8122 6.01269 13.5368 5.4371 14.0126Z"
    fill="#DD4814"
  />
  <path
    d="M5.64366 12C5.64366 13.0206 4.828 13.848 3.82183 13.848C2.81566 13.848 2 13.0206 2 12C2 10.9794 2.81566 10.152 3.82183 10.152C4.828 10.152 5.64366 10.9794 5.64366 12Z"
    fill="#DD4814"
  />
  <path
    d="M15.2153 4.26096C13.317 3.72631 11.3136 3.94229 9.59388 4.80266L10.8602 7.10444C12.3783 6.39087 14.2029 6.41143 15.7624 7.32474C17.3219 8.23804 18.2518 9.83063 18.4017 11.521L21 11.4825C20.8747 9.54164 20.0574 7.67372 18.6518 6.27352C17.9578 6.54128 17.1554 6.50195 16.4619 6.09583C15.7685 5.68972 15.3337 5.00447 15.2153 4.26096Z"
    fill="#DD4814"
  />
  <path
    d="M19.3189 19.2277C18.8158 18.3438 17.7016 18.041 16.8302 18.5513C15.9589 19.0616 15.6603 20.1918 16.1634 21.0757C16.6665 21.9596 17.7807 22.2624 18.6521 21.7521C19.5234 21.2418 19.822 20.1116 19.3189 19.2277Z"
    fill="#DD4814"
  />
  <path
    d="M18.6518 17.7265C20.0574 16.3263 20.8747 14.4584 21 12.5175L18.4017 12.479C18.2518 14.1694 17.3219 15.762 15.7624 16.6753C14.2029 17.5886 12.3783 17.6091 10.8602 16.8956L9.59388 19.1973C11.3136 20.0577 13.317 20.2737 15.2153 19.739C15.3337 18.9955 15.7685 18.3103 16.4619 17.9042C17.1554 17.4981 17.9578 17.4587 18.6518 17.7265Z"
    fill="#DD4814"
  />
</svg>
