<svg viewBox="0 0 16 16" xmlns="http://www.w3.org/2000/svg">
  <path
    d="M6.5 6C6.77614 6 7 5.77614 7 5.5C7 5.22386 6.77614 5 6.5 5C6.22386 5 6 5.22386 6 5.5C6 5.77614 6.22386 6 6.5 6Z"
    fill="#2196F3"
  />
  <path
    d="M6 6.5C6 6.77614 5.77614 7 5.5 7C5.22386 7 5 6.77614 5 6.5C5 6.22386 5.22386 6 5.5 6C5.77614 6 6 6.22386 6 6.5Z"
    fill="#2196F3"
  />
  <path
    d="M11 6.5C11 6.77614 10.7761 7 10.5 7C10.2239 7 10 6.77614 10 6.5C10 6.22386 10.2239 6 10.5 6C10.7761 6 11 6.22386 11 6.5Z"
    fill="#2196F3"
  />
  <path
    d="M3.75736 3.75736C4.88258 2.63214 6.4087 2 8 2C9.5913 2 11.1174 2.63214 12.2426 3.75736C13.3679 4.88258 14 6.4087 14 8H15C14.9985 9.32327 14.6219 10.619 13.9139 11.7369C13.2059 12.8549 12.1956 13.7493 11 14.3164V15H5V14.3164C3.80442 13.7493 2.79407 12.8549 2.0861 11.7369C1.37813 10.619 1.00154 9.32327 1 8H2C2 6.4087 2.63214 4.88258 3.75736 3.75736ZM3 8H13C13 6.67392 12.4732 5.40215 11.5355 4.46447C10.5979 3.52678 9.32608 3 8 3C6.67392 3 5.40215 3.52678 4.46447 4.46447C3.52678 5.40215 3 6.67392 3 8ZM2.0918 9C2.32789 10.3968 3.05056 11.6649 4.13188 12.58C5.2132 13.4951 6.58343 13.9981 8 14C9.41656 13.9981 10.7868 13.4951 11.8681 12.58C12.9494 11.6649 13.6721 10.3968 13.9082 9H2.0918Z"
    fill="#2196F3"
  />
</svg>
