<svg viewBox="0 0 100 100" fill="none" xmlns="http://www.w3.org/2000/svg">
  <path
    d="M35.462 14.848L45.237 6.09298L45.239 6.09198C45.239 6.09198 60.329 13.764 62.736 15.028L62.8535 15.0897C65.3228 16.3867 70.8772 19.3041 72.806 21.348C74.767 23.424 75.034 26.765 75.034 27.396C75.034 27.4467 75.0443 27.5143 75.0575 27.6004C75.2082 28.5865 75.7295 31.9963 65.32 40.216C54 49.154 42.058 44.911 38.85 43.196C35.642 41.48 16.214 31.46 16.214 31.46L26.284 22.793C33.7678 26.6193 41.2538 30.4413 48.742 34.259C51.415 35.614 55.337 36.064 58.902 32.724C62.467 29.383 59.169 27.126 56.852 25.953C54.534 24.779 35.462 14.848 35.462 14.848Z"
    fill="#F06292"
  />
  <path
    d="M38.6932 89.6041L47.269 93.907V52.7426L34.2415 46.4522L30.1164 66.0957L25.9559 42.4052L13.0002 36.0784V77.2791L21.5406 81.6569V56.826L26.2087 83.6435L33.8078 87.5062L38.6932 65.2133V89.6041Z"
    fill="#F06292"
  />
  <path
    d="M86.9997 76.6516L53.8393 93.907L53.8018 52.8669L67.7021 45.7165V75.3387L86.9258 65.4896L86.9997 76.6516Z"
    fill="#F06292"
  />
</svg>
