<svg viewBox="0 0 220 220" xmlns="http://www.w3.org/2000/svg">
  <path
    d="M116.465 158.115C116.465 134.986 135.215 116.237 158.343 116.237C181.471 116.237 200.221 134.986 200.221 158.115C200.221 181.243 181.471 199.993 158.343 199.993C135.215 199.993 116.465 181.243 116.465 158.115Z"
    fill="#B0BEC5"
  />
  <path
    d="M116.465 61.8876C116.465 38.7591 135.215 20.0095 158.343 20.0095C181.471 20.0095 200.221 38.7591 200.221 61.8876V99.5778C200.221 101.89 198.346 103.766 196.033 103.766H120.653C118.34 103.766 116.465 101.89 116.465 99.5778V61.8876Z"
    fill="#B0BEC5"
  />
  <path
    d="M103.533 158.115C103.533 181.243 84.7833 199.993 61.6549 199.993C38.5265 199.993 19.7768 181.243 19.7768 158.115L19.7768 120.425C19.7768 118.111 21.6518 116.237 23.9646 116.237H99.3452C101.658 116.237 103.533 118.111 103.533 120.425L103.533 158.115Z"
    fill="#B0BEC5"
  />
</svg>
