<svg viewBox="0 0 128 128" xmlns="http://www.w3.org/2000/svg">
  <path
    d="M64.07 5.57C69.86 8.17 74.86 11.89 79.09 16.45C80.8656 18.3646 82.3018 21.0179 83.2893 23.8535C85.0171 24.2854 90.8755 26.0186 93.62 30.22C94.1777 31.0558 94.5839 31.9833 94.82 32.96C94.9421 33.4683 95.0406 33.9962 95.1096 34.5382C96.7045 36.0034 99.38 39.3328 99.38 45.18C99.38 46.4753 99.2124 47.8302 98.8138 49.1834L98.9336 49.145L98.98 49.13C100.21 49.83 101.24 50.63 102.08 51.48C105.633 55.0814 105.821 59.8403 103.297 64.3885C104.964 64.2008 106.712 64.8179 107.93 66.56C108.023 66.692 108.122 66.8223 108.223 66.9549C108.712 67.5955 109.242 68.2904 109.25 69.5C109.48 69.36 109.71 69.22 109.94 69.11C112.11 68.03 113.33 68.72 112.69 70.72C112.007 72.3316 111.4 74.0013 110.84 75.7064C112.456 75.2509 113.252 76.0201 112.67 77.75C112.278 78.8994 111.886 80.0473 111.494 81.1945C108.782 89.1297 106.083 97.0271 103.75 105.1C103.645 105.463 103.539 105.836 103.432 106.216C102.395 109.877 101.173 114.195 98.21 116.56C95.87 118.43 92.95 119.6 90.13 120.54C81.74 123.33 72.62 124.1 63.82 124.01C54.08 123.92 43.58 122.87 34.59 118.82C31.45 117.4 28.51 115.7 27.12 112.48C25.2231 108.084 23.7615 103.416 22.3202 98.8128C22.0139 97.8346 21.7085 96.8592 21.4 95.89C20.7463 93.827 20.1444 91.709 19.5393 89.5799C18.3025 85.2277 17.0525 80.8293 15.32 76.76C14.8859 75.3965 15.3076 74.6404 16.3012 74.626C15.9716 73.6557 15.641 72.687 15.31 71.72C14.73 70.03 15.52 69.26 17.11 69.7C16.6 67.27 17.22 65.62 18.22 64.71C19.4912 63.5534 20.8737 63.2925 22.1158 63.7916C22.1888 62.137 23.18 60.72 23.18 60.72L23.2824 60.6548C22.6763 59.7832 18.3277 53.1498 23.9891 49.9097C24.0853 48.7325 24.4992 45.8634 26.28 43.25L26.2955 43.2418C27.9136 40.8616 30.6481 38.7062 35.3003 38.2174C35.851 32.9986 38.8613 28.8393 46.69 24.48C49.5659 22.8756 52.0505 21.7142 54.1814 20.7182C58.1335 18.8707 60.8693 17.5919 62.63 15.11C64.23 12.85 63.35 9.49 62.36 7.11C62.1113 6.50307 62.3971 5.91594 62.8826 5.63425L62.88 5.63C63.22 5.44 63.65 5.38 64.07 5.57ZM108.842 76.6671C108.541 73.1974 105.808 69.9762 101.307 67.2701C98.1639 71.0494 93.1194 74.456 86.59 76.62C64.6464 83.917 40.3226 78.1589 25.1839 68.0514C21.8176 70.3179 19.6498 72.9053 19.032 75.6721C20.8656 76.8778 22.5599 78.86 23.02 80.53C22.48 78.57 23.84 77.77 26.07 78.64C28.3 79.51 30.5 81.71 30.93 83.63C30.5 81.71 31.99 80.78 34.27 81.47C36.55 82.16 38.69 84.17 39.01 86.06C38.7 84.17 40.31 83.13 42.63 83.62C44.95 84.11 47.02 85.96 47.23 87.82C47.02 85.96 48.76 84.77 51.1 85.08C53.4442 85.3892 55.4402 87.0518 55.5393 88.8964C55.4491 87.0535 57.2958 85.7303 59.64 85.85C62 85.97 63.91 87.49 63.89 89.33C63.91 87.49 65.85 86.01 68.21 85.94C70.57 85.87 72.38 87.24 72.25 89.08C72.38 87.24 74.41 85.6 76.76 85.34C79.0942 85.0806 80.8114 86.2939 80.5718 88.1461C80.8206 86.291 82.9358 84.4989 85.25 84.05C87.564 83.6012 89.1617 84.6744 88.8127 86.5454C89.1713 84.6698 91.3559 82.7083 93.64 82.07C95.93 81.43 97.41 82.38 96.94 84.29C97.41 82.38 99.65 80.23 101.9 79.4C104.133 78.5725 105.482 79.3951 104.915 81.3327C105.395 79.7184 107.047 77.841 108.842 76.6671Z"
    fill="#FF7CA8"
  />
</svg>
