<svg viewBox="0 0 288 288" xmlns="http://www.w3.org/2000/svg">
  <path
    d="M80.9689 265.644C53.1341 255.697 32.9232 230.946 24.921 197.005C21.2893 181.601 20.2623 156.146 23.273 156.146C24.2732 156.146 26.9447 163.131 29.2097 171.667C34.1661 190.347 42.6199 207.913 50.7859 216.5C64.3498 230.762 97.9456 236.347 117.303 227.559C132.382 220.713 138.497 204.441 131.94 188.611C126.873 176.378 115.378 172.288 93.966 175.098C93.966 175.098 80.8436 160.973 76.663 135.89L90.1133 137.109C106.313 138.578 118.545 134.997 124.893 126.927C130.858 119.343 130.729 116.41 124.091 108.692C114.512 97.5559 97.3117 100.377 62.4863 118.797L44.9148 89.3413L52.2815 83.7225C70.7424 69.6415 102.797 62.6021 121.039 68.6226C137.656 74.1065 149.852 95.8662 146.594 114.216C144.391 126.621 134.444 143.997 126.759 148.862L120.131 153.059L129.286 157.187C144.843 164.202 154.34 158.839 165.686 136.633C181.389 105.903 191.574 97.9472 215.256 97.9132C226.283 97.8973 230.208 99.054 238.25 104.69C258.323 118.757 269.253 147.886 266.852 180.916C263.811 222.75 243.996 248.124 214.369 248.124C198.109 248.124 187.628 242.421 179.285 229.033C171.957 217.274 168.655 193.984 172.863 183.739C174.882 178.824 175.247 178.658 175.379 182.59C175.622 189.819 183.846 201.568 191.396 205.472C209.922 215.052 236.516 203.016 247.038 180.29C255.026 163.036 250.741 129.756 239.775 123.887C237.481 122.659 231.812 121.655 227.178 121.655C217.326 121.655 209.59 128.737 198.743 147.685C194.994 154.236 188.683 162.7 184.719 166.494C178.28 172.658 175.981 173.392 163.102 173.392H148.69L153.349 183.739C160.016 198.55 159.701 222.615 152.647 237.264C146.414 250.209 132.002 263.315 120.48 266.515C109.264 269.631 90.9993 269.228 80.9689 265.644ZM135.24 65.4651C128.865 54.5864 124.941 34.2764 129.215 34.2764C134.235 45.1673 144.526 54.8835 155.545 61.6631C175.335 71.2435 195.403 67.3765 217.327 49.7579C222.153 45.8793 226.427 43.1375 226.825 43.6649C232.178 51.9726 241.438 58.7615 244.499 68.4154C244.499 72.4887 226.965 84.2114 213.129 89.388C178.836 99.2668 155.496 95.359 135.24 65.4651ZM152.522 40.318L174.849 15.5619L199.66 38.5304C191.174 45.5202 185.047 56.3682 175.352 61.8696C167.691 56.2221 156.257 49.5632 152.522 40.318Z"
    fill="#FF3D00"
  />
</svg>
