<svg viewBox="0 0 300 300" xmlns="http://www.w3.org/2000/svg">
  <path
    d="M12.213 225.89L45.0077 193.096V213.341H88.2693C87.9974 213.076 87.7272 212.81 87.4586 212.541C79.2455 204.328 72.7305 194.578 68.2856 183.847C63.8408 173.116 61.553 161.615 61.553 150V149.997H61.5389V45.0061H41.293L74.0877 12.2114L106.883 45.0061H86.6372V88.2902C86.909 88.0111 87.1827 87.7338 87.4582 87.4582C95.6713 79.2452 105.422 72.7302 116.153 68.2854C126.883 63.8408 138.384 61.5531 149.998 61.553V61.5495H254.989V41.3036L287.784 74.0985L254.989 106.893V86.6473H211.719C211.995 86.9159 212.269 87.1863 212.541 87.4586C220.754 95.6717 227.269 105.422 231.714 116.153C236.159 126.884 238.446 138.385 238.446 150C238.446 150.743 238.437 151.484 238.418 152.225V254.989H258.664L225.869 287.784L193.075 254.989H213.32V211.751C213.062 212.016 212.802 212.279 212.541 212.541C195.954 229.128 173.457 238.446 150 238.446C149.634 238.446 149.268 238.444 148.902 238.439H45.0077V258.685L12.213 225.89ZM213.364 149.998C213.364 149.995 213.364 149.991 213.364 149.988C213.364 133.186 206.689 117.072 194.808 105.191C183.222 93.6043 167.61 86.9692 151.26 86.6473H149.998V86.635C133.201 86.6384 117.092 93.3127 105.214 105.191C93.3327 117.072 86.658 133.186 86.658 149.988C86.658 166.79 93.3327 182.904 105.214 194.785C117.095 206.666 133.209 213.341 150.011 213.341C166.813 213.341 182.927 206.666 194.808 194.785C206.133 183.461 212.728 168.29 213.32 152.343V149.998H213.364Z"
    fill="#0288D1"
  />
</svg>
