<svg
  width="260"
  height="260"
  viewBox="0 0 260 260"
  fill="none"
  xmlns="http://www.w3.org/2000/svg"
>
  <path
    d="M133.454 172.553L190.399 90.2184C190.856 89.5586 191.142 88.7975 191.232 88.0019C191.322 87.2065 191.215 86.4013 190.917 85.6577C190.621 84.9141 190.145 84.2551 189.53 83.739C188.916 83.2231 188.183 82.8659 187.397 82.6994L150.604 74.8972L152.883 29.4397C152.937 28.3814 152.642 27.3353 152.044 26.4599C151.445 25.5845 150.576 24.9277 149.568 24.5892C148.56 24.2506 147.468 24.2488 146.458 24.584C145.448 24.9192 144.575 25.5729 143.971 26.4464L87.0261 108.781C86.5698 109.441 86.2838 110.202 86.1933 110.998C86.1029 111.794 86.2108 112.599 86.5077 113.342C86.8046 114.086 87.2812 114.745 87.8953 115.261C88.5094 115.777 89.2419 116.134 90.0282 116.301L126.821 124.104L124.542 169.561C124.488 170.618 124.783 171.665 125.382 172.541C125.98 173.415 126.849 174.072 127.857 174.411C128.865 174.748 129.957 174.751 130.967 174.416C131.977 174.08 132.85 173.426 133.454 172.553Z"
    fill="#FFCA28"
  />
  <path
    d="M31.2605 114.337C64.414 147.489 97.589 180.616 130.743 213.767C163.898 180.616 197.073 147.489 230.226 114.337C232.395 112.204 235.318 111.014 238.359 111.026C241.402 111.038 244.315 112.252 246.465 114.403C248.615 116.554 249.83 119.467 249.843 122.509C249.854 125.551 248.664 128.474 246.531 130.642L138.919 238.251C137.85 239.324 136.579 240.173 135.18 240.753C133.781 241.333 132.282 241.628 130.767 241.627H130.72C129.206 241.628 127.706 241.333 126.307 240.753C124.909 240.173 123.638 239.324 122.568 238.251L14.9552 130.642C12.822 128.474 11.6319 125.551 11.6444 122.509C11.6568 119.467 12.8706 116.554 15.0214 114.403C17.1721 112.252 20.0857 111.038 23.1274 111.026C26.1689 111.014 29.0923 112.204 31.2605 114.337Z"
    fill="#FFCA28"
  />
</svg>
