<svg width="260" height="260" viewBox="0 0 260 260" fill="none" xmlns="http://www.w3.org/2000/svg">
<path d="M190.399 90.2184L133.454 172.553C132.85 173.426 131.977 174.08 130.967 174.416C129.957 174.751 128.865 174.748 127.857 174.411C126.849 174.072 125.98 173.415 125.382 172.541C124.783 171.665 124.488 170.618 124.542 169.561L126.821 124.104L90.0282 116.301C89.2419 116.134 88.5094 115.777 87.8953 115.261C87.2812 114.745 86.8045 114.086 86.5077 113.342C86.2108 112.599 86.1029 111.794 86.1933 110.998C86.2838 110.202 86.5698 109.441 87.0261 108.781L143.971 26.4464C144.575 25.5729 145.448 24.9192 146.458 24.584C147.468 24.2488 148.56 24.2506 149.568 24.5892C150.576 24.9277 151.445 25.5845 152.044 26.4599C152.642 27.3353 152.937 28.3814 152.883 29.4397L150.604 74.8972L187.397 82.6994C188.183 82.8659 188.916 83.2231 189.53 83.739C190.145 84.2551 190.621 84.9141 190.917 85.6577C191.215 86.4013 191.322 87.2065 191.232 88.0019C191.142 88.7975 190.856 89.5586 190.399 90.2184Z" fill="#FFCA28"/>
<path d="M84.5002 167.574L31.2605 114.337C29.0923 112.204 26.1689 111.014 23.1274 111.026C20.0857 111.038 17.1721 112.252 15.0214 114.403C12.8706 116.554 11.6568 119.467 11.6444 122.509C11.6319 125.551 12.822 128.474 14.9552 130.642L122.568 238.251C123.638 239.324 124.909 240.173 126.307 240.753C127.706 241.333 129.206 241.628 130.72 241.627C130.728 241.627 130.736 241.627 130.744 241.627C130.752 241.627 130.76 241.627 130.767 241.627C132.282 241.628 133.781 241.333 135.18 240.753C136.579 240.173 137.85 239.324 138.919 238.251L246.531 130.642C248.664 128.474 249.854 125.551 249.843 122.509C249.83 119.467 248.615 116.554 246.465 114.403C244.315 112.252 241.402 111.038 238.359 111.026C235.318 111.014 232.395 112.204 230.226 114.337L176.986 167.575C176.775 167.756 176.571 167.945 176.374 168.141L130.743 213.767L85.1133 168.141C84.9152 167.944 84.7106 167.755 84.5002 167.574Z" fill="#689F38"/>
</svg>
