<svg
  width="500"
  height="500"
  viewBox="0 0 500 500"
  fill="none"
  xmlns="http://www.w3.org/2000/svg"
>
  <path
    d="M168.208 69.274L65.278 59.359L65.281 59.354C58.752 58.724 55.252 63.225 57.472 69.398L186.97 429.513C189.026 435.233 195.296 439.954 201.424 440.616C201.89 440.674 202.374 440.703 202.876 440.703H303.067C303.167 440.703 303.268 440.701 303.369 440.696H303.699C304.865 440.696 305.842 440.379 306.568 439.831C308.581 438.838 310.307 437.095 311.02 435.111L311.64 433.372L442.525 69.402C444.745 63.229 441.245 58.728 434.716 59.358L331.786 69.273C325.257 69.903 318.204 75.443 316.047 81.636L250.171 270.785L183.965 81.632C181.798 75.441 174.737 69.904 168.208 69.274Z"
    fill="#039BE5"
  />
</svg>
