<svg viewBox="0 0 24 24" fill="none" xmlns="http://www.w3.org/2000/svg">
  <path
    d="M14 2H6C4.89 2 4 2.89 4 4V20C4 20.5304 4.21071 21.0391 4.58579 21.4142C4.96086 21.7893 5.46957 22 6 22H16.7137L14.3961 18H6V16H13.2373L12.0785 14H6V12H18V14H17.7507L18.0011 14.4319L19.1089 12.5291L20 12.5289V8L14 2ZM18.5 9H13V3.5L18.5 9Z"
    fill="#41B883"
  />
  <path
    d="M12.0937 13.029L17.9521 23.1401L23.8104 13.0778V13.0284L19.3964 13.029L18.0003 15.4271L16.6093 13.0284L12.0937 13.029Z"
    fill="#41B883"
  />
</svg>
