<svg viewBox="0 0 32 32" xmlns="http://www.w3.org/2000/svg">
  <path
    d="M20.5179 17.6136C20.8783 17.2935 21.1768 16.4439 21.4643 15.6255C21.6462 15.1078 21.8237 14.6025 22.0097 14.2516C22.2598 13.7799 22.8377 13.3054 23.4553 12.7982C24.7759 11.7138 26.2781 10.4802 25.146 8.80637C24.3323 7.60316 23.7557 7.20609 23.2619 6.866C22.8149 6.55815 22.4357 6.297 22.0097 5.52687C21.1692 4.07363 20.9374 3.76255 18.8559 3.76255C18.0334 3.51869 17.2575 3.1388 16.5605 2.63864C15.9815 2.19129 15.2619 1.96532 14.5311 2.00142C14.2708 2.00142 14.0236 2.00103 13.7886 2.00066C10.5874 1.99559 9.65396 1.99411 8.80234 3.03529C8.68688 3.07267 8.5709 3.09273 8.45347 3.08372C7.55695 2.97189 7.01604 3.5569 5.95147 5.51323C5.42594 6.48104 4.77362 6.8984 4.25405 7.23083C3.40811 7.77209 2.91405 8.08819 3.89198 10.1883C3.73541 10.2753 3.60342 10.3771 3.49684 10.4919C4.89202 9.5956 7.42179 10.4718 7.83693 11.3C8.22915 11.9707 6.212 14.3741 4.81122 13.7593C4.63934 13.6814 4.47183 13.5784 4.31247 13.4573C4.45246 13.7271 4.5514 14.0179 4.60457 14.3202C4.70387 14.8848 4.63947 15.466 4.41899 15.9951C3.89194 17.0466 4.35635 18.9881 6.13849 18.7035C6.52301 18.6771 6.96424 18.4927 7.44637 18.0911C7.9754 18.6636 8.66915 19.0612 9.43471 19.2269C10.0891 20.2413 9.93956 21.8282 9.81905 23.107C9.79098 23.4048 9.76449 23.686 9.75009 23.9393C11.078 24.5277 12.5218 24.8082 13.9735 24.7598C15.4305 24.7112 16.8573 24.3326 18.1467 23.6524C21.3405 21.9198 21.9337 19.9209 21.5975 19.5295L21.6017 19.5294C21.2031 18.8675 20.8364 18.223 20.5179 17.6136ZM4.93289 13.8342C4.9525 13.8696 4.97127 13.9054 4.98919 13.9417C4.98936 13.9124 4.98937 13.883 4.98923 13.8536C4.97023 13.8477 4.95144 13.8413 4.93289 13.8342ZM8.65147 9.01729C8.54543 9.01787 8.44034 8.99744 8.34224 8.95719C8.24415 8.91694 8.15499 8.85766 8.07992 8.78278C8.00485 8.70789 7.94535 8.61888 7.90486 8.52089C7.86437 8.42289 7.84368 8.31784 7.844 8.21181V6.33237C7.844 6.11822 7.92907 5.91284 8.0805 5.7614C8.23193 5.60997 8.43731 5.5249 8.65147 5.5249C8.86562 5.5249 9.071 5.60997 9.22243 5.7614C9.37386 5.91284 9.45894 6.11822 9.45894 6.33237V8.21181C9.45925 8.31784 9.43856 8.42289 9.39807 8.52089C9.35758 8.61888 9.29808 8.70789 9.22301 8.78278C9.14794 8.85766 9.05879 8.91694 8.96069 8.95719C8.86259 8.99744 8.7575 9.01787 8.65147 9.01729ZM13.3909 8.77938C13.2384 8.62725 13.1523 8.42091 13.1516 8.20551V6.33851C13.1516 6.1227 13.2373 5.91572 13.3899 5.76312C13.5425 5.61051 13.7495 5.52478 13.9653 5.52478C14.1812 5.52478 14.3881 5.61051 14.5407 5.76312C14.6933 5.91572 14.7791 6.1227 14.7791 6.33851V8.28667C14.761 8.4888 14.667 8.67657 14.516 8.81214C14.365 8.94771 14.1682 9.02099 13.9653 9.01722C13.7499 9.01702 13.5434 8.9315 13.3909 8.77938Z"
    fill="#E65100"
  />
  <path
    d="M8.60037 29.985L9.52713 25.6588C9.57273 25.9197 9.6708 26.1658 9.85087 26.3593C10.6353 27.1418 14.0564 27.9563 18.4829 26.1677C21.2868 25.0023 22.7827 23.535 23.4154 22.3619C26.0605 26.2934 29.0001 29.985 29.0001 29.985L13.9964 29.9851C14.005 29.9903 14.0136 29.9953 14.0222 30L8.60037 29.985Z"
    fill="#E65100"
  />
</svg>
