<svg viewBox="0 0 300 300" xmlns="http://www.w3.org/2000/svg">
  <path
    d="M208.282 180.368L201.326 211.656H222.975L214.991 180.368H208.282Z"
    fill="#7C4DFF"
  />
  <path
    d="M177.552 29.65C177.574 30.0821 177.574 30.5151 177.552 30.9472C177.552 34.5715 176.838 38.1603 175.451 41.5086C174.064 44.857 172.031 47.8995 169.469 50.4622C164.293 55.6379 157.273 58.5456 149.954 58.5456C146.332 58.5427 142.747 57.8265 139.403 56.4379C136.058 55.0494 133.02 53.0157 130.461 50.453C127.902 47.8902 125.874 44.8486 124.491 41.5018C123.107 38.155 122.397 34.5685 122.4 30.9472C122.378 30.5151 122.378 30.0821 122.4 29.65L29.6523 29.65V270.342H270.344V29.65H177.552ZM144.519 244.578L132.777 186.585H132.576L119.917 244.578H103.77L85.4754 159.367H101.422L112.336 217.382H112.537L125.688 159.367H140.605L152.414 218.098H152.637L165.072 159.367H180.728L160.398 244.578H144.519ZM232.324 244.578L226.889 225.612H198.195L194.013 244.578H178.066L198.687 159.367H223.848L248.919 244.578H232.324Z"
    fill="#7C4DFF"
  />
</svg>
