<svg viewBox="0 0 108 108" xmlns="http://www.w3.org/2000/svg">
  <path
    d="M54.0001 10.994C42.5942 10.994 31.6555 15.525 23.5903 23.5902C15.5251 31.6554 10.9941 42.5941 10.9941 54V90.951C10.9941 94.306 13.6941 97.007 17.0501 97.007H53.9981C53.9991 97.007 54.0001 97.007 54.0011 97.007C59.6489 97.007 65.2413 95.8946 70.4591 93.7333C75.6769 91.572 80.4178 88.4041 84.4113 84.4105C88.4048 80.4169 91.5726 75.6759 93.7338 70.458C95.895 65.2402 97.0073 59.6477 97.0071 54C97.007 48.3524 95.8945 42.7601 93.7331 37.5424C91.5717 32.3247 88.4038 27.5839 84.4103 23.5905C80.4167 19.5971 75.6757 16.4294 70.4579 14.2683C65.2401 12.1071 59.6478 10.9939 54.0001 10.994ZM54.0001 22.343C62.3961 22.343 70.4482 25.6783 76.385 31.6151C82.3219 37.552 85.6571 45.6041 85.6571 54C85.6571 62.396 82.3219 70.4481 76.385 76.3849C70.4482 82.3217 62.3961 85.657 54.0001 85.657C45.6042 85.657 37.5521 82.3217 31.6153 76.3849C25.6784 70.4481 22.3431 62.396 22.3431 54C22.3431 45.6041 25.6784 37.552 31.6153 31.6151C37.5521 25.6783 45.6042 22.343 54.0001 22.343Z"
    fill="#4CAF50"
  />
</svg>
