<svg
  width="24"
  height="24"
  viewBox="0 0 24 24"
  fill="none"
  xmlns="http://www.w3.org/2000/svg"
>
  <path
    d="M22.1155 11.9779C22.1161 13.6918 21.6811 15.3776 20.8512 16.8772C20.0213 18.3767 18.8238 19.6406 17.3713 20.5502C17.3701 20.5514 17.3685 20.5522 17.3668 20.5525L13.8978 16.2296L16.7717 16.5461C16.7717 16.5461 18.1517 16.6889 18.4661 16.5461C18.7537 16.4324 20.3053 14.2476 20.3053 14.2476C20.3053 14.2476 15.8508 11.4319 14.3282 9.88016C14.5021 7.26506 14.1276 3.78706 14.1276 3.81603C13.0062 4.93528 12.8634 5.10909 11.7421 6.1435C11.2538 4.56292 11.0241 4.01675 10.536 2.43605C9.0689 3.64209 7.94977 5.68436 7.14494 8.06989C6.96544 8.26846 6.79438 8.4745 6.63222 8.68746C6.52138 8.83309 6.41356 8.981 6.30883 9.13109C6.08819 9.44557 5.88071 9.76907 5.6869 10.1008C5.5445 10.3425 5.40698 10.5871 5.27442 10.8343C4.34026 12.589 3.57336 14.6 2.90901 16.4102C2.90441 16.4033 2.90067 16.3958 2.89786 16.3879C1.08104 12.6411 1.74612 8.16371 4.57322 5.10655C7.40045 2.04927 11.8121 1.03704 15.6894 2.55568C19.5667 4.07445 22.1169 7.8139 22.1155 11.9779Z"
    fill="#E53935"
  />
  <path
    d="M12.2878 8.38407C12.2878 8.38407 12.1161 7.37863 12.0001 7.00627C12.776 6.2572 12.8919 6.1435 13.6389 5.42557C13.6967 6.86131 13.6677 7.6082 13.5808 9.36272C13.1505 8.93024 12.2878 8.38407 12.2878 8.38407ZM8.92575 13.3268C8.92575 13.3268 8.12092 12.8385 7.51681 12.7538C7.69074 12.3502 8.15001 11.833 8.26589 11.6903C8.03401 11.7752 6.36871 12.5219 6.19477 13.155C6.66632 13.2709 7.1278 13.4246 7.57475 13.6144C6.97415 14.298 6.60234 15.1523 6.51137 16.0578C6.51137 16.0578 9.15545 15.6542 11.1397 15.9129C11.174 15.9333 11.2133 15.9432 11.2533 15.9419L12.2878 15.9708L15.5738 21.4419L15.6007 21.4843C15.5962 21.4865 15.5939 21.4887 15.5917 21.4887C9.39386 23.7293 4.91491 19.6048 3.95857 18.1624C3.96257 18.1501 3.9656 18.1375 3.96754 18.1246C4.82813 14.4861 5.88932 10.132 7.60372 8.84576C8.49546 7.29184 8.754 4.99334 10.3615 3.78718C10.765 4.99322 11.3982 7.49475 11.8285 8.70079C13.7258 10.5981 16.5993 12.9545 18.5234 13.931C18.724 14.0469 18.9827 14.8517 18.9827 14.8517L18.2068 15.8282L9.93119 14.9944C9.74654 14.9792 9.56133 14.9717 9.37605 14.9721C8.80104 14.9801 8.22765 15.0353 7.66165 15.137C8.06286 14.1316 8.92575 13.3268 8.92575 13.3268ZM11.5988 12.2633C12.0581 12.2075 12.5463 12.3793 13.0925 12.6959C13.6097 12.5509 13.6676 12.5219 14.1849 12.3793C13.5228 11.891 12.805 11.3738 11.8284 11.5165C11.7349 11.7599 11.6583 12.0094 11.5988 12.2633Z"
    fill="#E53935"
  />
</svg>
