<svg viewBox="0 0 32 32" xmlns="http://www.w3.org/2000/svg">
  <path
    d="M22 20H10.5C10.3674 20 10.2402 19.9473 10.1464 19.8536C10.0527 19.7598 10 19.6326 10 19.5V18.5C10 18.3674 10.0527 18.2402 10.1464 18.1464C10.2402 18.0527 10.3674 18 10.5 18H22V11.5514C20.9061 10.5546 19.4799 10.0015 18 10H16C15.1571 9.99989 14.3237 10.178 13.5545 10.5227C12.7853 10.8674 12.0977 11.3708 11.5368 12H10C8.93913 12 7.92172 12.4214 7.17157 13.1716C6.42143 13.9217 6 14.9391 6 16C4.93913 16 3.92172 16.4214 3.17157 17.1716C2.42143 17.9217 2 18.9391 2 20V21.5C2 21.6326 2.05268 21.7598 2.14645 21.8536C2.24021 21.9473 2.36739 22 2.5 22H22V20Z"
    fill="#F57F17"
  />
  <path
    d="M24 14V18H25.5C25.6326 18 25.7598 18.0527 25.8536 18.1464C25.9473 18.2402 26 18.3674 26 18.5V19.5C26 19.6326 25.9473 19.7598 25.8536 19.8536C25.7598 19.9473 25.6326 20 25.5 20H24V22H29.5C29.6326 22 29.7598 21.9473 29.8536 21.8536C29.9473 21.7598 30 21.6326 30 21.5V20C30 18.4087 29.3679 16.8826 28.2426 15.7574C27.1174 14.6321 25.5913 14 24 14Z"
    fill="#F57F17"
  />
</svg>
