<svg viewBox="0 0 16 16" xmlns="http://www.w3.org/2000/svg">
  <path
    d="M14 8.90002C14.1165 10.0361 13.1464 10.9429 12 11V13C12 13.6628 11.6627 14 11 14H8V13C8 11.4794 6 11.6599 6 13V14H3C2.33726 14 2 13.6628 2 13V10H3C3 10 4 9.90002 4 9.00002C4 8.10002 3 8.00002 3 8.00002H2V5.00002C2 4.33728 2.33726 4.00002 3 4.00002H5C5.02506 2.94042 5.88505 2.00522 7 2.00002C8.1225 1.99478 8.9962 2.92996 9 4.00002H11C11.6627 4.00002 12 4.33728 12 5.00002V7.00002C13.0819 7.06661 14.1166 7.79825 14 9.00002M11 10H12C12.4971 10 13 9.49708 13 9.00002C13 8.50296 12.4971 8.00002 12 8.00002H11V5.00002H8V4.00002C8 3.50296 7.49706 3.00002 7 3.00002C6.50294 3.00002 6 3.50296 6 4.00002V5.00002H3V7.00002C4.148 7.34112 4.9798 7.74365 5 9.00002C5.01971 10.2256 4.29293 10.6659 3 11V13H5C5.15626 11.5476 6.0546 11.0525 7 11C7.9998 10.9445 9.098 11.6954 9 13H11V10Z"
    fill="#00C853"
  />
</svg>
